ISO-10303-21;
HEADER;
FILE_DESCRIPTION(('STEP AP203'),
    '1');
FILE_NAME('Деталь',
    '',
    ('UNSPECIFIED'),
    ('UNSPECIFIED'),
    'C3D Converter',
    'C3D Toolkit',
    '');
FILE_SCHEMA(('CONFIG_CONTROL_DESIGN'));
ENDSEC;

DATA;
#1=PRODUCT_DEFINITION('','UNSPECIFIED',#28,#31);
#2=SHAPE_DEFINITION_REPRESENTATION(#26,#3);
#3=SHAPE_REPRESENTATION('NONE',(#4),#8);
#4=AXIS2_PLACEMENT_3D('',#5,#6,#7);
#5=CARTESIAN_POINT('',(0.,0.,0.));
#6=DIRECTION('',(0.,0.,1.));
#7=DIRECTION('',(1.,0.,0.));
#8=(GEOMETRIC_REPRESENTATION_CONTEXT(3)GLOBAL_UNCERTAINTY_ASSIGNED_CONTEXT((#10))
GLOBAL_UNIT_ASSIGNED_CONTEXT((#9,#11,#12))REPRESENTATION_CONTEXT('NONE','NONE'));
#9=(LENGTH_UNIT()NAMED_UNIT(*)SI_UNIT(.MILLI.,.METRE.));
#10=UNCERTAINTY_MEASURE_WITH_UNIT(LENGTH_MEASURE(1.E-5),#9,'NONE','NONE');
#11=(NAMED_UNIT(*)PLANE_ANGLE_UNIT()SI_UNIT($,.RADIAN.));
#12=(NAMED_UNIT(*)SI_UNIT($,.STERADIAN.)SOLID_ANGLE_UNIT());
#13=MANIFOLD_SOLID_BREP('',#14);
#14=CLOSED_SHELL('',(#53,#54,#55,#56,#57,#58,#59,#60,#61,#62,#63,#64,#65,#66,#67,
#68,#69,#70,#71,#72,#73,#74,#75,#76,#77,#78,#79,#80));
#15=COLOUR_RGB('',0.564705882352941,0.564705882352941,0.564705882352941);
#16=FILL_AREA_STYLE_COLOUR('',#15);
#17=FILL_AREA_STYLE($,(#16));
#18=SURFACE_STYLE_FILL_AREA(#17);
#19=SURFACE_SIDE_STYLE('',(#18));
#20=SURFACE_STYLE_USAGE(.BOTH.,#19);
#21=PRESENTATION_STYLE_ASSIGNMENT((#20));
#22=MECHANICAL_DESIGN_GEOMETRIC_PRESENTATION_REPRESENTATION('NONE',(#23),#8);
#23=STYLED_ITEM('',(#21),#13);
#24=ADVANCED_BREP_SHAPE_REPRESENTATION('NONE',(#13),#8);
#25=SHAPE_REPRESENTATION_RELATIONSHIP('','',#3,#24);
#26=PRODUCT_DEFINITION_SHAPE('NONE','NONE',#1);
#27=MECHANICAL_CONTEXT('NONE',#32,'mechanical');
#28=PRODUCT_DEFINITION_FORMATION_WITH_SPECIFIED_SOURCE('ANY','UNSPECIFIED',#29,.NOT_KNOWN.);
#29=PRODUCT('','\X2\0414043504420430043B044C\X0\','NONE',(#27));
#30=PRODUCT_RELATED_PRODUCT_CATEGORY('detail','',(#29));
#31=DESIGN_CONTEXT('detailed design',#32,'design');
#32=APPLICATION_CONTEXT('configuration controlled 3d designs of mechanical parts and assemblies');
#33=APPLICATION_PROTOCOL_DEFINITION('international standard','config_control_design',
1994,#32);
#34=CC_DESIGN_DATE_AND_TIME_ASSIGNMENT(#35,#39,(#1));
#35=DATE_AND_TIME(#36,#37);
#36=CALENDAR_DATE(0,1,1);
#37=LOCAL_TIME(0,0,0.,#38);
#38=COORDINATED_UNIVERSAL_TIME_OFFSET(0,0,.AHEAD.);
#39=DATE_TIME_ROLE('creation_date');
#40=CC_DESIGN_APPROVAL(#41,(#1));
#41=APPROVAL(#42,'UNSPECIFIED');
#42=APPROVAL_STATUS('not_yet_approved');
#43=APPROVAL_DATE_TIME(#44,#41);
#44=DATE_AND_TIME(#45,#46);
#45=CALENDAR_DATE(0,1,1);
#46=LOCAL_TIME(0,0,0.,#47);
#47=COORDINATED_UNIVERSAL_TIME_OFFSET(0,0,.AHEAD.);
#48=PERSON('UNSPECIFIED','grigo','UNSPECIFIED',('UNSPECIFIED'),('UNSPECIFIED'),(
'UNSPECIFIED'));
#49=ORGANIZATION('UNSPECIFIED','UNSPECIFIED','UNSPECIFIED');
#50=PERSON_AND_ORGANIZATION(#48,#49);
#51=PERSON_AND_ORGANIZATION_ROLE('creator');
#52=CC_DESIGN_PERSON_AND_ORGANIZATION_ASSIGNMENT(#50,#51,(#28,#1));
#53=ADVANCED_FACE('',(#81,#83),#85,.F.);
#54=ADVANCED_FACE('',(#90),#92,.T.);
#55=ADVANCED_FACE('',(#97),#99,.T.);
#56=ADVANCED_FACE('',(#104),#106,.T.);
#57=ADVANCED_FACE('',(#111),#113,.T.);
#58=ADVANCED_FACE('',(#118),#120,.T.);
#59=ADVANCED_FACE('',(#125),#127,.T.);
#60=ADVANCED_FACE('',(#132),#134,.T.);
#61=ADVANCED_FACE('',(#139),#141,.T.);
#62=ADVANCED_FACE('',(#146),#148,.T.);
#63=ADVANCED_FACE('',(#153),#155,.T.);
#64=ADVANCED_FACE('',(#160),#162,.T.);
#65=ADVANCED_FACE('',(#167),#169,.T.);
#66=ADVANCED_FACE('',(#174),#176,.T.);
#67=ADVANCED_FACE('',(#181),#183,.T.);
#68=ADVANCED_FACE('',(#188),#190,.T.);
#69=ADVANCED_FACE('',(#195),#197,.T.);
#70=ADVANCED_FACE('',(#202),#204,.T.);
#71=ADVANCED_FACE('',(#209),#211,.T.);
#72=ADVANCED_FACE('',(#216),#218,.T.);
#73=ADVANCED_FACE('',(#223),#225,.T.);
#74=ADVANCED_FACE('',(#230,#232),#234,.T.);
#75=ADVANCED_FACE('',(#239,#241),#243,.F.);
#76=ADVANCED_FACE('',(#248,#250),#252,.F.);
#77=ADVANCED_FACE('',(#257,#259),#261,.T.);
#78=ADVANCED_FACE('',(#266,#268),#270,.T.);
#79=ADVANCED_FACE('',(#275,#277),#279,.T.);
#80=ADVANCED_FACE('',(#284,#286),#288,.F.);
#81=FACE_BOUND('',#82,.T.);
#82=EDGE_LOOP('',(#293,#294,#295,#296,#297,#298,#299,#300,#301,#302,#303,#304,#305,
#306,#307,#308,#309,#310,#311,#312,#313,#314,#315,#316,#317,#318,#319,#320,#321,
#322,#323,#324,#325,#326,#327,#328,#329,#330,#331,#332));
#83=FACE_OUTER_BOUND('',#84,.T.);
#84=EDGE_LOOP('',(#333));
#85=CYLINDRICAL_SURFACE('',#86,11.);
#86=AXIS2_PLACEMENT_3D('',#87,#88,#89);
#87=CARTESIAN_POINT('',(0.,0.,0.));
#88=DIRECTION('',(0.,-1.,-6.12323399573677E-17));
#89=DIRECTION('',(-0.394197098702479,-5.62741077543833E-17,0.919025923124341));
#90=FACE_BOUND('',#91,.T.);
#91=EDGE_LOOP('',(#334,#335,#336,#337));
#92=PLANE('',#93);
#93=AXIS2_PLACEMENT_3D('',#94,#95,#96);
#94=CARTESIAN_POINT('',(-2.43405505313696,-6.56858852602558E-16,10.7273191431177));
#95=DIRECTION('',(-0.951056516295153,1.96044446946017E-17,-0.309016994374948));
#96=DIRECTION('',(-0.309016994374948,-5.82354159244546E-17,0.951056516295153));
#97=FACE_BOUND('',#98,.T.);
#98=EDGE_LOOP('',(#338,#339,#340,#341));
#99=PLANE('',#100);
#100=AXIS2_PLACEMENT_3D('',#101,#102,#103);
#101=CARTESIAN_POINT('',(2.89927539298808,-7.44531377029722E-16,12.1591201242365));
#102=DIRECTION('',(0.951056516295154,1.96044446946016E-17,-0.309016994374947));
#103=DIRECTION('',(-0.309016994374947,5.82354159244546E-17,-0.951056516295154));
#104=FACE_BOUND('',#105,.T.);
#105=EDGE_LOOP('',(#342,#343,#344,#345));
#106=PLANE('',#107);
#107=AXIS2_PLACEMENT_3D('',#108,#109,#110);
#108=CARTESIAN_POINT('',(4.33616808572727,-6.19015185298217E-16,10.1092851543678));
#109=DIRECTION('',(-0.951056516295154,-1.96044446946016E-17,0.309016994374947));
#110=DIRECTION('',(0.309016994374947,-5.82354159244546E-17,0.951056516295154));
#111=FACE_BOUND('',#112,.T.);
#112=EDGE_LOOP('',(#346,#347,#348,#349));
#113=PLANE('',#114);
#114=AXIS2_PLACEMENT_3D('',#115,#116,#117);
#115=CARTESIAN_POINT('',(9.49251455417932,-4.97989363999472E-16,8.13278349882092));
#116=DIRECTION('',(0.587785252292472,5.13251025410348E-17,-0.809016994374948));
#117=DIRECTION('',(-0.809016994374948,3.59914663902998E-17,-0.587785252292472));
#118=FACE_BOUND('',#119,.T.);
#119=EDGE_LOOP('',(#350,#351,#352,#353));
#120=PLANE('',#121);
#121=AXIS2_PLACEMENT_3D('',#122,#123,#124);
#122=CARTESIAN_POINT('',(9.45012239677625,-3.44728756762271E-16,5.62984783861411));
#123=DIRECTION('',(-0.587785252292473,-5.13251025410347E-17,0.809016994374948));
#124=DIRECTION('',(0.809016994374948,-3.59914663902998E-17,0.587785252292473));
#125=FACE_BOUND('',#126,.T.);
#126=EDGE_LOOP('',(#354,#355,#356,#357));
#127=PLANE('',#128);
#128=AXIS2_PLACEMENT_3D('',#129,#130,#131);
#129=CARTESIAN_POINT('',(12.4599357943771,-6.12323399573677E-17,1.));
#130=DIRECTION('',(5.19417180667545E-49,6.34413156928661E-17,-1.));
#131=DIRECTION('',(-1.,8.18736457456467E-33,0.));
#132=FACE_BOUND('',#133,.T.);
#133=EDGE_LOOP('',(#358,#359,#360,#361));
#134=PLANE('',#135);
#135=AXIS2_PLACEMENT_3D('',#136,#137,#138);
#136=CARTESIAN_POINT('',(10.9544511501033,6.12323399573676E-17,-0.999999999999999));
#137=DIRECTION('',(-7.37452240943117E-17,-5.9476233462062E-17,1.));
#138=DIRECTION('',(1.,-8.18736457456467E-33,7.37452240943117E-17));
#139=FACE_BOUND('',#140,.T.);
#140=EDGE_LOOP('',(#362,#363,#364,#365));
#141=PLANE('',#142);
#142=AXIS2_PLACEMENT_3D('',#143,#144,#145);
#143=CARTESIAN_POINT('',(10.6680850587643,3.98913356737763E-16,-6.51474951007102));
#144=DIRECTION('',(-0.587785252292473,5.13251025410347E-17,-0.809016994374948));
#145=DIRECTION('',(-0.809016994374948,-3.59914663902998E-17,0.587785252292473));
#146=FACE_BOUND('',#147,.T.);
#147=EDGE_LOOP('',(#366,#367,#368,#369));
#148=PLANE('',#149);
#149=AXIS2_PLACEMENT_3D('',#150,#151,#152);
#150=CARTESIAN_POINT('',(8.2745518921913,4.4380476402398E-16,-7.247881827364));
#151=DIRECTION('',(0.587785252292474,-5.13251025410347E-17,0.809016994374947));
#152=DIRECTION('',(0.809016994374947,3.59914663902999E-17,-0.587785252292474));
#153=FACE_BOUND('',#154,.T.);
#154=EDGE_LOOP('',(#370,#371,#372,#373));
#155=PLANE('',#156);
#156=AXIS2_PLACEMENT_3D('',#157,#158,#159);
#157=CARTESIAN_POINT('',(4.8013884255784,7.06687709725381E-16,-11.5410861354866));
#158=DIRECTION('',(-0.951056516295153,1.96044446946017E-17,-0.309016994374948));
#159=DIRECTION('',(-0.309016994374948,-5.82354159244546E-17,0.951056516295153));
#160=FACE_BOUND('',#161,.T.);
#161=EDGE_LOOP('',(#374,#375,#376,#377));
#162=PLANE('',#163);
#163=AXIS2_PLACEMENT_3D('',#164,#165,#166);
#164=CARTESIAN_POINT('',(2.43405505313696,6.56858852602558E-16,-10.7273191431177));
#165=DIRECTION('',(0.951056516295153,-1.96044446946017E-17,0.309016994374948));
#166=DIRECTION('',(0.309016994374948,5.82354159244546E-17,-0.951056516295153));
#167=FACE_BOUND('',#168,.T.);
#168=EDGE_LOOP('',(#378,#379,#380,#381));
#169=PLANE('',#170);
#170=AXIS2_PLACEMENT_3D('',#171,#172,#173);
#171=CARTESIAN_POINT('',(-2.89927539298808,7.44531377029722E-16,-12.1591201242365));
#172=DIRECTION('',(-0.951056516295154,-1.96044446946016E-17,0.309016994374947));
#173=DIRECTION('',(0.309016994374947,-5.82354159244546E-17,0.951056516295154));
#174=FACE_BOUND('',#175,.T.);
#175=EDGE_LOOP('',(#382,#383,#384,#385));
#176=PLANE('',#177);
#177=AXIS2_PLACEMENT_3D('',#178,#179,#180);
#178=CARTESIAN_POINT('',(-4.33616808572727,6.19015185298217E-16,-10.1092851543678));
#179=DIRECTION('',(0.951056516295154,1.96044446946016E-17,-0.309016994374947));
#180=DIRECTION('',(-0.309016994374947,5.82354159244546E-17,-0.951056516295154));
#181=FACE_BOUND('',#182,.T.);
#182=EDGE_LOOP('',(#386,#387,#388,#389));
#183=PLANE('',#184);
#184=AXIS2_PLACEMENT_3D('',#185,#186,#187);
#185=CARTESIAN_POINT('',(-9.49251455417932,4.97989363999472E-16,-8.13278349882092));
#186=DIRECTION('',(-0.587785252292472,-5.13251025410348E-17,0.809016994374948));
#187=DIRECTION('',(0.809016994374948,-3.59914663902998E-17,0.587785252292472));
#188=FACE_BOUND('',#189,.T.);
#189=EDGE_LOOP('',(#390,#391,#392,#393));
#190=PLANE('',#191);
#191=AXIS2_PLACEMENT_3D('',#192,#193,#194);
#192=CARTESIAN_POINT('',(-9.45012239677625,3.44728756762271E-16,-5.62984783861411));
#193=DIRECTION('',(0.587785252292473,5.13251025410347E-17,-0.809016994374948));
#194=DIRECTION('',(-0.809016994374948,3.59914663902998E-17,-0.587785252292473));
#195=FACE_BOUND('',#196,.T.);
#196=EDGE_LOOP('',(#394,#395,#396,#397));
#197=PLANE('',#198);
#198=AXIS2_PLACEMENT_3D('',#199,#200,#201);
#199=CARTESIAN_POINT('',(-12.4599357943771,6.12323399573677E-17,-1.));
#200=DIRECTION('',(-4.54490033084102E-49,-5.55111512312578E-17,1.));
#201=DIRECTION('',(1.,-8.18736457456467E-33,0.));
#202=FACE_BOUND('',#203,.T.);
#203=EDGE_LOOP('',(#398,#399,#400,#401));
#204=PLANE('',#205);
#205=AXIS2_PLACEMENT_3D('',#206,#207,#208);
#206=CARTESIAN_POINT('',(-10.9544511501033,-6.12323399573676E-17,0.999999999999999));
#207=DIRECTION('',(7.37452240943117E-17,6.34413156928661E-17,-1.));
#208=DIRECTION('',(-1.,8.18736457456467E-33,-7.37452240943117E-17));
#209=FACE_BOUND('',#210,.T.);
#210=EDGE_LOOP('',(#402,#403,#404,#405));
#211=PLANE('',#212);
#212=AXIS2_PLACEMENT_3D('',#213,#214,#215);
#213=CARTESIAN_POINT('',(-10.6680850587643,-3.98913356737763E-16,6.51474951007102));
#214=DIRECTION('',(0.587785252292473,-5.13251025410347E-17,0.809016994374948));
#215=DIRECTION('',(0.809016994374948,3.59914663902998E-17,-0.587785252292473));
#216=FACE_BOUND('',#217,.T.);
#217=EDGE_LOOP('',(#406,#407,#408,#409));
#218=PLANE('',#219);
#219=AXIS2_PLACEMENT_3D('',#220,#221,#222);
#220=CARTESIAN_POINT('',(-8.2745518921913,-4.4380476402398E-16,7.247881827364));
#221=DIRECTION('',(-0.587785252292474,5.13251025410347E-17,-0.809016994374947));
#222=DIRECTION('',(-0.809016994374947,-3.59914663902999E-17,0.587785252292474));
#223=FACE_BOUND('',#224,.T.);
#224=EDGE_LOOP('',(#410,#411,#412,#413));
#225=PLANE('',#226);
#226=AXIS2_PLACEMENT_3D('',#227,#228,#229);
#227=CARTESIAN_POINT('',(-4.8013884255784,-7.06687709725381E-16,11.5410861354866));
#228=DIRECTION('',(0.951056516295153,-1.96044446946017E-17,0.309016994374948));
#229=DIRECTION('',(0.309016994374948,5.82354159244546E-17,-0.951056516295153));
#230=FACE_BOUND('',#231,.T.);
#231=EDGE_LOOP('',(#414,#415,#416,#417,#418,#419,#420,#421,#422,#423,#424,#425,#426,
#427,#428,#429,#430,#431,#432,#433,#434,#435,#436,#437,#438,#439,#440,#441,#442,
#443,#444,#445,#446,#447,#448,#449,#450,#451,#452,#453));
#232=FACE_OUTER_BOUND('',#233,.T.);
#233=EDGE_LOOP('',(#454));
#234=CYLINDRICAL_SURFACE('',#235,12.5);
#235=AXIS2_PLACEMENT_3D('',#236,#237,#238);
#236=CARTESIAN_POINT('',(0.,0.,0.));
#237=DIRECTION('',(0.,1.,6.12323399573677E-17));
#238=DIRECTION('',(-0.231942031439047,-5.95625101623777E-17,0.972729609938922));
#239=FACE_BOUND('',#240,.T.);
#240=EDGE_LOOP('',(#455));
#241=FACE_BOUND('',#242,.T.);
#242=EDGE_LOOP('',(#456,#457,#458,#459,#460,#461,#462,#463,#464,#465,#466,#467,#468,
#469,#470,#471,#472,#473,#474,#475,#476,#477,#478,#479,#480,#481,#482,#483,#484,
#485,#486,#487,#488,#489,#490,#491,#492,#493,#494,#495));
#243=PLANE('',#244);
#244=AXIS2_PLACEMENT_3D('',#245,#246,#247);
#245=CARTESIAN_POINT('',(0.,28.,1.71450551880629E-15));
#246=DIRECTION('',(0.,1.,6.12323399573677E-17));
#247=DIRECTION('',(6.12323399573677E-17,6.12323399573677E-17,-1.));
#248=FACE_BOUND('',#249,.T.);
#249=EDGE_LOOP('',(#496,#497,#498,#499,#500,#501,#502,#503,#504,#505,#506,#507,#508,
#509,#510,#511,#512,#513,#514,#515,#516,#517,#518,#519,#520,#521,#522,#523,#524,
#525,#526,#527,#528,#529,#530,#531,#532,#533,#534,#535));
#250=FACE_BOUND('',#251,.T.);
#251=EDGE_LOOP('',(#536));
#252=PLANE('',#253);
#253=AXIS2_PLACEMENT_3D('',#254,#255,#256);
#254=CARTESIAN_POINT('',(0.,0.,0.));
#255=DIRECTION('',(1.22464679914735E-16,-1.,-6.12323399573677E-17));
#256=DIRECTION('',(-6.12323399573677E-17,6.12323399573676E-17,-1.));
#257=FACE_BOUND('',#258,.T.);
#258=EDGE_LOOP('',(#537));
#259=FACE_BOUND('',#260,.T.);
#260=EDGE_LOOP('',(#538));
#261=PLANE('',#262);
#262=AXIS2_PLACEMENT_3D('',#263,#264,#265);
#263=CARTESIAN_POINT('',(0.,30.,1.83697019872103E-15));
#264=DIRECTION('',(0.,1.,6.12323399573677E-17));
#265=DIRECTION('',(6.12323399573677E-17,6.12323399573677E-17,-1.));
#266=FACE_BOUND('',#267,.T.);
#267=EDGE_LOOP('',(#539));
#268=FACE_BOUND('',#269,.T.);
#269=EDGE_LOOP('',(#540));
#270=PLANE('',#271);
#271=AXIS2_PLACEMENT_3D('',#272,#273,#274);
#272=CARTESIAN_POINT('',(2.44929359829471E-16,-2.,-1.22464679914735E-16));
#273=DIRECTION('',(1.22464679914735E-16,-1.,-6.12323399573677E-17));
#274=DIRECTION('',(-6.12323399573677E-17,6.12323399573676E-17,-1.));
#275=FACE_OUTER_BOUND('',#276,.T.);
#276=EDGE_LOOP('',(#541));
#277=FACE_OUTER_BOUND('',#278,.T.);
#278=EDGE_LOOP('',(#542));
#279=CYLINDRICAL_SURFACE('',#280,14.);
#280=AXIS2_PLACEMENT_3D('',#281,#282,#283);
#281=CARTESIAN_POINT('',(0.,28.,1.71450551880629E-15));
#282=DIRECTION('',(0.,1.,6.12323399573676E-17));
#283=DIRECTION('',(6.12323399573677E-17,6.12323399573676E-17,-1.));
#284=FACE_OUTER_BOUND('',#285,.T.);
#285=EDGE_LOOP('',(#543));
#286=FACE_OUTER_BOUND('',#287,.T.);
#287=EDGE_LOOP('',(#544));
#288=CYLINDRICAL_SURFACE('',#289,4.);
#289=AXIS2_PLACEMENT_3D('',#290,#291,#292);
#290=CARTESIAN_POINT('',(0.,0.,0.));
#291=DIRECTION('',(1.22464679914735E-16,-1.,-6.12323399573677E-17));
#292=DIRECTION('',(-6.12323399573677E-17,6.12323399573676E-17,-1.));
#293=ORIENTED_EDGE('',*,*,#545,.F.);
#294=ORIENTED_EDGE('',*,*,#546,.F.);
#295=ORIENTED_EDGE('',*,*,#547,.T.);
#296=ORIENTED_EDGE('',*,*,#548,.F.);
#297=ORIENTED_EDGE('',*,*,#549,.F.);
#298=ORIENTED_EDGE('',*,*,#550,.F.);
#299=ORIENTED_EDGE('',*,*,#551,.T.);
#300=ORIENTED_EDGE('',*,*,#552,.F.);
#301=ORIENTED_EDGE('',*,*,#553,.F.);
#302=ORIENTED_EDGE('',*,*,#554,.F.);
#303=ORIENTED_EDGE('',*,*,#555,.T.);
#304=ORIENTED_EDGE('',*,*,#556,.F.);
#305=ORIENTED_EDGE('',*,*,#557,.F.);
#306=ORIENTED_EDGE('',*,*,#558,.F.);
#307=ORIENTED_EDGE('',*,*,#559,.T.);
#308=ORIENTED_EDGE('',*,*,#560,.F.);
#309=ORIENTED_EDGE('',*,*,#561,.F.);
#310=ORIENTED_EDGE('',*,*,#562,.F.);
#311=ORIENTED_EDGE('',*,*,#563,.T.);
#312=ORIENTED_EDGE('',*,*,#564,.F.);
#313=ORIENTED_EDGE('',*,*,#565,.F.);
#314=ORIENTED_EDGE('',*,*,#566,.F.);
#315=ORIENTED_EDGE('',*,*,#567,.T.);
#316=ORIENTED_EDGE('',*,*,#568,.F.);
#317=ORIENTED_EDGE('',*,*,#569,.F.);
#318=ORIENTED_EDGE('',*,*,#570,.F.);
#319=ORIENTED_EDGE('',*,*,#571,.T.);
#320=ORIENTED_EDGE('',*,*,#572,.F.);
#321=ORIENTED_EDGE('',*,*,#573,.F.);
#322=ORIENTED_EDGE('',*,*,#574,.F.);
#323=ORIENTED_EDGE('',*,*,#575,.T.);
#324=ORIENTED_EDGE('',*,*,#576,.F.);
#325=ORIENTED_EDGE('',*,*,#577,.F.);
#326=ORIENTED_EDGE('',*,*,#578,.F.);
#327=ORIENTED_EDGE('',*,*,#579,.T.);
#328=ORIENTED_EDGE('',*,*,#580,.F.);
#329=ORIENTED_EDGE('',*,*,#581,.F.);
#330=ORIENTED_EDGE('',*,*,#582,.F.);
#331=ORIENTED_EDGE('',*,*,#583,.T.);
#332=ORIENTED_EDGE('',*,*,#584,.F.);
#333=ORIENTED_EDGE('',*,*,#585,.F.);
#334=ORIENTED_EDGE('',*,*,#586,.F.);
#335=ORIENTED_EDGE('',*,*,#555,.F.);
#336=ORIENTED_EDGE('',*,*,#587,.F.);
#337=ORIENTED_EDGE('',*,*,#588,.T.);
#338=ORIENTED_EDGE('',*,*,#589,.F.);
#339=ORIENTED_EDGE('',*,*,#590,.F.);
#340=ORIENTED_EDGE('',*,*,#591,.F.);
#341=ORIENTED_EDGE('',*,*,#553,.T.);
#342=ORIENTED_EDGE('',*,*,#592,.F.);
#343=ORIENTED_EDGE('',*,*,#551,.F.);
#344=ORIENTED_EDGE('',*,*,#593,.F.);
#345=ORIENTED_EDGE('',*,*,#594,.T.);
#346=ORIENTED_EDGE('',*,*,#595,.F.);
#347=ORIENTED_EDGE('',*,*,#596,.F.);
#348=ORIENTED_EDGE('',*,*,#597,.F.);
#349=ORIENTED_EDGE('',*,*,#549,.T.);
#350=ORIENTED_EDGE('',*,*,#598,.F.);
#351=ORIENTED_EDGE('',*,*,#547,.F.);
#352=ORIENTED_EDGE('',*,*,#599,.F.);
#353=ORIENTED_EDGE('',*,*,#600,.T.);
#354=ORIENTED_EDGE('',*,*,#601,.F.);
#355=ORIENTED_EDGE('',*,*,#602,.F.);
#356=ORIENTED_EDGE('',*,*,#603,.F.);
#357=ORIENTED_EDGE('',*,*,#545,.T.);
#358=ORIENTED_EDGE('',*,*,#604,.F.);
#359=ORIENTED_EDGE('',*,*,#583,.F.);
#360=ORIENTED_EDGE('',*,*,#605,.F.);
#361=ORIENTED_EDGE('',*,*,#606,.T.);
#362=ORIENTED_EDGE('',*,*,#607,.F.);
#363=ORIENTED_EDGE('',*,*,#608,.F.);
#364=ORIENTED_EDGE('',*,*,#609,.F.);
#365=ORIENTED_EDGE('',*,*,#581,.T.);
#366=ORIENTED_EDGE('',*,*,#610,.F.);
#367=ORIENTED_EDGE('',*,*,#579,.F.);
#368=ORIENTED_EDGE('',*,*,#611,.F.);
#369=ORIENTED_EDGE('',*,*,#612,.T.);
#370=ORIENTED_EDGE('',*,*,#613,.F.);
#371=ORIENTED_EDGE('',*,*,#614,.F.);
#372=ORIENTED_EDGE('',*,*,#615,.F.);
#373=ORIENTED_EDGE('',*,*,#577,.T.);
#374=ORIENTED_EDGE('',*,*,#616,.F.);
#375=ORIENTED_EDGE('',*,*,#575,.F.);
#376=ORIENTED_EDGE('',*,*,#617,.F.);
#377=ORIENTED_EDGE('',*,*,#618,.T.);
#378=ORIENTED_EDGE('',*,*,#619,.F.);
#379=ORIENTED_EDGE('',*,*,#620,.F.);
#380=ORIENTED_EDGE('',*,*,#621,.F.);
#381=ORIENTED_EDGE('',*,*,#573,.T.);
#382=ORIENTED_EDGE('',*,*,#622,.F.);
#383=ORIENTED_EDGE('',*,*,#571,.F.);
#384=ORIENTED_EDGE('',*,*,#623,.F.);
#385=ORIENTED_EDGE('',*,*,#624,.T.);
#386=ORIENTED_EDGE('',*,*,#625,.F.);
#387=ORIENTED_EDGE('',*,*,#626,.F.);
#388=ORIENTED_EDGE('',*,*,#627,.F.);
#389=ORIENTED_EDGE('',*,*,#569,.T.);
#390=ORIENTED_EDGE('',*,*,#628,.F.);
#391=ORIENTED_EDGE('',*,*,#567,.F.);
#392=ORIENTED_EDGE('',*,*,#629,.F.);
#393=ORIENTED_EDGE('',*,*,#630,.T.);
#394=ORIENTED_EDGE('',*,*,#631,.F.);
#395=ORIENTED_EDGE('',*,*,#632,.F.);
#396=ORIENTED_EDGE('',*,*,#633,.F.);
#397=ORIENTED_EDGE('',*,*,#565,.T.);
#398=ORIENTED_EDGE('',*,*,#634,.F.);
#399=ORIENTED_EDGE('',*,*,#563,.F.);
#400=ORIENTED_EDGE('',*,*,#635,.F.);
#401=ORIENTED_EDGE('',*,*,#636,.T.);
#402=ORIENTED_EDGE('',*,*,#637,.F.);
#403=ORIENTED_EDGE('',*,*,#638,.F.);
#404=ORIENTED_EDGE('',*,*,#639,.F.);
#405=ORIENTED_EDGE('',*,*,#561,.T.);
#406=ORIENTED_EDGE('',*,*,#640,.F.);
#407=ORIENTED_EDGE('',*,*,#559,.F.);
#408=ORIENTED_EDGE('',*,*,#641,.F.);
#409=ORIENTED_EDGE('',*,*,#642,.T.);
#410=ORIENTED_EDGE('',*,*,#643,.F.);
#411=ORIENTED_EDGE('',*,*,#644,.F.);
#412=ORIENTED_EDGE('',*,*,#645,.F.);
#413=ORIENTED_EDGE('',*,*,#557,.T.);
#414=ORIENTED_EDGE('',*,*,#646,.F.);
#415=ORIENTED_EDGE('',*,*,#600,.F.);
#416=ORIENTED_EDGE('',*,*,#647,.T.);
#417=ORIENTED_EDGE('',*,*,#596,.T.);
#418=ORIENTED_EDGE('',*,*,#648,.F.);
#419=ORIENTED_EDGE('',*,*,#594,.F.);
#420=ORIENTED_EDGE('',*,*,#649,.T.);
#421=ORIENTED_EDGE('',*,*,#590,.T.);
#422=ORIENTED_EDGE('',*,*,#650,.F.);
#423=ORIENTED_EDGE('',*,*,#588,.F.);
#424=ORIENTED_EDGE('',*,*,#651,.T.);
#425=ORIENTED_EDGE('',*,*,#644,.T.);
#426=ORIENTED_EDGE('',*,*,#652,.F.);
#427=ORIENTED_EDGE('',*,*,#642,.F.);
#428=ORIENTED_EDGE('',*,*,#653,.T.);
#429=ORIENTED_EDGE('',*,*,#638,.T.);
#430=ORIENTED_EDGE('',*,*,#654,.F.);
#431=ORIENTED_EDGE('',*,*,#636,.F.);
#432=ORIENTED_EDGE('',*,*,#655,.T.);
#433=ORIENTED_EDGE('',*,*,#632,.T.);
#434=ORIENTED_EDGE('',*,*,#656,.F.);
#435=ORIENTED_EDGE('',*,*,#630,.F.);
#436=ORIENTED_EDGE('',*,*,#657,.T.);
#437=ORIENTED_EDGE('',*,*,#626,.T.);
#438=ORIENTED_EDGE('',*,*,#658,.F.);
#439=ORIENTED_EDGE('',*,*,#624,.F.);
#440=ORIENTED_EDGE('',*,*,#659,.T.);
#441=ORIENTED_EDGE('',*,*,#620,.T.);
#442=ORIENTED_EDGE('',*,*,#660,.F.);
#443=ORIENTED_EDGE('',*,*,#618,.F.);
#444=ORIENTED_EDGE('',*,*,#661,.T.);
#445=ORIENTED_EDGE('',*,*,#614,.T.);
#446=ORIENTED_EDGE('',*,*,#662,.F.);
#447=ORIENTED_EDGE('',*,*,#612,.F.);
#448=ORIENTED_EDGE('',*,*,#663,.T.);
#449=ORIENTED_EDGE('',*,*,#608,.T.);
#450=ORIENTED_EDGE('',*,*,#664,.F.);
#451=ORIENTED_EDGE('',*,*,#606,.F.);
#452=ORIENTED_EDGE('',*,*,#665,.T.);
#453=ORIENTED_EDGE('',*,*,#602,.T.);
#454=ORIENTED_EDGE('',*,*,#666,.F.);
#455=ORIENTED_EDGE('',*,*,#667,.F.);
#456=ORIENTED_EDGE('',*,*,#648,.T.);
#457=ORIENTED_EDGE('',*,*,#595,.T.);
#458=ORIENTED_EDGE('',*,*,#548,.T.);
#459=ORIENTED_EDGE('',*,*,#598,.T.);
#460=ORIENTED_EDGE('',*,*,#646,.T.);
#461=ORIENTED_EDGE('',*,*,#601,.T.);
#462=ORIENTED_EDGE('',*,*,#584,.T.);
#463=ORIENTED_EDGE('',*,*,#604,.T.);
#464=ORIENTED_EDGE('',*,*,#664,.T.);
#465=ORIENTED_EDGE('',*,*,#607,.T.);
#466=ORIENTED_EDGE('',*,*,#580,.T.);
#467=ORIENTED_EDGE('',*,*,#610,.T.);
#468=ORIENTED_EDGE('',*,*,#662,.T.);
#469=ORIENTED_EDGE('',*,*,#613,.T.);
#470=ORIENTED_EDGE('',*,*,#576,.T.);
#471=ORIENTED_EDGE('',*,*,#616,.T.);
#472=ORIENTED_EDGE('',*,*,#660,.T.);
#473=ORIENTED_EDGE('',*,*,#619,.T.);
#474=ORIENTED_EDGE('',*,*,#572,.T.);
#475=ORIENTED_EDGE('',*,*,#622,.T.);
#476=ORIENTED_EDGE('',*,*,#658,.T.);
#477=ORIENTED_EDGE('',*,*,#625,.T.);
#478=ORIENTED_EDGE('',*,*,#568,.T.);
#479=ORIENTED_EDGE('',*,*,#628,.T.);
#480=ORIENTED_EDGE('',*,*,#656,.T.);
#481=ORIENTED_EDGE('',*,*,#631,.T.);
#482=ORIENTED_EDGE('',*,*,#564,.T.);
#483=ORIENTED_EDGE('',*,*,#634,.T.);
#484=ORIENTED_EDGE('',*,*,#654,.T.);
#485=ORIENTED_EDGE('',*,*,#637,.T.);
#486=ORIENTED_EDGE('',*,*,#560,.T.);
#487=ORIENTED_EDGE('',*,*,#640,.T.);
#488=ORIENTED_EDGE('',*,*,#652,.T.);
#489=ORIENTED_EDGE('',*,*,#643,.T.);
#490=ORIENTED_EDGE('',*,*,#556,.T.);
#491=ORIENTED_EDGE('',*,*,#586,.T.);
#492=ORIENTED_EDGE('',*,*,#650,.T.);
#493=ORIENTED_EDGE('',*,*,#589,.T.);
#494=ORIENTED_EDGE('',*,*,#552,.T.);
#495=ORIENTED_EDGE('',*,*,#592,.T.);
#496=ORIENTED_EDGE('',*,*,#554,.T.);
#497=ORIENTED_EDGE('',*,*,#591,.T.);
#498=ORIENTED_EDGE('',*,*,#649,.F.);
#499=ORIENTED_EDGE('',*,*,#593,.T.);
#500=ORIENTED_EDGE('',*,*,#550,.T.);
#501=ORIENTED_EDGE('',*,*,#597,.T.);
#502=ORIENTED_EDGE('',*,*,#647,.F.);
#503=ORIENTED_EDGE('',*,*,#599,.T.);
#504=ORIENTED_EDGE('',*,*,#546,.T.);
#505=ORIENTED_EDGE('',*,*,#603,.T.);
#506=ORIENTED_EDGE('',*,*,#665,.F.);
#507=ORIENTED_EDGE('',*,*,#605,.T.);
#508=ORIENTED_EDGE('',*,*,#582,.T.);
#509=ORIENTED_EDGE('',*,*,#609,.T.);
#510=ORIENTED_EDGE('',*,*,#663,.F.);
#511=ORIENTED_EDGE('',*,*,#611,.T.);
#512=ORIENTED_EDGE('',*,*,#578,.T.);
#513=ORIENTED_EDGE('',*,*,#615,.T.);
#514=ORIENTED_EDGE('',*,*,#661,.F.);
#515=ORIENTED_EDGE('',*,*,#617,.T.);
#516=ORIENTED_EDGE('',*,*,#574,.T.);
#517=ORIENTED_EDGE('',*,*,#621,.T.);
#518=ORIENTED_EDGE('',*,*,#659,.F.);
#519=ORIENTED_EDGE('',*,*,#623,.T.);
#520=ORIENTED_EDGE('',*,*,#570,.T.);
#521=ORIENTED_EDGE('',*,*,#627,.T.);
#522=ORIENTED_EDGE('',*,*,#657,.F.);
#523=ORIENTED_EDGE('',*,*,#629,.T.);
#524=ORIENTED_EDGE('',*,*,#566,.T.);
#525=ORIENTED_EDGE('',*,*,#633,.T.);
#526=ORIENTED_EDGE('',*,*,#655,.F.);
#527=ORIENTED_EDGE('',*,*,#635,.T.);
#528=ORIENTED_EDGE('',*,*,#562,.T.);
#529=ORIENTED_EDGE('',*,*,#639,.T.);
#530=ORIENTED_EDGE('',*,*,#653,.F.);
#531=ORIENTED_EDGE('',*,*,#641,.T.);
#532=ORIENTED_EDGE('',*,*,#558,.T.);
#533=ORIENTED_EDGE('',*,*,#645,.T.);
#534=ORIENTED_EDGE('',*,*,#651,.F.);
#535=ORIENTED_EDGE('',*,*,#587,.T.);
#536=ORIENTED_EDGE('',*,*,#668,.T.);
#537=ORIENTED_EDGE('',*,*,#669,.T.);
#538=ORIENTED_EDGE('',*,*,#585,.T.);
#539=ORIENTED_EDGE('',*,*,#666,.T.);
#540=ORIENTED_EDGE('',*,*,#670,.T.);
#541=ORIENTED_EDGE('',*,*,#669,.F.);
#542=ORIENTED_EDGE('',*,*,#667,.T.);
#543=ORIENTED_EDGE('',*,*,#668,.F.);
#544=ORIENTED_EDGE('',*,*,#670,.F.);
#545=EDGE_CURVE('',#671,#672,#673,.T.);
#546=EDGE_CURVE('',#674,#671,#675,.F.);
#547=EDGE_CURVE('',#674,#676,#677,.T.);
#548=EDGE_CURVE('',#678,#676,#679,.T.);
#549=EDGE_CURVE('',#680,#678,#681,.T.);
#550=EDGE_CURVE('',#682,#680,#683,.F.);
#551=EDGE_CURVE('',#682,#684,#685,.T.);
#552=EDGE_CURVE('',#686,#684,#687,.T.);
#553=EDGE_CURVE('',#688,#686,#689,.T.);
#554=EDGE_CURVE('',#690,#688,#691,.F.);
#555=EDGE_CURVE('',#690,#692,#693,.T.);
#556=EDGE_CURVE('',#694,#692,#695,.T.);
#557=EDGE_CURVE('',#696,#694,#697,.T.);
#558=EDGE_CURVE('',#698,#696,#699,.F.);
#559=EDGE_CURVE('',#698,#700,#701,.T.);
#560=EDGE_CURVE('',#702,#700,#703,.T.);
#561=EDGE_CURVE('',#704,#702,#705,.T.);
#562=EDGE_CURVE('',#706,#704,#707,.F.);
#563=EDGE_CURVE('',#706,#708,#709,.T.);
#564=EDGE_CURVE('',#710,#708,#711,.T.);
#565=EDGE_CURVE('',#712,#710,#713,.T.);
#566=EDGE_CURVE('',#714,#712,#715,.F.);
#567=EDGE_CURVE('',#714,#716,#717,.T.);
#568=EDGE_CURVE('',#718,#716,#719,.T.);
#569=EDGE_CURVE('',#720,#718,#721,.T.);
#570=EDGE_CURVE('',#722,#720,#723,.F.);
#571=EDGE_CURVE('',#722,#724,#725,.T.);
#572=EDGE_CURVE('',#726,#724,#727,.T.);
#573=EDGE_CURVE('',#728,#726,#729,.T.);
#574=EDGE_CURVE('',#730,#728,#731,.F.);
#575=EDGE_CURVE('',#730,#732,#733,.T.);
#576=EDGE_CURVE('',#734,#732,#735,.T.);
#577=EDGE_CURVE('',#736,#734,#737,.T.);
#578=EDGE_CURVE('',#738,#736,#739,.F.);
#579=EDGE_CURVE('',#738,#740,#741,.T.);
#580=EDGE_CURVE('',#742,#740,#743,.T.);
#581=EDGE_CURVE('',#744,#742,#745,.T.);
#582=EDGE_CURVE('',#746,#744,#747,.F.);
#583=EDGE_CURVE('',#746,#748,#749,.T.);
#584=EDGE_CURVE('',#672,#748,#750,.T.);
#585=EDGE_CURVE('',#751,#751,#752,.F.);
#586=EDGE_CURVE('',#692,#753,#754,.F.);
#587=EDGE_CURVE('',#755,#690,#756,.F.);
#588=EDGE_CURVE('',#755,#753,#757,.T.);
#589=EDGE_CURVE('',#758,#686,#759,.F.);
#590=EDGE_CURVE('',#760,#758,#761,.T.);
#591=EDGE_CURVE('',#688,#760,#762,.F.);
#592=EDGE_CURVE('',#684,#763,#764,.F.);
#593=EDGE_CURVE('',#765,#682,#766,.F.);
#594=EDGE_CURVE('',#765,#763,#767,.T.);
#595=EDGE_CURVE('',#768,#678,#769,.F.);
#596=EDGE_CURVE('',#770,#768,#771,.T.);
#597=EDGE_CURVE('',#680,#770,#772,.F.);
#598=EDGE_CURVE('',#676,#773,#774,.F.);
#599=EDGE_CURVE('',#775,#674,#776,.F.);
#600=EDGE_CURVE('',#775,#773,#777,.T.);
#601=EDGE_CURVE('',#778,#672,#779,.F.);
#602=EDGE_CURVE('',#780,#778,#781,.T.);
#603=EDGE_CURVE('',#671,#780,#782,.F.);
#604=EDGE_CURVE('',#748,#783,#784,.F.);
#605=EDGE_CURVE('',#785,#746,#786,.F.);
#606=EDGE_CURVE('',#785,#783,#787,.T.);
#607=EDGE_CURVE('',#788,#742,#789,.F.);
#608=EDGE_CURVE('',#790,#788,#791,.T.);
#609=EDGE_CURVE('',#744,#790,#792,.F.);
#610=EDGE_CURVE('',#740,#793,#794,.F.);
#611=EDGE_CURVE('',#795,#738,#796,.F.);
#612=EDGE_CURVE('',#795,#793,#797,.T.);
#613=EDGE_CURVE('',#798,#734,#799,.F.);
#614=EDGE_CURVE('',#800,#798,#801,.T.);
#615=EDGE_CURVE('',#736,#800,#802,.F.);
#616=EDGE_CURVE('',#732,#803,#804,.F.);
#617=EDGE_CURVE('',#805,#730,#806,.F.);
#618=EDGE_CURVE('',#805,#803,#807,.T.);
#619=EDGE_CURVE('',#808,#726,#809,.F.);
#620=EDGE_CURVE('',#810,#808,#811,.T.);
#621=EDGE_CURVE('',#728,#810,#812,.F.);
#622=EDGE_CURVE('',#724,#813,#814,.F.);
#623=EDGE_CURVE('',#815,#722,#816,.F.);
#624=EDGE_CURVE('',#815,#813,#817,.T.);
#625=EDGE_CURVE('',#818,#718,#819,.F.);
#626=EDGE_CURVE('',#820,#818,#821,.T.);
#627=EDGE_CURVE('',#720,#820,#822,.F.);
#628=EDGE_CURVE('',#716,#823,#824,.F.);
#629=EDGE_CURVE('',#825,#714,#826,.F.);
#630=EDGE_CURVE('',#825,#823,#827,.T.);
#631=EDGE_CURVE('',#828,#710,#829,.F.);
#632=EDGE_CURVE('',#830,#828,#831,.T.);
#633=EDGE_CURVE('',#712,#830,#832,.F.);
#634=EDGE_CURVE('',#708,#833,#834,.F.);
#635=EDGE_CURVE('',#835,#706,#836,.F.);
#636=EDGE_CURVE('',#835,#833,#837,.T.);
#637=EDGE_CURVE('',#838,#702,#839,.F.);
#638=EDGE_CURVE('',#840,#838,#841,.T.);
#639=EDGE_CURVE('',#704,#840,#842,.F.);
#640=EDGE_CURVE('',#700,#843,#844,.F.);
#641=EDGE_CURVE('',#845,#698,#846,.F.);
#642=EDGE_CURVE('',#845,#843,#847,.T.);
#643=EDGE_CURVE('',#848,#694,#849,.F.);
#644=EDGE_CURVE('',#850,#848,#851,.T.);
#645=EDGE_CURVE('',#696,#850,#852,.F.);
#646=EDGE_CURVE('',#773,#778,#853,.T.);
#647=EDGE_CURVE('',#775,#770,#854,.T.);
#648=EDGE_CURVE('',#763,#768,#855,.T.);
#649=EDGE_CURVE('',#765,#760,#856,.T.);
#650=EDGE_CURVE('',#753,#758,#857,.T.);
#651=EDGE_CURVE('',#755,#850,#858,.T.);
#652=EDGE_CURVE('',#843,#848,#859,.T.);
#653=EDGE_CURVE('',#845,#840,#860,.T.);
#654=EDGE_CURVE('',#833,#838,#861,.T.);
#655=EDGE_CURVE('',#835,#830,#862,.T.);
#656=EDGE_CURVE('',#823,#828,#863,.T.);
#657=EDGE_CURVE('',#825,#820,#864,.T.);
#658=EDGE_CURVE('',#813,#818,#865,.T.);
#659=EDGE_CURVE('',#815,#810,#866,.T.);
#660=EDGE_CURVE('',#803,#808,#867,.T.);
#661=EDGE_CURVE('',#805,#800,#868,.T.);
#662=EDGE_CURVE('',#793,#798,#869,.T.);
#663=EDGE_CURVE('',#795,#790,#870,.T.);
#664=EDGE_CURVE('',#783,#788,#871,.T.);
#665=EDGE_CURVE('',#785,#780,#872,.T.);
#666=EDGE_CURVE('',#873,#873,#874,.T.);
#667=EDGE_CURVE('',#875,#875,#876,.T.);
#668=EDGE_CURVE('',#877,#877,#878,.T.);
#669=EDGE_CURVE('',#879,#879,#880,.T.);
#670=EDGE_CURVE('',#881,#881,#882,.F.);
#671=VERTEX_POINT('',#883);
#672=VERTEX_POINT('',#884);
#673=LINE('',#885,#886);
#674=VERTEX_POINT('',#888);
#675=CIRCLE('',#889,11.);
#676=VERTEX_POINT('',#893);
#677=LINE('',#894,#895);
#678=VERTEX_POINT('',#897);
#679=CIRCLE('',#898,11.);
#680=VERTEX_POINT('',#902);
#681=LINE('',#903,#904);
#682=VERTEX_POINT('',#906);
#683=CIRCLE('',#907,11.);
#684=VERTEX_POINT('',#911);
#685=LINE('',#912,#913);
#686=VERTEX_POINT('',#915);
#687=CIRCLE('',#916,11.);
#688=VERTEX_POINT('',#920);
#689=LINE('',#921,#922);
#690=VERTEX_POINT('',#924);
#691=CIRCLE('',#925,11.);
#692=VERTEX_POINT('',#929);
#693=LINE('',#930,#931);
#694=VERTEX_POINT('',#933);
#695=CIRCLE('',#934,11.);
#696=VERTEX_POINT('',#938);
#697=LINE('',#939,#940);
#698=VERTEX_POINT('',#942);
#699=CIRCLE('',#943,11.);
#700=VERTEX_POINT('',#947);
#701=LINE('',#948,#949);
#702=VERTEX_POINT('',#951);
#703=CIRCLE('',#952,11.);
#704=VERTEX_POINT('',#956);
#705=LINE('',#957,#958);
#706=VERTEX_POINT('',#960);
#707=CIRCLE('',#961,11.);
#708=VERTEX_POINT('',#965);
#709=LINE('',#966,#967);
#710=VERTEX_POINT('',#969);
#711=CIRCLE('',#970,11.);
#712=VERTEX_POINT('',#974);
#713=LINE('',#975,#976);
#714=VERTEX_POINT('',#978);
#715=CIRCLE('',#979,11.);
#716=VERTEX_POINT('',#983);
#717=LINE('',#984,#985);
#718=VERTEX_POINT('',#987);
#719=CIRCLE('',#988,11.);
#720=VERTEX_POINT('',#992);
#721=LINE('',#993,#994);
#722=VERTEX_POINT('',#996);
#723=CIRCLE('',#997,11.);
#724=VERTEX_POINT('',#1001);
#725=LINE('',#1002,#1003);
#726=VERTEX_POINT('',#1005);
#727=CIRCLE('',#1006,11.);
#728=VERTEX_POINT('',#1010);
#729=LINE('',#1011,#1012);
#730=VERTEX_POINT('',#1014);
#731=CIRCLE('',#1015,11.);
#732=VERTEX_POINT('',#1019);
#733=LINE('',#1020,#1021);
#734=VERTEX_POINT('',#1023);
#735=CIRCLE('',#1024,11.);
#736=VERTEX_POINT('',#1028);
#737=LINE('',#1029,#1030);
#738=VERTEX_POINT('',#1032);
#739=CIRCLE('',#1033,11.);
#740=VERTEX_POINT('',#1037);
#741=LINE('',#1038,#1039);
#742=VERTEX_POINT('',#1041);
#743=CIRCLE('',#1042,11.);
#744=VERTEX_POINT('',#1046);
#745=LINE('',#1047,#1048);
#746=VERTEX_POINT('',#1050);
#747=CIRCLE('',#1051,11.);
#748=VERTEX_POINT('',#1055);
#749=LINE('',#1056,#1057);
#750=CIRCLE('',#1059,11.);
#751=VERTEX_POINT('',#1063);
#752=CIRCLE('',#1064,11.);
#753=VERTEX_POINT('',#1068);
#754=LINE('',#1069,#1070);
#755=VERTEX_POINT('',#1072);
#756=LINE('',#1073,#1074);
#757=LINE('',#1076,#1077);
#758=VERTEX_POINT('',#1079);
#759=LINE('',#1080,#1081);
#760=VERTEX_POINT('',#1083);
#761=LINE('',#1084,#1085);
#762=LINE('',#1087,#1088);
#763=VERTEX_POINT('',#1090);
#764=LINE('',#1091,#1092);
#765=VERTEX_POINT('',#1094);
#766=LINE('',#1095,#1096);
#767=LINE('',#1098,#1099);
#768=VERTEX_POINT('',#1101);
#769=LINE('',#1102,#1103);
#770=VERTEX_POINT('',#1105);
#771=LINE('',#1106,#1107);
#772=LINE('',#1109,#1110);
#773=VERTEX_POINT('',#1112);
#774=LINE('',#1113,#1114);
#775=VERTEX_POINT('',#1116);
#776=LINE('',#1117,#1118);
#777=LINE('',#1120,#1121);
#778=VERTEX_POINT('',#1123);
#779=LINE('',#1124,#1125);
#780=VERTEX_POINT('',#1127);
#781=LINE('',#1128,#1129);
#782=LINE('',#1131,#1132);
#783=VERTEX_POINT('',#1134);
#784=LINE('',#1135,#1136);
#785=VERTEX_POINT('',#1138);
#786=LINE('',#1139,#1140);
#787=LINE('',#1142,#1143);
#788=VERTEX_POINT('',#1145);
#789=LINE('',#1146,#1147);
#790=VERTEX_POINT('',#1149);
#791=LINE('',#1150,#1151);
#792=LINE('',#1153,#1154);
#793=VERTEX_POINT('',#1156);
#794=LINE('',#1157,#1158);
#795=VERTEX_POINT('',#1160);
#796=LINE('',#1161,#1162);
#797=LINE('',#1164,#1165);
#798=VERTEX_POINT('',#1167);
#799=LINE('',#1168,#1169);
#800=VERTEX_POINT('',#1171);
#801=LINE('',#1172,#1173);
#802=LINE('',#1175,#1176);
#803=VERTEX_POINT('',#1178);
#804=LINE('',#1179,#1180);
#805=VERTEX_POINT('',#1182);
#806=LINE('',#1183,#1184);
#807=LINE('',#1186,#1187);
#808=VERTEX_POINT('',#1189);
#809=LINE('',#1190,#1191);
#810=VERTEX_POINT('',#1193);
#811=LINE('',#1194,#1195);
#812=LINE('',#1197,#1198);
#813=VERTEX_POINT('',#1200);
#814=LINE('',#1201,#1202);
#815=VERTEX_POINT('',#1204);
#816=LINE('',#1205,#1206);
#817=LINE('',#1208,#1209);
#818=VERTEX_POINT('',#1211);
#819=LINE('',#1212,#1213);
#820=VERTEX_POINT('',#1215);
#821=LINE('',#1216,#1217);
#822=LINE('',#1219,#1220);
#823=VERTEX_POINT('',#1222);
#824=LINE('',#1223,#1224);
#825=VERTEX_POINT('',#1226);
#826=LINE('',#1227,#1228);
#827=LINE('',#1230,#1231);
#828=VERTEX_POINT('',#1233);
#829=LINE('',#1234,#1235);
#830=VERTEX_POINT('',#1237);
#831=LINE('',#1238,#1239);
#832=LINE('',#1241,#1242);
#833=VERTEX_POINT('',#1244);
#834=LINE('',#1245,#1246);
#835=VERTEX_POINT('',#1248);
#836=LINE('',#1249,#1250);
#837=LINE('',#1252,#1253);
#838=VERTEX_POINT('',#1255);
#839=LINE('',#1256,#1257);
#840=VERTEX_POINT('',#1259);
#841=LINE('',#1260,#1261);
#842=LINE('',#1263,#1264);
#843=VERTEX_POINT('',#1266);
#844=LINE('',#1267,#1268);
#845=VERTEX_POINT('',#1270);
#846=LINE('',#1271,#1272);
#847=LINE('',#1274,#1275);
#848=VERTEX_POINT('',#1277);
#849=LINE('',#1278,#1279);
#850=VERTEX_POINT('',#1281);
#851=LINE('',#1282,#1283);
#852=LINE('',#1285,#1286);
#853=CIRCLE('',#1288,12.5);
#854=CIRCLE('',#1292,12.5);
#855=CIRCLE('',#1296,12.5);
#856=CIRCLE('',#1300,12.5);
#857=CIRCLE('',#1304,12.5);
#858=CIRCLE('',#1308,12.5);
#859=CIRCLE('',#1312,12.5);
#860=CIRCLE('',#1316,12.5);
#861=CIRCLE('',#1320,12.5);
#862=CIRCLE('',#1324,12.5);
#863=CIRCLE('',#1328,12.5);
#864=CIRCLE('',#1332,12.5);
#865=CIRCLE('',#1336,12.5);
#866=CIRCLE('',#1340,12.5);
#867=CIRCLE('',#1344,12.5);
#868=CIRCLE('',#1348,12.5);
#869=CIRCLE('',#1352,12.5);
#870=CIRCLE('',#1356,12.5);
#871=CIRCLE('',#1360,12.5);
#872=CIRCLE('',#1364,12.5);
#873=VERTEX_POINT('',#1368);
#874=CIRCLE('',#1369,12.5);
#875=VERTEX_POINT('',#1373);
#876=CIRCLE('',#1374,14.);
#877=VERTEX_POINT('',#1378);
#878=CIRCLE('',#1379,4.);
#879=VERTEX_POINT('',#1383);
#880=CIRCLE('',#1384,14.);
#881=VERTEX_POINT('',#1388);
#882=CIRCLE('',#1389,4.);
#883=CARTESIAN_POINT('',(10.9544511501033,-6.12323399573679E-17,1.));
#884=CARTESIAN_POINT('',(10.9544511501033,28.,1.00000000000001));
#885=CARTESIAN_POINT('',(10.9544511501033,-6.12323399573678E-17,1.));
#886=VECTOR('',#887,1.);
#887=DIRECTION('',(0.,1.,6.34413156928661E-17));
#888=CARTESIAN_POINT('',(9.45012239677625,-3.44728756762271E-16,5.62984783861411));
#889=AXIS2_PLACEMENT_3D('',#890,#891,#892);
#890=CARTESIAN_POINT('',(0.,0.,0.));
#891=DIRECTION('',(1.22464679914735E-16,-1.,-6.12323399573677E-17));
#892=DIRECTION('',(0.995859195463938,1.16391001252876E-16,0.0909090909090915));
#893=CARTESIAN_POINT('',(9.45012239677625,28.,5.62984783861411));
#894=CARTESIAN_POINT('',(9.45012239677625,-3.44728756762271E-16,5.62984783861411));
#895=VECTOR('',#896,1.);
#896=DIRECTION('',(0.,1.,6.34413156928661E-17));
#897=CARTESIAN_POINT('',(8.2745518921913,28.,7.247881827364));
#898=AXIS2_PLACEMENT_3D('',#899,#900,#901);
#899=CARTESIAN_POINT('',(0.,28.,1.71450551880629E-15));
#900=DIRECTION('',(6.16297582203915E-33,1.,6.12323399573677E-17));
#901=DIRECTION('',(0.752231990199209,-4.03458876385436E-17,0.658898347942182));
#902=CARTESIAN_POINT('',(8.2745518921913,-4.4380476402398E-16,7.247881827364));
#903=CARTESIAN_POINT('',(8.2745518921913,-4.4380476402398E-16,7.247881827364));
#904=VECTOR('',#905,1.);
#905=DIRECTION('',(0.,1.,6.34413156928661E-17));
#906=CARTESIAN_POINT('',(4.33616808572727,-6.19015185298217E-16,10.1092851543678));
#907=AXIS2_PLACEMENT_3D('',#908,#909,#910);
#908=CARTESIAN_POINT('',(0.,0.,0.));
#909=DIRECTION('',(1.22464679914735E-16,-1.,-6.12323399573677E-17));
#910=DIRECTION('',(0.752231990199209,5.17759622628268E-17,0.658898347942182));
#911=CARTESIAN_POINT('',(4.33616808572727,28.,10.1092851543678));
#912=CARTESIAN_POINT('',(4.33616808572727,-6.19015185298217E-16,10.1092851543678));
#913=VECTOR('',#914,1.);
#914=DIRECTION('',(0.,1.,0.));
#915=CARTESIAN_POINT('',(2.43405505313696,28.,10.7273191431177));
#916=AXIS2_PLACEMENT_3D('',#917,#918,#919);
#917=CARTESIAN_POINT('',(0.,28.,1.71450551880629E-15));
#918=DIRECTION('',(6.16297582203915E-33,1.,6.12323399573677E-17));
#919=DIRECTION('',(0.22127773210336,-5.97144411456871E-17,0.975210831192514));
#920=CARTESIAN_POINT('',(2.43405505313696,-6.56858852602558E-16,10.7273191431177));
#921=CARTESIAN_POINT('',(2.43405505313696,-6.56858852602558E-16,10.7273191431177));
#922=VECTOR('',#923,1.);
#923=DIRECTION('',(0.,1.,6.34413156928661E-17));
#924=CARTESIAN_POINT('',(-2.43405505313696,-6.56858852602558E-16,10.7273191431177));
#925=AXIS2_PLACEMENT_3D('',#926,#927,#928);
#926=CARTESIAN_POINT('',(0.,0.,0.));
#927=DIRECTION('',(1.22464679914735E-16,-1.,-6.12323399573677E-17));
#928=DIRECTION('',(0.22127773210336,-3.26157345113906E-17,0.975210831192514));
#929=CARTESIAN_POINT('',(-2.43405505313696,28.,10.7273191431177));
#930=CARTESIAN_POINT('',(-2.43405505313696,-6.56858852602558E-16,10.7273191431177));
#931=VECTOR('',#932,1.);
#932=DIRECTION('',(0.,1.,6.34413156928661E-17));
#933=CARTESIAN_POINT('',(-4.33616808572727,28.,10.1092851543678));
#934=AXIS2_PLACEMENT_3D('',#935,#936,#937);
#935=CARTESIAN_POINT('',(0.,28.,1.71450551880629E-15));
#936=DIRECTION('',(6.16297582203915E-33,1.,6.12323399573677E-17));
#937=DIRECTION('',(-0.394197098702479,-5.62741077543833E-17,0.919025923124341));
#938=CARTESIAN_POINT('',(-4.33616808572727,-6.19015185298217E-16,10.1092851543678));
#939=CARTESIAN_POINT('',(-4.33616808572727,-6.19015185298217E-16,10.1092851543678));
#940=VECTOR('',#941,1.);
#941=DIRECTION('',(0.,1.,6.34413156928661E-17));
#942=CARTESIAN_POINT('',(-8.2745518921913,-4.4380476402398E-16,7.247881827364));
#943=AXIS2_PLACEMENT_3D('',#944,#945,#946);
#944=CARTESIAN_POINT('',(0.,0.,0.));
#945=DIRECTION('',(1.22464679914735E-16,-1.,-6.12323399573677E-17));
#946=DIRECTION('',(-0.394197098702479,-1.045493292703E-16,0.919025923124341));
#947=CARTESIAN_POINT('',(-8.2745518921913,28.,7.247881827364));
#948=CARTESIAN_POINT('',(-8.2745518921913,-4.4380476402398E-16,7.247881827364));
#949=VECTOR('',#950,1.);
#950=DIRECTION('',(0.,1.,6.34413156928661E-17));
#951=CARTESIAN_POINT('',(-9.45012239677625,28.,5.62984783861411));
#952=AXIS2_PLACEMENT_3D('',#953,#954,#955);
#953=CARTESIAN_POINT('',(0.,28.,1.71450551880629E-15));
#954=DIRECTION('',(6.16297582203915E-33,1.,6.12323399573677E-17));
#955=DIRECTION('',(-0.859102036070568,-3.13389778874791E-17,0.511804348964919));
#956=CARTESIAN_POINT('',(-9.45012239677625,-3.44728756762271E-16,5.62984783861411));
#957=CARTESIAN_POINT('',(-9.45012239677625,-3.4472875676227E-16,5.6298478386141));
#958=VECTOR('',#959,1.);
#959=DIRECTION('',(0.,1.,6.34413156928661E-17));
#960=CARTESIAN_POINT('',(-10.9544511501033,-6.12323399573676E-17,1.));
#961=AXIS2_PLACEMENT_3D('',#962,#963,#964);
#962=CARTESIAN_POINT('',(0.,0.,0.));
#963=DIRECTION('',(1.22464679914735E-16,-1.,-6.12323399573676E-17));
#964=DIRECTION('',(-0.859102036070568,-1.36548633748959E-16,0.511804348964919));
#965=CARTESIAN_POINT('',(-10.9544511501033,28.,0.999999999999999));
#966=CARTESIAN_POINT('',(-10.9544511501033,-6.12323399573675E-17,0.999999999999997));
#967=VECTOR('',#968,1.);
#968=DIRECTION('',(0.,1.,5.9476233462062E-17));
#969=CARTESIAN_POINT('',(-10.9544511501033,28.,-1.));
#970=AXIS2_PLACEMENT_3D('',#971,#972,#973);
#971=CARTESIAN_POINT('',(0.,28.,1.71450551880629E-15));
#972=DIRECTION('',(6.16297582203915E-33,1.,6.12323399573677E-17));
#973=DIRECTION('',(-0.995859195463938,5.56657635976071E-18,-0.0909090909090911));
#974=CARTESIAN_POINT('',(-10.9544511501033,6.12323399573678E-17,-1.));
#975=CARTESIAN_POINT('',(-10.9544511501033,6.12323399573678E-17,-1.));
#976=VECTOR('',#977,1.);
#977=DIRECTION('',(0.,1.,5.55111512312578E-17));
#978=CARTESIAN_POINT('',(-9.45012239677625,3.44728756762271E-16,-5.62984783861411));
#979=AXIS2_PLACEMENT_3D('',#980,#981,#982);
#980=CARTESIAN_POINT('',(0.,0.,0.));
#981=DIRECTION('',(1.22464679914735E-16,-1.,-6.12323399573677E-17));
#982=DIRECTION('',(-0.995859195463938,-1.16391001252876E-16,-0.0909090909090912));
#983=CARTESIAN_POINT('',(-9.45012239677625,28.,-5.62984783861411));
#984=CARTESIAN_POINT('',(-9.45012239677625,3.44728756762271E-16,-5.62984783861411));
#985=VECTOR('',#986,1.);
#986=DIRECTION('',(0.,1.,6.34413156928661E-17));
#987=CARTESIAN_POINT('',(-8.2745518921913,28.,-7.247881827364));
#988=AXIS2_PLACEMENT_3D('',#989,#990,#991);
#989=CARTESIAN_POINT('',(0.,28.,1.71450551880629E-15));
#990=DIRECTION('',(6.16297582203915E-33,1.,6.12323399573677E-17));
#991=DIRECTION('',(-0.752231990199209,4.03458876385436E-17,-0.658898347942182));
#992=CARTESIAN_POINT('',(-8.2745518921913,4.4380476402398E-16,-7.247881827364));
#993=CARTESIAN_POINT('',(-8.2745518921913,4.4380476402398E-16,-7.247881827364));
#994=VECTOR('',#995,1.);
#995=DIRECTION('',(0.,1.,6.34413156928661E-17));
#996=CARTESIAN_POINT('',(-4.33616808572727,6.19015185298217E-16,-10.1092851543678));
#997=AXIS2_PLACEMENT_3D('',#998,#999,#1000);
#998=CARTESIAN_POINT('',(0.,0.,0.));
#999=DIRECTION('',(1.22464679914735E-16,-1.,-6.12323399573677E-17));
#1000=DIRECTION('',(-0.752231990199209,-5.17759622628269E-17,-0.658898347942182));
#1001=CARTESIAN_POINT('',(-4.33616808572727,28.,-10.1092851543678));
#1002=CARTESIAN_POINT('',(-4.33616808572727,6.19015185298217E-16,-10.1092851543678));
#1003=VECTOR('',#1004,1.);
#1004=DIRECTION('',(0.,1.,6.34413156928661E-17));
#1005=CARTESIAN_POINT('',(-2.43405505313696,28.,-10.7273191431176));
#1006=AXIS2_PLACEMENT_3D('',#1007,#1008,#1009);
#1007=CARTESIAN_POINT('',(0.,28.,1.71450551880629E-15));
#1008=DIRECTION('',(6.16297582203915E-33,1.,6.12323399573677E-17));
#1009=DIRECTION('',(-0.221277732103359,5.97144411456871E-17,-0.975210831192514));
#1010=CARTESIAN_POINT('',(-2.43405505313696,6.56858852602558E-16,-10.7273191431177));
#1011=CARTESIAN_POINT('',(-2.43405505313696,6.56858852602558E-16,-10.7273191431177));
#1012=VECTOR('',#1013,1.);
#1013=DIRECTION('',(0.,1.,0.));
#1014=CARTESIAN_POINT('',(2.43405505313696,6.56858852602558E-16,-10.7273191431177));
#1015=AXIS2_PLACEMENT_3D('',#1016,#1017,#1018);
#1016=CARTESIAN_POINT('',(0.,0.,0.));
#1017=DIRECTION('',(1.22464679914735E-16,-1.,-6.12323399573676E-17));
#1018=DIRECTION('',(-0.22127773210336,3.26157345113906E-17,-0.975210831192514));
#1019=CARTESIAN_POINT('',(2.43405505313697,28.,-10.7273191431176));
#1020=CARTESIAN_POINT('',(2.43405505313696,6.56858852602558E-16,-10.7273191431177));
#1021=VECTOR('',#1022,1.);
#1022=DIRECTION('',(0.,1.,6.34413156928661E-17));
#1023=CARTESIAN_POINT('',(4.33616808572727,28.,-10.1092851543678));
#1024=AXIS2_PLACEMENT_3D('',#1025,#1026,#1027);
#1025=CARTESIAN_POINT('',(0.,28.,1.71450551880629E-15));
#1026=DIRECTION('',(6.16297582203915E-33,1.,6.12323399573677E-17));
#1027=DIRECTION('',(0.39419709870248,5.62741077543833E-17,-0.919025923124341));
#1028=CARTESIAN_POINT('',(4.33616808572727,6.19015185298217E-16,-10.1092851543678));
#1029=CARTESIAN_POINT('',(4.33616808572727,6.19015185298217E-16,-10.1092851543678));
#1030=VECTOR('',#1031,1.);
#1031=DIRECTION('',(0.,1.,0.));
#1032=CARTESIAN_POINT('',(8.2745518921913,4.43804764023979E-16,-7.247881827364));
#1033=AXIS2_PLACEMENT_3D('',#1034,#1035,#1036);
#1034=CARTESIAN_POINT('',(0.,0.,0.));
#1035=DIRECTION('',(1.22464679914735E-16,-1.,-6.12323399573677E-17));
#1036=DIRECTION('',(0.39419709870248,1.045493292703E-16,-0.919025923124341));
#1037=CARTESIAN_POINT('',(8.27455189219131,28.,-7.24788182736399));
#1038=CARTESIAN_POINT('',(8.27455189219131,4.43804764023979E-16,-7.247881827364));
#1039=VECTOR('',#1040,1.);
#1040=DIRECTION('',(0.,1.,6.34413156928661E-17));
#1041=CARTESIAN_POINT('',(9.45012239677625,28.,-5.6298478386141));
#1042=AXIS2_PLACEMENT_3D('',#1043,#1044,#1045);
#1043=CARTESIAN_POINT('',(0.,28.,1.71450551880629E-15));
#1044=DIRECTION('',(6.16297582203915E-33,1.,6.12323399573677E-17));
#1045=DIRECTION('',(0.859102036070568,3.13389778874792E-17,-0.511804348964919));
#1046=CARTESIAN_POINT('',(9.45012239677625,3.4472875676227E-16,-5.6298478386141));
#1047=CARTESIAN_POINT('',(9.45012239677625,3.4472875676227E-16,-5.6298478386141));
#1048=VECTOR('',#1049,1.);
#1049=DIRECTION('',(0.,1.,6.34413156928661E-17));
#1050=CARTESIAN_POINT('',(10.9544511501033,6.12323399573674E-17,-0.999999999999995));
#1051=AXIS2_PLACEMENT_3D('',#1052,#1053,#1054);
#1052=CARTESIAN_POINT('',(0.,0.,0.));
#1053=DIRECTION('',(1.22464679914735E-16,-1.,-6.12323399573676E-17));
#1054=DIRECTION('',(0.859102036070568,1.36548633748959E-16,-0.511804348964918));
#1055=CARTESIAN_POINT('',(10.9544511501033,28.,-0.999999999999993));
#1056=CARTESIAN_POINT('',(10.9544511501033,6.12323399573673E-17,-0.999999999999995));
#1057=VECTOR('',#1058,1.);
#1058=DIRECTION('',(0.,1.,5.9476233462062E-17));
#1059=AXIS2_PLACEMENT_3D('',#1060,#1061,#1062);
#1060=CARTESIAN_POINT('',(0.,28.,1.71450551880629E-15));
#1061=DIRECTION('',(6.16297582203915E-33,1.,6.12323399573677E-17));
#1062=DIRECTION('',(0.995859195463938,-5.56657635976074E-18,0.0909090909090916));
#1063=CARTESIAN_POINT('',(-9.45012239677625,30.,5.62984783861411));
#1064=AXIS2_PLACEMENT_3D('',#1065,#1066,#1067);
#1065=CARTESIAN_POINT('',(0.,30.,1.83697019872103E-15));
#1066=DIRECTION('',(0.,1.,6.12323399573677E-17));
#1067=DIRECTION('',(-0.859102036070568,3.13389778874792E-17,-0.511804348964919));
#1068=CARTESIAN_POINT('',(-2.89927539298809,28.,12.1591201242365));
#1069=CARTESIAN_POINT('',(-2.89927539298809,28.,12.1591201242365));
#1070=VECTOR('',#1071,1.);
#1071=DIRECTION('',(0.309016994374948,0.,-0.951056516295153));
#1072=CARTESIAN_POINT('',(-2.89927539298808,-8.24060710742403E-16,12.1591201242365));
#1073=CARTESIAN_POINT('',(-2.43405505313696,-9.5494462557982E-16,10.7273191431177));
#1074=VECTOR('',#1075,1.);
#1075=DIRECTION('',(-0.309016994374948,-9.60790832287962E-17,0.951056516295153));
#1076=CARTESIAN_POINT('',(-2.89927539298809,-7.44531377029722E-16,12.1591201242365));
#1077=VECTOR('',#1078,1.);
#1078=DIRECTION('',(0.,1.,6.34413156928661E-17));
#1079=CARTESIAN_POINT('',(2.89927539298808,28.,12.1591201242365));
#1080=CARTESIAN_POINT('',(2.43405505313696,28.,10.7273191431177));
#1081=VECTOR('',#1082,1.);
#1082=DIRECTION('',(0.309016994374947,0.,0.951056516295154));
#1083=CARTESIAN_POINT('',(2.89927539298808,-4.69001877755449E-16,12.1591201242365));
#1084=CARTESIAN_POINT('',(2.89927539298808,-7.44531377029722E-16,12.1591201242365));
#1085=VECTOR('',#1086,1.);
#1086=DIRECTION('',(0.,1.,1.26882631385732E-16));
#1087=CARTESIAN_POINT('',(2.89927539298808,-3.89472544042768E-16,12.1591201242365));
#1088=VECTOR('',#1089,1.);
#1089=DIRECTION('',(-0.309016994374947,2.03917486201132E-17,-0.951056516295154));
#1090=CARTESIAN_POINT('',(4.80138842557839,28.,11.5410861354866));
#1091=CARTESIAN_POINT('',(4.80138842557839,28.,11.5410861354866));
#1092=VECTOR('',#1093,1.);
#1093=DIRECTION('',(-0.309016994374947,0.,-0.951056516295154));
#1094=CARTESIAN_POINT('',(4.80138842557839,-5.09831976037695E-16,11.5410861354866));
#1095=CARTESIAN_POINT('',(4.33616808572727,-8.79877486231362E-17,10.1092851543678));
#1096=VECTOR('',#1097,1.);
#1097=DIRECTION('',(0.309016994374947,-2.03917486201132E-17,0.951056516295154));
#1098=CARTESIAN_POINT('',(4.80138842557839,-7.0668770972538E-16,11.5410861354866));
#1099=VECTOR('',#1100,1.);
#1100=DIRECTION('',(0.,1.,6.34413156928661E-17));
#1101=CARTESIAN_POINT('',(9.49251455417932,28.,8.13278349882092));
#1102=CARTESIAN_POINT('',(8.2745518921913,28.,7.247881827364));
#1103=VECTOR('',#1104,1.);
#1104=DIRECTION('',(0.809016994374948,0.,0.587785252292472));
#1105=CARTESIAN_POINT('',(9.49251455417932,1.81259597013092E-16,8.13278349882091));
#1106=CARTESIAN_POINT('',(9.49251455417932,-4.97989363999472E-16,8.13278349882091));
#1107=VECTOR('',#1108,1.);
#1108=DIRECTION('',(0.,1.,0.));
#1109=CARTESIAN_POINT('',(9.49251455417932,6.64508392464065E-16,8.13278349882092));
#1110=VECTOR('',#1111,1.);
#1111=DIRECTION('',(-0.809016994374948,-6.30845408714095E-17,-0.587785252292472));
#1112=CARTESIAN_POINT('',(10.6680850587643,28.,6.51474951007103));
#1113=CARTESIAN_POINT('',(10.6680850587643,28.,6.51474951007102));
#1114=VECTOR('',#1115,1.);
#1115=DIRECTION('',(-0.809016994374948,0.,-0.587785252292473));
#1116=CARTESIAN_POINT('',(10.6680850587643,3.52318537055401E-16,6.51474951007102));
#1117=CARTESIAN_POINT('',(9.45012239677625,8.12577457714004E-16,5.62984783861411));
#1118=VECTOR('',#1119,1.);
#1119=DIRECTION('',(0.809016994374948,6.30845408714095E-17,0.587785252292473));
#1120=CARTESIAN_POINT('',(10.6680850587643,-3.98913356737763E-16,6.51474951007102));
#1121=VECTOR('',#1122,1.);
#1122=DIRECTION('',(0.,1.,6.34413156928661E-17));
#1123=CARTESIAN_POINT('',(12.4599357943771,28.,1.));
#1124=CARTESIAN_POINT('',(10.9544511501033,28.,1.));
#1125=VECTOR('',#1126,1.);
#1126=DIRECTION('',(1.,0.,-1.47490448188623E-16));
#1127=CARTESIAN_POINT('',(12.4599357943771,7.99718767231701E-16,0.999999999999998));
#1128=CARTESIAN_POINT('',(12.4599357943771,-6.12323399573674E-17,0.999999999999996));
#1129=VECTOR('',#1130,1.);
#1130=DIRECTION('',(0.,1.,6.34413156928661E-17));
#1131=CARTESIAN_POINT('',(12.4599357943771,1.46466970885918E-15,1.));
#1132=VECTOR('',#1133,1.);
#1133=DIRECTION('',(-1.,-1.22464679914735E-16,0.));
#1134=CARTESIAN_POINT('',(12.4599357943771,28.,-0.999999999999995));
#1135=CARTESIAN_POINT('',(12.4599357943771,28.,-0.999999999999998));
#1136=VECTOR('',#1137,1.);
#1137=DIRECTION('',(-1.,0.,-7.37452240943117E-17));
#1138=CARTESIAN_POINT('',(12.4599357943771,9.22183447146436E-16,-1.));
#1139=CARTESIAN_POINT('',(10.9544511501033,1.40276569369638E-15,-0.999999999999999));
#1140=VECTOR('',#1141,1.);
#1141=DIRECTION('',(1.,1.22464679914735E-16,7.37452240943117E-17));
#1142=CARTESIAN_POINT('',(12.4599357943771,6.12323399573677E-17,-1.));
#1143=VECTOR('',#1144,1.);
#1144=DIRECTION('',(0.,1.,5.9476233462062E-17));
#1145=CARTESIAN_POINT('',(10.6680850587643,28.,-6.51474951007102));
#1146=CARTESIAN_POINT('',(9.45012239677625,28.,-5.6298478386141));
#1147=VECTOR('',#1148,1.);
#1148=DIRECTION('',(0.809016994374948,0.,-0.587785252292473));
#1149=CARTESIAN_POINT('',(10.6680850587643,1.15014525053093E-15,-6.51474951007102));
#1150=CARTESIAN_POINT('',(10.6680850587643,3.98913356737763E-16,-6.51474951007102));
#1151=VECTOR('',#1152,1.);
#1152=DIRECTION('',(0.,1.,6.34413156928661E-17));
#1153=CARTESIAN_POINT('',(10.6680850587643,1.7053769787625E-15,-6.51474951007102));
#1154=VECTOR('',#1155,1.);
#1155=DIRECTION('',(-0.809016994374948,-1.35067473652009E-16,0.587785252292473));
#1156=CARTESIAN_POINT('',(9.49251455417932,28.,-8.13278349882091));
#1157=CARTESIAN_POINT('',(9.49251455417932,28.,-8.13278349882091));
#1158=VECTOR('',#1159,1.);
#1159=DIRECTION('',(-0.809016994374947,0.,0.587785252292474));
#1160=CARTESIAN_POINT('',(9.49251455417932,1.17723832501204E-15,-8.13278349882092));
#1161=CARTESIAN_POINT('',(8.2745518921913,1.45714511293905E-15,-7.247881827364));
#1162=VECTOR('',#1163,1.);
#1163=DIRECTION('',(0.809016994374947,1.35067473652009E-16,-0.587785252292474));
#1164=CARTESIAN_POINT('',(9.49251455417932,4.97989363999472E-16,-8.13278349882092));
#1165=VECTOR('',#1166,1.);
#1166=DIRECTION('',(0.,1.,6.34413156928661E-17));
#1167=CARTESIAN_POINT('',(4.80138842557839,28.,-11.5410861354866));
#1168=CARTESIAN_POINT('',(4.33616808572727,28.,-10.1092851543678));
#1169=VECTOR('',#1170,1.);
#1170=DIRECTION('',(0.309016994374948,0.,-0.951056516295153));
#1171=CARTESIAN_POINT('',(4.80138842557839,1.09868804084856E-15,-11.5410861354866));
#1172=CARTESIAN_POINT('',(4.80138842557839,7.0668770972538E-16,-11.5410861354866));
#1173=VECTOR('',#1174,1.);
#1174=DIRECTION('',(0.,1.,6.34413156928661E-17));
#1175=CARTESIAN_POINT('',(4.8013884255784,1.29468820641015E-15,-11.5410861354866));
#1176=VECTOR('',#1177,1.);
#1177=DIRECTION('',(-0.309016994374948,-9.60790832287962E-17,0.951056516295153));
#1178=CARTESIAN_POINT('',(2.89927539298809,28.,-12.1591201242365));
#1179=CARTESIAN_POINT('',(2.89927539298809,28.,-12.1591201242365));
#1180=VECTOR('',#1181,1.);
#1181=DIRECTION('',(-0.309016994374948,0.,0.951056516295153));
#1182=CARTESIAN_POINT('',(2.89927539298808,1.02006087630399E-15,-12.1591201242365));
#1183=CARTESIAN_POINT('',(2.43405505313696,9.5494462557982E-16,-10.7273191431177));
#1184=VECTOR('',#1185,1.);
#1185=DIRECTION('',(0.309016994374948,9.60790832287962E-17,-0.951056516295153));
#1186=CARTESIAN_POINT('',(2.89927539298809,7.44531377029722E-16,-12.1591201242365));
#1187=VECTOR('',#1188,1.);
#1188=DIRECTION('',(0.,1.,0.));
#1189=CARTESIAN_POINT('',(-2.89927539298808,28.,-12.1591201242365));
#1190=CARTESIAN_POINT('',(-2.43405505313696,28.,-10.7273191431176));
#1191=VECTOR('',#1192,1.);
#1192=DIRECTION('',(-0.309016994374947,0.,-0.951056516295154));
#1193=CARTESIAN_POINT('',(-2.89927539298809,6.6500204331704E-16,-12.1591201242365));
#1194=CARTESIAN_POINT('',(-2.89927539298808,7.44531377029722E-16,-12.1591201242365));
#1195=VECTOR('',#1196,1.);
#1196=DIRECTION('',(0.,1.,0.));
#1197=CARTESIAN_POINT('',(-2.89927539298808,3.89472544042768E-16,-12.1591201242365));
#1198=VECTOR('',#1199,1.);
#1199=DIRECTION('',(0.309016994374947,-2.03917486201132E-17,0.951056516295154));
#1200=CARTESIAN_POINT('',(-4.80138842557839,28.,-11.5410861354866));
#1201=CARTESIAN_POINT('',(-4.80138842557839,28.,-11.5410861354866));
#1202=VECTOR('',#1203,1.);
#1203=DIRECTION('',(0.309016994374947,0.,0.951056516295154));
#1204=CARTESIAN_POINT('',(-4.80138842557839,5.10687544163789E-16,-11.5410861354866));
#1205=CARTESIAN_POINT('',(-4.33616808572727,8.79877486231362E-17,-10.1092851543678));
#1206=VECTOR('',#1207,1.);
#1207=DIRECTION('',(-0.309016994374947,2.03917486201132E-17,-0.951056516295154));
#1208=CARTESIAN_POINT('',(-4.80138842557839,7.0668770972538E-16,-11.5410861354866));
#1209=VECTOR('',#1210,1.);
#1210=DIRECTION('',(0.,1.,6.34413156928661E-17));
#1211=CARTESIAN_POINT('',(-9.49251455417932,28.,-8.13278349882091));
#1212=CARTESIAN_POINT('',(-8.2745518921913,28.,-7.247881827364));
#1213=VECTOR('',#1214,1.);
#1214=DIRECTION('',(-0.809016994374948,0.,-0.587785252292472));
#1215=CARTESIAN_POINT('',(-9.49251455417932,1.47405685484989E-17,-8.13278349882091));
#1216=CARTESIAN_POINT('',(-9.49251455417932,4.97989363999472E-16,-8.13278349882092));
#1217=VECTOR('',#1218,1.);
#1218=DIRECTION('',(0.,1.,6.34413156928661E-17));
#1219=CARTESIAN_POINT('',(-9.49251455417932,-6.64508392464065E-16,-8.13278349882092));
#1220=VECTOR('',#1221,1.);
#1221=DIRECTION('',(0.809016994374948,6.30845408714095E-17,0.587785252292472));
#1222=CARTESIAN_POINT('',(-10.6680850587643,28.,-6.51474951007102));
#1223=CARTESIAN_POINT('',(-10.6680850587643,28.,-6.51474951007102));
#1224=VECTOR('',#1225,1.);
#1225=DIRECTION('',(0.809016994374948,0.,0.587785252292473));
#1226=CARTESIAN_POINT('',(-10.6680850587643,-1.5631837149381E-16,-6.51474951007102));
#1227=CARTESIAN_POINT('',(-9.45012239677625,-8.12577457714004E-16,-5.62984783861411));
#1228=VECTOR('',#1229,1.);
#1229=DIRECTION('',(-0.809016994374948,-6.30845408714095E-17,-0.587785252292473));
#1230=CARTESIAN_POINT('',(-10.6680850587643,3.98913356737763E-16,-6.51474951007102));
#1231=VECTOR('',#1232,1.);
#1232=DIRECTION('',(0.,1.,6.34413156928661E-17));
#1233=CARTESIAN_POINT('',(-12.4599357943771,28.,-1.));
#1234=CARTESIAN_POINT('',(-10.9544511501033,28.,-0.999999999999999));
#1235=VECTOR('',#1236,1.);
#1236=DIRECTION('',(-1.,0.,-7.37452240943117E-17));
#1237=CARTESIAN_POINT('',(-12.4599357943771,-6.0371860167011E-16,-0.999999999999994));
#1238=CARTESIAN_POINT('',(-12.4599357943771,6.12323399573676E-17,-0.999999999999999));
#1239=VECTOR('',#1240,1.);
#1240=DIRECTION('',(0.,1.,5.9476233462062E-17));
#1241=CARTESIAN_POINT('',(-12.4599357943771,-1.46466970885918E-15,-1.));
#1242=VECTOR('',#1243,1.);
#1243=DIRECTION('',(1.,1.22464679914735E-16,0.));
#1244=CARTESIAN_POINT('',(-12.4599357943771,28.,1.));
#1245=CARTESIAN_POINT('',(-12.4599357943771,28.,1.));
#1246=VECTOR('',#1247,1.);
#1247=DIRECTION('',(1.,0.,2.94980896377247E-16));
#1248=CARTESIAN_POINT('',(-12.4599357943771,-7.26183281584846E-16,1.));
#1249=CARTESIAN_POINT('',(-10.9544511501033,-1.40276569369638E-15,0.999999999999999));
#1250=VECTOR('',#1251,1.);
#1251=DIRECTION('',(-1.,-1.22464679914735E-16,-7.37452240943117E-17));
#1252=CARTESIAN_POINT('',(-12.4599357943771,-6.12323399573677E-17,1.));
#1253=VECTOR('',#1254,1.);
#1254=DIRECTION('',(0.,1.,6.34413156928661E-17));
#1255=CARTESIAN_POINT('',(-10.6680850587643,28.,6.51474951007102));
#1256=CARTESIAN_POINT('',(-9.45012239677625,28.,5.62984783861411));
#1257=VECTOR('',#1258,1.);
#1258=DIRECTION('',(-0.809016994374948,0.,0.587785252292473));
#1259=CARTESIAN_POINT('',(-10.6680850587643,-9.54145084969336E-16,6.51474951007102));
#1260=CARTESIAN_POINT('',(-10.6680850587643,-3.98913356737763E-16,6.51474951007102));
#1261=VECTOR('',#1262,1.);
#1262=DIRECTION('',(0.,1.,6.34413156928661E-17));
#1263=CARTESIAN_POINT('',(-10.6680850587643,-1.7053769787625E-15,6.51474951007102));
#1264=VECTOR('',#1265,1.);
#1265=DIRECTION('',(0.809016994374948,1.35067473652009E-16,-0.587785252292473));
#1266=CARTESIAN_POINT('',(-9.49251455417932,28.,8.13278349882092));
#1267=CARTESIAN_POINT('',(-9.49251455417932,28.,8.13278349882092));
#1268=VECTOR('',#1269,1.);
#1269=DIRECTION('',(0.809016994374947,0.,-0.587785252292474));
#1270=CARTESIAN_POINT('',(-9.49251455417932,-9.81238159450445E-16,8.13278349882092));
#1271=CARTESIAN_POINT('',(-8.2745518921913,-1.45714511293905E-15,7.247881827364));
#1272=VECTOR('',#1273,1.);
#1273=DIRECTION('',(-0.809016994374947,-1.35067473652009E-16,0.587785252292474));
#1274=CARTESIAN_POINT('',(-9.49251455417932,-4.97989363999472E-16,8.13278349882092));
#1275=VECTOR('',#1276,1.);
#1276=DIRECTION('',(0.,1.,0.));
#1277=CARTESIAN_POINT('',(-4.80138842557839,28.,11.5410861354866));
#1278=CARTESIAN_POINT('',(-4.33616808572727,28.,10.1092851543678));
#1279=VECTOR('',#1280,1.);
#1280=DIRECTION('',(-0.309016994374948,0.,0.951056516295153));
#1281=CARTESIAN_POINT('',(-4.80138842557839,-9.02687875286971E-16,11.5410861354866));
#1282=CARTESIAN_POINT('',(-4.80138842557839,-7.0668770972538E-16,11.5410861354866));
#1283=VECTOR('',#1284,1.);
#1284=DIRECTION('',(0.,1.,1.26882631385732E-16));
#1285=CARTESIAN_POINT('',(-4.8013884255784,-1.29468820641015E-15,11.5410861354866));
#1286=VECTOR('',#1287,1.);
#1287=DIRECTION('',(0.309016994374948,9.60790832287962E-17,-0.951056516295153));
#1288=AXIS2_PLACEMENT_3D('',#1289,#1290,#1291);
#1289=CARTESIAN_POINT('',(0.,28.,1.71450551880629E-15));
#1290=DIRECTION('',(3.08148791101958E-33,1.,6.12323399573677E-17));
#1291=DIRECTION('',(0.853446804701142,-3.1913068539021E-17,0.521179960805681));
#1292=AXIS2_PLACEMENT_3D('',#1293,#1294,#1295);
#1293=CARTESIAN_POINT('',(0.,0.,0.));
#1294=DIRECTION('',(1.22464679914735E-16,-1.,-6.12323399573677E-17));
#1295=DIRECTION('',(0.853446804701141,7.26040212229579E-17,0.521179960805682));
#1296=AXIS2_PLACEMENT_3D('',#1297,#1298,#1299);
#1297=CARTESIAN_POINT('',(0.,28.,1.71450551880629E-15));
#1298=DIRECTION('',(3.08148791101958E-33,1.,6.12323399573677E-17));
#1299=DIRECTION('',(0.384111074046272,-5.65350167780304E-17,0.923286890838931));
#1300=AXIS2_PLACEMENT_3D('',#1301,#1302,#1303);
#1301=CARTESIAN_POINT('',(0.,0.,0.));
#1302=DIRECTION('',(1.22464679914735E-16,-1.,-6.12323399573677E-17));
#1303=DIRECTION('',(0.384111074046271,-9.4949770432486E-18,0.923286890838931));
#1304=AXIS2_PLACEMENT_3D('',#1305,#1306,#1307);
#1305=CARTESIAN_POINT('',(0.,28.,1.71450551880629E-15));
#1306=DIRECTION('',(3.08148791101958E-33,1.,6.12323399573677E-17));
#1307=DIRECTION('',(-0.231942031439047,-5.95625101623778E-17,0.972729609938922));
#1308=AXIS2_PLACEMENT_3D('',#1309,#1310,#1311);
#1309=CARTESIAN_POINT('',(0.,0.,0.));
#1310=DIRECTION('',(1.22464679914735E-16,-1.,-6.12323399573677E-17));
#1311=DIRECTION('',(-0.231942031439047,-8.79672168013341E-17,0.972729609938923));
#1312=AXIS2_PLACEMENT_3D('',#1313,#1314,#1315);
#1313=CARTESIAN_POINT('',(0.,28.,1.71450551880629E-15));
#1314=DIRECTION('',(3.08148791101958E-33,1.,6.12323399573677E-17));
#1315=DIRECTION('',(-0.759401164334346,-3.98391491199578E-17,0.650622679905673));
#1316=AXIS2_PLACEMENT_3D('',#1317,#1318,#1319);
#1317=CARTESIAN_POINT('',(0.,0.,0.));
#1318=DIRECTION('',(1.22464679914735E-16,-1.,-6.12323399573677E-17));
#1319=DIRECTION('',(-0.759401164334346,-1.32838969637041E-16,0.650622679905673));
#1320=AXIS2_PLACEMENT_3D('',#1321,#1322,#1323);
#1321=CARTESIAN_POINT('',(0.,28.,1.71450551880629E-15));
#1322=DIRECTION('',(3.08148791101958E-33,1.,6.12323399573677E-17));
#1323=DIRECTION('',(-0.996794863550169,-4.89858719658942E-18,0.0800000000000002));
#1324=AXIS2_PLACEMENT_3D('',#1325,#1326,#1327);
#1325=CARTESIAN_POINT('',(0.,0.,0.));
#1326=DIRECTION('',(1.22464679914735E-16,-1.,-6.12323399573677E-17));
#1327=DIRECTION('',(-0.996794863550169,-1.26970751101913E-16,0.0800000000000001));
#1328=AXIS2_PLACEMENT_3D('',#1329,#1330,#1331);
#1329=CARTESIAN_POINT('',(0.,28.,1.71450551880629E-15));
#1330=DIRECTION('',(3.08148791101958E-33,1.,6.12323399573677E-17));
#1331=DIRECTION('',(-0.853446804701141,3.19130685390211E-17,-0.521179960805682));
#1332=AXIS2_PLACEMENT_3D('',#1333,#1334,#1335);
#1333=CARTESIAN_POINT('',(0.,0.,0.));
#1334=DIRECTION('',(1.22464679914735E-16,-1.,-6.12323399573677E-17));
#1335=DIRECTION('',(-0.853446804701141,-7.26040212229579E-17,-0.521179960805681));
#1336=AXIS2_PLACEMENT_3D('',#1337,#1338,#1339);
#1337=CARTESIAN_POINT('',(0.,28.,1.71450551880629E-15));
#1338=DIRECTION('',(3.08148791101958E-33,1.,6.12323399573677E-17));
#1339=DIRECTION('',(-0.384111074046271,5.65350167780304E-17,-0.923286890838931));
#1340=AXIS2_PLACEMENT_3D('',#1341,#1342,#1343);
#1341=CARTESIAN_POINT('',(0.,0.,0.));
#1342=DIRECTION('',(1.22464679914735E-16,-1.,-6.12323399573677E-17));
#1343=DIRECTION('',(-0.384111074046271,9.49497704324859E-18,-0.923286890838931));
#1344=AXIS2_PLACEMENT_3D('',#1345,#1346,#1347);
#1345=CARTESIAN_POINT('',(0.,28.,1.71450551880629E-15));
#1346=DIRECTION('',(3.08148791101958E-33,1.,6.12323399573677E-17));
#1347=DIRECTION('',(0.231942031439047,5.95625101623777E-17,-0.972729609938922));
#1348=AXIS2_PLACEMENT_3D('',#1349,#1350,#1351);
#1349=CARTESIAN_POINT('',(0.,0.,0.));
#1350=DIRECTION('',(1.22464679914735E-16,-1.,-6.12323399573677E-17));
#1351=DIRECTION('',(0.231942031439047,8.79672168013341E-17,-0.972729609938922));
#1352=AXIS2_PLACEMENT_3D('',#1353,#1354,#1355);
#1353=CARTESIAN_POINT('',(0.,28.,1.71450551880629E-15));
#1354=DIRECTION('',(3.08148791101958E-33,1.,6.12323399573677E-17));
#1355=DIRECTION('',(0.759401164334346,3.98391491199578E-17,-0.650622679905673));
#1356=AXIS2_PLACEMENT_3D('',#1357,#1358,#1359);
#1357=CARTESIAN_POINT('',(0.,0.,0.));
#1358=DIRECTION('',(1.22464679914735E-16,-1.,-6.12323399573677E-17));
#1359=DIRECTION('',(0.759401164334346,1.32838969637041E-16,-0.650622679905673));
#1360=AXIS2_PLACEMENT_3D('',#1361,#1362,#1363);
#1361=CARTESIAN_POINT('',(0.,28.,1.71450551880629E-15));
#1362=DIRECTION('',(3.08148791101958E-33,1.,6.12323399573677E-17));
#1363=DIRECTION('',(0.996794863550169,4.89858719658943E-18,-0.0800000000000003));
#1364=AXIS2_PLACEMENT_3D('',#1365,#1366,#1367);
#1365=CARTESIAN_POINT('',(0.,0.,0.));
#1366=DIRECTION('',(1.22464679914735E-16,-1.,-6.12323399573677E-17));
#1367=DIRECTION('',(0.996794863550169,1.26970751101913E-16,-0.08));
#1368=CARTESIAN_POINT('',(4.80138842557839,-2.,11.5410861354866));
#1369=AXIS2_PLACEMENT_3D('',#1370,#1371,#1372);
#1370=CARTESIAN_POINT('',(2.44929359829471E-16,-2.,-1.22464679914735E-16));
#1371=DIRECTION('',(1.22464679914735E-16,-1.,-6.12323399573677E-17));
#1372=DIRECTION('',(-6.12323399573677E-17,6.12323399573676E-17,-1.));
#1373=CARTESIAN_POINT('',(2.57175827820944E-15,28.,-14.));
#1374=AXIS2_PLACEMENT_3D('',#1375,#1376,#1377);
#1375=CARTESIAN_POINT('',(0.,28.,1.71450551880629E-15));
#1376=DIRECTION('',(0.,1.,6.12323399573677E-17));
#1377=DIRECTION('',(6.12323399573677E-17,6.12323399573677E-17,-1.));
#1378=CARTESIAN_POINT('',(-7.34788079488412E-16,2.44929359829471E-16,-4.));
#1379=AXIS2_PLACEMENT_3D('',#1380,#1381,#1382);
#1380=CARTESIAN_POINT('',(0.,0.,0.));
#1381=DIRECTION('',(1.22464679914735E-16,-1.,-6.12323399573677E-17));
#1382=DIRECTION('',(-6.12323399573677E-17,6.12323399573676E-17,-1.));
#1383=CARTESIAN_POINT('',(2.57175827820944E-15,30.,-14.));
#1384=AXIS2_PLACEMENT_3D('',#1385,#1386,#1387);
#1385=CARTESIAN_POINT('',(0.,30.,1.83697019872103E-15));
#1386=DIRECTION('',(0.,1.,6.12323399573677E-17));
#1387=DIRECTION('',(6.12323399573677E-17,6.12323399573677E-17,-1.));
#1388=CARTESIAN_POINT('',(-4.89858719658941E-16,-2.,-4.));
#1389=AXIS2_PLACEMENT_3D('',#1390,#1391,#1392);
#1390=CARTESIAN_POINT('',(2.44929359829471E-16,-2.,-1.22464679914735E-16));
#1391=DIRECTION('',(1.22464679914735E-16,-1.,-6.12323399573677E-17));
#1392=DIRECTION('',(-6.12323399573677E-17,6.12323399573676E-17,-1.));
ENDSEC;
END-ISO-10303-21;
