ISO-10303-21;
HEADER;
FILE_DESCRIPTION(('STEP AP203'),
    '1');
FILE_NAME('Деталь',
    '',
    ('UNSPECIFIED'),
    ('UNSPECIFIED'),
    'C3D Converter',
    'C3D Toolkit',
    '');
FILE_SCHEMA(('CONFIG_CONTROL_DESIGN'));
ENDSEC;

DATA;
#1=PRODUCT_DEFINITION('','UNSPECIFIED',#28,#31);
#2=SHAPE_DEFINITION_REPRESENTATION(#26,#3);
#3=SHAPE_REPRESENTATION('NONE',(#4),#8);
#4=AXIS2_PLACEMENT_3D('',#5,#6,#7);
#5=CARTESIAN_POINT('',(0.,0.,0.));
#6=DIRECTION('',(0.,0.,1.));
#7=DIRECTION('',(1.,0.,0.));
#8=(GEOMETRIC_REPRESENTATION_CONTEXT(3)GLOBAL_UNCERTAINTY_ASSIGNED_CONTEXT((#10))
GLOBAL_UNIT_ASSIGNED_CONTEXT((#9,#11,#12))REPRESENTATION_CONTEXT('NONE','NONE'));
#9=(LENGTH_UNIT()NAMED_UNIT(*)SI_UNIT(.MILLI.,.METRE.));
#10=UNCERTAINTY_MEASURE_WITH_UNIT(LENGTH_MEASURE(1.E-5),#9,'NONE','NONE');
#11=(NAMED_UNIT(*)PLANE_ANGLE_UNIT()SI_UNIT($,.RADIAN.));
#12=(NAMED_UNIT(*)SI_UNIT($,.STERADIAN.)SOLID_ANGLE_UNIT());
#13=MANIFOLD_SOLID_BREP('',#14);
#14=CLOSED_SHELL('',(#53,#54,#55,#56,#57,#58,#59,#60,#61,#62,#63,#64,#65,#66,#67,
#68,#69,#70,#71,#72,#73,#74,#75,#76,#77,#78,#79));
#15=COLOUR_RGB('',0.564705882352941,0.564705882352941,0.564705882352941);
#16=FILL_AREA_STYLE_COLOUR('',#15);
#17=FILL_AREA_STYLE($,(#16));
#18=SURFACE_STYLE_FILL_AREA(#17);
#19=SURFACE_SIDE_STYLE('',(#18));
#20=SURFACE_STYLE_USAGE(.BOTH.,#19);
#21=PRESENTATION_STYLE_ASSIGNMENT((#20));
#22=MECHANICAL_DESIGN_GEOMETRIC_PRESENTATION_REPRESENTATION('NONE',(#23),#8);
#23=STYLED_ITEM('',(#21),#13);
#24=ADVANCED_BREP_SHAPE_REPRESENTATION('NONE',(#13),#8);
#25=SHAPE_REPRESENTATION_RELATIONSHIP('','',#3,#24);
#26=PRODUCT_DEFINITION_SHAPE('NONE','NONE',#1);
#27=MECHANICAL_CONTEXT('NONE',#32,'mechanical');
#28=PRODUCT_DEFINITION_FORMATION_WITH_SPECIFIED_SOURCE('ANY','UNSPECIFIED',#29,.NOT_KNOWN.);
#29=PRODUCT('','\X2\0414043504420430043B044C\X0\','NONE',(#27));
#30=PRODUCT_RELATED_PRODUCT_CATEGORY('detail','',(#29));
#31=DESIGN_CONTEXT('detailed design',#32,'design');
#32=APPLICATION_CONTEXT('configuration controlled 3d designs of mechanical parts and assemblies');
#33=APPLICATION_PROTOCOL_DEFINITION('international standard','config_control_design',
1994,#32);
#34=CC_DESIGN_DATE_AND_TIME_ASSIGNMENT(#35,#39,(#1));
#35=DATE_AND_TIME(#36,#37);
#36=CALENDAR_DATE(0,1,1);
#37=LOCAL_TIME(0,0,0.,#38);
#38=COORDINATED_UNIVERSAL_TIME_OFFSET(0,0,.AHEAD.);
#39=DATE_TIME_ROLE('creation_date');
#40=CC_DESIGN_APPROVAL(#41,(#1));
#41=APPROVAL(#42,'UNSPECIFIED');
#42=APPROVAL_STATUS('not_yet_approved');
#43=APPROVAL_DATE_TIME(#44,#41);
#44=DATE_AND_TIME(#45,#46);
#45=CALENDAR_DATE(0,1,1);
#46=LOCAL_TIME(0,0,0.,#47);
#47=COORDINATED_UNIVERSAL_TIME_OFFSET(0,0,.AHEAD.);
#48=PERSON('UNSPECIFIED','grigo','UNSPECIFIED',('UNSPECIFIED'),('UNSPECIFIED'),(
'UNSPECIFIED'));
#49=ORGANIZATION('UNSPECIFIED','UNSPECIFIED','UNSPECIFIED');
#50=PERSON_AND_ORGANIZATION(#48,#49);
#51=PERSON_AND_ORGANIZATION_ROLE('creator');
#52=CC_DESIGN_PERSON_AND_ORGANIZATION_ASSIGNMENT(#50,#51,(#28,#1));
#53=ADVANCED_FACE('',(#80),#82,.T.);
#54=ADVANCED_FACE('',(#87),#89,.T.);
#55=ADVANCED_FACE('',(#94),#96,.T.);
#56=ADVANCED_FACE('',(#101),#103,.T.);
#57=ADVANCED_FACE('',(#108),#110,.T.);
#58=ADVANCED_FACE('',(#115),#117,.T.);
#59=ADVANCED_FACE('',(#122),#124,.T.);
#60=ADVANCED_FACE('',(#129),#131,.T.);
#61=ADVANCED_FACE('',(#136),#138,.T.);
#62=ADVANCED_FACE('',(#143),#145,.T.);
#63=ADVANCED_FACE('',(#150),#152,.T.);
#64=ADVANCED_FACE('',(#157),#159,.T.);
#65=ADVANCED_FACE('',(#164,#166),#168,.F.);
#66=ADVANCED_FACE('',(#173),#175,.T.);
#67=ADVANCED_FACE('',(#180),#182,.T.);
#68=ADVANCED_FACE('',(#187),#189,.T.);
#69=ADVANCED_FACE('',(#194),#196,.T.);
#70=ADVANCED_FACE('',(#201),#203,.T.);
#71=ADVANCED_FACE('',(#208,#210),#212,.T.);
#72=ADVANCED_FACE('',(#217),#219,.F.);
#73=ADVANCED_FACE('',(#224),#226,.T.);
#74=ADVANCED_FACE('',(#231),#233,.F.);
#75=ADVANCED_FACE('',(#238),#240,.T.);
#76=ADVANCED_FACE('',(#245),#247,.F.);
#77=ADVANCED_FACE('',(#252),#254,.T.);
#78=ADVANCED_FACE('',(#259),#261,.F.);
#79=ADVANCED_FACE('',(#266,#268),#270,.F.);
#80=FACE_BOUND('',#81,.T.);
#81=EDGE_LOOP('',(#275,#276,#277,#278,#279,#280));
#82=PLANE('',#83);
#83=AXIS2_PLACEMENT_3D('',#84,#85,#86);
#84=CARTESIAN_POINT('',(-47.5,-1.53080849893419E-16,2.5));
#85=DIRECTION('',(-8.14598442952478E-17,0.,1.));
#86=DIRECTION('',(1.,-4.52192973594822E-33,8.14598442952478E-17));
#87=FACE_BOUND('',#88,.T.);
#88=EDGE_LOOP('',(#281,#282,#283,#284));
#89=PLANE('',#90);
#90=AXIS2_PLACEMENT_3D('',#91,#92,#93);
#91=CARTESIAN_POINT('',(-47.5,1.53080849893419E-16,-2.5));
#92=DIRECTION('',(-1.,0.,0.));
#93=DIRECTION('',(0.,-6.12323399573677E-17,1.));
#94=FACE_BOUND('',#95,.T.);
#95=EDGE_LOOP('',(#285,#286,#287,#288,#289,#290));
#96=PLANE('',#97);
#97=AXIS2_PLACEMENT_3D('',#98,#99,#100);
#98=CARTESIAN_POINT('',(-14.790199457749,1.53080849893419E-16,-2.5));
#99=DIRECTION('',(5.43065628634985E-17,-1.89911354915196E-65,-1.));
#100=DIRECTION('',(-1.,3.01461982396548E-33,-5.43065628634985E-17));
#101=FACE_BOUND('',#102,.T.);
#102=EDGE_LOOP('',(#291,#292,#293,#294,#295,#296));
#103=PLANE('',#104);
#104=AXIS2_PLACEMENT_3D('',#105,#106,#107);
#105=CARTESIAN_POINT('',(-2.5,2.90853614797496E-15,-47.5));
#106=DIRECTION('',(-1.,0.,-6.78832035793732E-17));
#107=DIRECTION('',(-6.78832035793732E-17,-6.12323399573677E-17,1.));
#108=FACE_BOUND('',#109,.T.);
#109=EDGE_LOOP('',(#297,#298,#299,#300));
#110=PLANE('',#111);
#111=AXIS2_PLACEMENT_3D('',#112,#113,#114);
#112=CARTESIAN_POINT('',(2.5,2.90853614797496E-15,-47.5));
#113=DIRECTION('',(0.,0.,-1.));
#114=DIRECTION('',(-1.,0.,0.));
#115=FACE_BOUND('',#116,.T.);
#116=EDGE_LOOP('',(#301,#302,#303,#304,#305,#306));
#117=PLANE('',#118);
#118=AXIS2_PLACEMENT_3D('',#119,#120,#121);
#119=CARTESIAN_POINT('',(2.5,9.05638521234164E-16,-14.790199457749));
#120=DIRECTION('',(1.,0.,5.43065628634985E-17));
#121=DIRECTION('',(5.43065628634985E-17,6.12323399573677E-17,-1.));
#122=FACE_BOUND('',#123,.T.);
#123=EDGE_LOOP('',(#307,#308,#309,#310,#311,#312));
#124=PLANE('',#125);
#125=AXIS2_PLACEMENT_3D('',#126,#127,#128);
#126=CARTESIAN_POINT('',(47.5,1.53080849893419E-16,-2.5));
#127=DIRECTION('',(5.43065628634985E-17,-1.89911354915196E-65,-1.));
#128=DIRECTION('',(-1.,3.01461982396548E-33,-5.43065628634985E-17));
#129=FACE_BOUND('',#130,.T.);
#130=EDGE_LOOP('',(#313,#314,#315,#316));
#131=PLANE('',#132);
#132=AXIS2_PLACEMENT_3D('',#133,#134,#135);
#133=CARTESIAN_POINT('',(47.5,-1.53080849893419E-16,2.5));
#134=DIRECTION('',(1.,0.,0.));
#135=DIRECTION('',(0.,6.12323399573677E-17,-1.));
#136=FACE_BOUND('',#137,.T.);
#137=EDGE_LOOP('',(#317,#318,#319,#320,#321,#322));
#138=PLANE('',#139);
#139=AXIS2_PLACEMENT_3D('',#140,#141,#142);
#140=CARTESIAN_POINT('',(14.790199457749,-1.53080849893419E-16,2.5));
#141=DIRECTION('',(-8.14598442952478E-17,0.,1.));
#142=DIRECTION('',(1.,-4.52192973594822E-33,8.14598442952478E-17));
#143=FACE_BOUND('',#144,.T.);
#144=EDGE_LOOP('',(#323,#324,#325,#326,#327,#328));
#145=PLANE('',#146);
#146=AXIS2_PLACEMENT_3D('',#147,#148,#149);
#147=CARTESIAN_POINT('',(2.5,-2.90853614797496E-15,47.5));
#148=DIRECTION('',(1.,0.,6.78832035793732E-17));
#149=DIRECTION('',(6.78832035793732E-17,6.12323399573677E-17,-1.));
#150=FACE_BOUND('',#151,.T.);
#151=EDGE_LOOP('',(#329,#330,#331,#332));
#152=PLANE('',#153);
#153=AXIS2_PLACEMENT_3D('',#154,#155,#156);
#154=CARTESIAN_POINT('',(-2.5,-2.90853614797496E-15,47.5));
#155=DIRECTION('',(0.,0.,1.));
#156=DIRECTION('',(1.,0.,0.));
#157=FACE_BOUND('',#158,.T.);
#158=EDGE_LOOP('',(#333,#334,#335,#336,#337,#338));
#159=PLANE('',#160);
#160=AXIS2_PLACEMENT_3D('',#161,#162,#163);
#161=CARTESIAN_POINT('',(-2.5,-9.05638521234164E-16,14.790199457749));
#162=DIRECTION('',(-1.,0.,-5.43065628634985E-17));
#163=DIRECTION('',(-5.43065628634985E-17,-6.12323399573677E-17,1.));
#164=FACE_BOUND('',#165,.T.);
#165=EDGE_LOOP('',(#339,#340,#341,#342,#343,#344,#345,#346,#347,#348,#349,#350,#351,
#352,#353,#354));
#166=FACE_BOUND('',#167,.T.);
#167=EDGE_LOOP('',(#355));
#168=PLANE('',#169);
#169=AXIS2_PLACEMENT_3D('',#170,#171,#172);
#170=CARTESIAN_POINT('',(0.,0.,0.));
#171=DIRECTION('',(0.,1.,6.12323399573677E-17));
#172=DIRECTION('',(6.12323399573677E-17,6.12323399573677E-17,-1.));
#173=FACE_BOUND('',#174,.T.);
#174=EDGE_LOOP('',(#356,#357,#358,#359));
#175=PLANE('',#176);
#176=AXIS2_PLACEMENT_3D('',#177,#178,#179);
#177=CARTESIAN_POINT('',(-42.5,-10.,2.5));
#178=DIRECTION('',(1.,0.,0.));
#179=DIRECTION('',(0.,0.,-1.));
#180=FACE_BOUND('',#181,.T.);
#181=EDGE_LOOP('',(#360,#361,#362,#363));
#182=PLANE('',#183);
#183=AXIS2_PLACEMENT_3D('',#184,#185,#186);
#184=CARTESIAN_POINT('',(-2.5,-10.,-42.5));
#185=DIRECTION('',(0.,0.,1.));
#186=DIRECTION('',(1.,0.,0.));
#187=FACE_BOUND('',#188,.T.);
#188=EDGE_LOOP('',(#364,#365,#366,#367));
#189=PLANE('',#190);
#190=AXIS2_PLACEMENT_3D('',#191,#192,#193);
#191=CARTESIAN_POINT('',(42.5,-10.,-2.5));
#192=DIRECTION('',(-1.,0.,0.));
#193=DIRECTION('',(0.,0.,1.));
#194=FACE_BOUND('',#195,.T.);
#195=EDGE_LOOP('',(#368,#369,#370,#371));
#196=PLANE('',#197);
#197=AXIS2_PLACEMENT_3D('',#198,#199,#200);
#198=CARTESIAN_POINT('',(2.5,-10.,42.5));
#199=DIRECTION('',(0.,0.,-1.));
#200=DIRECTION('',(-1.,0.,0.));
#201=FACE_BOUND('',#202,.T.);
#202=EDGE_LOOP('',(#372,#373,#374,#375));
#203=CYLINDRICAL_SURFACE('',#204,15.);
#204=AXIS2_PLACEMENT_3D('',#205,#206,#207);
#205=CARTESIAN_POINT('',(0.,0.,0.));
#206=DIRECTION('',(0.,1.,6.12323399573676E-17));
#207=DIRECTION('',(-0.986013297183269,-1.02053899928946E-17,0.166666666666667));
#208=FACE_BOUND('',#209,.T.);
#209=EDGE_LOOP('',(#376,#377,#378,#379,#380,#381,#382,#383,#384,#385,#386,#387,#388,
#389,#390,#391));
#210=FACE_BOUND('',#211,.T.);
#211=EDGE_LOOP('',(#392));
#212=PLANE('',#213);
#213=AXIS2_PLACEMENT_3D('',#214,#215,#216);
#214=CARTESIAN_POINT('',(0.,3.,1.83697019872103E-16));
#215=DIRECTION('',(0.,1.,6.12323399573677E-17));
#216=DIRECTION('',(6.12323399573677E-17,6.12323399573677E-17,-1.));
#217=FACE_BOUND('',#218,.T.);
#218=EDGE_LOOP('',(#393,#394,#395,#396));
#219=PLANE('',#220);
#220=AXIS2_PLACEMENT_3D('',#221,#222,#223);
#221=CARTESIAN_POINT('',(0.,-10.,-6.12323399573677E-16));
#222=DIRECTION('',(0.,1.,6.12323399573677E-17));
#223=DIRECTION('',(6.12323399573677E-17,6.12323399573677E-17,-1.));
#224=FACE_BOUND('',#225,.T.);
#225=EDGE_LOOP('',(#397,#398,#399,#400));
#226=CYLINDRICAL_SURFACE('',#227,15.);
#227=AXIS2_PLACEMENT_3D('',#228,#229,#230);
#228=CARTESIAN_POINT('',(0.,0.,0.));
#229=DIRECTION('',(0.,1.,6.12323399573676E-17));
#230=DIRECTION('',(-0.166666666666667,6.03759014156109E-17,-0.986013297183269));
#231=FACE_BOUND('',#232,.T.);
#232=EDGE_LOOP('',(#401,#402,#403,#404));
#233=PLANE('',#234);
#234=AXIS2_PLACEMENT_3D('',#235,#236,#237);
#235=CARTESIAN_POINT('',(0.,-10.,-6.12323399573677E-16));
#236=DIRECTION('',(0.,1.,6.12323399573677E-17));
#237=DIRECTION('',(6.12323399573677E-17,6.12323399573677E-17,-1.));
#238=FACE_BOUND('',#239,.T.);
#239=EDGE_LOOP('',(#405,#406,#407,#408));
#240=CYLINDRICAL_SURFACE('',#241,15.);
#241=AXIS2_PLACEMENT_3D('',#242,#243,#244);
#242=CARTESIAN_POINT('',(0.,0.,0.));
#243=DIRECTION('',(0.,1.,6.12323399573676E-17));
#244=DIRECTION('',(0.986013297183269,1.02053899928946E-17,-0.166666666666666));
#245=FACE_BOUND('',#246,.T.);
#246=EDGE_LOOP('',(#409,#410,#411,#412));
#247=PLANE('',#248);
#248=AXIS2_PLACEMENT_3D('',#249,#250,#251);
#249=CARTESIAN_POINT('',(0.,-10.,-6.12323399573677E-16));
#250=DIRECTION('',(0.,1.,6.12323399573677E-17));
#251=DIRECTION('',(6.12323399573677E-17,6.12323399573677E-17,-1.));
#252=FACE_BOUND('',#253,.T.);
#253=EDGE_LOOP('',(#413,#414,#415,#416));
#254=CYLINDRICAL_SURFACE('',#255,15.);
#255=AXIS2_PLACEMENT_3D('',#256,#257,#258);
#256=CARTESIAN_POINT('',(0.,0.,0.));
#257=DIRECTION('',(0.,1.,6.12323399573676E-17));
#258=DIRECTION('',(0.166666666666667,-6.03759014156109E-17,0.986013297183269));
#259=FACE_BOUND('',#260,.T.);
#260=EDGE_LOOP('',(#417,#418,#419,#420));
#261=PLANE('',#262);
#262=AXIS2_PLACEMENT_3D('',#263,#264,#265);
#263=CARTESIAN_POINT('',(0.,-10.,-6.12323399573677E-16));
#264=DIRECTION('',(0.,1.,6.12323399573677E-17));
#265=DIRECTION('',(6.12323399573677E-17,6.12323399573677E-17,-1.));
#266=FACE_OUTER_BOUND('',#267,.T.);
#267=EDGE_LOOP('',(#421));
#268=FACE_OUTER_BOUND('',#269,.T.);
#269=EDGE_LOOP('',(#422));
#270=CYLINDRICAL_SURFACE('',#271,13.);
#271=AXIS2_PLACEMENT_3D('',#272,#273,#274);
#272=CARTESIAN_POINT('',(0.,0.,0.));
#273=DIRECTION('',(0.,1.,6.12323399573676E-17));
#274=DIRECTION('',(-0.192307692307692,-6.00894186537466E-17,0.981334678628698));
#275=ORIENTED_EDGE('',*,*,#423,.T.);
#276=ORIENTED_EDGE('',*,*,#424,.T.);
#277=ORIENTED_EDGE('',*,*,#425,.F.);
#278=ORIENTED_EDGE('',*,*,#426,.F.);
#279=ORIENTED_EDGE('',*,*,#427,.T.);
#280=ORIENTED_EDGE('',*,*,#428,.T.);
#281=ORIENTED_EDGE('',*,*,#429,.F.);
#282=ORIENTED_EDGE('',*,*,#430,.F.);
#283=ORIENTED_EDGE('',*,*,#431,.T.);
#284=ORIENTED_EDGE('',*,*,#426,.T.);
#285=ORIENTED_EDGE('',*,*,#432,.T.);
#286=ORIENTED_EDGE('',*,*,#433,.F.);
#287=ORIENTED_EDGE('',*,*,#434,.T.);
#288=ORIENTED_EDGE('',*,*,#430,.T.);
#289=ORIENTED_EDGE('',*,*,#435,.F.);
#290=ORIENTED_EDGE('',*,*,#436,.F.);
#291=ORIENTED_EDGE('',*,*,#437,.T.);
#292=ORIENTED_EDGE('',*,*,#438,.T.);
#293=ORIENTED_EDGE('',*,*,#439,.F.);
#294=ORIENTED_EDGE('',*,*,#440,.F.);
#295=ORIENTED_EDGE('',*,*,#441,.T.);
#296=ORIENTED_EDGE('',*,*,#442,.T.);
#297=ORIENTED_EDGE('',*,*,#443,.F.);
#298=ORIENTED_EDGE('',*,*,#444,.F.);
#299=ORIENTED_EDGE('',*,*,#445,.T.);
#300=ORIENTED_EDGE('',*,*,#440,.T.);
#301=ORIENTED_EDGE('',*,*,#446,.T.);
#302=ORIENTED_EDGE('',*,*,#447,.F.);
#303=ORIENTED_EDGE('',*,*,#448,.T.);
#304=ORIENTED_EDGE('',*,*,#444,.T.);
#305=ORIENTED_EDGE('',*,*,#449,.F.);
#306=ORIENTED_EDGE('',*,*,#450,.F.);
#307=ORIENTED_EDGE('',*,*,#451,.T.);
#308=ORIENTED_EDGE('',*,*,#452,.T.);
#309=ORIENTED_EDGE('',*,*,#453,.F.);
#310=ORIENTED_EDGE('',*,*,#454,.F.);
#311=ORIENTED_EDGE('',*,*,#455,.T.);
#312=ORIENTED_EDGE('',*,*,#456,.T.);
#313=ORIENTED_EDGE('',*,*,#457,.F.);
#314=ORIENTED_EDGE('',*,*,#458,.F.);
#315=ORIENTED_EDGE('',*,*,#459,.T.);
#316=ORIENTED_EDGE('',*,*,#454,.T.);
#317=ORIENTED_EDGE('',*,*,#460,.T.);
#318=ORIENTED_EDGE('',*,*,#461,.F.);
#319=ORIENTED_EDGE('',*,*,#462,.T.);
#320=ORIENTED_EDGE('',*,*,#458,.T.);
#321=ORIENTED_EDGE('',*,*,#463,.F.);
#322=ORIENTED_EDGE('',*,*,#464,.F.);
#323=ORIENTED_EDGE('',*,*,#465,.T.);
#324=ORIENTED_EDGE('',*,*,#466,.T.);
#325=ORIENTED_EDGE('',*,*,#467,.F.);
#326=ORIENTED_EDGE('',*,*,#468,.F.);
#327=ORIENTED_EDGE('',*,*,#469,.T.);
#328=ORIENTED_EDGE('',*,*,#470,.T.);
#329=ORIENTED_EDGE('',*,*,#471,.F.);
#330=ORIENTED_EDGE('',*,*,#472,.F.);
#331=ORIENTED_EDGE('',*,*,#473,.T.);
#332=ORIENTED_EDGE('',*,*,#468,.T.);
#333=ORIENTED_EDGE('',*,*,#474,.T.);
#334=ORIENTED_EDGE('',*,*,#475,.F.);
#335=ORIENTED_EDGE('',*,*,#476,.T.);
#336=ORIENTED_EDGE('',*,*,#472,.T.);
#337=ORIENTED_EDGE('',*,*,#477,.F.);
#338=ORIENTED_EDGE('',*,*,#478,.F.);
#339=ORIENTED_EDGE('',*,*,#479,.F.);
#340=ORIENTED_EDGE('',*,*,#474,.F.);
#341=ORIENTED_EDGE('',*,*,#480,.F.);
#342=ORIENTED_EDGE('',*,*,#423,.F.);
#343=ORIENTED_EDGE('',*,*,#481,.F.);
#344=ORIENTED_EDGE('',*,*,#432,.F.);
#345=ORIENTED_EDGE('',*,*,#482,.F.);
#346=ORIENTED_EDGE('',*,*,#437,.F.);
#347=ORIENTED_EDGE('',*,*,#483,.F.);
#348=ORIENTED_EDGE('',*,*,#446,.F.);
#349=ORIENTED_EDGE('',*,*,#484,.F.);
#350=ORIENTED_EDGE('',*,*,#451,.F.);
#351=ORIENTED_EDGE('',*,*,#485,.F.);
#352=ORIENTED_EDGE('',*,*,#460,.F.);
#353=ORIENTED_EDGE('',*,*,#486,.F.);
#354=ORIENTED_EDGE('',*,*,#465,.F.);
#355=ORIENTED_EDGE('',*,*,#487,.T.);
#356=ORIENTED_EDGE('',*,*,#481,.T.);
#357=ORIENTED_EDGE('',*,*,#428,.F.);
#358=ORIENTED_EDGE('',*,*,#488,.T.);
#359=ORIENTED_EDGE('',*,*,#433,.T.);
#360=ORIENTED_EDGE('',*,*,#483,.T.);
#361=ORIENTED_EDGE('',*,*,#442,.F.);
#362=ORIENTED_EDGE('',*,*,#489,.T.);
#363=ORIENTED_EDGE('',*,*,#447,.T.);
#364=ORIENTED_EDGE('',*,*,#485,.T.);
#365=ORIENTED_EDGE('',*,*,#456,.F.);
#366=ORIENTED_EDGE('',*,*,#490,.T.);
#367=ORIENTED_EDGE('',*,*,#461,.T.);
#368=ORIENTED_EDGE('',*,*,#479,.T.);
#369=ORIENTED_EDGE('',*,*,#470,.F.);
#370=ORIENTED_EDGE('',*,*,#491,.T.);
#371=ORIENTED_EDGE('',*,*,#475,.T.);
#372=ORIENTED_EDGE('',*,*,#480,.T.);
#373=ORIENTED_EDGE('',*,*,#478,.T.);
#374=ORIENTED_EDGE('',*,*,#492,.F.);
#375=ORIENTED_EDGE('',*,*,#424,.F.);
#376=ORIENTED_EDGE('',*,*,#477,.T.);
#377=ORIENTED_EDGE('',*,*,#471,.T.);
#378=ORIENTED_EDGE('',*,*,#467,.T.);
#379=ORIENTED_EDGE('',*,*,#493,.T.);
#380=ORIENTED_EDGE('',*,*,#463,.T.);
#381=ORIENTED_EDGE('',*,*,#457,.T.);
#382=ORIENTED_EDGE('',*,*,#453,.T.);
#383=ORIENTED_EDGE('',*,*,#494,.T.);
#384=ORIENTED_EDGE('',*,*,#449,.T.);
#385=ORIENTED_EDGE('',*,*,#443,.T.);
#386=ORIENTED_EDGE('',*,*,#439,.T.);
#387=ORIENTED_EDGE('',*,*,#495,.T.);
#388=ORIENTED_EDGE('',*,*,#435,.T.);
#389=ORIENTED_EDGE('',*,*,#429,.T.);
#390=ORIENTED_EDGE('',*,*,#425,.T.);
#391=ORIENTED_EDGE('',*,*,#492,.T.);
#392=ORIENTED_EDGE('',*,*,#496,.T.);
#393=ORIENTED_EDGE('',*,*,#488,.F.);
#394=ORIENTED_EDGE('',*,*,#427,.F.);
#395=ORIENTED_EDGE('',*,*,#431,.F.);
#396=ORIENTED_EDGE('',*,*,#434,.F.);
#397=ORIENTED_EDGE('',*,*,#482,.T.);
#398=ORIENTED_EDGE('',*,*,#436,.T.);
#399=ORIENTED_EDGE('',*,*,#495,.F.);
#400=ORIENTED_EDGE('',*,*,#438,.F.);
#401=ORIENTED_EDGE('',*,*,#445,.F.);
#402=ORIENTED_EDGE('',*,*,#448,.F.);
#403=ORIENTED_EDGE('',*,*,#489,.F.);
#404=ORIENTED_EDGE('',*,*,#441,.F.);
#405=ORIENTED_EDGE('',*,*,#484,.T.);
#406=ORIENTED_EDGE('',*,*,#450,.T.);
#407=ORIENTED_EDGE('',*,*,#494,.F.);
#408=ORIENTED_EDGE('',*,*,#452,.F.);
#409=ORIENTED_EDGE('',*,*,#462,.F.);
#410=ORIENTED_EDGE('',*,*,#490,.F.);
#411=ORIENTED_EDGE('',*,*,#455,.F.);
#412=ORIENTED_EDGE('',*,*,#459,.F.);
#413=ORIENTED_EDGE('',*,*,#486,.T.);
#414=ORIENTED_EDGE('',*,*,#464,.T.);
#415=ORIENTED_EDGE('',*,*,#493,.F.);
#416=ORIENTED_EDGE('',*,*,#466,.F.);
#417=ORIENTED_EDGE('',*,*,#491,.F.);
#418=ORIENTED_EDGE('',*,*,#469,.F.);
#419=ORIENTED_EDGE('',*,*,#473,.F.);
#420=ORIENTED_EDGE('',*,*,#476,.F.);
#421=ORIENTED_EDGE('',*,*,#496,.F.);
#422=ORIENTED_EDGE('',*,*,#487,.F.);
#423=EDGE_CURVE('',#497,#498,#499,.T.);
#424=EDGE_CURVE('',#498,#500,#501,.T.);
#425=EDGE_CURVE('',#502,#500,#503,.T.);
#426=EDGE_CURVE('',#504,#502,#505,.T.);
#427=EDGE_CURVE('',#504,#506,#507,.T.);
#428=EDGE_CURVE('',#506,#497,#508,.T.);
#429=EDGE_CURVE('',#509,#502,#510,.T.);
#430=EDGE_CURVE('',#511,#509,#512,.T.);
#431=EDGE_CURVE('',#511,#504,#513,.T.);
#432=EDGE_CURVE('',#514,#515,#516,.T.);
#433=EDGE_CURVE('',#517,#515,#518,.T.);
#434=EDGE_CURVE('',#517,#511,#519,.T.);
#435=EDGE_CURVE('',#520,#509,#521,.T.);
#436=EDGE_CURVE('',#514,#520,#522,.T.);
#437=EDGE_CURVE('',#523,#524,#525,.T.);
#438=EDGE_CURVE('',#524,#526,#527,.T.);
#439=EDGE_CURVE('',#528,#526,#529,.T.);
#440=EDGE_CURVE('',#530,#528,#531,.T.);
#441=EDGE_CURVE('',#530,#532,#533,.T.);
#442=EDGE_CURVE('',#532,#523,#534,.T.);
#443=EDGE_CURVE('',#535,#528,#536,.T.);
#444=EDGE_CURVE('',#537,#535,#538,.T.);
#445=EDGE_CURVE('',#537,#530,#539,.T.);
#446=EDGE_CURVE('',#540,#541,#542,.T.);
#447=EDGE_CURVE('',#543,#541,#544,.T.);
#448=EDGE_CURVE('',#543,#537,#545,.T.);
#449=EDGE_CURVE('',#546,#535,#547,.T.);
#450=EDGE_CURVE('',#540,#546,#548,.T.);
#451=EDGE_CURVE('',#549,#550,#551,.T.);
#452=EDGE_CURVE('',#550,#552,#553,.T.);
#453=EDGE_CURVE('',#554,#552,#555,.T.);
#454=EDGE_CURVE('',#556,#554,#557,.T.);
#455=EDGE_CURVE('',#556,#558,#559,.T.);
#456=EDGE_CURVE('',#558,#549,#560,.T.);
#457=EDGE_CURVE('',#561,#554,#562,.T.);
#458=EDGE_CURVE('',#563,#561,#564,.T.);
#459=EDGE_CURVE('',#563,#556,#565,.T.);
#460=EDGE_CURVE('',#566,#567,#568,.T.);
#461=EDGE_CURVE('',#569,#567,#570,.T.);
#462=EDGE_CURVE('',#569,#563,#571,.T.);
#463=EDGE_CURVE('',#572,#561,#573,.T.);
#464=EDGE_CURVE('',#566,#572,#574,.T.);
#465=EDGE_CURVE('',#575,#576,#577,.T.);
#466=EDGE_CURVE('',#576,#578,#579,.T.);
#467=EDGE_CURVE('',#580,#578,#581,.T.);
#468=EDGE_CURVE('',#582,#580,#583,.T.);
#469=EDGE_CURVE('',#582,#584,#585,.T.);
#470=EDGE_CURVE('',#584,#575,#586,.T.);
#471=EDGE_CURVE('',#587,#580,#588,.T.);
#472=EDGE_CURVE('',#589,#587,#590,.T.);
#473=EDGE_CURVE('',#589,#582,#591,.T.);
#474=EDGE_CURVE('',#592,#593,#594,.T.);
#475=EDGE_CURVE('',#595,#593,#596,.T.);
#476=EDGE_CURVE('',#595,#589,#597,.T.);
#477=EDGE_CURVE('',#598,#587,#599,.T.);
#478=EDGE_CURVE('',#592,#598,#600,.T.);
#479=EDGE_CURVE('',#593,#575,#601,.F.);
#480=EDGE_CURVE('',#498,#592,#602,.T.);
#481=EDGE_CURVE('',#515,#497,#603,.F.);
#482=EDGE_CURVE('',#524,#514,#604,.T.);
#483=EDGE_CURVE('',#541,#523,#605,.F.);
#484=EDGE_CURVE('',#550,#540,#606,.T.);
#485=EDGE_CURVE('',#567,#549,#607,.F.);
#486=EDGE_CURVE('',#576,#566,#608,.T.);
#487=EDGE_CURVE('',#609,#609,#610,.T.);
#488=EDGE_CURVE('',#506,#517,#611,.T.);
#489=EDGE_CURVE('',#532,#543,#612,.T.);
#490=EDGE_CURVE('',#558,#569,#613,.T.);
#491=EDGE_CURVE('',#584,#595,#614,.T.);
#492=EDGE_CURVE('',#500,#598,#615,.T.);
#493=EDGE_CURVE('',#578,#572,#616,.T.);
#494=EDGE_CURVE('',#552,#546,#617,.T.);
#495=EDGE_CURVE('',#526,#520,#618,.T.);
#496=EDGE_CURVE('',#619,#619,#620,.F.);
#497=VERTEX_POINT('',#621);
#498=VERTEX_POINT('',#622);
#499=LINE('',#623,#624);
#500=VERTEX_POINT('',#626);
#501=LINE('',#627,#628);
#502=VERTEX_POINT('',#630);
#503=LINE('',#631,#632);
#504=VERTEX_POINT('',#634);
#505=LINE('',#635,#636);
#506=VERTEX_POINT('',#638);
#507=LINE('',#639,#640);
#508=LINE('',#642,#643);
#509=VERTEX_POINT('',#645);
#510=LINE('',#646,#647);
#511=VERTEX_POINT('',#649);
#512=LINE('',#650,#651);
#513=LINE('',#653,#654);
#514=VERTEX_POINT('',#656);
#515=VERTEX_POINT('',#657);
#516=LINE('',#658,#659);
#517=VERTEX_POINT('',#661);
#518=LINE('',#662,#663);
#519=LINE('',#665,#666);
#520=VERTEX_POINT('',#668);
#521=LINE('',#669,#670);
#522=LINE('',#672,#673);
#523=VERTEX_POINT('',#675);
#524=VERTEX_POINT('',#676);
#525=LINE('',#677,#678);
#526=VERTEX_POINT('',#680);
#527=LINE('',#681,#682);
#528=VERTEX_POINT('',#684);
#529=LINE('',#685,#686);
#530=VERTEX_POINT('',#688);
#531=LINE('',#689,#690);
#532=VERTEX_POINT('',#692);
#533=LINE('',#693,#694);
#534=LINE('',#696,#697);
#535=VERTEX_POINT('',#699);
#536=LINE('',#700,#701);
#537=VERTEX_POINT('',#703);
#538=LINE('',#704,#705);
#539=LINE('',#707,#708);
#540=VERTEX_POINT('',#710);
#541=VERTEX_POINT('',#711);
#542=LINE('',#712,#713);
#543=VERTEX_POINT('',#715);
#544=LINE('',#716,#717);
#545=LINE('',#719,#720);
#546=VERTEX_POINT('',#722);
#547=LINE('',#723,#724);
#548=LINE('',#726,#727);
#549=VERTEX_POINT('',#729);
#550=VERTEX_POINT('',#730);
#551=LINE('',#731,#732);
#552=VERTEX_POINT('',#734);
#553=LINE('',#735,#736);
#554=VERTEX_POINT('',#738);
#555=LINE('',#739,#740);
#556=VERTEX_POINT('',#742);
#557=LINE('',#743,#744);
#558=VERTEX_POINT('',#746);
#559=LINE('',#747,#748);
#560=LINE('',#750,#751);
#561=VERTEX_POINT('',#753);
#562=LINE('',#754,#755);
#563=VERTEX_POINT('',#757);
#564=LINE('',#758,#759);
#565=LINE('',#761,#762);
#566=VERTEX_POINT('',#764);
#567=VERTEX_POINT('',#765);
#568=LINE('',#766,#767);
#569=VERTEX_POINT('',#769);
#570=LINE('',#770,#771);
#571=LINE('',#773,#774);
#572=VERTEX_POINT('',#776);
#573=LINE('',#777,#778);
#574=LINE('',#780,#781);
#575=VERTEX_POINT('',#783);
#576=VERTEX_POINT('',#784);
#577=LINE('',#785,#786);
#578=VERTEX_POINT('',#788);
#579=LINE('',#789,#790);
#580=VERTEX_POINT('',#792);
#581=LINE('',#793,#794);
#582=VERTEX_POINT('',#796);
#583=LINE('',#797,#798);
#584=VERTEX_POINT('',#800);
#585=LINE('',#801,#802);
#586=LINE('',#804,#805);
#587=VERTEX_POINT('',#807);
#588=LINE('',#808,#809);
#589=VERTEX_POINT('',#811);
#590=LINE('',#812,#813);
#591=LINE('',#815,#816);
#592=VERTEX_POINT('',#818);
#593=VERTEX_POINT('',#819);
#594=LINE('',#820,#821);
#595=VERTEX_POINT('',#823);
#596=LINE('',#824,#825);
#597=LINE('',#827,#828);
#598=VERTEX_POINT('',#830);
#599=LINE('',#831,#832);
#600=LINE('',#834,#835);
#601=LINE('',#837,#838);
#602=CIRCLE('',#840,15.);
#603=LINE('',#844,#845);
#604=CIRCLE('',#847,15.);
#605=LINE('',#851,#852);
#606=CIRCLE('',#854,15.);
#607=LINE('',#858,#859);
#608=CIRCLE('',#861,15.);
#609=VERTEX_POINT('',#865);
#610=CIRCLE('',#866,13.);
#611=LINE('',#870,#871);
#612=LINE('',#873,#874);
#613=LINE('',#876,#877);
#614=LINE('',#879,#880);
#615=CIRCLE('',#882,15.);
#616=CIRCLE('',#886,15.);
#617=CIRCLE('',#890,15.);
#618=CIRCLE('',#894,15.);
#619=VERTEX_POINT('',#898);
#620=CIRCLE('',#899,13.);
#621=CARTESIAN_POINT('',(-42.5,-1.02053899928946E-16,2.5));
#622=CARTESIAN_POINT('',(-14.790199457749,-1.53080849893419E-16,2.5));
#623=CARTESIAN_POINT('',(-42.5,-1.53080849893419E-16,2.5));
#624=VECTOR('',#625,1.);
#625=DIRECTION('',(1.,-6.2275194927505E-33,8.01321556199819E-17));
#626=CARTESIAN_POINT('',(-14.790199457749,3.,2.5));
#627=CARTESIAN_POINT('',(-14.790199457749,-1.53080849893419E-16,2.5));
#628=VECTOR('',#629,1.);
#629=DIRECTION('',(0.,1.,0.));
#630=CARTESIAN_POINT('',(-47.5,3.,2.5));
#631=CARTESIAN_POINT('',(-47.5,3.,2.5));
#632=VECTOR('',#633,1.);
#633=DIRECTION('',(1.,0.,8.14598442952478E-17));
#634=CARTESIAN_POINT('',(-47.5,-10.,2.5));
#635=CARTESIAN_POINT('',(-47.5,-10.,2.5));
#636=VECTOR('',#637,1.);
#637=DIRECTION('',(0.,1.,3.41607084500048E-17));
#638=CARTESIAN_POINT('',(-42.5,-10.,2.5));
#639=CARTESIAN_POINT('',(-47.5,-10.,2.5));
#640=VECTOR('',#641,1.);
#641=DIRECTION('',(1.,0.,1.77635683940025E-16));
#642=CARTESIAN_POINT('',(-42.5,-10.,2.5));
#643=VECTOR('',#644,1.);
#644=DIRECTION('',(0.,1.,0.));
#645=CARTESIAN_POINT('',(-47.5,3.,-2.5));
#646=CARTESIAN_POINT('',(-47.5,3.,-2.5));
#647=VECTOR('',#648,1.);
#648=DIRECTION('',(0.,0.,1.));
#649=CARTESIAN_POINT('',(-47.5,-10.,-2.5));
#650=CARTESIAN_POINT('',(-47.5,-10.,-2.5));
#651=VECTOR('',#652,1.);
#652=DIRECTION('',(0.,1.,3.41607084500048E-17));
#653=CARTESIAN_POINT('',(-47.5,-10.,-2.5));
#654=VECTOR('',#655,1.);
#655=DIRECTION('',(0.,0.,1.));
#656=CARTESIAN_POINT('',(-14.790199457749,1.53080849893419E-16,-2.5));
#657=CARTESIAN_POINT('',(-42.5,1.02053899928946E-16,-2.5));
#658=CARTESIAN_POINT('',(-14.790199457749,1.53080849893419E-16,-2.5));
#659=VECTOR('',#660,1.);
#660=DIRECTION('',(-1.,2.6689369254645E-33,-4.80792933719891E-17));
#661=CARTESIAN_POINT('',(-42.5,-10.,-2.5));
#662=CARTESIAN_POINT('',(-42.5,-10.,-2.5));
#663=VECTOR('',#664,1.);
#664=DIRECTION('',(0.,1.,0.));
#665=CARTESIAN_POINT('',(-42.5,-10.,-2.5));
#666=VECTOR('',#667,1.);
#667=DIRECTION('',(-1.,0.,-1.77635683940025E-16));
#668=CARTESIAN_POINT('',(-14.790199457749,3.,-2.5));
#669=CARTESIAN_POINT('',(-14.790199457749,3.,-2.5));
#670=VECTOR('',#671,1.);
#671=DIRECTION('',(-1.,0.,-5.43065628634985E-17));
#672=CARTESIAN_POINT('',(-14.790199457749,1.53080849893419E-16,-2.5));
#673=VECTOR('',#674,1.);
#674=DIRECTION('',(0.,1.,0.));
#675=CARTESIAN_POINT('',(-2.5,2.03097577202546E-15,-42.5));
#676=CARTESIAN_POINT('',(-2.5,9.05638521234164E-16,-14.790199457749));
#677=CARTESIAN_POINT('',(-2.5,2.60237444818813E-15,-42.5));
#678=VECTOR('',#679,1.);
#679=DIRECTION('',(-8.01321556199819E-17,-6.12323399573677E-17,1.));
#680=CARTESIAN_POINT('',(-2.5,3.,-14.790199457749));
#681=CARTESIAN_POINT('',(-2.5,9.05638521234164E-16,-14.790199457749));
#682=VECTOR('',#683,1.);
#683=DIRECTION('',(0.,1.,0.));
#684=CARTESIAN_POINT('',(-2.5,3.,-47.5));
#685=CARTESIAN_POINT('',(-2.5,3.,-47.5));
#686=VECTOR('',#687,1.);
#687=DIRECTION('',(-6.78832035793732E-17,-6.78832035793732E-17,1.));
#688=CARTESIAN_POINT('',(-2.5,-10.,-47.5));
#689=CARTESIAN_POINT('',(-2.49999999999999,-10.,-47.5));
#690=VECTOR('',#691,1.);
#691=DIRECTION('',(0.,1.,0.));
#692=CARTESIAN_POINT('',(-2.5,-10.,-42.5));
#693=CARTESIAN_POINT('',(-2.5,-10.,-47.5));
#694=VECTOR('',#695,1.);
#695=DIRECTION('',(-8.88178419700125E-17,-7.105427357601E-16,1.));
#696=CARTESIAN_POINT('',(-2.5,-10.,-42.5));
#697=VECTOR('',#698,1.);
#698=DIRECTION('',(0.,1.,0.));
#699=CARTESIAN_POINT('',(2.5,3.,-47.5));
#700=CARTESIAN_POINT('',(2.5,3.,-47.5));
#701=VECTOR('',#702,1.);
#702=DIRECTION('',(-1.,0.,0.));
#703=CARTESIAN_POINT('',(2.5,-10.,-47.5));
#704=CARTESIAN_POINT('',(2.5,-10.,-47.5));
#705=VECTOR('',#706,1.);
#706=DIRECTION('',(0.,1.,0.));
#707=CARTESIAN_POINT('',(2.5,-10.,-47.5));
#708=VECTOR('',#709,1.);
#709=DIRECTION('',(-1.,0.,0.));
#710=CARTESIAN_POINT('',(2.50000000000001,9.05638521234164E-16,-14.790199457749));
#711=CARTESIAN_POINT('',(2.5,2.03097577202546E-15,-42.5));
#712=CARTESIAN_POINT('',(2.5,9.05638521234164E-16,-14.790199457749));
#713=VECTOR('',#714,1.);
#714=DIRECTION('',(6.41057244959855E-17,6.12323399573677E-17,-1.));
#715=CARTESIAN_POINT('',(2.5,-10.,-42.5));
#716=CARTESIAN_POINT('',(2.5,-10.,-42.5));
#717=VECTOR('',#718,1.);
#718=DIRECTION('',(0.,1.,0.));
#719=CARTESIAN_POINT('',(2.5,-10.,-42.5));
#720=VECTOR('',#721,1.);
#721=DIRECTION('',(8.88178419700125E-17,7.105427357601E-16,-1.));
#722=CARTESIAN_POINT('',(2.50000000000001,3.,-14.790199457749));
#723=CARTESIAN_POINT('',(2.5,3.,-14.790199457749));
#724=VECTOR('',#725,1.);
#725=DIRECTION('',(5.43065628634985E-17,6.78832035793732E-17,-1.));
#726=CARTESIAN_POINT('',(2.50000000000001,9.05638521234164E-16,-14.790199457749));
#727=VECTOR('',#728,1.);
#728=DIRECTION('',(0.,1.,0.));
#729=CARTESIAN_POINT('',(42.5,1.02053899928946E-16,-2.5));
#730=CARTESIAN_POINT('',(14.790199457749,1.53080849893419E-16,-2.49999999999999));
#731=CARTESIAN_POINT('',(42.5,1.53080849893419E-16,-2.5));
#732=VECTOR('',#733,1.);
#733=DIRECTION('',(-1.,2.6689369254645E-33,-4.80792933719891E-17));
#734=CARTESIAN_POINT('',(14.790199457749,3.,-2.49999999999999));
#735=CARTESIAN_POINT('',(14.790199457749,1.53080849893419E-16,-2.49999999999999));
#736=VECTOR('',#737,1.);
#737=DIRECTION('',(0.,1.,0.));
#738=CARTESIAN_POINT('',(47.5,3.,-2.5));
#739=CARTESIAN_POINT('',(47.5,3.,-2.5));
#740=VECTOR('',#741,1.);
#741=DIRECTION('',(-1.,0.,-5.43065628634985E-17));
#742=CARTESIAN_POINT('',(47.5,-10.,-2.5));
#743=CARTESIAN_POINT('',(47.5,-10.,-2.5));
#744=VECTOR('',#745,1.);
#745=DIRECTION('',(0.,1.,3.41607084500048E-17));
#746=CARTESIAN_POINT('',(42.5,-10.,-2.5));
#747=CARTESIAN_POINT('',(47.5,-10.,-2.5));
#748=VECTOR('',#749,1.);
#749=DIRECTION('',(-1.,0.,0.));
#750=CARTESIAN_POINT('',(42.5,-10.,-2.5));
#751=VECTOR('',#752,1.);
#752=DIRECTION('',(0.,1.,0.));
#753=CARTESIAN_POINT('',(47.5,3.,2.5));
#754=CARTESIAN_POINT('',(47.5,3.,2.5));
#755=VECTOR('',#756,1.);
#756=DIRECTION('',(0.,0.,-1.));
#757=CARTESIAN_POINT('',(47.5,-10.,2.5));
#758=CARTESIAN_POINT('',(47.5,-10.,2.5));
#759=VECTOR('',#760,1.);
#760=DIRECTION('',(0.,1.,3.41607084500048E-17));
#761=CARTESIAN_POINT('',(47.5,-10.,2.5));
#762=VECTOR('',#763,1.);
#763=DIRECTION('',(0.,0.,-1.));
#764=CARTESIAN_POINT('',(14.790199457749,-1.53080849893419E-16,2.5));
#765=CARTESIAN_POINT('',(42.5,-1.02053899928946E-16,2.5));
#766=CARTESIAN_POINT('',(14.790199457749,-1.53080849893419E-16,2.5));
#767=VECTOR('',#768,1.);
#768=DIRECTION('',(1.,-7.117165134572E-33,8.01321556199819E-17));
#769=CARTESIAN_POINT('',(42.5,-10.,2.5));
#770=CARTESIAN_POINT('',(42.5,-10.,2.5));
#771=VECTOR('',#772,1.);
#772=DIRECTION('',(0.,1.,0.));
#773=CARTESIAN_POINT('',(42.5,-10.,2.5));
#774=VECTOR('',#775,1.);
#775=DIRECTION('',(1.,0.,0.));
#776=CARTESIAN_POINT('',(14.790199457749,3.,2.5));
#777=CARTESIAN_POINT('',(14.790199457749,3.,2.5));
#778=VECTOR('',#779,1.);
#779=DIRECTION('',(1.,0.,8.14598442952478E-17));
#780=CARTESIAN_POINT('',(14.790199457749,-1.53080849893419E-16,2.5));
#781=VECTOR('',#782,1.);
#782=DIRECTION('',(0.,1.,0.));
#783=CARTESIAN_POINT('',(2.5,-2.03097577202546E-15,42.5));
#784=CARTESIAN_POINT('',(2.5,-9.05638521234164E-16,14.790199457749));
#785=CARTESIAN_POINT('',(2.5,-2.60237444818813E-15,42.5));
#786=VECTOR('',#787,1.);
#787=DIRECTION('',(8.01321556199819E-17,6.12323399573677E-17,-1.));
#788=CARTESIAN_POINT('',(2.5,3.,14.790199457749));
#789=CARTESIAN_POINT('',(2.5,-9.05638521234164E-16,14.790199457749));
#790=VECTOR('',#791,1.);
#791=DIRECTION('',(0.,1.,0.));
#792=CARTESIAN_POINT('',(2.5,3.,47.5));
#793=CARTESIAN_POINT('',(2.5,3.,47.5));
#794=VECTOR('',#795,1.);
#795=DIRECTION('',(6.78832035793732E-17,6.78832035793732E-17,-1.));
#796=CARTESIAN_POINT('',(2.5,-10.,47.5));
#797=CARTESIAN_POINT('',(2.5,-10.,47.5));
#798=VECTOR('',#799,1.);
#799=DIRECTION('',(0.,1.,0.));
#800=CARTESIAN_POINT('',(2.5,-10.,42.5));
#801=CARTESIAN_POINT('',(2.5,-10.,47.5));
#802=VECTOR('',#803,1.);
#803=DIRECTION('',(8.88178419700125E-17,7.105427357601E-16,-1.));
#804=CARTESIAN_POINT('',(2.5,-10.,42.5));
#805=VECTOR('',#806,1.);
#806=DIRECTION('',(0.,1.,0.));
#807=CARTESIAN_POINT('',(-2.5,3.,47.5));
#808=CARTESIAN_POINT('',(-2.5,3.,47.5));
#809=VECTOR('',#810,1.);
#810=DIRECTION('',(1.,0.,0.));
#811=CARTESIAN_POINT('',(-2.5,-10.,47.5));
#812=CARTESIAN_POINT('',(-2.5,-10.,47.5));
#813=VECTOR('',#814,1.);
#814=DIRECTION('',(0.,1.,0.));
#815=CARTESIAN_POINT('',(-2.5,-10.,47.5));
#816=VECTOR('',#817,1.);
#817=DIRECTION('',(1.,0.,0.));
#818=CARTESIAN_POINT('',(-2.5,-9.05638521234164E-16,14.790199457749));
#819=CARTESIAN_POINT('',(-2.5,-2.03097577202546E-15,42.5));
#820=CARTESIAN_POINT('',(-2.5,-9.05638521234164E-16,14.790199457749));
#821=VECTOR('',#822,1.);
#822=DIRECTION('',(-4.80792933719891E-17,-6.12323399573677E-17,1.));
#823=CARTESIAN_POINT('',(-2.5,-10.,42.5));
#824=CARTESIAN_POINT('',(-2.5,-10.,42.5));
#825=VECTOR('',#826,1.);
#826=DIRECTION('',(0.,1.,0.));
#827=CARTESIAN_POINT('',(-2.5,-10.,42.5));
#828=VECTOR('',#829,1.);
#829=DIRECTION('',(-8.88178419700125E-17,-7.105427357601E-16,1.));
#830=CARTESIAN_POINT('',(-2.5,3.,14.790199457749));
#831=CARTESIAN_POINT('',(-2.5,3.,14.790199457749));
#832=VECTOR('',#833,1.);
#833=DIRECTION('',(-5.43065628634985E-17,-6.78832035793732E-17,1.));
#834=CARTESIAN_POINT('',(-2.5,-9.05638521234164E-16,14.790199457749));
#835=VECTOR('',#836,1.);
#836=DIRECTION('',(0.,1.,0.));
#837=CARTESIAN_POINT('',(2.5,-2.18936564379419E-15,42.5));
#838=VECTOR('',#839,1.);
#839=DIRECTION('',(-1.,0.,0.));
#840=AXIS2_PLACEMENT_3D('',#841,#842,#843);
#841=CARTESIAN_POINT('',(0.,0.,0.));
#842=DIRECTION('',(0.,1.,6.12323399573677E-17));
#843=DIRECTION('',(-0.986013297183269,-1.02053899928946E-17,0.166666666666667));
#844=CARTESIAN_POINT('',(-42.5,-7.65404249467095E-17,2.5));
#845=VECTOR('',#846,1.);
#846=DIRECTION('',(0.,3.06161699786838E-17,-1.));
#847=AXIS2_PLACEMENT_3D('',#848,#849,#850);
#848=CARTESIAN_POINT('',(0.,0.,0.));
#849=DIRECTION('',(0.,1.,6.12323399573677E-17));
#850=DIRECTION('',(-0.166666666666667,6.03759014156109E-17,-0.986013297183269));
#851=CARTESIAN_POINT('',(-2.5,2.18936564379419E-15,-42.5));
#852=VECTOR('',#853,1.);
#853=DIRECTION('',(1.,0.,0.));
#854=AXIS2_PLACEMENT_3D('',#855,#856,#857);
#855=CARTESIAN_POINT('',(0.,0.,0.));
#856=DIRECTION('',(0.,1.,6.12323399573677E-17));
#857=DIRECTION('',(0.986013297183269,1.02053899928946E-17,-0.166666666666666));
#858=CARTESIAN_POINT('',(42.5,7.65404249467095E-17,-2.5));
#859=VECTOR('',#860,1.);
#860=DIRECTION('',(0.,-3.06161699786838E-17,1.));
#861=AXIS2_PLACEMENT_3D('',#862,#863,#864);
#862=CARTESIAN_POINT('',(0.,0.,0.));
#863=DIRECTION('',(0.,1.,6.12323399573677E-17));
#864=DIRECTION('',(0.166666666666667,-6.03759014156109E-17,0.986013297183269));
#865=CARTESIAN_POINT('',(-2.5,-7.81162442498706E-16,12.7573508221731));
#866=AXIS2_PLACEMENT_3D('',#867,#868,#869);
#867=CARTESIAN_POINT('',(0.,0.,0.));
#868=DIRECTION('',(0.,1.,6.12323399573677E-17));
#869=DIRECTION('',(-0.192307692307692,-6.00894186537466E-17,0.981334678628698));
#870=CARTESIAN_POINT('',(-42.5,-10.,2.5));
#871=VECTOR('',#872,1.);
#872=DIRECTION('',(0.,0.,-1.));
#873=CARTESIAN_POINT('',(-2.5,-10.,-42.5));
#874=VECTOR('',#875,1.);
#875=DIRECTION('',(1.,0.,0.));
#876=CARTESIAN_POINT('',(42.5,-10.,-2.5));
#877=VECTOR('',#878,1.);
#878=DIRECTION('',(0.,0.,1.));
#879=CARTESIAN_POINT('',(2.5,-10.,42.5));
#880=VECTOR('',#881,1.);
#881=DIRECTION('',(-1.,0.,0.));
#882=AXIS2_PLACEMENT_3D('',#883,#884,#885);
#883=CARTESIAN_POINT('',(0.,3.,1.83697019872103E-16));
#884=DIRECTION('',(0.,1.,6.12323399573677E-17));
#885=DIRECTION('',(-0.986013297183269,-1.02053899928946E-17,0.166666666666667));
#886=AXIS2_PLACEMENT_3D('',#887,#888,#889);
#887=CARTESIAN_POINT('',(0.,3.,1.83697019872103E-16));
#888=DIRECTION('',(0.,1.,6.12323399573677E-17));
#889=DIRECTION('',(0.166666666666667,-6.03759014156109E-17,0.986013297183269));
#890=AXIS2_PLACEMENT_3D('',#891,#892,#893);
#891=CARTESIAN_POINT('',(0.,3.,1.83697019872103E-16));
#892=DIRECTION('',(0.,1.,6.12323399573677E-17));
#893=DIRECTION('',(0.986013297183269,1.02053899928946E-17,-0.166666666666666));
#894=AXIS2_PLACEMENT_3D('',#895,#896,#897);
#895=CARTESIAN_POINT('',(0.,3.,1.83697019872103E-16));
#896=DIRECTION('',(0.,1.,6.12323399573677E-17));
#897=DIRECTION('',(-0.166666666666667,6.03759014156109E-17,-0.986013297183269));
#898=CARTESIAN_POINT('',(-2.5,3.,12.7573508221731));
#899=AXIS2_PLACEMENT_3D('',#900,#901,#902);
#900=CARTESIAN_POINT('',(0.,3.,1.83697019872103E-16));
#901=DIRECTION('',(0.,1.,6.12323399573677E-17));
#902=DIRECTION('',(-0.192307692307692,-6.00894186537466E-17,0.981334678628698));
ENDSEC;
END-ISO-10303-21;
