ISO-10303-21;
HEADER;
FILE_DESCRIPTION(('STEP AP203'),
    '1');
FILE_NAME('Корпус нижняя часть v2',
    '',
    ('UNSPECIFIED'),
    ('UNSPECIFIED'),
    'C3D Converter',
    'C3D Toolkit',
    '');
FILE_SCHEMA(('CONFIG_CONTROL_DESIGN'));
ENDSEC;

DATA;
#1=PRODUCT_DEFINITION('','UNSPECIFIED',#28,#31);
#2=SHAPE_DEFINITION_REPRESENTATION(#26,#3);
#3=SHAPE_REPRESENTATION('NONE',(#4),#8);
#4=AXIS2_PLACEMENT_3D('',#5,#6,#7);
#5=CARTESIAN_POINT('',(0.,0.,0.));
#6=DIRECTION('',(0.,0.,1.));
#7=DIRECTION('',(1.,0.,0.));
#8=(GEOMETRIC_REPRESENTATION_CONTEXT(3)GLOBAL_UNCERTAINTY_ASSIGNED_CONTEXT((#10))
GLOBAL_UNIT_ASSIGNED_CONTEXT((#9,#11,#12))REPRESENTATION_CONTEXT('NONE','NONE'));
#9=(LENGTH_UNIT()NAMED_UNIT(*)SI_UNIT(.MILLI.,.METRE.));
#10=UNCERTAINTY_MEASURE_WITH_UNIT(LENGTH_MEASURE(1.E-5),#9,'NONE','NONE');
#11=(NAMED_UNIT(*)PLANE_ANGLE_UNIT()SI_UNIT($,.RADIAN.));
#12=(NAMED_UNIT(*)SI_UNIT($,.STERADIAN.)SOLID_ANGLE_UNIT());
#13=MANIFOLD_SOLID_BREP('',#14);
#14=CLOSED_SHELL('',(#53,#54,#55,#56,#57,#58,#59,#60,#61,#62,#63,#64,#65,#66,#67,
#68,#69,#70,#71,#72,#73,#74,#75,#76,#77,#78,#79,#80,#81,#82,#83,#84,#85,#86,#87,
#88,#89,#90,#91,#92,#93,#94,#95,#96,#97,#98,#99,#100,#101,#102,#103,#104,#105,#106,
#107,#108,#109,#110,#111,#112,#113,#114,#115,#116,#117,#118));
#15=COLOUR_RGB('',0.564705882352941,0.564705882352941,0.564705882352941);
#16=FILL_AREA_STYLE_COLOUR('',#15);
#17=FILL_AREA_STYLE($,(#16));
#18=SURFACE_STYLE_FILL_AREA(#17);
#19=SURFACE_SIDE_STYLE('',(#18));
#20=SURFACE_STYLE_USAGE(.BOTH.,#19);
#21=PRESENTATION_STYLE_ASSIGNMENT((#20));
#22=MECHANICAL_DESIGN_GEOMETRIC_PRESENTATION_REPRESENTATION('NONE',(#23),#8);
#23=STYLED_ITEM('',(#21),#13);
#24=ADVANCED_BREP_SHAPE_REPRESENTATION('NONE',(#13),#8);
#25=SHAPE_REPRESENTATION_RELATIONSHIP('','',#3,#24);
#26=PRODUCT_DEFINITION_SHAPE('NONE','NONE',#1);
#27=MECHANICAL_CONTEXT('NONE',#32,'mechanical');
#28=PRODUCT_DEFINITION_FORMATION_WITH_SPECIFIED_SOURCE('ANY','UNSPECIFIED',#29,.NOT_KNOWN.);
#29=PRODUCT('','\X2\0414043504420430043B044C\X0\','NONE',(#27));
#30=PRODUCT_RELATED_PRODUCT_CATEGORY('detail','',(#29));
#31=DESIGN_CONTEXT('detailed design',#32,'design');
#32=APPLICATION_CONTEXT('configuration controlled 3d designs of mechanical parts and assemblies');
#33=APPLICATION_PROTOCOL_DEFINITION('international standard','config_control_design',
1994,#32);
#34=CC_DESIGN_DATE_AND_TIME_ASSIGNMENT(#35,#39,(#1));
#35=DATE_AND_TIME(#36,#37);
#36=CALENDAR_DATE(0,1,1);
#37=LOCAL_TIME(0,0,0.,#38);
#38=COORDINATED_UNIVERSAL_TIME_OFFSET(0,0,.AHEAD.);
#39=DATE_TIME_ROLE('creation_date');
#40=CC_DESIGN_APPROVAL(#41,(#1));
#41=APPROVAL(#42,'UNSPECIFIED');
#42=APPROVAL_STATUS('not_yet_approved');
#43=APPROVAL_DATE_TIME(#44,#41);
#44=DATE_AND_TIME(#45,#46);
#45=CALENDAR_DATE(0,1,1);
#46=LOCAL_TIME(0,0,0.,#47);
#47=COORDINATED_UNIVERSAL_TIME_OFFSET(0,0,.AHEAD.);
#48=PERSON('UNSPECIFIED','grigo','UNSPECIFIED',('UNSPECIFIED'),('UNSPECIFIED'),(
'UNSPECIFIED'));
#49=ORGANIZATION('UNSPECIFIED','UNSPECIFIED','UNSPECIFIED');
#50=PERSON_AND_ORGANIZATION(#48,#49);
#51=PERSON_AND_ORGANIZATION_ROLE('creator');
#52=CC_DESIGN_PERSON_AND_ORGANIZATION_ASSIGNMENT(#50,#51,(#28,#1));
#53=ADVANCED_FACE('',(#119,#121,#123),#125,.F.);
#54=ADVANCED_FACE('',(#130,#132,#134),#136,.T.);
#55=ADVANCED_FACE('',(#141,#143),#145,.F.);
#56=ADVANCED_FACE('',(#150,#152),#154,.F.);
#57=ADVANCED_FACE('',(#159,#161,#163),#165,.T.);
#58=ADVANCED_FACE('',(#170),#172,.F.);
#59=ADVANCED_FACE('',(#177),#179,.T.);
#60=ADVANCED_FACE('',(#184),#186,.F.);
#61=ADVANCED_FACE('',(#191),#193,.F.);
#62=ADVANCED_FACE('',(#198),#200,.T.);
#63=ADVANCED_FACE('',(#205),#207,.T.);
#64=ADVANCED_FACE('',(#212),#214,.T.);
#65=ADVANCED_FACE('',(#219,#221),#223,.F.);
#66=ADVANCED_FACE('',(#228),#230,.F.);
#67=ADVANCED_FACE('',(#235,#237),#239,.F.);
#68=ADVANCED_FACE('',(#244),#246,.T.);
#69=ADVANCED_FACE('',(#251),#253,.T.);
#70=ADVANCED_FACE('',(#258),#260,.T.);
#71=ADVANCED_FACE('',(#265,#267),#269,.T.);
#72=ADVANCED_FACE('',(#274),#276,.T.);
#73=ADVANCED_FACE('',(#281),#283,.F.);
#74=ADVANCED_FACE('',(#288),#290,.F.);
#75=ADVANCED_FACE('',(#295),#297,.F.);
#76=ADVANCED_FACE('',(#302),#304,.F.);
#77=ADVANCED_FACE('',(#309),#311,.F.);
#78=ADVANCED_FACE('',(#316),#318,.F.);
#79=ADVANCED_FACE('',(#323),#325,.F.);
#80=ADVANCED_FACE('',(#330),#332,.F.);
#81=ADVANCED_FACE('',(#337),#339,.F.);
#82=ADVANCED_FACE('',(#344),#346,.F.);
#83=ADVANCED_FACE('',(#351),#353,.F.);
#84=ADVANCED_FACE('',(#358),#360,.F.);
#85=ADVANCED_FACE('',(#365),#367,.F.);
#86=ADVANCED_FACE('',(#372),#374,.F.);
#87=ADVANCED_FACE('',(#379),#381,.F.);
#88=ADVANCED_FACE('',(#386),#388,.F.);
#89=ADVANCED_FACE('',(#393),#395,.F.);
#90=ADVANCED_FACE('',(#400),#402,.F.);
#91=ADVANCED_FACE('',(#407),#409,.F.);
#92=ADVANCED_FACE('',(#414),#416,.F.);
#93=ADVANCED_FACE('',(#421),#423,.F.);
#94=ADVANCED_FACE('',(#428),#430,.F.);
#95=ADVANCED_FACE('',(#435),#437,.F.);
#96=ADVANCED_FACE('',(#442),#444,.F.);
#97=ADVANCED_FACE('',(#449),#451,.F.);
#98=ADVANCED_FACE('',(#456),#458,.T.);
#99=ADVANCED_FACE('',(#463,#465),#467,.F.);
#100=ADVANCED_FACE('',(#472,#474),#476,.T.);
#101=ADVANCED_FACE('',(#481),#483,.T.);
#102=ADVANCED_FACE('',(#488,#490),#492,.F.);
#103=ADVANCED_FACE('',(#497),#499,.T.);
#104=ADVANCED_FACE('',(#504,#506),#508,.F.);
#105=ADVANCED_FACE('',(#513),#515,.F.);
#106=ADVANCED_FACE('',(#520),#522,.F.);
#107=ADVANCED_FACE('',(#527),#529,.F.);
#108=ADVANCED_FACE('',(#534),#536,.F.);
#109=ADVANCED_FACE('',(#541),#543,.F.);
#110=ADVANCED_FACE('',(#548),#550,.F.);
#111=ADVANCED_FACE('',(#555),#557,.F.);
#112=ADVANCED_FACE('',(#562),#564,.F.);
#113=ADVANCED_FACE('',(#569),#571,.T.);
#114=ADVANCED_FACE('',(#576),#578,.T.);
#115=ADVANCED_FACE('',(#583),#585,.T.);
#116=ADVANCED_FACE('',(#590),#592,.T.);
#117=ADVANCED_FACE('',(#597),#599,.F.);
#118=ADVANCED_FACE('',(#604),#606,.T.);
#119=FACE_BOUND('',#120,.T.);
#120=EDGE_LOOP('',(#611,#612,#613,#614));
#121=FACE_BOUND('',#122,.T.);
#122=EDGE_LOOP('',(#615));
#123=FACE_BOUND('',#124,.T.);
#124=EDGE_LOOP('',(#616));
#125=PLANE('',#126);
#126=AXIS2_PLACEMENT_3D('',#127,#128,#129);
#127=CARTESIAN_POINT('',(-121.25,140.,-81.25));
#128=DIRECTION('',(-1.,0.,0.));
#129=DIRECTION('',(0.,0.,1.));
#130=FACE_BOUND('',#131,.T.);
#131=EDGE_LOOP('',(#617,#618,#619,#620));
#132=FACE_BOUND('',#133,.T.);
#133=EDGE_LOOP('',(#621));
#134=FACE_BOUND('',#135,.T.);
#135=EDGE_LOOP('',(#622));
#136=PLANE('',#137);
#137=AXIS2_PLACEMENT_3D('',#138,#139,#140);
#138=CARTESIAN_POINT('',(-130.,6.12323399573677E-15,-100.));
#139=DIRECTION('',(-1.,0.,0.));
#140=DIRECTION('',(0.,-6.12323399573677E-17,1.));
#141=FACE_OUTER_BOUND('',#142,.T.);
#142=EDGE_LOOP('',(#623));
#143=FACE_OUTER_BOUND('',#144,.T.);
#144=EDGE_LOOP('',(#624));
#145=CYLINDRICAL_SURFACE('',#146,4.9);
#146=AXIS2_PLACEMENT_3D('',#147,#148,#149);
#147=CARTESIAN_POINT('',(-130.,191.1,58.75));
#148=DIRECTION('',(1.,0.,0.));
#149=DIRECTION('',(0.,1.,-1.22464679914735E-16));
#150=FACE_OUTER_BOUND('',#151,.T.);
#151=EDGE_LOOP('',(#625));
#152=FACE_OUTER_BOUND('',#153,.T.);
#153=EDGE_LOOP('',(#626));
#154=CYLINDRICAL_SURFACE('',#155,4.9);
#155=AXIS2_PLACEMENT_3D('',#156,#157,#158);
#156=CARTESIAN_POINT('',(-130.,191.1,73.75));
#157=DIRECTION('',(1.,0.,0.));
#158=DIRECTION('',(0.,-1.,1.22464679914735E-16));
#159=FACE_BOUND('',#160,.T.);
#160=EDGE_LOOP('',(#627,#628,#629,#630,#631,#632,#633,#634,#635,#636,#637,#638));
#161=FACE_BOUND('',#162,.T.);
#162=EDGE_LOOP('',(#639,#640,#641,#642,#643,#644,#645,#646,#647,#648,#649,#650,#651,
#652,#653,#654,#655,#656,#657,#658,#659,#660,#661,#662));
#163=FACE_BOUND('',#164,.T.);
#164=EDGE_LOOP('',(#663,#664,#665,#666,#667,#668,#669,#670));
#165=PLANE('',#166);
#166=AXIS2_PLACEMENT_3D('',#167,#168,#169);
#167=CARTESIAN_POINT('',(0.,200.,1.22464679914735E-14));
#168=DIRECTION('',(0.,1.,6.12323399573677E-17));
#169=DIRECTION('',(6.12323399573677E-17,6.12323399573677E-17,-1.));
#170=FACE_BOUND('',#171,.T.);
#171=EDGE_LOOP('',(#671,#672,#673,#674));
#172=CYLINDRICAL_SURFACE('',#173,10.);
#173=AXIS2_PLACEMENT_3D('',#174,#175,#176);
#174=CARTESIAN_POINT('',(-111.25,140.,81.25));
#175=DIRECTION('',(0.,1.,6.12323399573676E-17));
#176=DIRECTION('',(-1.,-3.74939945665464E-33,6.12323399573677E-17));
#177=FACE_BOUND('',#178,.T.);
#178=EDGE_LOOP('',(#675,#676,#677,#678,#679,#680,#681,#682));
#179=PLANE('',#180);
#180=AXIS2_PLACEMENT_3D('',#181,#182,#183);
#181=CARTESIAN_POINT('',(8.75811540203011E-47,140.,8.57252759403147E-15));
#182=DIRECTION('',(0.,1.,6.12323399573677E-17));
#183=DIRECTION('',(6.12323399573677E-17,-6.12323399573677E-17,1.));
#184=FACE_BOUND('',#185,.T.);
#185=EDGE_LOOP('',(#683,#684,#685,#686));
#186=CYLINDRICAL_SURFACE('',#187,10.);
#187=AXIS2_PLACEMENT_3D('',#188,#189,#190);
#188=CARTESIAN_POINT('',(-111.25,140.,-81.25));
#189=DIRECTION('',(0.,1.,6.12323399573676E-17));
#190=DIRECTION('',(-6.12323399573677E-17,6.12323399573677E-17,-1.));
#191=FACE_BOUND('',#192,.T.);
#192=EDGE_LOOP('',(#687,#688,#689,#690,#691,#692,#693,#694));
#193=PLANE('',#194);
#194=AXIS2_PLACEMENT_3D('',#195,#196,#197);
#195=CARTESIAN_POINT('',(130.,120.,86.));
#196=DIRECTION('',(0.,1.,6.12323399573677E-17));
#197=DIRECTION('',(0.,-6.12323399573677E-17,1.));
#198=FACE_BOUND('',#199,.T.);
#199=EDGE_LOOP('',(#695,#696,#697,#698));
#200=CYLINDRICAL_SURFACE('',#201,14.);
#201=AXIS2_PLACEMENT_3D('',#202,#203,#204);
#202=CARTESIAN_POINT('',(-116.,-56.,86.));
#203=DIRECTION('',(0.,-1.,-4.55476112666731E-17));
#204=DIRECTION('',(0.,-4.55476112666731E-17,1.));
#205=FACE_BOUND('',#206,.T.);
#206=EDGE_LOOP('',(#699,#700,#701,#702,#703));
#207=CYLINDRICAL_SURFACE('',#208,14.);
#208=AXIS2_PLACEMENT_3D('',#209,#210,#211);
#209=CARTESIAN_POINT('',(-116.,-56.,-86.));
#210=DIRECTION('',(0.,-1.,-4.55476112666731E-17));
#211=DIRECTION('',(-1.,0.,0.));
#212=FACE_BOUND('',#213,.T.);
#213=EDGE_LOOP('',(#704,#705,#706,#707));
#214=PLANE('',#215);
#215=AXIS2_PLACEMENT_3D('',#216,#217,#218);
#216=CARTESIAN_POINT('',(-130.,211.,-100.));
#217=DIRECTION('',(0.,2.02434649416073E-15,1.));
#218=DIRECTION('',(0.,-1.,2.02434649416073E-15));
#219=FACE_BOUND('',#220,.T.);
#220=EDGE_LOOP('',(#708,#709,#710,#711));
#221=FACE_BOUND('',#222,.T.);
#222=EDGE_LOOP('',(#712));
#223=PLANE('',#224);
#224=AXIS2_PLACEMENT_3D('',#225,#226,#227);
#225=CARTESIAN_POINT('',(57.9309905582443,222.,-100.));
#226=DIRECTION('',(1.,0.,0.));
#227=DIRECTION('',(0.,-1.,0.));
#228=FACE_BOUND('',#229,.T.);
#229=EDGE_LOOP('',(#713,#714,#715,#716,#717,#718,#719,#720));
#230=CYLINDRICAL_SURFACE('',#231,28.);
#231=AXIS2_PLACEMENT_3D('',#232,#233,#234);
#232=CARTESIAN_POINT('',(-130.,175.900142450431,-128.));
#233=DIRECTION('',(-1.,0.,0.));
#234=DIRECTION('',(0.,6.12323399573677E-17,1.));
#235=FACE_BOUND('',#236,.T.);
#236=EDGE_LOOP('',(#721,#722,#723,#724));
#237=FACE_BOUND('',#238,.T.);
#238=EDGE_LOOP('',(#725));
#239=PLANE('',#240);
#240=AXIS2_PLACEMENT_3D('',#241,#242,#243);
#241=CARTESIAN_POINT('',(-58.0690094417558,200.,-100.));
#242=DIRECTION('',(-1.,-3.22973970800046E-16,0.));
#243=DIRECTION('',(-3.22973970800046E-16,1.,0.));
#244=FACE_BOUND('',#245,.T.);
#245=EDGE_LOOP('',(#726,#727,#728,#729));
#246=PLANE('',#247);
#247=AXIS2_PLACEMENT_3D('',#248,#249,#250);
#248=CARTESIAN_POINT('',(-130.,211.,-100.));
#249=DIRECTION('',(0.,2.02434649416073E-15,1.));
#250=DIRECTION('',(0.,-1.,2.02434649416073E-15));
#251=FACE_BOUND('',#252,.T.);
#252=EDGE_LOOP('',(#730,#731,#732,#733));
#253=PLANE('',#254);
#254=AXIS2_PLACEMENT_3D('',#255,#256,#257);
#255=CARTESIAN_POINT('',(-130.,-6.12323399573677E-15,100.));
#256=DIRECTION('',(-1.09314267040015E-16,-7.105427357601E-17,1.));
#257=DIRECTION('',(1.,-6.0681608093924E-33,1.09314267040015E-16));
#258=FACE_BOUND('',#259,.T.);
#259=EDGE_LOOP('',(#734,#735,#736,#737));
#260=CYLINDRICAL_SURFACE('',#261,14.);
#261=AXIS2_PLACEMENT_3D('',#262,#263,#264);
#262=CARTESIAN_POINT('',(116.,-56.,86.));
#263=DIRECTION('',(0.,-1.,-4.55476112666731E-17));
#264=DIRECTION('',(1.,0.,0.));
#265=FACE_BOUND('',#266,.T.);
#266=EDGE_LOOP('',(#738,#739,#740,#741));
#267=FACE_BOUND('',#268,.T.);
#268=EDGE_LOOP('',(#742,#743,#744,#745,#746,#747,#748,#749));
#269=PLANE('',#270);
#270=AXIS2_PLACEMENT_3D('',#271,#272,#273);
#271=CARTESIAN_POINT('',(130.,-6.12323399573677E-15,100.));
#272=DIRECTION('',(1.,0.,0.));
#273=DIRECTION('',(0.,6.12323399573677E-17,-1.));
#274=FACE_BOUND('',#275,.T.);
#275=EDGE_LOOP('',(#750,#751,#752,#753,#754));
#276=CYLINDRICAL_SURFACE('',#277,14.);
#277=AXIS2_PLACEMENT_3D('',#278,#279,#280);
#278=CARTESIAN_POINT('',(116.,-56.,-86.));
#279=DIRECTION('',(0.,-1.,-4.55476112666731E-17));
#280=DIRECTION('',(0.,4.55476112666731E-17,-1.));
#281=FACE_BOUND('',#282,.T.);
#282=EDGE_LOOP('',(#755,#756,#757,#758));
#283=PLANE('',#284);
#284=AXIS2_PLACEMENT_3D('',#285,#286,#287);
#285=CARTESIAN_POINT('',(-0.937500000000003,196.,-91.25));
#286=DIRECTION('',(1.,0.,1.11022302462514E-16));
#287=DIRECTION('',(1.11022302462514E-16,0.,-1.));
#288=FACE_BOUND('',#289,.T.);
#289=EDGE_LOOP('',(#759,#760,#761,#762,#763,#764,#765,#766,#767,#768,#769,#770));
#290=PLANE('',#291);
#291=AXIS2_PLACEMENT_3D('',#292,#293,#294);
#292=CARTESIAN_POINT('',(22.5,140.,-91.25));
#293=DIRECTION('',(0.,0.,-1.));
#294=DIRECTION('',(-1.,0.,0.));
#295=FACE_BOUND('',#296,.T.);
#296=EDGE_LOOP('',(#771,#772,#773,#774));
#297=CYLINDRICAL_SURFACE('',#298,10.);
#298=AXIS2_PLACEMENT_3D('',#299,#300,#301);
#299=CARTESIAN_POINT('',(22.5,140.,-81.25));
#300=DIRECTION('',(0.,1.,6.12323399573676E-17));
#301=DIRECTION('',(1.,3.74939945665464E-33,-6.12323399573677E-17));
#302=FACE_BOUND('',#303,.T.);
#303=EDGE_LOOP('',(#775,#776,#777,#778));
#304=PLANE('',#305);
#305=AXIS2_PLACEMENT_3D('',#306,#307,#308);
#306=CARTESIAN_POINT('',(32.5,140.,81.25));
#307=DIRECTION('',(1.,0.,-8.74514136320123E-17));
#308=DIRECTION('',(-8.74514136320123E-17,0.,-1.));
#309=FACE_BOUND('',#310,.T.);
#310=EDGE_LOOP('',(#779,#780,#781,#782));
#311=CYLINDRICAL_SURFACE('',#312,10.);
#312=AXIS2_PLACEMENT_3D('',#313,#314,#315);
#313=CARTESIAN_POINT('',(22.5,140.,81.25));
#314=DIRECTION('',(0.,1.,6.12323399573676E-17));
#315=DIRECTION('',(6.12323399573677E-17,-6.12323399573677E-17,1.));
#316=FACE_BOUND('',#317,.T.);
#317=EDGE_LOOP('',(#783,#784,#785,#786,#787,#788,#789,#790,#791,#792,#793,#794));
#318=PLANE('',#319);
#319=AXIS2_PLACEMENT_3D('',#320,#321,#322);
#320=CARTESIAN_POINT('',(-111.25,140.,91.25));
#321=DIRECTION('',(0.,0.,1.));
#322=DIRECTION('',(1.,0.,0.));
#323=FACE_BOUND('',#324,.T.);
#324=EDGE_LOOP('',(#795,#796,#797,#798));
#325=PLANE('',#326);
#326=AXIS2_PLACEMENT_3D('',#327,#328,#329);
#327=CARTESIAN_POINT('',(-0.937500000000026,196.,96.2499999999999));
#328=DIRECTION('',(1.,0.,1.11022302462517E-16));
#329=DIRECTION('',(1.11022302462517E-16,0.,-1.));
#330=FACE_BOUND('',#331,.T.);
#331=EDGE_LOOP('',(#799,#800,#801,#802));
#332=PLANE('',#333);
#333=AXIS2_PLACEMENT_3D('',#334,#335,#336);
#334=CARTESIAN_POINT('',(-10.9375,196.,96.2499999999999));
#335=DIRECTION('',(0.,0.,1.));
#336=DIRECTION('',(1.,0.,0.));
#337=FACE_BOUND('',#338,.T.);
#338=EDGE_LOOP('',(#803,#804,#805,#806));
#339=PLANE('',#340);
#340=AXIS2_PLACEMENT_3D('',#341,#342,#343);
#341=CARTESIAN_POINT('',(-10.9375,196.,91.25));
#342=DIRECTION('',(-1.,0.,-3.55271367880054E-16));
#343=DIRECTION('',(-3.55271367880054E-16,0.,1.));
#344=FACE_BOUND('',#345,.T.);
#345=EDGE_LOOP('',(#807,#808,#809,#810));
#346=PLANE('',#347);
#347=AXIS2_PLACEMENT_3D('',#348,#349,#350);
#348=CARTESIAN_POINT('',(-77.8125,196.,96.2499999999999));
#349=DIRECTION('',(1.,0.,0.));
#350=DIRECTION('',(0.,0.,-1.));
#351=FACE_BOUND('',#352,.T.);
#352=EDGE_LOOP('',(#811,#812,#813,#814));
#353=PLANE('',#354);
#354=AXIS2_PLACEMENT_3D('',#355,#356,#357);
#355=CARTESIAN_POINT('',(-87.8125,196.,96.2499999999999));
#356=DIRECTION('',(0.,0.,1.));
#357=DIRECTION('',(1.,0.,0.));
#358=FACE_BOUND('',#359,.T.);
#359=EDGE_LOOP('',(#815,#816,#817,#818));
#360=PLANE('',#361);
#361=AXIS2_PLACEMENT_3D('',#362,#363,#364);
#362=CARTESIAN_POINT('',(-87.8125,196.,91.25));
#363=DIRECTION('',(-1.,0.,2.84217094304043E-15));
#364=DIRECTION('',(2.84217094304043E-15,0.,1.));
#365=FACE_BOUND('',#366,.T.);
#366=EDGE_LOOP('',(#819,#820,#821,#822));
#367=PLANE('',#368);
#368=AXIS2_PLACEMENT_3D('',#369,#370,#371);
#369=CARTESIAN_POINT('',(-87.8125,196.,-96.2500000000001));
#370=DIRECTION('',(-1.,0.,0.));
#371=DIRECTION('',(0.,0.,1.));
#372=FACE_BOUND('',#373,.T.);
#373=EDGE_LOOP('',(#823,#824,#825,#826));
#374=PLANE('',#375);
#375=AXIS2_PLACEMENT_3D('',#376,#377,#378);
#376=CARTESIAN_POINT('',(-77.8125,196.,-96.2500000000001));
#377=DIRECTION('',(0.,0.,-1.));
#378=DIRECTION('',(-1.,0.,0.));
#379=FACE_BOUND('',#380,.T.);
#380=EDGE_LOOP('',(#827,#828,#829,#830));
#381=PLANE('',#382);
#382=AXIS2_PLACEMENT_3D('',#383,#384,#385);
#383=CARTESIAN_POINT('',(-77.8125,196.,-91.25));
#384=DIRECTION('',(1.,0.,2.84217094304037E-15));
#385=DIRECTION('',(2.84217094304037E-15,0.,-1.));
#386=FACE_BOUND('',#387,.T.);
#387=EDGE_LOOP('',(#831,#832,#833,#834));
#388=PLANE('',#389);
#389=AXIS2_PLACEMENT_3D('',#390,#391,#392);
#390=CARTESIAN_POINT('',(-10.9375,196.,-96.25));
#391=DIRECTION('',(-1.,0.,-3.55271367880047E-16));
#392=DIRECTION('',(-3.55271367880047E-16,0.,1.));
#393=FACE_BOUND('',#394,.T.);
#394=EDGE_LOOP('',(#835,#836,#837,#838));
#395=PLANE('',#396);
#396=AXIS2_PLACEMENT_3D('',#397,#398,#399);
#397=CARTESIAN_POINT('',(-0.937500000000002,196.,-96.25));
#398=DIRECTION('',(0.,0.,-1.));
#399=DIRECTION('',(-1.,0.,0.));
#400=FACE_BOUND('',#401,.T.);
#401=EDGE_LOOP('',(#839,#840,#841,#842,#843,#844));
#402=PLANE('',#403);
#403=AXIS2_PLACEMENT_3D('',#404,#405,#406);
#404=CARTESIAN_POINT('',(121.25,170.,81.25));
#405=DIRECTION('',(1.,0.,0.));
#406=DIRECTION('',(0.,0.,-1.));
#407=FACE_BOUND('',#408,.T.);
#408=EDGE_LOOP('',(#845,#846,#847,#848,#849,#850));
#409=CYLINDRICAL_SURFACE('',#410,10.);
#410=AXIS2_PLACEMENT_3D('',#411,#412,#413);
#411=CARTESIAN_POINT('',(111.25,170.,81.25));
#412=DIRECTION('',(0.,1.,6.12323399573677E-17));
#413=DIRECTION('',(6.12323399573677E-17,-6.12323399573677E-17,1.));
#414=FACE_BOUND('',#415,.T.);
#415=EDGE_LOOP('',(#851,#852,#853,#854));
#416=PLANE('',#417);
#417=AXIS2_PLACEMENT_3D('',#418,#419,#420);
#418=CARTESIAN_POINT('',(51.25,170.,91.25));
#419=DIRECTION('',(0.,0.,1.));
#420=DIRECTION('',(1.,0.,0.));
#421=FACE_BOUND('',#422,.T.);
#422=EDGE_LOOP('',(#855,#856,#857,#858));
#423=CYLINDRICAL_SURFACE('',#424,10.);
#424=AXIS2_PLACEMENT_3D('',#425,#426,#427);
#425=CARTESIAN_POINT('',(51.25,170.,81.25));
#426=DIRECTION('',(0.,1.,6.12323399573677E-17));
#427=DIRECTION('',(-1.,-3.74939945665465E-33,6.12323399573677E-17));
#428=FACE_BOUND('',#429,.T.);
#429=EDGE_LOOP('',(#859,#860,#861,#862));
#430=PLANE('',#431);
#431=AXIS2_PLACEMENT_3D('',#432,#433,#434);
#432=CARTESIAN_POINT('',(41.25,170.,-81.25));
#433=DIRECTION('',(-1.,0.,8.74514136320123E-17));
#434=DIRECTION('',(8.74514136320123E-17,0.,1.));
#435=FACE_BOUND('',#436,.T.);
#436=EDGE_LOOP('',(#863,#864,#865,#866));
#437=CYLINDRICAL_SURFACE('',#438,10.);
#438=AXIS2_PLACEMENT_3D('',#439,#440,#441);
#439=CARTESIAN_POINT('',(51.25,170.,-81.25));
#440=DIRECTION('',(0.,1.,6.12323399573677E-17));
#441=DIRECTION('',(-6.12323399573677E-17,6.12323399573677E-17,-1.));
#442=FACE_BOUND('',#443,.T.);
#443=EDGE_LOOP('',(#867,#868,#869,#870));
#444=PLANE('',#445);
#445=AXIS2_PLACEMENT_3D('',#446,#447,#448);
#446=CARTESIAN_POINT('',(111.25,170.,-91.25));
#447=DIRECTION('',(-2.368475785867E-16,0.,-1.));
#448=DIRECTION('',(-1.,0.,2.368475785867E-16));
#449=FACE_BOUND('',#450,.T.);
#450=EDGE_LOOP('',(#871,#872,#873,#874,#875,#876));
#451=CYLINDRICAL_SURFACE('',#452,10.);
#452=AXIS2_PLACEMENT_3D('',#453,#454,#455);
#453=CARTESIAN_POINT('',(111.25,170.,-81.25));
#454=DIRECTION('',(0.,1.,6.12323399573677E-17));
#455=DIRECTION('',(1.,3.74939945665465E-33,-6.12323399573677E-17));
#456=FACE_BOUND('',#457,.T.);
#457=EDGE_LOOP('',(#877,#878,#879,#880));
#458=PLANE('',#459);
#459=AXIS2_PLACEMENT_3D('',#460,#461,#462);
#460=CARTESIAN_POINT('',(130.,6.12323399573677E-15,-100.));
#461=DIRECTION('',(1.09314267040015E-16,7.105427357601E-17,-1.));
#462=DIRECTION('',(-1.,6.0681608093924E-33,-1.09314267040015E-16));
#463=FACE_BOUND('',#464,.T.);
#464=EDGE_LOOP('',(#881,#882,#883,#884));
#465=FACE_BOUND('',#466,.T.);
#466=EDGE_LOOP('',(#885));
#467=PLANE('',#468);
#468=AXIS2_PLACEMENT_3D('',#469,#470,#471);
#469=CARTESIAN_POINT('',(-116.,211.,-100.));
#470=DIRECTION('',(1.,0.,0.));
#471=DIRECTION('',(0.,-1.,2.02434649416073E-15));
#472=FACE_BOUND('',#473,.T.);
#473=EDGE_LOOP('',(#886,#887,#888,#889));
#474=FACE_BOUND('',#475,.T.);
#475=EDGE_LOOP('',(#890));
#476=PLANE('',#477);
#477=AXIS2_PLACEMENT_3D('',#478,#479,#480);
#478=CARTESIAN_POINT('',(116.,0.,0.));
#479=DIRECTION('',(1.,0.,0.));
#480=DIRECTION('',(0.,-1.,6.12323399573677E-17));
#481=FACE_BOUND('',#482,.T.);
#482=EDGE_LOOP('',(#891,#892,#893,#894));
#483=CYLINDRICAL_SURFACE('',#484,11.);
#484=AXIS2_PLACEMENT_3D('',#485,#486,#487);
#485=CARTESIAN_POINT('',(-130.,211.,-111.));
#486=DIRECTION('',(1.,0.,0.));
#487=DIRECTION('',(0.,-0.899996347424834,-0.435897435897434));
#488=FACE_OUTER_BOUND('',#489,.T.);
#489=EDGE_LOOP('',(#895));
#490=FACE_OUTER_BOUND('',#491,.T.);
#491=EDGE_LOOP('',(#896));
#492=CYLINDRICAL_SURFACE('',#493,5.);
#493=AXIS2_PLACEMENT_3D('',#494,#495,#496);
#494=CARTESIAN_POINT('',(-130.,211.,-111.));
#495=DIRECTION('',(1.,0.,0.));
#496=DIRECTION('',(0.,1.,6.12323399573677E-17));
#497=FACE_BOUND('',#498,.T.);
#498=EDGE_LOOP('',(#897,#898,#899,#900));
#499=CYLINDRICAL_SURFACE('',#500,11.);
#500=AXIS2_PLACEMENT_3D('',#501,#502,#503);
#501=CARTESIAN_POINT('',(-130.,211.,-111.));
#502=DIRECTION('',(1.,0.,0.));
#503=DIRECTION('',(0.,-0.899996347424834,-0.435897435897434));
#504=FACE_OUTER_BOUND('',#505,.T.);
#505=EDGE_LOOP('',(#901));
#506=FACE_OUTER_BOUND('',#507,.T.);
#507=EDGE_LOOP('',(#902));
#508=CYLINDRICAL_SURFACE('',#509,5.);
#509=AXIS2_PLACEMENT_3D('',#510,#511,#512);
#510=CARTESIAN_POINT('',(-130.,211.,-111.));
#511=DIRECTION('',(1.,0.,0.));
#512=DIRECTION('',(0.,1.,6.12323399573677E-17));
#513=FACE_BOUND('',#514,.T.);
#514=EDGE_LOOP('',(#903,#904,#905,#906));
#515=CYLINDRICAL_SURFACE('',#516,4.);
#516=AXIS2_PLACEMENT_3D('',#517,#518,#519);
#517=CARTESIAN_POINT('',(146.,182.,-77.2500000000001));
#518=DIRECTION('',(1.,0.,0.));
#519=DIRECTION('',(0.,-1.,0.));
#520=FACE_BOUND('',#521,.T.);
#521=EDGE_LOOP('',(#907,#908,#909,#910));
#522=PLANE('',#523);
#523=AXIS2_PLACEMENT_3D('',#524,#525,#526);
#524=CARTESIAN_POINT('',(130.,178.,-81.25));
#525=DIRECTION('',(0.,-1.,0.));
#526=DIRECTION('',(0.,0.,1.));
#527=FACE_BOUND('',#528,.T.);
#528=EDGE_LOOP('',(#911,#912,#913,#914));
#529=CYLINDRICAL_SURFACE('',#530,4.);
#530=AXIS2_PLACEMENT_3D('',#531,#532,#533);
#531=CARTESIAN_POINT('',(146.,182.,77.25));
#532=DIRECTION('',(1.,0.,-6.97465262095804E-16));
#533=DIRECTION('',(6.97465262095804E-16,0.,1.));
#534=FACE_BOUND('',#535,.T.);
#535=EDGE_LOOP('',(#915,#916,#917,#918));
#536=PLANE('',#537);
#537=AXIS2_PLACEMENT_3D('',#538,#539,#540);
#538=CARTESIAN_POINT('',(130.,178.,81.25));
#539=DIRECTION('',(0.,0.,1.));
#540=DIRECTION('',(0.,1.,0.));
#541=FACE_BOUND('',#542,.T.);
#542=EDGE_LOOP('',(#919,#920,#921,#922));
#543=CYLINDRICAL_SURFACE('',#544,4.);
#544=AXIS2_PLACEMENT_3D('',#545,#546,#547);
#545=CARTESIAN_POINT('',(146.,186.,77.25));
#546=DIRECTION('',(1.,0.,0.));
#547=DIRECTION('',(0.,1.,0.));
#548=FACE_BOUND('',#549,.T.);
#549=EDGE_LOOP('',(#923,#924,#925,#926));
#550=PLANE('',#551);
#551=AXIS2_PLACEMENT_3D('',#552,#553,#554);
#552=CARTESIAN_POINT('',(130.,190.,81.25));
#553=DIRECTION('',(0.,1.,0.));
#554=DIRECTION('',(0.,0.,-1.));
#555=FACE_BOUND('',#556,.T.);
#556=EDGE_LOOP('',(#927,#928,#929,#930));
#557=CYLINDRICAL_SURFACE('',#558,4.);
#558=AXIS2_PLACEMENT_3D('',#559,#560,#561);
#559=CARTESIAN_POINT('',(146.,186.,-77.25));
#560=DIRECTION('',(1.,0.,6.97465262095804E-16));
#561=DIRECTION('',(6.97465262095804E-16,0.,-1.));
#562=FACE_BOUND('',#563,.T.);
#563=EDGE_LOOP('',(#931,#932,#933,#934));
#564=PLANE('',#565);
#565=AXIS2_PLACEMENT_3D('',#566,#567,#568);
#566=CARTESIAN_POINT('',(130.,190.,-81.25));
#567=DIRECTION('',(0.,1.1842378929335E-15,-1.));
#568=DIRECTION('',(0.,-1.,-1.1842378929335E-15));
#569=FACE_BOUND('',#570,.T.);
#570=EDGE_LOOP('',(#935,#936,#937,#938));
#571=PLANE('',#572);
#572=AXIS2_PLACEMENT_3D('',#573,#574,#575);
#573=CARTESIAN_POINT('',(8.75811540203011E-47,196.,1.20015386316441E-14));
#574=DIRECTION('',(0.,1.,6.12323399573677E-17));
#575=DIRECTION('',(-1.,7.49879891330929E-33,-1.22464679914735E-16));
#576=FACE_BOUND('',#577,.T.);
#577=EDGE_LOOP('',(#939,#940,#941,#942));
#578=PLANE('',#579);
#579=AXIS2_PLACEMENT_3D('',#580,#581,#582);
#580=CARTESIAN_POINT('',(8.75811540203011E-47,196.,1.20015386316441E-14));
#581=DIRECTION('',(0.,1.,6.12323399573677E-17));
#582=DIRECTION('',(-1.,7.49879891330929E-33,-1.22464679914735E-16));
#583=FACE_BOUND('',#584,.T.);
#584=EDGE_LOOP('',(#943,#944,#945,#946));
#585=PLANE('',#586);
#586=AXIS2_PLACEMENT_3D('',#587,#588,#589);
#587=CARTESIAN_POINT('',(8.75811540203011E-47,196.,1.20015386316441E-14));
#588=DIRECTION('',(0.,1.,6.12323399573677E-17));
#589=DIRECTION('',(-1.,7.49879891330929E-33,-1.22464679914735E-16));
#590=FACE_BOUND('',#591,.T.);
#591=EDGE_LOOP('',(#947,#948,#949,#950));
#592=PLANE('',#593);
#593=AXIS2_PLACEMENT_3D('',#594,#595,#596);
#594=CARTESIAN_POINT('',(8.75811540203011E-47,196.,1.20015386316441E-14));
#595=DIRECTION('',(0.,1.,6.12323399573677E-17));
#596=DIRECTION('',(-1.,7.49879891330929E-33,-1.22464679914735E-16));
#597=FACE_BOUND('',#598,.T.);
#598=EDGE_LOOP('',(#951,#952,#953,#954,#955,#956));
#599=PLANE('',#600);
#600=AXIS2_PLACEMENT_3D('',#601,#602,#603);
#601=CARTESIAN_POINT('',(121.25,170.,81.25));
#602=DIRECTION('',(1.,0.,0.));
#603=DIRECTION('',(0.,0.,-1.));
#604=FACE_BOUND('',#605,.T.);
#605=EDGE_LOOP('',(#957,#958,#959,#960,#961,#962,#963,#964));
#606=PLANE('',#607);
#607=AXIS2_PLACEMENT_3D('',#608,#609,#610);
#608=CARTESIAN_POINT('',(8.75811540203011E-47,170.,1.04094977927525E-14));
#609=DIRECTION('',(0.,1.,6.12323399573677E-17));
#610=DIRECTION('',(6.12323399573677E-17,-6.12323399573677E-17,1.));
#611=ORIENTED_EDGE('',*,*,#965,.F.);
#612=ORIENTED_EDGE('',*,*,#966,.F.);
#613=ORIENTED_EDGE('',*,*,#967,.F.);
#614=ORIENTED_EDGE('',*,*,#968,.T.);
#615=ORIENTED_EDGE('',*,*,#969,.T.);
#616=ORIENTED_EDGE('',*,*,#970,.T.);
#617=ORIENTED_EDGE('',*,*,#971,.T.);
#618=ORIENTED_EDGE('',*,*,#972,.T.);
#619=ORIENTED_EDGE('',*,*,#973,.F.);
#620=ORIENTED_EDGE('',*,*,#974,.F.);
#621=ORIENTED_EDGE('',*,*,#975,.T.);
#622=ORIENTED_EDGE('',*,*,#976,.T.);
#623=ORIENTED_EDGE('',*,*,#970,.F.);
#624=ORIENTED_EDGE('',*,*,#976,.F.);
#625=ORIENTED_EDGE('',*,*,#969,.F.);
#626=ORIENTED_EDGE('',*,*,#975,.F.);
#627=ORIENTED_EDGE('',*,*,#977,.F.);
#628=ORIENTED_EDGE('',*,*,#978,.T.);
#629=ORIENTED_EDGE('',*,*,#979,.F.);
#630=ORIENTED_EDGE('',*,*,#980,.F.);
#631=ORIENTED_EDGE('',*,*,#981,.F.);
#632=ORIENTED_EDGE('',*,*,#982,.F.);
#633=ORIENTED_EDGE('',*,*,#973,.T.);
#634=ORIENTED_EDGE('',*,*,#983,.F.);
#635=ORIENTED_EDGE('',*,*,#984,.T.);
#636=ORIENTED_EDGE('',*,*,#985,.F.);
#637=ORIENTED_EDGE('',*,*,#986,.T.);
#638=ORIENTED_EDGE('',*,*,#987,.F.);
#639=ORIENTED_EDGE('',*,*,#988,.T.);
#640=ORIENTED_EDGE('',*,*,#989,.T.);
#641=ORIENTED_EDGE('',*,*,#990,.T.);
#642=ORIENTED_EDGE('',*,*,#991,.T.);
#643=ORIENTED_EDGE('',*,*,#992,.T.);
#644=ORIENTED_EDGE('',*,*,#993,.T.);
#645=ORIENTED_EDGE('',*,*,#994,.T.);
#646=ORIENTED_EDGE('',*,*,#995,.T.);
#647=ORIENTED_EDGE('',*,*,#996,.T.);
#648=ORIENTED_EDGE('',*,*,#997,.T.);
#649=ORIENTED_EDGE('',*,*,#998,.T.);
#650=ORIENTED_EDGE('',*,*,#999,.T.);
#651=ORIENTED_EDGE('',*,*,#1000,.T.);
#652=ORIENTED_EDGE('',*,*,#1001,.T.);
#653=ORIENTED_EDGE('',*,*,#1002,.T.);
#654=ORIENTED_EDGE('',*,*,#965,.T.);
#655=ORIENTED_EDGE('',*,*,#1003,.T.);
#656=ORIENTED_EDGE('',*,*,#1004,.T.);
#657=ORIENTED_EDGE('',*,*,#1005,.T.);
#658=ORIENTED_EDGE('',*,*,#1006,.T.);
#659=ORIENTED_EDGE('',*,*,#1007,.T.);
#660=ORIENTED_EDGE('',*,*,#1008,.T.);
#661=ORIENTED_EDGE('',*,*,#1009,.T.);
#662=ORIENTED_EDGE('',*,*,#1010,.T.);
#663=ORIENTED_EDGE('',*,*,#1011,.T.);
#664=ORIENTED_EDGE('',*,*,#1012,.T.);
#665=ORIENTED_EDGE('',*,*,#1013,.T.);
#666=ORIENTED_EDGE('',*,*,#1014,.T.);
#667=ORIENTED_EDGE('',*,*,#1015,.T.);
#668=ORIENTED_EDGE('',*,*,#1016,.T.);
#669=ORIENTED_EDGE('',*,*,#1017,.T.);
#670=ORIENTED_EDGE('',*,*,#1018,.T.);
#671=ORIENTED_EDGE('',*,*,#1002,.F.);
#672=ORIENTED_EDGE('',*,*,#1019,.F.);
#673=ORIENTED_EDGE('',*,*,#1020,.F.);
#674=ORIENTED_EDGE('',*,*,#966,.T.);
#675=ORIENTED_EDGE('',*,*,#967,.T.);
#676=ORIENTED_EDGE('',*,*,#1020,.T.);
#677=ORIENTED_EDGE('',*,*,#1021,.T.);
#678=ORIENTED_EDGE('',*,*,#1022,.T.);
#679=ORIENTED_EDGE('',*,*,#1023,.T.);
#680=ORIENTED_EDGE('',*,*,#1024,.T.);
#681=ORIENTED_EDGE('',*,*,#1025,.T.);
#682=ORIENTED_EDGE('',*,*,#1026,.T.);
#683=ORIENTED_EDGE('',*,*,#1003,.F.);
#684=ORIENTED_EDGE('',*,*,#968,.F.);
#685=ORIENTED_EDGE('',*,*,#1026,.F.);
#686=ORIENTED_EDGE('',*,*,#1027,.T.);
#687=ORIENTED_EDGE('',*,*,#1028,.F.);
#688=ORIENTED_EDGE('',*,*,#1029,.F.);
#689=ORIENTED_EDGE('',*,*,#1030,.F.);
#690=ORIENTED_EDGE('',*,*,#1031,.F.);
#691=ORIENTED_EDGE('',*,*,#1032,.F.);
#692=ORIENTED_EDGE('',*,*,#1033,.F.);
#693=ORIENTED_EDGE('',*,*,#1034,.F.);
#694=ORIENTED_EDGE('',*,*,#971,.F.);
#695=ORIENTED_EDGE('',*,*,#1034,.T.);
#696=ORIENTED_EDGE('',*,*,#1035,.T.);
#697=ORIENTED_EDGE('',*,*,#983,.T.);
#698=ORIENTED_EDGE('',*,*,#972,.F.);
#699=ORIENTED_EDGE('',*,*,#1028,.T.);
#700=ORIENTED_EDGE('',*,*,#974,.T.);
#701=ORIENTED_EDGE('',*,*,#982,.T.);
#702=ORIENTED_EDGE('',*,*,#1036,.T.);
#703=ORIENTED_EDGE('',*,*,#1037,.F.);
#704=ORIENTED_EDGE('',*,*,#1038,.T.);
#705=ORIENTED_EDGE('',*,*,#977,.T.);
#706=ORIENTED_EDGE('',*,*,#1039,.T.);
#707=ORIENTED_EDGE('',*,*,#1040,.F.);
#708=ORIENTED_EDGE('',*,*,#1041,.F.);
#709=ORIENTED_EDGE('',*,*,#978,.F.);
#710=ORIENTED_EDGE('',*,*,#1038,.F.);
#711=ORIENTED_EDGE('',*,*,#1042,.F.);
#712=ORIENTED_EDGE('',*,*,#1043,.F.);
#713=ORIENTED_EDGE('',*,*,#1041,.T.);
#714=ORIENTED_EDGE('',*,*,#1044,.T.);
#715=ORIENTED_EDGE('',*,*,#1045,.T.);
#716=ORIENTED_EDGE('',*,*,#1046,.T.);
#717=ORIENTED_EDGE('',*,*,#1047,.T.);
#718=ORIENTED_EDGE('',*,*,#1048,.T.);
#719=ORIENTED_EDGE('',*,*,#1049,.T.);
#720=ORIENTED_EDGE('',*,*,#979,.T.);
#721=ORIENTED_EDGE('',*,*,#1049,.F.);
#722=ORIENTED_EDGE('',*,*,#1050,.F.);
#723=ORIENTED_EDGE('',*,*,#1051,.F.);
#724=ORIENTED_EDGE('',*,*,#980,.T.);
#725=ORIENTED_EDGE('',*,*,#1052,.F.);
#726=ORIENTED_EDGE('',*,*,#1051,.T.);
#727=ORIENTED_EDGE('',*,*,#1053,.F.);
#728=ORIENTED_EDGE('',*,*,#1054,.T.);
#729=ORIENTED_EDGE('',*,*,#981,.T.);
#730=ORIENTED_EDGE('',*,*,#1033,.T.);
#731=ORIENTED_EDGE('',*,*,#1055,.T.);
#732=ORIENTED_EDGE('',*,*,#984,.F.);
#733=ORIENTED_EDGE('',*,*,#1035,.F.);
#734=ORIENTED_EDGE('',*,*,#1032,.T.);
#735=ORIENTED_EDGE('',*,*,#1056,.T.);
#736=ORIENTED_EDGE('',*,*,#985,.T.);
#737=ORIENTED_EDGE('',*,*,#1055,.F.);
#738=ORIENTED_EDGE('',*,*,#1031,.T.);
#739=ORIENTED_EDGE('',*,*,#1057,.T.);
#740=ORIENTED_EDGE('',*,*,#986,.F.);
#741=ORIENTED_EDGE('',*,*,#1056,.F.);
#742=ORIENTED_EDGE('',*,*,#1058,.F.);
#743=ORIENTED_EDGE('',*,*,#1059,.T.);
#744=ORIENTED_EDGE('',*,*,#1060,.F.);
#745=ORIENTED_EDGE('',*,*,#1061,.T.);
#746=ORIENTED_EDGE('',*,*,#1062,.F.);
#747=ORIENTED_EDGE('',*,*,#1063,.T.);
#748=ORIENTED_EDGE('',*,*,#1064,.F.);
#749=ORIENTED_EDGE('',*,*,#1065,.T.);
#750=ORIENTED_EDGE('',*,*,#1030,.T.);
#751=ORIENTED_EDGE('',*,*,#1066,.T.);
#752=ORIENTED_EDGE('',*,*,#1067,.T.);
#753=ORIENTED_EDGE('',*,*,#987,.T.);
#754=ORIENTED_EDGE('',*,*,#1057,.F.);
#755=ORIENTED_EDGE('',*,*,#988,.F.);
#756=ORIENTED_EDGE('',*,*,#1068,.F.);
#757=ORIENTED_EDGE('',*,*,#1069,.F.);
#758=ORIENTED_EDGE('',*,*,#1070,.F.);
#759=ORIENTED_EDGE('',*,*,#1070,.T.);
#760=ORIENTED_EDGE('',*,*,#1071,.T.);
#761=ORIENTED_EDGE('',*,*,#1072,.T.);
#762=ORIENTED_EDGE('',*,*,#1008,.F.);
#763=ORIENTED_EDGE('',*,*,#1073,.T.);
#764=ORIENTED_EDGE('',*,*,#1074,.T.);
#765=ORIENTED_EDGE('',*,*,#1075,.T.);
#766=ORIENTED_EDGE('',*,*,#1004,.F.);
#767=ORIENTED_EDGE('',*,*,#1027,.F.);
#768=ORIENTED_EDGE('',*,*,#1025,.F.);
#769=ORIENTED_EDGE('',*,*,#1076,.T.);
#770=ORIENTED_EDGE('',*,*,#989,.F.);
#771=ORIENTED_EDGE('',*,*,#990,.F.);
#772=ORIENTED_EDGE('',*,*,#1076,.F.);
#773=ORIENTED_EDGE('',*,*,#1024,.F.);
#774=ORIENTED_EDGE('',*,*,#1077,.T.);
#775=ORIENTED_EDGE('',*,*,#991,.F.);
#776=ORIENTED_EDGE('',*,*,#1077,.F.);
#777=ORIENTED_EDGE('',*,*,#1023,.F.);
#778=ORIENTED_EDGE('',*,*,#1078,.T.);
#779=ORIENTED_EDGE('',*,*,#992,.F.);
#780=ORIENTED_EDGE('',*,*,#1078,.F.);
#781=ORIENTED_EDGE('',*,*,#1022,.F.);
#782=ORIENTED_EDGE('',*,*,#1079,.T.);
#783=ORIENTED_EDGE('',*,*,#1080,.T.);
#784=ORIENTED_EDGE('',*,*,#1081,.T.);
#785=ORIENTED_EDGE('',*,*,#1082,.T.);
#786=ORIENTED_EDGE('',*,*,#993,.F.);
#787=ORIENTED_EDGE('',*,*,#1079,.F.);
#788=ORIENTED_EDGE('',*,*,#1021,.F.);
#789=ORIENTED_EDGE('',*,*,#1019,.T.);
#790=ORIENTED_EDGE('',*,*,#1001,.F.);
#791=ORIENTED_EDGE('',*,*,#1083,.T.);
#792=ORIENTED_EDGE('',*,*,#1084,.T.);
#793=ORIENTED_EDGE('',*,*,#1085,.T.);
#794=ORIENTED_EDGE('',*,*,#997,.F.);
#795=ORIENTED_EDGE('',*,*,#994,.F.);
#796=ORIENTED_EDGE('',*,*,#1082,.F.);
#797=ORIENTED_EDGE('',*,*,#1086,.F.);
#798=ORIENTED_EDGE('',*,*,#1087,.T.);
#799=ORIENTED_EDGE('',*,*,#995,.F.);
#800=ORIENTED_EDGE('',*,*,#1087,.F.);
#801=ORIENTED_EDGE('',*,*,#1088,.F.);
#802=ORIENTED_EDGE('',*,*,#1089,.T.);
#803=ORIENTED_EDGE('',*,*,#996,.F.);
#804=ORIENTED_EDGE('',*,*,#1089,.F.);
#805=ORIENTED_EDGE('',*,*,#1090,.F.);
#806=ORIENTED_EDGE('',*,*,#1080,.F.);
#807=ORIENTED_EDGE('',*,*,#998,.F.);
#808=ORIENTED_EDGE('',*,*,#1085,.F.);
#809=ORIENTED_EDGE('',*,*,#1091,.F.);
#810=ORIENTED_EDGE('',*,*,#1092,.T.);
#811=ORIENTED_EDGE('',*,*,#999,.F.);
#812=ORIENTED_EDGE('',*,*,#1092,.F.);
#813=ORIENTED_EDGE('',*,*,#1093,.F.);
#814=ORIENTED_EDGE('',*,*,#1094,.T.);
#815=ORIENTED_EDGE('',*,*,#1000,.F.);
#816=ORIENTED_EDGE('',*,*,#1094,.F.);
#817=ORIENTED_EDGE('',*,*,#1095,.F.);
#818=ORIENTED_EDGE('',*,*,#1083,.F.);
#819=ORIENTED_EDGE('',*,*,#1005,.F.);
#820=ORIENTED_EDGE('',*,*,#1075,.F.);
#821=ORIENTED_EDGE('',*,*,#1096,.F.);
#822=ORIENTED_EDGE('',*,*,#1097,.T.);
#823=ORIENTED_EDGE('',*,*,#1006,.F.);
#824=ORIENTED_EDGE('',*,*,#1097,.F.);
#825=ORIENTED_EDGE('',*,*,#1098,.F.);
#826=ORIENTED_EDGE('',*,*,#1099,.T.);
#827=ORIENTED_EDGE('',*,*,#1007,.F.);
#828=ORIENTED_EDGE('',*,*,#1099,.F.);
#829=ORIENTED_EDGE('',*,*,#1100,.F.);
#830=ORIENTED_EDGE('',*,*,#1073,.F.);
#831=ORIENTED_EDGE('',*,*,#1009,.F.);
#832=ORIENTED_EDGE('',*,*,#1072,.F.);
#833=ORIENTED_EDGE('',*,*,#1101,.F.);
#834=ORIENTED_EDGE('',*,*,#1102,.T.);
#835=ORIENTED_EDGE('',*,*,#1010,.F.);
#836=ORIENTED_EDGE('',*,*,#1102,.F.);
#837=ORIENTED_EDGE('',*,*,#1103,.F.);
#838=ORIENTED_EDGE('',*,*,#1068,.T.);
#839=ORIENTED_EDGE('',*,*,#1104,.F.);
#840=ORIENTED_EDGE('',*,*,#1105,.T.);
#841=ORIENTED_EDGE('',*,*,#1106,.F.);
#842=ORIENTED_EDGE('',*,*,#1107,.T.);
#843=ORIENTED_EDGE('',*,*,#1011,.F.);
#844=ORIENTED_EDGE('',*,*,#1108,.F.);
#845=ORIENTED_EDGE('',*,*,#1109,.F.);
#846=ORIENTED_EDGE('',*,*,#1110,.F.);
#847=ORIENTED_EDGE('',*,*,#1111,.T.);
#848=ORIENTED_EDGE('',*,*,#1012,.F.);
#849=ORIENTED_EDGE('',*,*,#1107,.F.);
#850=ORIENTED_EDGE('',*,*,#1112,.T.);
#851=ORIENTED_EDGE('',*,*,#1013,.F.);
#852=ORIENTED_EDGE('',*,*,#1111,.F.);
#853=ORIENTED_EDGE('',*,*,#1113,.F.);
#854=ORIENTED_EDGE('',*,*,#1114,.T.);
#855=ORIENTED_EDGE('',*,*,#1014,.F.);
#856=ORIENTED_EDGE('',*,*,#1114,.F.);
#857=ORIENTED_EDGE('',*,*,#1115,.F.);
#858=ORIENTED_EDGE('',*,*,#1116,.T.);
#859=ORIENTED_EDGE('',*,*,#1015,.F.);
#860=ORIENTED_EDGE('',*,*,#1116,.F.);
#861=ORIENTED_EDGE('',*,*,#1117,.F.);
#862=ORIENTED_EDGE('',*,*,#1118,.T.);
#863=ORIENTED_EDGE('',*,*,#1016,.F.);
#864=ORIENTED_EDGE('',*,*,#1118,.F.);
#865=ORIENTED_EDGE('',*,*,#1119,.F.);
#866=ORIENTED_EDGE('',*,*,#1120,.T.);
#867=ORIENTED_EDGE('',*,*,#1017,.F.);
#868=ORIENTED_EDGE('',*,*,#1120,.F.);
#869=ORIENTED_EDGE('',*,*,#1121,.F.);
#870=ORIENTED_EDGE('',*,*,#1122,.T.);
#871=ORIENTED_EDGE('',*,*,#1123,.T.);
#872=ORIENTED_EDGE('',*,*,#1108,.T.);
#873=ORIENTED_EDGE('',*,*,#1018,.F.);
#874=ORIENTED_EDGE('',*,*,#1122,.F.);
#875=ORIENTED_EDGE('',*,*,#1124,.F.);
#876=ORIENTED_EDGE('',*,*,#1125,.T.);
#877=ORIENTED_EDGE('',*,*,#1029,.T.);
#878=ORIENTED_EDGE('',*,*,#1037,.T.);
#879=ORIENTED_EDGE('',*,*,#1046,.F.);
#880=ORIENTED_EDGE('',*,*,#1066,.F.);
#881=ORIENTED_EDGE('',*,*,#1126,.F.);
#882=ORIENTED_EDGE('',*,*,#1047,.F.);
#883=ORIENTED_EDGE('',*,*,#1036,.F.);
#884=ORIENTED_EDGE('',*,*,#1054,.F.);
#885=ORIENTED_EDGE('',*,*,#1127,.T.);
#886=ORIENTED_EDGE('',*,*,#1067,.F.);
#887=ORIENTED_EDGE('',*,*,#1045,.F.);
#888=ORIENTED_EDGE('',*,*,#1128,.F.);
#889=ORIENTED_EDGE('',*,*,#1039,.F.);
#890=ORIENTED_EDGE('',*,*,#1129,.T.);
#891=ORIENTED_EDGE('',*,*,#1042,.T.);
#892=ORIENTED_EDGE('',*,*,#1040,.T.);
#893=ORIENTED_EDGE('',*,*,#1128,.T.);
#894=ORIENTED_EDGE('',*,*,#1044,.F.);
#895=ORIENTED_EDGE('',*,*,#1129,.F.);
#896=ORIENTED_EDGE('',*,*,#1043,.T.);
#897=ORIENTED_EDGE('',*,*,#1048,.F.);
#898=ORIENTED_EDGE('',*,*,#1126,.T.);
#899=ORIENTED_EDGE('',*,*,#1053,.T.);
#900=ORIENTED_EDGE('',*,*,#1050,.T.);
#901=ORIENTED_EDGE('',*,*,#1052,.T.);
#902=ORIENTED_EDGE('',*,*,#1127,.F.);
#903=ORIENTED_EDGE('',*,*,#1130,.T.);
#904=ORIENTED_EDGE('',*,*,#1131,.T.);
#905=ORIENTED_EDGE('',*,*,#1132,.F.);
#906=ORIENTED_EDGE('',*,*,#1058,.T.);
#907=ORIENTED_EDGE('',*,*,#1132,.T.);
#908=ORIENTED_EDGE('',*,*,#1133,.F.);
#909=ORIENTED_EDGE('',*,*,#1134,.F.);
#910=ORIENTED_EDGE('',*,*,#1059,.F.);
#911=ORIENTED_EDGE('',*,*,#1134,.T.);
#912=ORIENTED_EDGE('',*,*,#1135,.T.);
#913=ORIENTED_EDGE('',*,*,#1136,.F.);
#914=ORIENTED_EDGE('',*,*,#1060,.T.);
#915=ORIENTED_EDGE('',*,*,#1136,.T.);
#916=ORIENTED_EDGE('',*,*,#1112,.F.);
#917=ORIENTED_EDGE('',*,*,#1137,.F.);
#918=ORIENTED_EDGE('',*,*,#1061,.F.);
#919=ORIENTED_EDGE('',*,*,#1137,.T.);
#920=ORIENTED_EDGE('',*,*,#1106,.T.);
#921=ORIENTED_EDGE('',*,*,#1138,.F.);
#922=ORIENTED_EDGE('',*,*,#1062,.T.);
#923=ORIENTED_EDGE('',*,*,#1139,.F.);
#924=ORIENTED_EDGE('',*,*,#1063,.F.);
#925=ORIENTED_EDGE('',*,*,#1138,.T.);
#926=ORIENTED_EDGE('',*,*,#1105,.F.);
#927=ORIENTED_EDGE('',*,*,#1139,.T.);
#928=ORIENTED_EDGE('',*,*,#1104,.T.);
#929=ORIENTED_EDGE('',*,*,#1140,.F.);
#930=ORIENTED_EDGE('',*,*,#1064,.T.);
#931=ORIENTED_EDGE('',*,*,#1130,.F.);
#932=ORIENTED_EDGE('',*,*,#1065,.F.);
#933=ORIENTED_EDGE('',*,*,#1140,.T.);
#934=ORIENTED_EDGE('',*,*,#1123,.F.);
#935=ORIENTED_EDGE('',*,*,#1071,.F.);
#936=ORIENTED_EDGE('',*,*,#1069,.T.);
#937=ORIENTED_EDGE('',*,*,#1103,.T.);
#938=ORIENTED_EDGE('',*,*,#1101,.T.);
#939=ORIENTED_EDGE('',*,*,#1074,.F.);
#940=ORIENTED_EDGE('',*,*,#1100,.T.);
#941=ORIENTED_EDGE('',*,*,#1098,.T.);
#942=ORIENTED_EDGE('',*,*,#1096,.T.);
#943=ORIENTED_EDGE('',*,*,#1081,.F.);
#944=ORIENTED_EDGE('',*,*,#1090,.T.);
#945=ORIENTED_EDGE('',*,*,#1088,.T.);
#946=ORIENTED_EDGE('',*,*,#1086,.T.);
#947=ORIENTED_EDGE('',*,*,#1084,.F.);
#948=ORIENTED_EDGE('',*,*,#1095,.T.);
#949=ORIENTED_EDGE('',*,*,#1093,.T.);
#950=ORIENTED_EDGE('',*,*,#1091,.T.);
#951=ORIENTED_EDGE('',*,*,#1131,.F.);
#952=ORIENTED_EDGE('',*,*,#1125,.F.);
#953=ORIENTED_EDGE('',*,*,#1141,.F.);
#954=ORIENTED_EDGE('',*,*,#1109,.T.);
#955=ORIENTED_EDGE('',*,*,#1135,.F.);
#956=ORIENTED_EDGE('',*,*,#1133,.T.);
#957=ORIENTED_EDGE('',*,*,#1141,.T.);
#958=ORIENTED_EDGE('',*,*,#1124,.T.);
#959=ORIENTED_EDGE('',*,*,#1121,.T.);
#960=ORIENTED_EDGE('',*,*,#1119,.T.);
#961=ORIENTED_EDGE('',*,*,#1117,.T.);
#962=ORIENTED_EDGE('',*,*,#1115,.T.);
#963=ORIENTED_EDGE('',*,*,#1113,.T.);
#964=ORIENTED_EDGE('',*,*,#1110,.T.);
#965=EDGE_CURVE('',#1142,#1143,#1144,.F.);
#966=EDGE_CURVE('',#1145,#1142,#1146,.T.);
#967=EDGE_CURVE('',#1147,#1145,#1148,.T.);
#968=EDGE_CURVE('',#1147,#1143,#1149,.T.);
#969=EDGE_CURVE('',#1150,#1150,#1151,.F.);
#970=EDGE_CURVE('',#1152,#1152,#1153,.F.);
#971=EDGE_CURVE('',#1154,#1155,#1156,.F.);
#972=EDGE_CURVE('',#1155,#1157,#1158,.T.);
#973=EDGE_CURVE('',#1159,#1157,#1160,.T.);
#974=EDGE_CURVE('',#1154,#1159,#1161,.T.);
#975=EDGE_CURVE('',#1162,#1162,#1163,.T.);
#976=EDGE_CURVE('',#1164,#1164,#1165,.T.);
#977=EDGE_CURVE('',#1166,#1167,#1168,.T.);
#978=EDGE_CURVE('',#1166,#1169,#1170,.T.);
#979=EDGE_CURVE('',#1171,#1169,#1172,.T.);
#980=EDGE_CURVE('',#1173,#1171,#1174,.T.);
#981=EDGE_CURVE('',#1175,#1173,#1176,.T.);
#982=EDGE_CURVE('',#1159,#1175,#1177,.F.);
#983=EDGE_CURVE('',#1178,#1157,#1179,.F.);
#984=EDGE_CURVE('',#1178,#1180,#1181,.T.);
#985=EDGE_CURVE('',#1182,#1180,#1183,.F.);
#986=EDGE_CURVE('',#1182,#1184,#1185,.T.);
#987=EDGE_CURVE('',#1167,#1184,#1186,.F.);
#988=EDGE_CURVE('',#1187,#1188,#1189,.F.);
#989=EDGE_CURVE('',#1188,#1190,#1191,.F.);
#990=EDGE_CURVE('',#1190,#1192,#1193,.F.);
#991=EDGE_CURVE('',#1192,#1194,#1195,.F.);
#992=EDGE_CURVE('',#1194,#1196,#1197,.F.);
#993=EDGE_CURVE('',#1196,#1198,#1199,.F.);
#994=EDGE_CURVE('',#1198,#1200,#1201,.F.);
#995=EDGE_CURVE('',#1200,#1202,#1203,.F.);
#996=EDGE_CURVE('',#1202,#1204,#1205,.F.);
#997=EDGE_CURVE('',#1204,#1206,#1207,.F.);
#998=EDGE_CURVE('',#1206,#1208,#1209,.F.);
#999=EDGE_CURVE('',#1208,#1210,#1211,.F.);
#1000=EDGE_CURVE('',#1210,#1212,#1213,.F.);
#1001=EDGE_CURVE('',#1212,#1214,#1215,.F.);
#1002=EDGE_CURVE('',#1214,#1142,#1216,.F.);
#1003=EDGE_CURVE('',#1143,#1217,#1218,.F.);
#1004=EDGE_CURVE('',#1217,#1219,#1220,.F.);
#1005=EDGE_CURVE('',#1219,#1221,#1222,.F.);
#1006=EDGE_CURVE('',#1221,#1223,#1224,.F.);
#1007=EDGE_CURVE('',#1223,#1225,#1226,.F.);
#1008=EDGE_CURVE('',#1225,#1227,#1228,.F.);
#1009=EDGE_CURVE('',#1227,#1229,#1230,.F.);
#1010=EDGE_CURVE('',#1229,#1187,#1231,.F.);
#1011=EDGE_CURVE('',#1232,#1233,#1234,.F.);
#1012=EDGE_CURVE('',#1233,#1235,#1236,.F.);
#1013=EDGE_CURVE('',#1235,#1237,#1238,.F.);
#1014=EDGE_CURVE('',#1237,#1239,#1240,.F.);
#1015=EDGE_CURVE('',#1239,#1241,#1242,.F.);
#1016=EDGE_CURVE('',#1241,#1243,#1244,.F.);
#1017=EDGE_CURVE('',#1243,#1245,#1246,.F.);
#1018=EDGE_CURVE('',#1245,#1232,#1247,.F.);
#1019=EDGE_CURVE('',#1248,#1214,#1249,.T.);
#1020=EDGE_CURVE('',#1145,#1248,#1250,.T.);
#1021=EDGE_CURVE('',#1248,#1251,#1252,.T.);
#1022=EDGE_CURVE('',#1251,#1253,#1254,.T.);
#1023=EDGE_CURVE('',#1253,#1255,#1256,.T.);
#1024=EDGE_CURVE('',#1255,#1257,#1258,.T.);
#1025=EDGE_CURVE('',#1257,#1259,#1260,.T.);
#1026=EDGE_CURVE('',#1259,#1147,#1261,.T.);
#1027=EDGE_CURVE('',#1259,#1217,#1262,.T.);
#1028=EDGE_CURVE('',#1263,#1154,#1264,.F.);
#1029=EDGE_CURVE('',#1265,#1263,#1266,.F.);
#1030=EDGE_CURVE('',#1267,#1265,#1268,.F.);
#1031=EDGE_CURVE('',#1269,#1267,#1270,.F.);
#1032=EDGE_CURVE('',#1271,#1269,#1272,.F.);
#1033=EDGE_CURVE('',#1273,#1271,#1274,.F.);
#1034=EDGE_CURVE('',#1155,#1273,#1275,.F.);
#1035=EDGE_CURVE('',#1273,#1178,#1276,.T.);
#1036=EDGE_CURVE('',#1175,#1277,#1278,.F.);
#1037=EDGE_CURVE('',#1263,#1277,#1279,.T.);
#1038=EDGE_CURVE('',#1280,#1166,#1281,.F.);
#1039=EDGE_CURVE('',#1167,#1282,#1283,.T.);
#1040=EDGE_CURVE('',#1280,#1282,#1284,.T.);
#1041=EDGE_CURVE('',#1169,#1285,#1286,.T.);
#1042=EDGE_CURVE('',#1285,#1280,#1287,.T.);
#1043=EDGE_CURVE('',#1288,#1288,#1289,.F.);
#1044=EDGE_CURVE('',#1285,#1290,#1291,.T.);
#1045=EDGE_CURVE('',#1290,#1292,#1293,.F.);
#1046=EDGE_CURVE('',#1292,#1277,#1294,.F.);
#1047=EDGE_CURVE('',#1277,#1295,#1296,.T.);
#1048=EDGE_CURVE('',#1295,#1297,#1298,.T.);
#1049=EDGE_CURVE('',#1297,#1171,#1299,.F.);
#1050=EDGE_CURVE('',#1300,#1297,#1301,.F.);
#1051=EDGE_CURVE('',#1173,#1300,#1302,.F.);
#1052=EDGE_CURVE('',#1303,#1303,#1304,.T.);
#1053=EDGE_CURVE('',#1305,#1300,#1306,.T.);
#1054=EDGE_CURVE('',#1305,#1175,#1307,.F.);
#1055=EDGE_CURVE('',#1271,#1180,#1308,.T.);
#1056=EDGE_CURVE('',#1269,#1182,#1309,.T.);
#1057=EDGE_CURVE('',#1267,#1184,#1310,.T.);
#1058=EDGE_CURVE('',#1311,#1312,#1313,.F.);
#1059=EDGE_CURVE('',#1311,#1314,#1315,.F.);
#1060=EDGE_CURVE('',#1316,#1314,#1317,.F.);
#1061=EDGE_CURVE('',#1316,#1318,#1319,.F.);
#1062=EDGE_CURVE('',#1320,#1318,#1321,.F.);
#1063=EDGE_CURVE('',#1320,#1322,#1323,.F.);
#1064=EDGE_CURVE('',#1324,#1322,#1325,.F.);
#1065=EDGE_CURVE('',#1324,#1312,#1326,.F.);
#1066=EDGE_CURVE('',#1265,#1292,#1327,.T.);
#1067=EDGE_CURVE('',#1292,#1167,#1328,.T.);
#1068=EDGE_CURVE('',#1329,#1187,#1330,.T.);
#1069=EDGE_CURVE('',#1331,#1329,#1332,.T.);
#1070=EDGE_CURVE('',#1188,#1331,#1333,.T.);
#1071=EDGE_CURVE('',#1331,#1334,#1335,.F.);
#1072=EDGE_CURVE('',#1334,#1227,#1336,.T.);
#1073=EDGE_CURVE('',#1225,#1337,#1338,.T.);
#1074=EDGE_CURVE('',#1337,#1339,#1340,.F.);
#1075=EDGE_CURVE('',#1339,#1219,#1341,.T.);
#1076=EDGE_CURVE('',#1257,#1190,#1342,.T.);
#1077=EDGE_CURVE('',#1255,#1192,#1343,.T.);
#1078=EDGE_CURVE('',#1253,#1194,#1344,.T.);
#1079=EDGE_CURVE('',#1251,#1196,#1345,.T.);
#1080=EDGE_CURVE('',#1204,#1346,#1347,.T.);
#1081=EDGE_CURVE('',#1346,#1348,#1349,.F.);
#1082=EDGE_CURVE('',#1348,#1198,#1350,.T.);
#1083=EDGE_CURVE('',#1212,#1351,#1352,.T.);
#1084=EDGE_CURVE('',#1351,#1353,#1354,.F.);
#1085=EDGE_CURVE('',#1353,#1206,#1355,.T.);
#1086=EDGE_CURVE('',#1356,#1348,#1357,.T.);
#1087=EDGE_CURVE('',#1356,#1200,#1358,.T.);
#1088=EDGE_CURVE('',#1359,#1356,#1360,.T.);
#1089=EDGE_CURVE('',#1359,#1202,#1361,.T.);
#1090=EDGE_CURVE('',#1346,#1359,#1362,.T.);
#1091=EDGE_CURVE('',#1363,#1353,#1364,.T.);
#1092=EDGE_CURVE('',#1363,#1208,#1365,.T.);
#1093=EDGE_CURVE('',#1366,#1363,#1367,.T.);
#1094=EDGE_CURVE('',#1366,#1210,#1368,.T.);
#1095=EDGE_CURVE('',#1351,#1366,#1369,.T.);
#1096=EDGE_CURVE('',#1370,#1339,#1371,.T.);
#1097=EDGE_CURVE('',#1370,#1221,#1372,.T.);
#1098=EDGE_CURVE('',#1373,#1370,#1374,.T.);
#1099=EDGE_CURVE('',#1373,#1223,#1375,.T.);
#1100=EDGE_CURVE('',#1337,#1373,#1376,.T.);
#1101=EDGE_CURVE('',#1377,#1334,#1378,.T.);
#1102=EDGE_CURVE('',#1377,#1229,#1379,.T.);
#1103=EDGE_CURVE('',#1329,#1377,#1380,.T.);
#1104=EDGE_CURVE('',#1381,#1382,#1383,.F.);
#1105=EDGE_CURVE('',#1381,#1384,#1385,.T.);
#1106=EDGE_CURVE('',#1386,#1384,#1387,.T.);
#1107=EDGE_CURVE('',#1386,#1233,#1388,.T.);
#1108=EDGE_CURVE('',#1382,#1232,#1389,.T.);
#1109=EDGE_CURVE('',#1390,#1391,#1392,.T.);
#1110=EDGE_CURVE('',#1393,#1390,#1394,.T.);
#1111=EDGE_CURVE('',#1393,#1235,#1395,.T.);
#1112=EDGE_CURVE('',#1386,#1391,#1396,.F.);
#1113=EDGE_CURVE('',#1397,#1393,#1398,.T.);
#1114=EDGE_CURVE('',#1397,#1237,#1399,.T.);
#1115=EDGE_CURVE('',#1400,#1397,#1401,.T.);
#1116=EDGE_CURVE('',#1400,#1239,#1402,.T.);
#1117=EDGE_CURVE('',#1403,#1400,#1404,.T.);
#1118=EDGE_CURVE('',#1403,#1241,#1405,.T.);
#1119=EDGE_CURVE('',#1406,#1403,#1407,.T.);
#1120=EDGE_CURVE('',#1406,#1243,#1408,.T.);
#1121=EDGE_CURVE('',#1409,#1406,#1410,.T.);
#1122=EDGE_CURVE('',#1409,#1245,#1411,.T.);
#1123=EDGE_CURVE('',#1412,#1382,#1413,.T.);
#1124=EDGE_CURVE('',#1414,#1409,#1415,.T.);
#1125=EDGE_CURVE('',#1414,#1412,#1416,.T.);
#1126=EDGE_CURVE('',#1295,#1305,#1417,.T.);
#1127=EDGE_CURVE('',#1418,#1418,#1419,.T.);
#1128=EDGE_CURVE('',#1282,#1290,#1420,.F.);
#1129=EDGE_CURVE('',#1421,#1421,#1422,.F.);
#1130=EDGE_CURVE('',#1312,#1412,#1423,.T.);
#1131=EDGE_CURVE('',#1412,#1424,#1425,.T.);
#1132=EDGE_CURVE('',#1311,#1424,#1426,.T.);
#1133=EDGE_CURVE('',#1427,#1424,#1428,.T.);
#1134=EDGE_CURVE('',#1314,#1427,#1429,.T.);
#1135=EDGE_CURVE('',#1427,#1391,#1430,.F.);
#1136=EDGE_CURVE('',#1316,#1391,#1431,.T.);
#1137=EDGE_CURVE('',#1318,#1386,#1432,.T.);
#1138=EDGE_CURVE('',#1320,#1384,#1433,.T.);
#1139=EDGE_CURVE('',#1322,#1381,#1434,.T.);
#1140=EDGE_CURVE('',#1324,#1382,#1435,.T.);
#1141=EDGE_CURVE('',#1390,#1414,#1436,.T.);
#1142=VERTEX_POINT('',#1437);
#1143=VERTEX_POINT('',#1438);
#1144=LINE('',#1439,#1440);
#1145=VERTEX_POINT('',#1442);
#1146=LINE('',#1443,#1444);
#1147=VERTEX_POINT('',#1446);
#1148=LINE('',#1447,#1448);
#1149=LINE('',#1450,#1451);
#1150=VERTEX_POINT('',#1453);
#1151=CIRCLE('',#1454,4.9);
#1152=VERTEX_POINT('',#1458);
#1153=CIRCLE('',#1459,4.9);
#1154=VERTEX_POINT('',#1463);
#1155=VERTEX_POINT('',#1464);
#1156=LINE('',#1465,#1466);
#1157=VERTEX_POINT('',#1468);
#1158=LINE('',#1469,#1470);
#1159=VERTEX_POINT('',#1472);
#1160=LINE('',#1473,#1474);
#1161=LINE('',#1476,#1477);
#1162=VERTEX_POINT('',#1479);
#1163=CIRCLE('',#1480,4.9);
#1164=VERTEX_POINT('',#1484);
#1165=CIRCLE('',#1485,4.9);
#1166=VERTEX_POINT('',#1489);
#1167=VERTEX_POINT('',#1490);
#1168=LINE('',#1491,#1492);
#1169=VERTEX_POINT('',#1494);
#1170=LINE('',#1495,#1496);
#1171=VERTEX_POINT('',#1498);
#1172=LINE('',#1499,#1500);
#1173=VERTEX_POINT('',#1502);
#1174=LINE('',#1503,#1504);
#1175=VERTEX_POINT('',#1506);
#1176=LINE('',#1507,#1508);
#1177=CIRCLE('',#1510,14.);
#1178=VERTEX_POINT('',#1514);
#1179=CIRCLE('',#1515,14.);
#1180=VERTEX_POINT('',#1519);
#1181=LINE('',#1520,#1521);
#1182=VERTEX_POINT('',#1523);
#1183=CIRCLE('',#1524,14.);
#1184=VERTEX_POINT('',#1528);
#1185=LINE('',#1529,#1530);
#1186=CIRCLE('',#1532,14.);
#1187=VERTEX_POINT('',#1536);
#1188=VERTEX_POINT('',#1537);
#1189=LINE('',#1538,#1539);
#1190=VERTEX_POINT('',#1541);
#1191=LINE('',#1542,#1543);
#1192=VERTEX_POINT('',#1545);
#1193=CIRCLE('',#1546,10.);
#1194=VERTEX_POINT('',#1550);
#1195=LINE('',#1551,#1552);
#1196=VERTEX_POINT('',#1554);
#1197=CIRCLE('',#1555,10.);
#1198=VERTEX_POINT('',#1559);
#1199=LINE('',#1560,#1561);
#1200=VERTEX_POINT('',#1563);
#1201=LINE('',#1564,#1565);
#1202=VERTEX_POINT('',#1567);
#1203=LINE('',#1568,#1569);
#1204=VERTEX_POINT('',#1571);
#1205=LINE('',#1572,#1573);
#1206=VERTEX_POINT('',#1575);
#1207=LINE('',#1576,#1577);
#1208=VERTEX_POINT('',#1579);
#1209=LINE('',#1580,#1581);
#1210=VERTEX_POINT('',#1583);
#1211=LINE('',#1584,#1585);
#1212=VERTEX_POINT('',#1587);
#1213=LINE('',#1588,#1589);
#1214=VERTEX_POINT('',#1591);
#1215=LINE('',#1592,#1593);
#1216=CIRCLE('',#1595,10.);
#1217=VERTEX_POINT('',#1599);
#1218=CIRCLE('',#1600,10.);
#1219=VERTEX_POINT('',#1604);
#1220=LINE('',#1605,#1606);
#1221=VERTEX_POINT('',#1608);
#1222=LINE('',#1609,#1610);
#1223=VERTEX_POINT('',#1612);
#1224=LINE('',#1613,#1614);
#1225=VERTEX_POINT('',#1616);
#1226=LINE('',#1617,#1618);
#1227=VERTEX_POINT('',#1620);
#1228=LINE('',#1621,#1622);
#1229=VERTEX_POINT('',#1624);
#1230=LINE('',#1625,#1626);
#1231=LINE('',#1628,#1629);
#1232=VERTEX_POINT('',#1631);
#1233=VERTEX_POINT('',#1632);
#1234=LINE('',#1633,#1634);
#1235=VERTEX_POINT('',#1636);
#1236=CIRCLE('',#1637,10.);
#1237=VERTEX_POINT('',#1641);
#1238=LINE('',#1642,#1643);
#1239=VERTEX_POINT('',#1645);
#1240=CIRCLE('',#1646,10.);
#1241=VERTEX_POINT('',#1650);
#1242=LINE('',#1651,#1652);
#1243=VERTEX_POINT('',#1654);
#1244=CIRCLE('',#1655,10.);
#1245=VERTEX_POINT('',#1659);
#1246=LINE('',#1660,#1661);
#1247=CIRCLE('',#1663,10.);
#1248=VERTEX_POINT('',#1667);
#1249=LINE('',#1668,#1669);
#1250=CIRCLE('',#1671,10.);
#1251=VERTEX_POINT('',#1675);
#1252=LINE('',#1676,#1677);
#1253=VERTEX_POINT('',#1679);
#1254=CIRCLE('',#1680,10.);
#1255=VERTEX_POINT('',#1684);
#1256=LINE('',#1685,#1686);
#1257=VERTEX_POINT('',#1688);
#1258=CIRCLE('',#1689,10.);
#1259=VERTEX_POINT('',#1693);
#1260=LINE('',#1694,#1695);
#1261=CIRCLE('',#1697,10.);
#1262=LINE('',#1701,#1702);
#1263=VERTEX_POINT('',#1704);
#1264=CIRCLE('',#1705,14.);
#1265=VERTEX_POINT('',#1709);
#1266=LINE('',#1710,#1711);
#1267=VERTEX_POINT('',#1713);
#1268=CIRCLE('',#1714,14.);
#1269=VERTEX_POINT('',#1718);
#1270=LINE('',#1719,#1720);
#1271=VERTEX_POINT('',#1722);
#1272=CIRCLE('',#1723,14.);
#1273=VERTEX_POINT('',#1727);
#1274=LINE('',#1728,#1729);
#1275=CIRCLE('',#1731,14.);
#1276=LINE('',#1735,#1736);
#1277=VERTEX_POINT('',#1738);
#1278=LINE('',#1739,#1740);
#1279=LINE('',#1742,#1743);
#1280=VERTEX_POINT('',#1745);
#1281=LINE('',#1746,#1747);
#1282=VERTEX_POINT('',#1749);
#1283=LINE('',#1750,#1751);
#1284=LINE('',#1753,#1754);
#1285=VERTEX_POINT('',#1756);
#1286=CIRCLE('',#1757,28.);
#1287=CIRCLE('',#1761,11.);
#1288=VERTEX_POINT('',#1765);
#1289=CIRCLE('',#1766,5.);
#1290=VERTEX_POINT('',#1770);
#1291=LINE('',#1771,#1772);
#1292=VERTEX_POINT('',#1774);
#1293=CIRCLE('',#1775,28.);
#1294=LINE('',#1779,#1780);
#1295=VERTEX_POINT('',#1782);
#1296=CIRCLE('',#1783,28.);
#1297=VERTEX_POINT('',#1787);
#1298=LINE('',#1788,#1789);
#1299=CIRCLE('',#1791,28.);
#1300=VERTEX_POINT('',#1795);
#1301=CIRCLE('',#1796,11.);
#1302=LINE('',#1800,#1801);
#1303=VERTEX_POINT('',#1803);
#1304=CIRCLE('',#1804,5.);
#1305=VERTEX_POINT('',#1808);
#1306=LINE('',#1809,#1810);
#1307=LINE('',#1812,#1813);
#1308=LINE('',#1815,#1816);
#1309=LINE('',#1818,#1819);
#1310=LINE('',#1821,#1822);
#1311=VERTEX_POINT('',#1824);
#1312=VERTEX_POINT('',#1825);
#1313=CIRCLE('',#1826,3.99999999999997);
#1314=VERTEX_POINT('',#1830);
#1315=LINE('',#1831,#1832);
#1316=VERTEX_POINT('',#1834);
#1317=CIRCLE('',#1835,4.);
#1318=VERTEX_POINT('',#1839);
#1319=LINE('',#1840,#1841);
#1320=VERTEX_POINT('',#1843);
#1321=CIRCLE('',#1844,4.);
#1322=VERTEX_POINT('',#1848);
#1323=LINE('',#1849,#1850);
#1324=VERTEX_POINT('',#1852);
#1325=CIRCLE('',#1853,4.00000000000003);
#1326=LINE('',#1857,#1858);
#1327=LINE('',#1860,#1861);
#1328=LINE('',#1863,#1864);
#1329=VERTEX_POINT('',#1866);
#1330=LINE('',#1867,#1868);
#1331=VERTEX_POINT('',#1870);
#1332=LINE('',#1871,#1872);
#1333=LINE('',#1874,#1875);
#1334=VERTEX_POINT('',#1877);
#1335=LINE('',#1878,#1879);
#1336=LINE('',#1881,#1882);
#1337=VERTEX_POINT('',#1884);
#1338=LINE('',#1885,#1886);
#1339=VERTEX_POINT('',#1888);
#1340=LINE('',#1889,#1890);
#1341=LINE('',#1892,#1893);
#1342=LINE('',#1895,#1896);
#1343=LINE('',#1898,#1899);
#1344=LINE('',#1901,#1902);
#1345=LINE('',#1904,#1905);
#1346=VERTEX_POINT('',#1907);
#1347=LINE('',#1908,#1909);
#1348=VERTEX_POINT('',#1911);
#1349=LINE('',#1912,#1913);
#1350=LINE('',#1915,#1916);
#1351=VERTEX_POINT('',#1918);
#1352=LINE('',#1919,#1920);
#1353=VERTEX_POINT('',#1922);
#1354=LINE('',#1923,#1924);
#1355=LINE('',#1926,#1927);
#1356=VERTEX_POINT('',#1929);
#1357=LINE('',#1930,#1931);
#1358=LINE('',#1933,#1934);
#1359=VERTEX_POINT('',#1936);
#1360=LINE('',#1937,#1938);
#1361=LINE('',#1940,#1941);
#1362=LINE('',#1943,#1944);
#1363=VERTEX_POINT('',#1946);
#1364=LINE('',#1947,#1948);
#1365=LINE('',#1950,#1951);
#1366=VERTEX_POINT('',#1953);
#1367=LINE('',#1954,#1955);
#1368=LINE('',#1957,#1958);
#1369=LINE('',#1960,#1961);
#1370=VERTEX_POINT('',#1963);
#1371=LINE('',#1964,#1965);
#1372=LINE('',#1967,#1968);
#1373=VERTEX_POINT('',#1970);
#1374=LINE('',#1971,#1972);
#1375=LINE('',#1974,#1975);
#1376=LINE('',#1977,#1978);
#1377=VERTEX_POINT('',#1980);
#1378=LINE('',#1981,#1982);
#1379=LINE('',#1984,#1985);
#1380=LINE('',#1987,#1988);
#1381=VERTEX_POINT('',#1990);
#1382=VERTEX_POINT('',#1991);
#1383=CIRCLE('',#1992,4.);
#1384=VERTEX_POINT('',#1996);
#1385=LINE('',#1997,#1998);
#1386=VERTEX_POINT('',#2000);
#1387=CIRCLE('',#2001,4.);
#1388=LINE('',#2005,#2006);
#1389=LINE('',#2008,#2009);
#1390=VERTEX_POINT('',#2011);
#1391=VERTEX_POINT('',#2012);
#1392=LINE('',#2013,#2014);
#1393=VERTEX_POINT('',#2016);
#1394=CIRCLE('',#2017,10.);
#1395=LINE('',#2021,#2022);
#1396=LINE('',#2024,#2025);
#1397=VERTEX_POINT('',#2027);
#1398=LINE('',#2028,#2029);
#1399=LINE('',#2031,#2032);
#1400=VERTEX_POINT('',#2034);
#1401=CIRCLE('',#2035,10.);
#1402=LINE('',#2039,#2040);
#1403=VERTEX_POINT('',#2042);
#1404=LINE('',#2043,#2044);
#1405=LINE('',#2046,#2047);
#1406=VERTEX_POINT('',#2049);
#1407=CIRCLE('',#2050,10.);
#1408=LINE('',#2054,#2055);
#1409=VERTEX_POINT('',#2057);
#1410=LINE('',#2058,#2059);
#1411=LINE('',#2061,#2062);
#1412=VERTEX_POINT('',#2064);
#1413=LINE('',#2065,#2066);
#1414=VERTEX_POINT('',#2068);
#1415=CIRCLE('',#2069,10.);
#1416=LINE('',#2073,#2074);
#1417=CIRCLE('',#2076,11.);
#1418=VERTEX_POINT('',#2080);
#1419=CIRCLE('',#2081,5.);
#1420=CIRCLE('',#2085,11.);
#1421=VERTEX_POINT('',#2089);
#1422=CIRCLE('',#2090,5.);
#1423=LINE('',#2094,#2095);
#1424=VERTEX_POINT('',#2097);
#1425=CIRCLE('',#2098,4.);
#1426=LINE('',#2102,#2103);
#1427=VERTEX_POINT('',#2105);
#1428=LINE('',#2106,#2107);
#1429=LINE('',#2109,#2110);
#1430=CIRCLE('',#2112,4.00000000000001);
#1431=LINE('',#2116,#2117);
#1432=LINE('',#2119,#2120);
#1433=LINE('',#2122,#2123);
#1434=LINE('',#2125,#2126);
#1435=LINE('',#2128,#2129);
#1436=LINE('',#2131,#2132);
#1437=CARTESIAN_POINT('',(-121.25,200.,81.25));
#1438=CARTESIAN_POINT('',(-121.25,200.,-81.25));
#1439=CARTESIAN_POINT('',(-121.25,200.,-81.25));
#1440=VECTOR('',#1441,1.);
#1441=DIRECTION('',(8.74514136320123E-17,0.,1.));
#1442=CARTESIAN_POINT('',(-121.25,140.,81.25));
#1443=CARTESIAN_POINT('',(-121.25,140.,81.25));
#1444=VECTOR('',#1445,1.);
#1445=DIRECTION('',(0.,1.,0.));
#1446=CARTESIAN_POINT('',(-121.25,140.,-81.25));
#1447=CARTESIAN_POINT('',(-121.25,140.,-81.25));
#1448=VECTOR('',#1449,1.);
#1449=DIRECTION('',(0.,0.,1.));
#1450=CARTESIAN_POINT('',(-121.25,140.,-81.25));
#1451=VECTOR('',#1452,1.);
#1452=DIRECTION('',(0.,1.,0.));
#1453=CARTESIAN_POINT('',(-121.25,186.2,73.75));
#1454=AXIS2_PLACEMENT_3D('',#1455,#1456,#1457);
#1455=CARTESIAN_POINT('',(-121.25,191.1,73.75));
#1456=DIRECTION('',(1.,0.,0.));
#1457=DIRECTION('',(0.,-1.,1.22464679914735E-16));
#1458=CARTESIAN_POINT('',(-121.25,196.,58.75));
#1459=AXIS2_PLACEMENT_3D('',#1460,#1461,#1462);
#1460=CARTESIAN_POINT('',(-121.25,191.1,58.75));
#1461=DIRECTION('',(1.,0.,0.));
#1462=DIRECTION('',(0.,1.,-1.22464679914735E-16));
#1463=CARTESIAN_POINT('',(-130.,120.,-86.));
#1464=CARTESIAN_POINT('',(-130.,120.,86.));
#1465=CARTESIAN_POINT('',(-130.,120.,86.));
#1466=VECTOR('',#1467,1.);
#1467=DIRECTION('',(0.,0.,-1.));
#1468=CARTESIAN_POINT('',(-130.,200.,86.));
#1469=CARTESIAN_POINT('',(-130.,120.,86.));
#1470=VECTOR('',#1471,1.);
#1471=DIRECTION('',(0.,1.,0.));
#1472=CARTESIAN_POINT('',(-130.,200.,-86.));
#1473=CARTESIAN_POINT('',(-130.,200.,-86.));
#1474=VECTOR('',#1475,1.);
#1475=DIRECTION('',(0.,0.,1.));
#1476=CARTESIAN_POINT('',(-130.,120.,-86.));
#1477=VECTOR('',#1478,1.);
#1478=DIRECTION('',(0.,1.,0.));
#1479=CARTESIAN_POINT('',(-130.,186.2,73.75));
#1480=AXIS2_PLACEMENT_3D('',#1481,#1482,#1483);
#1481=CARTESIAN_POINT('',(-130.,191.1,73.75));
#1482=DIRECTION('',(1.,0.,0.));
#1483=DIRECTION('',(0.,-1.,1.22464679914735E-16));
#1484=CARTESIAN_POINT('',(-130.,196.,58.75));
#1485=AXIS2_PLACEMENT_3D('',#1486,#1487,#1488);
#1486=CARTESIAN_POINT('',(-130.,191.1,58.75));
#1487=DIRECTION('',(1.,0.,0.));
#1488=DIRECTION('',(0.,1.,-1.22464679914735E-16));
#1489=CARTESIAN_POINT('',(57.9309905582443,200.,-100.));
#1490=CARTESIAN_POINT('',(116.,200.,-100.));
#1491=CARTESIAN_POINT('',(57.9309905582443,200.,-100.));
#1492=VECTOR('',#1493,1.);
#1493=DIRECTION('',(1.,0.,0.));
#1494=CARTESIAN_POINT('',(57.9309905582443,200.,-113.745286179986));
#1495=CARTESIAN_POINT('',(57.9309905582443,200.,-100.));
#1496=VECTOR('',#1497,1.);
#1497=DIRECTION('',(0.,0.,-1.));
#1498=CARTESIAN_POINT('',(-58.0690094417558,200.,-113.745286179986));
#1499=CARTESIAN_POINT('',(-58.0690094417558,200.,-113.745286179986));
#1500=VECTOR('',#1501,1.);
#1501=DIRECTION('',(1.,0.,0.));
#1502=CARTESIAN_POINT('',(-58.0690094417558,200.,-100.));
#1503=CARTESIAN_POINT('',(-58.0690094417558,200.,-100.));
#1504=VECTOR('',#1505,1.);
#1505=DIRECTION('',(0.,0.,-1.));
#1506=CARTESIAN_POINT('',(-116.,200.,-100.));
#1507=CARTESIAN_POINT('',(-116.,200.,-100.));
#1508=VECTOR('',#1509,1.);
#1509=DIRECTION('',(1.,0.,0.));
#1510=AXIS2_PLACEMENT_3D('',#1511,#1512,#1513);
#1511=CARTESIAN_POINT('',(-116.,200.,-86.));
#1512=DIRECTION('',(0.,1.,6.12323399573677E-17));
#1513=DIRECTION('',(0.,6.12323399573677E-17,-1.));
#1514=CARTESIAN_POINT('',(-116.,200.,100.));
#1515=AXIS2_PLACEMENT_3D('',#1516,#1517,#1518);
#1516=CARTESIAN_POINT('',(-116.,200.,86.));
#1517=DIRECTION('',(0.,1.,6.12323399573677E-17));
#1518=DIRECTION('',(-1.,1.24309126715144E-31,-2.03012210217171E-15));
#1519=CARTESIAN_POINT('',(116.,200.,100.));
#1520=CARTESIAN_POINT('',(-116.,200.,100.));
#1521=VECTOR('',#1522,1.);
#1522=DIRECTION('',(1.,0.,0.));
#1523=CARTESIAN_POINT('',(130.,200.,86.));
#1524=AXIS2_PLACEMENT_3D('',#1525,#1526,#1527);
#1525=CARTESIAN_POINT('',(116.,200.,86.));
#1526=DIRECTION('',(0.,1.,6.12323399573677E-17));
#1527=DIRECTION('',(0.,-6.12323399573677E-17,1.));
#1528=CARTESIAN_POINT('',(130.,200.,-86.));
#1529=CARTESIAN_POINT('',(130.,200.,86.));
#1530=VECTOR('',#1531,1.);
#1531=DIRECTION('',(0.,0.,-1.));
#1532=AXIS2_PLACEMENT_3D('',#1533,#1534,#1535);
#1533=CARTESIAN_POINT('',(116.,200.,-86.));
#1534=DIRECTION('',(0.,1.,6.12323399573677E-17));
#1535=DIRECTION('',(1.,1.24309126715144E-31,-2.03012210217171E-15));
#1536=CARTESIAN_POINT('',(-0.937500000000002,200.,-96.25));
#1537=CARTESIAN_POINT('',(-0.937500000000011,200.,-91.25));
#1538=CARTESIAN_POINT('',(-0.937500000000003,200.,-91.25));
#1539=VECTOR('',#1540,1.);
#1540=DIRECTION('',(1.11022302462514E-16,0.,-1.));
#1541=CARTESIAN_POINT('',(22.5,200.,-91.25));
#1542=CARTESIAN_POINT('',(22.5,200.,-91.25));
#1543=VECTOR('',#1544,1.);
#1544=DIRECTION('',(-1.,0.,0.));
#1545=CARTESIAN_POINT('',(32.5,200.,-81.25));
#1546=AXIS2_PLACEMENT_3D('',#1547,#1548,#1549);
#1547=CARTESIAN_POINT('',(22.5,200.,-81.25));
#1548=DIRECTION('',(0.,1.,6.12323399573677E-17));
#1549=DIRECTION('',(1.,0.,0.));
#1550=CARTESIAN_POINT('',(32.5,200.,81.25));
#1551=CARTESIAN_POINT('',(32.5,200.,81.25));
#1552=VECTOR('',#1553,1.);
#1553=DIRECTION('',(-8.74514136320123E-17,0.,-1.));
#1554=CARTESIAN_POINT('',(22.5,200.,91.25));
#1555=AXIS2_PLACEMENT_3D('',#1556,#1557,#1558);
#1556=CARTESIAN_POINT('',(22.5,200.,81.25));
#1557=DIRECTION('',(0.,1.,6.12323399573677E-17));
#1558=DIRECTION('',(0.,-6.12323399573677E-17,1.));
#1559=CARTESIAN_POINT('',(-0.937500000000031,200.,91.25));
#1560=CARTESIAN_POINT('',(-0.937500000000031,200.,91.25));
#1561=VECTOR('',#1562,1.);
#1562=DIRECTION('',(1.,0.,0.));
#1563=CARTESIAN_POINT('',(-0.937500000000026,200.,96.2499999999999));
#1564=CARTESIAN_POINT('',(-0.937500000000026,200.,96.2499999999999));
#1565=VECTOR('',#1566,1.);
#1566=DIRECTION('',(1.3322676295502E-16,0.,-1.));
#1567=CARTESIAN_POINT('',(-10.9375,200.,96.2499999999999));
#1568=CARTESIAN_POINT('',(-10.9375,200.,96.2499999999999));
#1569=VECTOR('',#1570,1.);
#1570=DIRECTION('',(1.,0.,0.));
#1571=CARTESIAN_POINT('',(-10.9375,200.,91.25));
#1572=CARTESIAN_POINT('',(-10.9375,200.,91.25));
#1573=VECTOR('',#1574,1.);
#1574=DIRECTION('',(0.,0.,1.));
#1575=CARTESIAN_POINT('',(-77.8125,200.,91.25));
#1576=CARTESIAN_POINT('',(-77.8125,200.,91.25));
#1577=VECTOR('',#1578,1.);
#1578=DIRECTION('',(1.,0.,0.));
#1579=CARTESIAN_POINT('',(-77.8125,200.,96.2499999999999));
#1580=CARTESIAN_POINT('',(-77.8125,200.,96.2499999999999));
#1581=VECTOR('',#1582,1.);
#1582=DIRECTION('',(0.,0.,-1.));
#1583=CARTESIAN_POINT('',(-87.8125,200.,96.2499999999999));
#1584=CARTESIAN_POINT('',(-87.8125,200.,96.2499999999999));
#1585=VECTOR('',#1586,1.);
#1586=DIRECTION('',(1.,0.,0.));
#1587=CARTESIAN_POINT('',(-87.8125,200.,91.25));
#1588=CARTESIAN_POINT('',(-87.8125,200.,91.25));
#1589=VECTOR('',#1590,1.);
#1590=DIRECTION('',(2.84217094304043E-15,0.,1.));
#1591=CARTESIAN_POINT('',(-111.25,200.,91.25));
#1592=CARTESIAN_POINT('',(-111.25,200.,91.25));
#1593=VECTOR('',#1594,1.);
#1594=DIRECTION('',(1.,0.,0.));
#1595=AXIS2_PLACEMENT_3D('',#1596,#1597,#1598);
#1596=CARTESIAN_POINT('',(-111.25,200.,81.25));
#1597=DIRECTION('',(0.,1.,6.12323399573677E-17));
#1598=DIRECTION('',(-1.,0.,0.));
#1599=CARTESIAN_POINT('',(-111.25,200.,-91.25));
#1600=AXIS2_PLACEMENT_3D('',#1601,#1602,#1603);
#1601=CARTESIAN_POINT('',(-111.25,200.,-81.25));
#1602=DIRECTION('',(0.,1.,6.12323399573677E-17));
#1603=DIRECTION('',(0.,6.12323399573677E-17,-1.));
#1604=CARTESIAN_POINT('',(-87.8124999999999,200.,-91.25));
#1605=CARTESIAN_POINT('',(-87.8124999999999,200.,-91.25));
#1606=VECTOR('',#1607,1.);
#1607=DIRECTION('',(-1.,0.,0.));
#1608=CARTESIAN_POINT('',(-87.8125,200.,-96.2500000000001));
#1609=CARTESIAN_POINT('',(-87.8125,200.,-96.25));
#1610=VECTOR('',#1611,1.);
#1611=DIRECTION('',(0.,0.,1.));
#1612=CARTESIAN_POINT('',(-77.8125,200.,-96.2500000000001));
#1613=CARTESIAN_POINT('',(-77.8125,200.,-96.2500000000001));
#1614=VECTOR('',#1615,1.);
#1615=DIRECTION('',(-1.,0.,0.));
#1616=CARTESIAN_POINT('',(-77.8124999999999,200.,-91.25));
#1617=CARTESIAN_POINT('',(-77.8125,200.,-91.25));
#1618=VECTOR('',#1619,1.);
#1619=DIRECTION('',(2.84217094304037E-15,0.,-1.));
#1620=CARTESIAN_POINT('',(-10.9375,200.,-91.25));
#1621=CARTESIAN_POINT('',(-10.9375,200.,-91.25));
#1622=VECTOR('',#1623,1.);
#1623=DIRECTION('',(-1.,0.,0.));
#1624=CARTESIAN_POINT('',(-10.9375,200.,-96.25));
#1625=CARTESIAN_POINT('',(-10.9375,200.,-96.25));
#1626=VECTOR('',#1627,1.);
#1627=DIRECTION('',(-3.55271367880047E-16,0.,1.));
#1628=CARTESIAN_POINT('',(-0.937500000000002,200.,-96.25));
#1629=VECTOR('',#1630,1.);
#1630=DIRECTION('',(-1.,0.,0.));
#1631=CARTESIAN_POINT('',(121.25,200.,-81.2500000000001));
#1632=CARTESIAN_POINT('',(121.25,200.,81.25));
#1633=CARTESIAN_POINT('',(121.25,200.,81.25));
#1634=VECTOR('',#1635,1.);
#1635=DIRECTION('',(0.,0.,-1.));
#1636=CARTESIAN_POINT('',(111.25,200.,91.25));
#1637=AXIS2_PLACEMENT_3D('',#1638,#1639,#1640);
#1638=CARTESIAN_POINT('',(111.25,200.,81.25));
#1639=DIRECTION('',(0.,1.,6.12323399573677E-17));
#1640=DIRECTION('',(0.,-6.12323399573677E-17,1.));
#1641=CARTESIAN_POINT('',(51.25,200.,91.25));
#1642=CARTESIAN_POINT('',(51.25,200.,91.25));
#1643=VECTOR('',#1644,1.);
#1644=DIRECTION('',(1.,0.,0.));
#1645=CARTESIAN_POINT('',(41.25,200.,81.25));
#1646=AXIS2_PLACEMENT_3D('',#1647,#1648,#1649);
#1647=CARTESIAN_POINT('',(51.25,200.,81.25));
#1648=DIRECTION('',(0.,1.,6.12323399573677E-17));
#1649=DIRECTION('',(-1.,0.,0.));
#1650=CARTESIAN_POINT('',(41.25,200.,-81.25));
#1651=CARTESIAN_POINT('',(41.25,200.,-81.25));
#1652=VECTOR('',#1653,1.);
#1653=DIRECTION('',(8.74514136320123E-17,0.,1.));
#1654=CARTESIAN_POINT('',(51.25,200.,-91.25));
#1655=AXIS2_PLACEMENT_3D('',#1656,#1657,#1658);
#1656=CARTESIAN_POINT('',(51.25,200.,-81.25));
#1657=DIRECTION('',(0.,1.,6.12323399573677E-17));
#1658=DIRECTION('',(0.,6.12323399573677E-17,-1.));
#1659=CARTESIAN_POINT('',(111.25,200.,-91.25));
#1660=CARTESIAN_POINT('',(111.25,200.,-91.25));
#1661=VECTOR('',#1662,1.);
#1662=DIRECTION('',(-1.,0.,2.368475785867E-16));
#1663=AXIS2_PLACEMENT_3D('',#1664,#1665,#1666);
#1664=CARTESIAN_POINT('',(111.25,200.,-81.25));
#1665=DIRECTION('',(0.,1.,6.12323399573677E-17));
#1666=DIRECTION('',(1.,0.,0.));
#1667=CARTESIAN_POINT('',(-111.25,140.,91.25));
#1668=CARTESIAN_POINT('',(-111.25,140.,91.25));
#1669=VECTOR('',#1670,1.);
#1670=DIRECTION('',(0.,1.,0.));
#1671=AXIS2_PLACEMENT_3D('',#1672,#1673,#1674);
#1672=CARTESIAN_POINT('',(-111.25,140.,81.25));
#1673=DIRECTION('',(0.,1.,6.12323399573677E-17));
#1674=DIRECTION('',(-1.,0.,0.));
#1675=CARTESIAN_POINT('',(22.5,140.,91.25));
#1676=CARTESIAN_POINT('',(-111.25,140.,91.25));
#1677=VECTOR('',#1678,1.);
#1678=DIRECTION('',(1.,0.,0.));
#1679=CARTESIAN_POINT('',(32.5,140.,81.25));
#1680=AXIS2_PLACEMENT_3D('',#1681,#1682,#1683);
#1681=CARTESIAN_POINT('',(22.5,140.,81.25));
#1682=DIRECTION('',(0.,1.,6.12323399573677E-17));
#1683=DIRECTION('',(0.,-6.12323399573677E-17,1.));
#1684=CARTESIAN_POINT('',(32.5,140.,-81.25));
#1685=CARTESIAN_POINT('',(32.5,140.,81.25));
#1686=VECTOR('',#1687,1.);
#1687=DIRECTION('',(-8.74514136320123E-17,0.,-1.));
#1688=CARTESIAN_POINT('',(22.5,140.,-91.25));
#1689=AXIS2_PLACEMENT_3D('',#1690,#1691,#1692);
#1690=CARTESIAN_POINT('',(22.5,140.,-81.25));
#1691=DIRECTION('',(0.,1.,6.12323399573677E-17));
#1692=DIRECTION('',(1.,0.,0.));
#1693=CARTESIAN_POINT('',(-111.25,140.,-91.25));
#1694=CARTESIAN_POINT('',(22.5,140.,-91.25));
#1695=VECTOR('',#1696,1.);
#1696=DIRECTION('',(-1.,0.,0.));
#1697=AXIS2_PLACEMENT_3D('',#1698,#1699,#1700);
#1698=CARTESIAN_POINT('',(-111.25,140.,-81.25));
#1699=DIRECTION('',(0.,1.,6.12323399573677E-17));
#1700=DIRECTION('',(0.,6.12323399573677E-17,-1.));
#1701=CARTESIAN_POINT('',(-111.25,140.,-91.25));
#1702=VECTOR('',#1703,1.);
#1703=DIRECTION('',(0.,1.,0.));
#1704=CARTESIAN_POINT('',(-116.,120.,-100.));
#1705=AXIS2_PLACEMENT_3D('',#1706,#1707,#1708);
#1706=CARTESIAN_POINT('',(-116.,120.,-86.));
#1707=DIRECTION('',(0.,-1.,-6.12323399573677E-17));
#1708=DIRECTION('',(-1.,0.,0.));
#1709=CARTESIAN_POINT('',(116.,120.,-100.));
#1710=CARTESIAN_POINT('',(-116.,120.,-100.));
#1711=VECTOR('',#1712,1.);
#1712=DIRECTION('',(1.,0.,1.225073682345E-16));
#1713=CARTESIAN_POINT('',(130.,120.,-86.));
#1714=AXIS2_PLACEMENT_3D('',#1715,#1716,#1717);
#1715=CARTESIAN_POINT('',(116.,120.,-86.));
#1716=DIRECTION('',(0.,-1.,-6.12323399573677E-17));
#1717=DIRECTION('',(0.,6.12323399573677E-17,-1.));
#1718=CARTESIAN_POINT('',(130.,120.,86.));
#1719=CARTESIAN_POINT('',(130.,120.,-86.));
#1720=VECTOR('',#1721,1.);
#1721=DIRECTION('',(0.,0.,1.));
#1722=CARTESIAN_POINT('',(116.,120.,100.));
#1723=AXIS2_PLACEMENT_3D('',#1724,#1725,#1726);
#1724=CARTESIAN_POINT('',(116.,120.,86.));
#1725=DIRECTION('',(0.,-1.,-6.12323399573677E-17));
#1726=DIRECTION('',(1.,0.,0.));
#1727=CARTESIAN_POINT('',(-116.,120.,100.));
#1728=CARTESIAN_POINT('',(116.,120.,100.));
#1729=VECTOR('',#1730,1.);
#1730=DIRECTION('',(-1.,0.,-1.225073682345E-16));
#1731=AXIS2_PLACEMENT_3D('',#1732,#1733,#1734);
#1732=CARTESIAN_POINT('',(-116.,120.,86.));
#1733=DIRECTION('',(0.,-1.,-6.12323399573677E-17));
#1734=DIRECTION('',(0.,-6.12323399573677E-17,1.));
#1735=CARTESIAN_POINT('',(-116.,120.,100.));
#1736=VECTOR('',#1737,1.);
#1737=DIRECTION('',(0.,1.,0.));
#1738=CARTESIAN_POINT('',(-116.,175.900142450431,-100.));
#1739=CARTESIAN_POINT('',(-116.,175.900142450431,-100.));
#1740=VECTOR('',#1741,1.);
#1741=DIRECTION('',(0.,1.,0.));
#1742=CARTESIAN_POINT('',(-116.,120.,-100.));
#1743=VECTOR('',#1744,1.);
#1744=DIRECTION('',(0.,1.,0.));
#1745=CARTESIAN_POINT('',(57.9309905582443,211.,-100.));
#1746=CARTESIAN_POINT('',(57.9309905582443,200.,-100.));
#1747=VECTOR('',#1748,1.);
#1748=DIRECTION('',(0.,1.,-2.58379176640036E-15));
#1749=CARTESIAN_POINT('',(116.,211.,-100.));
#1750=CARTESIAN_POINT('',(116.,200.,-100.));
#1751=VECTOR('',#1752,1.);
#1752=DIRECTION('',(0.,1.,-2.58379176640036E-15));
#1753=CARTESIAN_POINT('',(57.9309905582443,211.,-100.));
#1754=VECTOR('',#1755,1.);
#1755=DIRECTION('',(1.,0.,0.));
#1756=CARTESIAN_POINT('',(57.9309905582443,201.100040178327,-115.794871794872));
#1757=AXIS2_PLACEMENT_3D('',#1758,#1759,#1760);
#1758=CARTESIAN_POINT('',(57.9309905582443,175.900142450431,-128.));
#1759=DIRECTION('',(-1.,0.,0.));
#1760=DIRECTION('',(0.,0.860709198198876,0.509096922143366));
#1761=AXIS2_PLACEMENT_3D('',#1762,#1763,#1764);
#1762=CARTESIAN_POINT('',(57.9309905582443,211.,-111.));
#1763=DIRECTION('',(1.,0.,0.));
#1764=DIRECTION('',(0.,-0.899996347424834,-0.435897435897434));
#1765=CARTESIAN_POINT('',(57.9309905582443,216.,-111.));
#1766=AXIS2_PLACEMENT_3D('',#1767,#1768,#1769);
#1767=CARTESIAN_POINT('',(57.9309905582443,211.,-111.));
#1768=DIRECTION('',(1.,0.,0.));
#1769=DIRECTION('',(0.,1.,6.12323399573677E-17));
#1770=CARTESIAN_POINT('',(116.,201.100040178327,-115.794871794872));
#1771=CARTESIAN_POINT('',(57.9309905582443,201.100040178327,-115.794871794872));
#1772=VECTOR('',#1773,1.);
#1773=DIRECTION('',(1.,0.,0.));
#1774=CARTESIAN_POINT('',(116.,175.900142450431,-100.));
#1775=AXIS2_PLACEMENT_3D('',#1776,#1777,#1778);
#1776=CARTESIAN_POINT('',(116.,175.900142450431,-128.));
#1777=DIRECTION('',(-1.,0.,0.));
#1778=DIRECTION('',(0.,0.,1.));
#1779=CARTESIAN_POINT('',(-116.,175.900142450431,-100.));
#1780=VECTOR('',#1781,1.);
#1781=DIRECTION('',(1.,0.,6.125368411725E-17));
#1782=CARTESIAN_POINT('',(-116.,201.100040178327,-115.794871794872));
#1783=AXIS2_PLACEMENT_3D('',#1784,#1785,#1786);
#1784=CARTESIAN_POINT('',(-116.,175.900142450431,-128.));
#1785=DIRECTION('',(-1.,0.,0.));
#1786=DIRECTION('',(0.,0.,1.));
#1787=CARTESIAN_POINT('',(-58.0690094417558,201.100040178327,-115.794871794872));
#1788=CARTESIAN_POINT('',(-116.,201.100040178327,-115.794871794872));
#1789=VECTOR('',#1790,1.);
#1790=DIRECTION('',(1.,0.,0.));
#1791=AXIS2_PLACEMENT_3D('',#1792,#1793,#1794);
#1792=CARTESIAN_POINT('',(-58.0690094417558,175.900142450431,-128.));
#1793=DIRECTION('',(-1.,-3.22973970800046E-16,0.));
#1794=DIRECTION('',(-2.77986667446415E-16,0.860709198198876,0.509096922143366));
#1795=CARTESIAN_POINT('',(-58.0690094417558,211.,-100.));
#1796=AXIS2_PLACEMENT_3D('',#1797,#1798,#1799);
#1797=CARTESIAN_POINT('',(-58.0690094417558,211.,-111.));
#1798=DIRECTION('',(1.,3.22973970800046E-16,0.));
#1799=DIRECTION('',(2.90675394033337E-16,-0.899996347424834,-0.435897435897434));
#1800=CARTESIAN_POINT('',(-58.0690094417558,211.,-100.));
#1801=VECTOR('',#1802,1.);
#1802=DIRECTION('',(0.,-1.,2.58379176640036E-15));
#1803=CARTESIAN_POINT('',(-58.0690094417558,216.,-111.));
#1804=AXIS2_PLACEMENT_3D('',#1805,#1806,#1807);
#1805=CARTESIAN_POINT('',(-58.0690094417558,211.,-111.));
#1806=DIRECTION('',(1.,3.22973970800046E-16,0.));
#1807=DIRECTION('',(-3.22973970800046E-16,1.,6.12323399573677E-17));
#1808=CARTESIAN_POINT('',(-116.,211.,-100.));
#1809=CARTESIAN_POINT('',(-116.,211.,-100.));
#1810=VECTOR('',#1811,1.);
#1811=DIRECTION('',(1.,0.,0.));
#1812=CARTESIAN_POINT('',(-116.,200.,-100.));
#1813=VECTOR('',#1814,1.);
#1814=DIRECTION('',(0.,1.,-2.58379176640036E-15));
#1815=CARTESIAN_POINT('',(116.,120.,100.));
#1816=VECTOR('',#1817,1.);
#1817=DIRECTION('',(0.,1.,0.));
#1818=CARTESIAN_POINT('',(130.,120.,86.));
#1819=VECTOR('',#1820,1.);
#1820=DIRECTION('',(0.,1.,0.));
#1821=CARTESIAN_POINT('',(130.,120.,-86.));
#1822=VECTOR('',#1823,1.);
#1823=DIRECTION('',(0.,1.,0.));
#1824=CARTESIAN_POINT('',(130.,178.,-77.2500000000001));
#1825=CARTESIAN_POINT('',(130.,182.,-81.25));
#1826=AXIS2_PLACEMENT_3D('',#1827,#1828,#1829);
#1827=CARTESIAN_POINT('',(130.,182.,-77.2500000000001));
#1828=DIRECTION('',(-1.,0.,0.));
#1829=DIRECTION('',(0.,0.,-1.));
#1830=CARTESIAN_POINT('',(130.,178.,77.25));
#1831=CARTESIAN_POINT('',(130.,178.,77.25));
#1832=VECTOR('',#1833,1.);
#1833=DIRECTION('',(0.,0.,-1.));
#1834=CARTESIAN_POINT('',(130.,182.,81.25));
#1835=AXIS2_PLACEMENT_3D('',#1836,#1837,#1838);
#1836=CARTESIAN_POINT('',(130.,182.,77.25));
#1837=DIRECTION('',(-1.,0.,0.));
#1838=DIRECTION('',(0.,-1.,0.));
#1839=CARTESIAN_POINT('',(130.,186.,81.25));
#1840=CARTESIAN_POINT('',(130.,186.,81.25));
#1841=VECTOR('',#1842,1.);
#1842=DIRECTION('',(0.,-1.,0.));
#1843=CARTESIAN_POINT('',(130.,190.,77.25));
#1844=AXIS2_PLACEMENT_3D('',#1845,#1846,#1847);
#1845=CARTESIAN_POINT('',(130.,186.,77.25));
#1846=DIRECTION('',(-1.,0.,0.));
#1847=DIRECTION('',(0.,0.,1.));
#1848=CARTESIAN_POINT('',(130.,190.,-77.25));
#1849=CARTESIAN_POINT('',(130.,190.,-77.25));
#1850=VECTOR('',#1851,1.);
#1851=DIRECTION('',(0.,-1.83959284339184E-16,1.));
#1852=CARTESIAN_POINT('',(130.,186.,-81.25));
#1853=AXIS2_PLACEMENT_3D('',#1854,#1855,#1856);
#1854=CARTESIAN_POINT('',(130.,186.,-77.25));
#1855=DIRECTION('',(-1.,0.,0.));
#1856=DIRECTION('',(0.,1.,-7.10542735760095E-15));
#1857=CARTESIAN_POINT('',(130.,182.,-81.25));
#1858=VECTOR('',#1859,1.);
#1859=DIRECTION('',(0.,1.,0.));
#1860=CARTESIAN_POINT('',(116.,120.,-100.));
#1861=VECTOR('',#1862,1.);
#1862=DIRECTION('',(0.,1.,0.));
#1863=CARTESIAN_POINT('',(116.,175.900142450431,-100.));
#1864=VECTOR('',#1865,1.);
#1865=DIRECTION('',(0.,1.,5.8966550677626E-16));
#1866=CARTESIAN_POINT('',(-0.937500000000002,196.,-96.25));
#1867=CARTESIAN_POINT('',(-0.937500000000002,196.,-96.25));
#1868=VECTOR('',#1869,1.);
#1869=DIRECTION('',(0.,1.,0.));
#1870=CARTESIAN_POINT('',(-0.937500000000005,196.,-91.25));
#1871=CARTESIAN_POINT('',(-0.937500000000003,196.,-91.25));
#1872=VECTOR('',#1873,1.);
#1873=DIRECTION('',(1.11022302462514E-16,0.,-1.));
#1874=CARTESIAN_POINT('',(-0.937500000000003,200.,-91.25));
#1875=VECTOR('',#1876,1.);
#1876=DIRECTION('',(0.,-1.,0.));
#1877=CARTESIAN_POINT('',(-10.9375,196.,-91.25));
#1878=CARTESIAN_POINT('',(-10.9375,196.,-91.25));
#1879=VECTOR('',#1880,1.);
#1880=DIRECTION('',(1.,0.,0.));
#1881=CARTESIAN_POINT('',(-10.9375,196.,-91.25));
#1882=VECTOR('',#1883,1.);
#1883=DIRECTION('',(0.,1.,0.));
#1884=CARTESIAN_POINT('',(-77.8125,196.,-91.25));
#1885=CARTESIAN_POINT('',(-77.8125,200.,-91.25));
#1886=VECTOR('',#1887,1.);
#1887=DIRECTION('',(0.,-1.,0.));
#1888=CARTESIAN_POINT('',(-87.8125,196.,-91.25));
#1889=CARTESIAN_POINT('',(-87.8125,196.,-91.25));
#1890=VECTOR('',#1891,1.);
#1891=DIRECTION('',(1.,0.,0.));
#1892=CARTESIAN_POINT('',(-87.8125,196.,-91.25));
#1893=VECTOR('',#1894,1.);
#1894=DIRECTION('',(0.,1.,0.));
#1895=CARTESIAN_POINT('',(22.5,140.,-91.25));
#1896=VECTOR('',#1897,1.);
#1897=DIRECTION('',(0.,1.,0.));
#1898=CARTESIAN_POINT('',(32.5,140.,-81.25));
#1899=VECTOR('',#1900,1.);
#1900=DIRECTION('',(0.,1.,0.));
#1901=CARTESIAN_POINT('',(32.5,140.,81.25));
#1902=VECTOR('',#1903,1.);
#1903=DIRECTION('',(0.,1.,0.));
#1904=CARTESIAN_POINT('',(22.5,140.,91.25));
#1905=VECTOR('',#1906,1.);
#1906=DIRECTION('',(0.,1.,0.));
#1907=CARTESIAN_POINT('',(-10.9375,196.,91.25));
#1908=CARTESIAN_POINT('',(-10.9375,200.,91.25));
#1909=VECTOR('',#1910,1.);
#1910=DIRECTION('',(0.,-1.,0.));
#1911=CARTESIAN_POINT('',(-0.937500000000027,196.,91.25));
#1912=CARTESIAN_POINT('',(-0.937500000000028,196.,91.25));
#1913=VECTOR('',#1914,1.);
#1914=DIRECTION('',(-1.,0.,0.));
#1915=CARTESIAN_POINT('',(-0.937500000000027,196.,91.25));
#1916=VECTOR('',#1917,1.);
#1917=DIRECTION('',(0.,1.,0.));
#1918=CARTESIAN_POINT('',(-87.8125,196.,91.25));
#1919=CARTESIAN_POINT('',(-87.8125,200.,91.25));
#1920=VECTOR('',#1921,1.);
#1921=DIRECTION('',(0.,-1.,0.));
#1922=CARTESIAN_POINT('',(-77.8125,196.,91.25));
#1923=CARTESIAN_POINT('',(-77.8125,196.,91.25));
#1924=VECTOR('',#1925,1.);
#1925=DIRECTION('',(-1.,0.,0.));
#1926=CARTESIAN_POINT('',(-77.8125,196.,91.25));
#1927=VECTOR('',#1928,1.);
#1928=DIRECTION('',(0.,1.,0.));
#1929=CARTESIAN_POINT('',(-0.937500000000026,196.,96.2499999999999));
#1930=CARTESIAN_POINT('',(-0.937500000000026,196.,96.2499999999999));
#1931=VECTOR('',#1932,1.);
#1932=DIRECTION('',(1.11022302462517E-16,0.,-1.));
#1933=CARTESIAN_POINT('',(-0.937500000000026,196.,96.2499999999999));
#1934=VECTOR('',#1935,1.);
#1935=DIRECTION('',(0.,1.,0.));
#1936=CARTESIAN_POINT('',(-10.9375,196.,96.2499999999999));
#1937=CARTESIAN_POINT('',(-10.9375,196.,96.2499999999999));
#1938=VECTOR('',#1939,1.);
#1939=DIRECTION('',(1.,0.,0.));
#1940=CARTESIAN_POINT('',(-10.9375,196.,96.2499999999999));
#1941=VECTOR('',#1942,1.);
#1942=DIRECTION('',(0.,1.,0.));
#1943=CARTESIAN_POINT('',(-10.9375,196.,91.25));
#1944=VECTOR('',#1945,1.);
#1945=DIRECTION('',(-3.55271367880054E-16,0.,1.));
#1946=CARTESIAN_POINT('',(-77.8125,196.,96.2499999999999));
#1947=CARTESIAN_POINT('',(-77.8125,196.,96.2499999999999));
#1948=VECTOR('',#1949,1.);
#1949=DIRECTION('',(0.,0.,-1.));
#1950=CARTESIAN_POINT('',(-77.8125,196.,96.2499999999999));
#1951=VECTOR('',#1952,1.);
#1952=DIRECTION('',(0.,1.,0.));
#1953=CARTESIAN_POINT('',(-87.8125,196.,96.2499999999999));
#1954=CARTESIAN_POINT('',(-87.8125,196.,96.2499999999999));
#1955=VECTOR('',#1956,1.);
#1956=DIRECTION('',(1.,0.,0.));
#1957=CARTESIAN_POINT('',(-87.8125,196.,96.2499999999999));
#1958=VECTOR('',#1959,1.);
#1959=DIRECTION('',(0.,1.,0.));
#1960=CARTESIAN_POINT('',(-87.8125,196.,91.25));
#1961=VECTOR('',#1962,1.);
#1962=DIRECTION('',(2.84217094304043E-15,0.,1.));
#1963=CARTESIAN_POINT('',(-87.8125,196.,-96.2500000000001));
#1964=CARTESIAN_POINT('',(-87.8125,196.,-96.2500000000001));
#1965=VECTOR('',#1966,1.);
#1966=DIRECTION('',(0.,0.,1.));
#1967=CARTESIAN_POINT('',(-87.8125,196.,-96.2500000000001));
#1968=VECTOR('',#1969,1.);
#1969=DIRECTION('',(0.,1.,0.));
#1970=CARTESIAN_POINT('',(-77.8125,196.,-96.2500000000001));
#1971=CARTESIAN_POINT('',(-77.8125,196.,-96.2500000000001));
#1972=VECTOR('',#1973,1.);
#1973=DIRECTION('',(-1.,0.,0.));
#1974=CARTESIAN_POINT('',(-77.8125,196.,-96.2500000000001));
#1975=VECTOR('',#1976,1.);
#1976=DIRECTION('',(0.,1.,0.));
#1977=CARTESIAN_POINT('',(-77.8125,196.,-91.25));
#1978=VECTOR('',#1979,1.);
#1979=DIRECTION('',(2.84217094304037E-15,0.,-1.));
#1980=CARTESIAN_POINT('',(-10.9375,196.,-96.25));
#1981=CARTESIAN_POINT('',(-10.9375,196.,-96.25));
#1982=VECTOR('',#1983,1.);
#1983=DIRECTION('',(-3.55271367880047E-16,0.,1.));
#1984=CARTESIAN_POINT('',(-10.9375,196.,-96.25));
#1985=VECTOR('',#1986,1.);
#1986=DIRECTION('',(0.,1.,0.));
#1987=CARTESIAN_POINT('',(-0.937500000000002,196.,-96.25));
#1988=VECTOR('',#1989,1.);
#1989=DIRECTION('',(-1.,0.,0.));
#1990=CARTESIAN_POINT('',(121.25,190.,-77.2500000000001));
#1991=CARTESIAN_POINT('',(121.25,186.,-81.25));
#1992=AXIS2_PLACEMENT_3D('',#1993,#1994,#1995);
#1993=CARTESIAN_POINT('',(121.25,186.,-77.25));
#1994=DIRECTION('',(1.,0.,0.));
#1995=DIRECTION('',(0.,0.,-1.));
#1996=CARTESIAN_POINT('',(121.25,190.,77.25));
#1997=CARTESIAN_POINT('',(121.25,190.,-77.2500000000001));
#1998=VECTOR('',#1999,1.);
#1999=DIRECTION('',(0.,0.,1.));
#2000=CARTESIAN_POINT('',(121.25,186.,81.25));
#2001=AXIS2_PLACEMENT_3D('',#2002,#2003,#2004);
#2002=CARTESIAN_POINT('',(121.25,186.,77.25));
#2003=DIRECTION('',(-1.,0.,0.));
#2004=DIRECTION('',(0.,0.,1.));
#2005=CARTESIAN_POINT('',(121.25,186.,81.25));
#2006=VECTOR('',#2007,1.);
#2007=DIRECTION('',(0.,1.,-1.01506105108586E-15));
#2008=CARTESIAN_POINT('',(121.25,186.,-81.25));
#2009=VECTOR('',#2010,1.);
#2010=DIRECTION('',(0.,1.,-2.03012210217171E-15));
#2011=CARTESIAN_POINT('',(121.25,170.,81.25));
#2012=CARTESIAN_POINT('',(121.25,182.,81.25));
#2013=CARTESIAN_POINT('',(121.25,170.,81.25));
#2014=VECTOR('',#2015,1.);
#2015=DIRECTION('',(0.,1.,1.1842378929335E-15));
#2016=CARTESIAN_POINT('',(111.25,170.,91.25));
#2017=AXIS2_PLACEMENT_3D('',#2018,#2019,#2020);
#2018=CARTESIAN_POINT('',(111.25,170.,81.25));
#2019=DIRECTION('',(0.,1.,6.12323399573677E-17));
#2020=DIRECTION('',(0.,-6.12323399573677E-17,1.));
#2021=CARTESIAN_POINT('',(111.25,170.,91.25));
#2022=VECTOR('',#2023,1.);
#2023=DIRECTION('',(0.,1.,0.));
#2024=CARTESIAN_POINT('',(121.25,182.,81.25));
#2025=VECTOR('',#2026,1.);
#2026=DIRECTION('',(0.,1.,0.));
#2027=CARTESIAN_POINT('',(51.25,170.,91.25));
#2028=CARTESIAN_POINT('',(51.25,170.,91.25));
#2029=VECTOR('',#2030,1.);
#2030=DIRECTION('',(1.,0.,0.));
#2031=CARTESIAN_POINT('',(51.25,170.,91.25));
#2032=VECTOR('',#2033,1.);
#2033=DIRECTION('',(0.,1.,0.));
#2034=CARTESIAN_POINT('',(41.25,170.,81.25));
#2035=AXIS2_PLACEMENT_3D('',#2036,#2037,#2038);
#2036=CARTESIAN_POINT('',(51.25,170.,81.25));
#2037=DIRECTION('',(0.,1.,6.12323399573677E-17));
#2038=DIRECTION('',(-1.,0.,0.));
#2039=CARTESIAN_POINT('',(41.25,170.,81.25));
#2040=VECTOR('',#2041,1.);
#2041=DIRECTION('',(0.,1.,0.));
#2042=CARTESIAN_POINT('',(41.25,170.,-81.25));
#2043=CARTESIAN_POINT('',(41.25,170.,-81.25));
#2044=VECTOR('',#2045,1.);
#2045=DIRECTION('',(8.74514136320123E-17,0.,1.));
#2046=CARTESIAN_POINT('',(41.25,170.,-81.25));
#2047=VECTOR('',#2048,1.);
#2048=DIRECTION('',(0.,1.,0.));
#2049=CARTESIAN_POINT('',(51.25,170.,-91.25));
#2050=AXIS2_PLACEMENT_3D('',#2051,#2052,#2053);
#2051=CARTESIAN_POINT('',(51.25,170.,-81.25));
#2052=DIRECTION('',(0.,1.,6.12323399573677E-17));
#2053=DIRECTION('',(0.,6.12323399573677E-17,-1.));
#2054=CARTESIAN_POINT('',(51.25,170.,-91.25));
#2055=VECTOR('',#2056,1.);
#2056=DIRECTION('',(0.,1.,0.));
#2057=CARTESIAN_POINT('',(111.25,170.,-91.25));
#2058=CARTESIAN_POINT('',(111.25,170.,-91.25));
#2059=VECTOR('',#2060,1.);
#2060=DIRECTION('',(-1.,0.,2.368475785867E-16));
#2061=CARTESIAN_POINT('',(111.25,170.,-91.25));
#2062=VECTOR('',#2063,1.);
#2063=DIRECTION('',(0.,1.,0.));
#2064=CARTESIAN_POINT('',(121.25,182.,-81.2500000000001));
#2065=CARTESIAN_POINT('',(121.25,182.,-81.2500000000001));
#2066=VECTOR('',#2067,1.);
#2067=DIRECTION('',(0.,1.,3.5527136788005E-15));
#2068=CARTESIAN_POINT('',(121.25,170.,-81.2500000000001));
#2069=AXIS2_PLACEMENT_3D('',#2070,#2071,#2072);
#2070=CARTESIAN_POINT('',(111.25,170.,-81.25));
#2071=DIRECTION('',(0.,1.,6.12323399573677E-17));
#2072=DIRECTION('',(1.,0.,0.));
#2073=CARTESIAN_POINT('',(121.25,170.,-81.2500000000001));
#2074=VECTOR('',#2075,1.);
#2075=DIRECTION('',(0.,1.,0.));
#2076=AXIS2_PLACEMENT_3D('',#2077,#2078,#2079);
#2077=CARTESIAN_POINT('',(-116.,211.,-111.));
#2078=DIRECTION('',(1.,0.,0.));
#2079=DIRECTION('',(0.,-0.899996347424834,-0.435897435897434));
#2080=CARTESIAN_POINT('',(-116.,216.,-111.));
#2081=AXIS2_PLACEMENT_3D('',#2082,#2083,#2084);
#2082=CARTESIAN_POINT('',(-116.,211.,-111.));
#2083=DIRECTION('',(1.,0.,0.));
#2084=DIRECTION('',(0.,1.,6.12323399573676E-17));
#2085=AXIS2_PLACEMENT_3D('',#2086,#2087,#2088);
#2086=CARTESIAN_POINT('',(116.,211.,-111.));
#2087=DIRECTION('',(1.,0.,0.));
#2088=DIRECTION('',(0.,-0.899996347424834,-0.435897435897434));
#2089=CARTESIAN_POINT('',(116.,216.,-111.));
#2090=AXIS2_PLACEMENT_3D('',#2091,#2092,#2093);
#2091=CARTESIAN_POINT('',(116.,211.,-111.));
#2092=DIRECTION('',(1.,0.,0.));
#2093=DIRECTION('',(0.,1.,6.12323399573677E-17));
#2094=CARTESIAN_POINT('',(130.,182.,-81.2500000000001));
#2095=VECTOR('',#2096,1.);
#2096=DIRECTION('',(-1.,0.,0.));
#2097=CARTESIAN_POINT('',(121.25,178.,-77.2500000000001));
#2098=AXIS2_PLACEMENT_3D('',#2099,#2100,#2101);
#2099=CARTESIAN_POINT('',(121.25,182.,-77.2500000000001));
#2100=DIRECTION('',(-1.,0.,0.));
#2101=DIRECTION('',(0.,0.,-1.));
#2102=CARTESIAN_POINT('',(130.,178.,-77.2500000000001));
#2103=VECTOR('',#2104,1.);
#2104=DIRECTION('',(-1.,0.,0.));
#2105=CARTESIAN_POINT('',(121.25,178.,77.2500000000001));
#2106=CARTESIAN_POINT('',(121.25,178.,77.2500000000001));
#2107=VECTOR('',#2108,1.);
#2108=DIRECTION('',(0.,0.,-1.));
#2109=CARTESIAN_POINT('',(130.,178.,77.25));
#2110=VECTOR('',#2111,1.);
#2111=DIRECTION('',(-1.,0.,0.));
#2112=AXIS2_PLACEMENT_3D('',#2113,#2114,#2115);
#2113=CARTESIAN_POINT('',(121.25,182.,77.25));
#2114=DIRECTION('',(1.,0.,0.));
#2115=DIRECTION('',(0.,0.,1.));
#2116=CARTESIAN_POINT('',(130.,182.,81.25));
#2117=VECTOR('',#2118,1.);
#2118=DIRECTION('',(-1.,0.,0.));
#2119=CARTESIAN_POINT('',(130.,186.,81.25));
#2120=VECTOR('',#2121,1.);
#2121=DIRECTION('',(-1.,0.,0.));
#2122=CARTESIAN_POINT('',(130.,190.,77.25));
#2123=VECTOR('',#2124,1.);
#2124=DIRECTION('',(-1.,0.,0.));
#2125=CARTESIAN_POINT('',(130.,190.,-77.25));
#2126=VECTOR('',#2127,1.);
#2127=DIRECTION('',(-1.,0.,-1.62409768173737E-15));
#2128=CARTESIAN_POINT('',(130.,186.,-81.25));
#2129=VECTOR('',#2130,1.);
#2130=DIRECTION('',(-1.,0.,0.));
#2131=CARTESIAN_POINT('',(121.25,170.,81.25));
#2132=VECTOR('',#2133,1.);
#2133=DIRECTION('',(0.,0.,-1.));
ENDSEC;
END-ISO-10303-21;
