ISO-10303-21;
HEADER;
FILE_DESCRIPTION(('STEP AP203'),
    '1');
FILE_NAME('Крышка - Деталь',
    '',
    ('UNSPECIFIED'),
    ('UNSPECIFIED'),
    'C3D Converter',
    'C3D Toolkit',
    '');
FILE_SCHEMA(('CONFIG_CONTROL_DESIGN'));
ENDSEC;

DATA;
#1=PRODUCT_DEFINITION('','UNSPECIFIED',#28,#31);
#2=SHAPE_DEFINITION_REPRESENTATION(#26,#3);
#3=SHAPE_REPRESENTATION('NONE',(#4),#8);
#4=AXIS2_PLACEMENT_3D('',#5,#6,#7);
#5=CARTESIAN_POINT('',(0.,0.,0.));
#6=DIRECTION('',(0.,0.,1.));
#7=DIRECTION('',(1.,0.,0.));
#8=(GEOMETRIC_REPRESENTATION_CONTEXT(3)GLOBAL_UNCERTAINTY_ASSIGNED_CONTEXT((#10))
GLOBAL_UNIT_ASSIGNED_CONTEXT((#9,#11,#12))REPRESENTATION_CONTEXT('NONE','NONE'));
#9=(LENGTH_UNIT()NAMED_UNIT(*)SI_UNIT(.MILLI.,.METRE.));
#10=UNCERTAINTY_MEASURE_WITH_UNIT(LENGTH_MEASURE(1.E-5),#9,'NONE','NONE');
#11=(NAMED_UNIT(*)PLANE_ANGLE_UNIT()SI_UNIT($,.RADIAN.));
#12=(NAMED_UNIT(*)SI_UNIT($,.STERADIAN.)SOLID_ANGLE_UNIT());
#13=MANIFOLD_SOLID_BREP('',#14);
#14=CLOSED_SHELL('',(#53,#54,#55,#56,#57,#58,#59,#60,#61,#62,#63,#64,#65,#66,#67,
#68,#69,#70,#71,#72,#73,#74,#75,#76,#77,#78,#79,#80,#81,#82,#83,#84,#85,#86,#87,
#88,#89,#90,#91,#92,#93));
#15=COLOUR_RGB('',0.847058823529412,0.847058823529412,0.847058823529412);
#16=FILL_AREA_STYLE_COLOUR('',#15);
#17=FILL_AREA_STYLE($,(#16));
#18=SURFACE_STYLE_FILL_AREA(#17);
#19=SURFACE_SIDE_STYLE('',(#18));
#20=SURFACE_STYLE_USAGE(.BOTH.,#19);
#21=PRESENTATION_STYLE_ASSIGNMENT((#20));
#22=MECHANICAL_DESIGN_GEOMETRIC_PRESENTATION_REPRESENTATION('NONE',(#23),#8);
#23=STYLED_ITEM('',(#21),#13);
#24=ADVANCED_BREP_SHAPE_REPRESENTATION('NONE',(#13),#8);
#25=SHAPE_REPRESENTATION_RELATIONSHIP('','',#3,#24);
#26=PRODUCT_DEFINITION_SHAPE('NONE','NONE',#1);
#27=MECHANICAL_CONTEXT('NONE',#32,'mechanical');
#28=PRODUCT_DEFINITION_FORMATION_WITH_SPECIFIED_SOURCE('ANY','UNSPECIFIED',#29,.NOT_KNOWN.);
#29=PRODUCT('\X2\041A0440044B0448043A0430\X0\','\X2\0414043504420430043B044C\X0\',
'NONE',(#27));
#30=PRODUCT_RELATED_PRODUCT_CATEGORY('detail','',(#29));
#31=DESIGN_CONTEXT('detailed design',#32,'design');
#32=APPLICATION_CONTEXT('configuration controlled 3d designs of mechanical parts and assemblies');
#33=APPLICATION_PROTOCOL_DEFINITION('international standard','config_control_design',
1994,#32);
#34=CC_DESIGN_DATE_AND_TIME_ASSIGNMENT(#35,#39,(#1));
#35=DATE_AND_TIME(#36,#37);
#36=CALENDAR_DATE(0,1,1);
#37=LOCAL_TIME(0,0,0.,#38);
#38=COORDINATED_UNIVERSAL_TIME_OFFSET(0,0,.AHEAD.);
#39=DATE_TIME_ROLE('creation_date');
#40=CC_DESIGN_APPROVAL(#41,(#1));
#41=APPROVAL(#42,'UNSPECIFIED');
#42=APPROVAL_STATUS('not_yet_approved');
#43=APPROVAL_DATE_TIME(#44,#41);
#44=DATE_AND_TIME(#45,#46);
#45=CALENDAR_DATE(0,1,1);
#46=LOCAL_TIME(0,0,0.,#47);
#47=COORDINATED_UNIVERSAL_TIME_OFFSET(0,0,.AHEAD.);
#48=PERSON('UNSPECIFIED','grigo','UNSPECIFIED',('UNSPECIFIED'),('UNSPECIFIED'),(
'UNSPECIFIED'));
#49=ORGANIZATION('UNSPECIFIED','UNSPECIFIED','UNSPECIFIED');
#50=PERSON_AND_ORGANIZATION(#48,#49);
#51=PERSON_AND_ORGANIZATION_ROLE('creator');
#52=CC_DESIGN_PERSON_AND_ORGANIZATION_ASSIGNMENT(#50,#51,(#28,#1));
#53=ADVANCED_FACE('',(#94,#96),#98,.T.);
#54=ADVANCED_FACE('',(#103,#105),#107,.F.);
#55=ADVANCED_FACE('',(#112),#114,.F.);
#56=ADVANCED_FACE('',(#119),#121,.F.);
#57=ADVANCED_FACE('',(#126),#128,.F.);
#58=ADVANCED_FACE('',(#133),#135,.F.);
#59=ADVANCED_FACE('',(#140,#142),#144,.T.);
#60=ADVANCED_FACE('',(#149),#151,.F.);
#61=ADVANCED_FACE('',(#156),#158,.T.);
#62=ADVANCED_FACE('',(#163),#165,.T.);
#63=ADVANCED_FACE('',(#170),#172,.T.);
#64=ADVANCED_FACE('',(#177),#179,.T.);
#65=ADVANCED_FACE('',(#184),#186,.T.);
#66=ADVANCED_FACE('',(#191),#193,.T.);
#67=ADVANCED_FACE('',(#198,#200),#202,.F.);
#68=ADVANCED_FACE('',(#207),#209,.F.);
#69=ADVANCED_FACE('',(#214,#216),#218,.T.);
#70=ADVANCED_FACE('',(#223),#225,.F.);
#71=ADVANCED_FACE('',(#230),#232,.T.);
#72=ADVANCED_FACE('',(#237),#239,.T.);
#73=ADVANCED_FACE('',(#244,#246),#248,.F.);
#74=ADVANCED_FACE('',(#253),#255,.F.);
#75=ADVANCED_FACE('',(#260),#262,.F.);
#76=ADVANCED_FACE('',(#267),#269,.F.);
#77=ADVANCED_FACE('',(#274),#276,.F.);
#78=ADVANCED_FACE('',(#281),#283,.T.);
#79=ADVANCED_FACE('',(#288),#290,.T.);
#80=ADVANCED_FACE('',(#295),#297,.T.);
#81=ADVANCED_FACE('',(#302),#304,.T.);
#82=ADVANCED_FACE('',(#309),#311,.T.);
#83=ADVANCED_FACE('',(#316),#318,.T.);
#84=ADVANCED_FACE('',(#323),#325,.T.);
#85=ADVANCED_FACE('',(#330),#332,.T.);
#86=ADVANCED_FACE('',(#337),#339,.T.);
#87=ADVANCED_FACE('',(#344),#346,.T.);
#88=ADVANCED_FACE('',(#351),#353,.T.);
#89=ADVANCED_FACE('',(#358),#360,.T.);
#90=ADVANCED_FACE('',(#365),#367,.T.);
#91=ADVANCED_FACE('',(#372),#374,.T.);
#92=ADVANCED_FACE('',(#379),#381,.T.);
#93=ADVANCED_FACE('',(#386),#388,.T.);
#94=FACE_BOUND('',#95,.T.);
#95=EDGE_LOOP('',(#393,#394));
#96=FACE_BOUND('',#97,.T.);
#97=EDGE_LOOP('',(#395,#396,#397,#398,#399,#400,#401,#402));
#98=PLANE('',#99);
#99=AXIS2_PLACEMENT_3D('',#100,#101,#102);
#100=CARTESIAN_POINT('',(115.,200.,76.9999999999999));
#101=DIRECTION('',(-1.,-1.22464679914735E-16,4.4408920984997E-16));
#102=DIRECTION('',(-1.22464679914735E-16,1.,1.49587944370547E-16));
#103=FACE_BOUND('',#104,.T.);
#104=EDGE_LOOP('',(#403,#404,#405,#406));
#105=FACE_BOUND('',#106,.T.);
#106=EDGE_LOOP('',(#407,#408,#409,#410,#411,#412,#413,#414));
#107=PLANE('',#108);
#108=AXIS2_PLACEMENT_3D('',#109,#110,#111);
#109=CARTESIAN_POINT('',(130.,0.,0.));
#110=DIRECTION('',(-1.,0.,0.));
#111=DIRECTION('',(0.,-1.22464679914735E-16,1.));
#112=FACE_BOUND('',#113,.T.);
#113=EDGE_LOOP('',(#415,#416,#417,#418));
#114=PLANE('',#115);
#115=AXIS2_PLACEMENT_3D('',#116,#117,#118);
#116=CARTESIAN_POINT('',(130.,225.,12.4999999999999));
#117=DIRECTION('',(0.,1.,0.));
#118=DIRECTION('',(0.,0.,-1.));
#119=FACE_BOUND('',#120,.T.);
#120=EDGE_LOOP('',(#419,#420,#421,#422));
#121=PLANE('',#122);
#122=AXIS2_PLACEMENT_3D('',#123,#124,#125);
#123=CARTESIAN_POINT('',(130.,215.,12.4999999999999));
#124=DIRECTION('',(4.73695157173401E-16,0.,1.));
#125=DIRECTION('',(0.,1.,0.));
#126=FACE_BOUND('',#127,.T.);
#127=EDGE_LOOP('',(#423,#424,#425,#426));
#128=PLANE('',#129);
#129=AXIS2_PLACEMENT_3D('',#130,#131,#132);
#130=CARTESIAN_POINT('',(130.,215.,-12.5000000000001));
#131=DIRECTION('',(0.,-1.,0.));
#132=DIRECTION('',(0.,0.,1.));
#133=FACE_BOUND('',#134,.T.);
#134=EDGE_LOOP('',(#427,#428,#429,#430));
#135=PLANE('',#136);
#136=AXIS2_PLACEMENT_3D('',#137,#138,#139);
#137=CARTESIAN_POINT('',(130.,225.,-12.5000000000001));
#138=DIRECTION('',(-3.55271367880051E-16,0.,-1.));
#139=DIRECTION('',(0.,-1.,0.));
#140=FACE_BOUND('',#141,.T.);
#141=EDGE_LOOP('',(#431,#432,#433,#434,#435,#436,#437,#438,#439,#440,#441,#442));
#142=FACE_BOUND('',#143,.T.);
#143=EDGE_LOOP('',(#443,#444,#445,#446));
#144=PLANE('',#145);
#145=AXIS2_PLACEMENT_3D('',#146,#147,#148);
#146=CARTESIAN_POINT('',(130.,200.,-100.));
#147=DIRECTION('',(0.,-1.,0.));
#148=DIRECTION('',(0.,0.,1.));
#149=FACE_BOUND('',#150,.T.);
#150=EDGE_LOOP('',(#447,#448,#449,#450));
#151=CYLINDRICAL_SURFACE('',#152,86.);
#152=AXIS2_PLACEMENT_3D('',#153,#154,#155);
#153=CARTESIAN_POINT('',(115.,200.,-8.5265128291212E-14));
#154=DIRECTION('',(-1.,-1.23572649697409E-16,4.32504273940931E-16));
#155=DIRECTION('',(4.32504273940931E-16,-3.3328496424265E-16,1.));
#156=FACE_BOUND('',#157,.T.);
#157=EDGE_LOOP('',(#451,#452,#453));
#158=CYLINDRICAL_SURFACE('',#159,14.);
#159=AXIS2_PLACEMENT_3D('',#160,#161,#162);
#160=CARTESIAN_POINT('',(116.,299.999635455973,-86.));
#161=DIRECTION('',(0.,1.,0.));
#162=DIRECTION('',(1.,0.,0.));
#163=FACE_BOUND('',#164,.T.);
#164=EDGE_LOOP('',(#454,#455,#456,#457,#458,#459,#460,#461,#462,#463,#464,#465));
#165=CYLINDRICAL_SURFACE('',#166,100.);
#166=AXIS2_PLACEMENT_3D('',#167,#168,#169);
#167=CARTESIAN_POINT('',(130.,199.999635455973,9.28283590181482E-15));
#168=DIRECTION('',(-1.,0.,0.));
#169=DIRECTION('',(0.,3.64544027109136E-6,0.999999999993355));
#170=FACE_BOUND('',#171,.T.);
#171=EDGE_LOOP('',(#466,#467,#468));
#172=CYLINDRICAL_SURFACE('',#173,14.);
#173=AXIS2_PLACEMENT_3D('',#174,#175,#176);
#174=CARTESIAN_POINT('',(116.,299.999635455973,86.));
#175=DIRECTION('',(0.,1.,0.));
#176=DIRECTION('',(0.,0.,1.));
#177=FACE_BOUND('',#178,.T.);
#178=EDGE_LOOP('',(#469,#470,#471));
#179=CYLINDRICAL_SURFACE('',#180,14.);
#180=AXIS2_PLACEMENT_3D('',#181,#182,#183);
#181=CARTESIAN_POINT('',(-116.,299.999635455973,86.));
#182=DIRECTION('',(0.,1.,0.));
#183=DIRECTION('',(-1.,0.,-1.01506105108586E-15));
#184=FACE_BOUND('',#185,.T.);
#185=EDGE_LOOP('',(#472,#473,#474,#475));
#186=PLANE('',#187);
#187=AXIS2_PLACEMENT_3D('',#188,#189,#190);
#188=CARTESIAN_POINT('',(-130.,0.,0.));
#189=DIRECTION('',(-1.,0.,0.));
#190=DIRECTION('',(0.,-1.22464679914735E-16,1.));
#191=FACE_BOUND('',#192,.T.);
#192=EDGE_LOOP('',(#476,#477,#478));
#193=CYLINDRICAL_SURFACE('',#194,14.);
#194=AXIS2_PLACEMENT_3D('',#195,#196,#197);
#195=CARTESIAN_POINT('',(-116.,299.999635455973,-86.));
#196=DIRECTION('',(0.,1.,0.));
#197=DIRECTION('',(0.,0.,-1.));
#198=FACE_BOUND('',#199,.T.);
#199=EDGE_LOOP('',(#479,#480,#481,#482,#483));
#200=FACE_BOUND('',#201,.T.);
#201=EDGE_LOOP('',(#484));
#202=PLANE('',#203);
#203=AXIS2_PLACEMENT_3D('',#204,#205,#206);
#204=CARTESIAN_POINT('',(-58.,216.,-111.));
#205=DIRECTION('',(1.,0.,0.));
#206=DIRECTION('',(0.,-6.12323399573677E-17,1.));
#207=FACE_BOUND('',#208,.T.);
#208=EDGE_LOOP('',(#485,#486,#487,#488));
#209=CYLINDRICAL_SURFACE('',#210,28.);
#210=AXIS2_PLACEMENT_3D('',#211,#212,#213);
#211=CARTESIAN_POINT('',(-58.,175.900142450431,-128.));
#212=DIRECTION('',(-1.,0.,0.));
#213=DIRECTION('',(0.,0.860709198198876,0.509096922143366));
#214=FACE_BOUND('',#215,.T.);
#215=EDGE_LOOP('',(#489,#490,#491,#492,#493));
#216=FACE_BOUND('',#217,.T.);
#217=EDGE_LOOP('',(#494));
#218=PLANE('',#219);
#219=AXIS2_PLACEMENT_3D('',#220,#221,#222);
#220=CARTESIAN_POINT('',(58.,216.,-111.));
#221=DIRECTION('',(1.,0.,0.));
#222=DIRECTION('',(0.,-6.12323399573677E-17,1.));
#223=FACE_BOUND('',#224,.T.);
#224=EDGE_LOOP('',(#495,#496));
#225=PLANE('',#226);
#226=AXIS2_PLACEMENT_3D('',#227,#228,#229);
#227=CARTESIAN_POINT('',(-115.,200.,77.));
#228=DIRECTION('',(-1.,-1.22464679914735E-16,4.4408920984997E-16));
#229=DIRECTION('',(-1.22464679914735E-16,1.,1.49587944370547E-16));
#230=FACE_BOUND('',#231,.T.);
#231=EDGE_LOOP('',(#497,#498,#499,#500));
#232=PLANE('',#233);
#233=AXIS2_PLACEMENT_3D('',#234,#235,#236);
#234=CARTESIAN_POINT('',(-58.,222.,-111.));
#235=DIRECTION('',(0.,1.,0.));
#236=DIRECTION('',(0.,0.,1.));
#237=FACE_BOUND('',#238,.T.);
#238=EDGE_LOOP('',(#501,#502,#503,#504));
#239=CYLINDRICAL_SURFACE('',#240,11.);
#240=AXIS2_PLACEMENT_3D('',#241,#242,#243);
#241=CARTESIAN_POINT('',(-58.,211.,-111.));
#242=DIRECTION('',(1.,0.,0.));
#243=DIRECTION('',(0.,-0.899996347424834,-0.435897435897434));
#244=FACE_OUTER_BOUND('',#245,.T.);
#245=EDGE_LOOP('',(#505));
#246=FACE_OUTER_BOUND('',#247,.T.);
#247=EDGE_LOOP('',(#506));
#248=CYLINDRICAL_SURFACE('',#249,5.);
#249=AXIS2_PLACEMENT_3D('',#250,#251,#252);
#250=CARTESIAN_POINT('',(-58.,211.,-111.));
#251=DIRECTION('',(1.,0.,0.));
#252=DIRECTION('',(0.,1.,6.12323399573677E-17));
#253=FACE_BOUND('',#254,.T.);
#254=EDGE_LOOP('',(#507,#508,#509,#510));
#255=CYLINDRICAL_SURFACE('',#256,1.);
#256=AXIS2_PLACEMENT_3D('',#257,#258,#259);
#257=CARTESIAN_POINT('',(134.,216.,11.4999999999999));
#258=DIRECTION('',(1.,0.,-4.63397436365283E-16));
#259=DIRECTION('',(4.63397436365283E-16,0.,1.));
#260=FACE_BOUND('',#261,.T.);
#261=EDGE_LOOP('',(#511,#512,#513,#514));
#262=CYLINDRICAL_SURFACE('',#263,1.);
#263=AXIS2_PLACEMENT_3D('',#264,#265,#266);
#264=CARTESIAN_POINT('',(134.,224.,11.4999999999999));
#265=DIRECTION('',(1.,0.,-4.63397436365283E-16));
#266=DIRECTION('',(0.,1.,0.));
#267=FACE_BOUND('',#268,.T.);
#268=EDGE_LOOP('',(#515,#516,#517,#518));
#269=CYLINDRICAL_SURFACE('',#270,1.);
#270=AXIS2_PLACEMENT_3D('',#271,#272,#273);
#271=CARTESIAN_POINT('',(134.,224.,-11.5000000000001));
#272=DIRECTION('',(1.,0.,-4.63397436365283E-16));
#273=DIRECTION('',(-4.63397436365283E-16,0.,-1.));
#274=FACE_BOUND('',#275,.T.);
#275=EDGE_LOOP('',(#519,#520,#521,#522));
#276=CYLINDRICAL_SURFACE('',#277,1.);
#277=AXIS2_PLACEMENT_3D('',#278,#279,#280);
#278=CARTESIAN_POINT('',(134.,216.,-11.5000000000001));
#279=DIRECTION('',(1.,0.,-3.86164530304403E-16));
#280=DIRECTION('',(0.,-1.,0.));
#281=FACE_BOUND('',#282,.T.);
#282=EDGE_LOOP('',(#523,#524,#525,#526));
#283=CYLINDRICAL_SURFACE('',#284,1.);
#284=AXIS2_PLACEMENT_3D('',#285,#286,#287);
#285=CARTESIAN_POINT('',(116.,214.,-15.5000000000001));
#286=DIRECTION('',(4.58414668232323E-16,9.16829336464646E-16,1.));
#287=DIRECTION('',(2.02263607748648E-30,1.,-9.16829336464648E-16));
#288=FACE_BOUND('',#289,.T.);
#289=EDGE_LOOP('',(#527,#528,#529,#530));
#290=TOROIDAL_SURFACE('',#291,2.,1.);
#291=AXIS2_PLACEMENT_3D('',#292,#293,#294);
#292=CARTESIAN_POINT('',(116.,216.,-11.5000000000001));
#293=DIRECTION('',(1.,1.22464679914735E-16,-4.4408920984997E-16));
#294=DIRECTION('',(4.44089209849973E-16,-2.82992447504894E-14,1.));
#295=FACE_BOUND('',#296,.T.);
#296=EDGE_LOOP('',(#531,#532,#533,#534));
#297=CYLINDRICAL_SURFACE('',#298,1.);
#298=AXIS2_PLACEMENT_3D('',#299,#300,#301);
#299=CARTESIAN_POINT('',(116.,228.,-13.5000000000001));
#300=DIRECTION('',(0.,-1.,-4.44089209850063E-16));
#301=DIRECTION('',(0.,-4.44089209850063E-16,1.));
#302=FACE_BOUND('',#303,.T.);
#303=EDGE_LOOP('',(#535,#536,#537,#538));
#304=TOROIDAL_SURFACE('',#305,2.,1.);
#305=AXIS2_PLACEMENT_3D('',#306,#307,#308);
#306=CARTESIAN_POINT('',(116.,224.,-11.5000000000001));
#307=DIRECTION('',(1.,1.22464679914735E-16,-4.4408920984997E-16));
#308=DIRECTION('',(1.22464679914719E-16,-1.,-3.77475828372552E-14));
#309=FACE_BOUND('',#310,.T.);
#310=EDGE_LOOP('',(#539,#540,#541,#542));
#311=CYLINDRICAL_SURFACE('',#312,1.);
#312=AXIS2_PLACEMENT_3D('',#313,#314,#315);
#313=CARTESIAN_POINT('',(116.,226.,15.4999999999999));
#314=DIRECTION('',(-4.58414668232323E-16,-9.16829336464646E-16,-1.));
#315=DIRECTION('',(-3.94020015094782E-31,-1.,9.16829336464646E-16));
#316=FACE_BOUND('',#317,.T.);
#317=EDGE_LOOP('',(#543,#544,#545,#546));
#318=TOROIDAL_SURFACE('',#319,2.,1.);
#319=AXIS2_PLACEMENT_3D('',#320,#321,#322);
#320=CARTESIAN_POINT('',(116.,224.,11.4999999999999));
#321=DIRECTION('',(1.,1.22464679914735E-16,-4.4408920984997E-16));
#322=DIRECTION('',(-4.44089209849967E-16,-2.82992447504892E-14,-1.));
#323=FACE_BOUND('',#324,.T.);
#324=EDGE_LOOP('',(#547,#548,#549,#550));
#325=CYLINDRICAL_SURFACE('',#326,1.);
#326=AXIS2_PLACEMENT_3D('',#327,#328,#329);
#327=CARTESIAN_POINT('',(116.,212.,13.4999999999999));
#328=DIRECTION('',(0.,1.,0.));
#329=DIRECTION('',(0.,0.,-1.));
#330=FACE_BOUND('',#331,.T.);
#331=EDGE_LOOP('',(#551,#552,#553,#554));
#332=TOROIDAL_SURFACE('',#333,2.,1.);
#333=AXIS2_PLACEMENT_3D('',#334,#335,#336);
#334=CARTESIAN_POINT('',(116.,216.,11.4999999999999));
#335=DIRECTION('',(1.,1.22464679914735E-16,-4.4408920984997E-16));
#336=DIRECTION('',(-1.22464679914737E-16,1.,-3.99680288865047E-15));
#337=FACE_BOUND('',#338,.T.);
#338=EDGE_LOOP('',(#555,#556,#557,#558));
#339=CYLINDRICAL_SURFACE('',#340,1.);
#340=AXIS2_PLACEMENT_3D('',#341,#342,#343);
#341=CARTESIAN_POINT('',(129.,226.,15.4999999999999));
#342=DIRECTION('',(0.,0.,1.));
#343=DIRECTION('',(0.,-1.,0.));
#344=FACE_BOUND('',#345,.T.);
#345=EDGE_LOOP('',(#559,#560,#561,#562));
#346=TOROIDAL_SURFACE('',#347,2.,1.);
#347=AXIS2_PLACEMENT_3D('',#348,#349,#350);
#348=CARTESIAN_POINT('',(129.,224.,-11.5000000000001));
#349=DIRECTION('',(-1.,0.,0.));
#350=DIRECTION('',(0.,0.,1.));
#351=FACE_BOUND('',#352,.T.);
#352=EDGE_LOOP('',(#563,#564,#565,#566));
#353=CYLINDRICAL_SURFACE('',#354,1.);
#354=AXIS2_PLACEMENT_3D('',#355,#356,#357);
#355=CARTESIAN_POINT('',(129.,228.,-13.5000000000001));
#356=DIRECTION('',(0.,1.,0.));
#357=DIRECTION('',(0.,0.,1.));
#358=FACE_BOUND('',#359,.T.);
#359=EDGE_LOOP('',(#567,#568,#569,#570));
#360=TOROIDAL_SURFACE('',#361,2.,1.);
#361=AXIS2_PLACEMENT_3D('',#362,#363,#364);
#362=CARTESIAN_POINT('',(129.,216.,-11.5000000000001));
#363=DIRECTION('',(-1.,0.,0.));
#364=DIRECTION('',(0.,1.,0.));
#365=FACE_BOUND('',#366,.T.);
#366=EDGE_LOOP('',(#571,#572,#573,#574));
#367=CYLINDRICAL_SURFACE('',#368,1.);
#368=AXIS2_PLACEMENT_3D('',#369,#370,#371);
#369=CARTESIAN_POINT('',(129.,214.,-15.5000000000001));
#370=DIRECTION('',(0.,0.,-1.));
#371=DIRECTION('',(0.,1.,0.));
#372=FACE_BOUND('',#373,.T.);
#373=EDGE_LOOP('',(#575,#576,#577,#578));
#374=TOROIDAL_SURFACE('',#375,2.,1.);
#375=AXIS2_PLACEMENT_3D('',#376,#377,#378);
#376=CARTESIAN_POINT('',(129.,216.,11.4999999999999));
#377=DIRECTION('',(-1.,0.,0.));
#378=DIRECTION('',(0.,0.,-1.));
#379=FACE_BOUND('',#380,.T.);
#380=EDGE_LOOP('',(#579,#580,#581,#582));
#381=CYLINDRICAL_SURFACE('',#382,1.);
#382=AXIS2_PLACEMENT_3D('',#383,#384,#385);
#383=CARTESIAN_POINT('',(129.,212.,13.4999999999999));
#384=DIRECTION('',(0.,-1.,0.));
#385=DIRECTION('',(0.,0.,-1.));
#386=FACE_BOUND('',#387,.T.);
#387=EDGE_LOOP('',(#583,#584,#585,#586));
#388=TOROIDAL_SURFACE('',#389,2.,1.);
#389=AXIS2_PLACEMENT_3D('',#390,#391,#392);
#390=CARTESIAN_POINT('',(129.,224.,11.4999999999999));
#391=DIRECTION('',(-1.,0.,0.));
#392=DIRECTION('',(0.,-1.,3.5527136788005E-15));
#393=ORIENTED_EDGE('',*,*,#587,.F.);
#394=ORIENTED_EDGE('',*,*,#588,.T.);
#395=ORIENTED_EDGE('',*,*,#589,.T.);
#396=ORIENTED_EDGE('',*,*,#590,.F.);
#397=ORIENTED_EDGE('',*,*,#591,.T.);
#398=ORIENTED_EDGE('',*,*,#592,.F.);
#399=ORIENTED_EDGE('',*,*,#593,.T.);
#400=ORIENTED_EDGE('',*,*,#594,.F.);
#401=ORIENTED_EDGE('',*,*,#595,.T.);
#402=ORIENTED_EDGE('',*,*,#596,.F.);
#403=ORIENTED_EDGE('',*,*,#597,.T.);
#404=ORIENTED_EDGE('',*,*,#598,.F.);
#405=ORIENTED_EDGE('',*,*,#599,.T.);
#406=ORIENTED_EDGE('',*,*,#600,.F.);
#407=ORIENTED_EDGE('',*,*,#601,.T.);
#408=ORIENTED_EDGE('',*,*,#602,.F.);
#409=ORIENTED_EDGE('',*,*,#603,.T.);
#410=ORIENTED_EDGE('',*,*,#604,.F.);
#411=ORIENTED_EDGE('',*,*,#605,.T.);
#412=ORIENTED_EDGE('',*,*,#606,.F.);
#413=ORIENTED_EDGE('',*,*,#607,.T.);
#414=ORIENTED_EDGE('',*,*,#608,.F.);
#415=ORIENTED_EDGE('',*,*,#609,.F.);
#416=ORIENTED_EDGE('',*,*,#610,.T.);
#417=ORIENTED_EDGE('',*,*,#611,.F.);
#418=ORIENTED_EDGE('',*,*,#612,.F.);
#419=ORIENTED_EDGE('',*,*,#613,.F.);
#420=ORIENTED_EDGE('',*,*,#614,.T.);
#421=ORIENTED_EDGE('',*,*,#615,.F.);
#422=ORIENTED_EDGE('',*,*,#616,.F.);
#423=ORIENTED_EDGE('',*,*,#617,.F.);
#424=ORIENTED_EDGE('',*,*,#618,.T.);
#425=ORIENTED_EDGE('',*,*,#619,.F.);
#426=ORIENTED_EDGE('',*,*,#620,.F.);
#427=ORIENTED_EDGE('',*,*,#621,.F.);
#428=ORIENTED_EDGE('',*,*,#622,.T.);
#429=ORIENTED_EDGE('',*,*,#623,.F.);
#430=ORIENTED_EDGE('',*,*,#624,.F.);
#431=ORIENTED_EDGE('',*,*,#625,.T.);
#432=ORIENTED_EDGE('',*,*,#626,.F.);
#433=ORIENTED_EDGE('',*,*,#627,.T.);
#434=ORIENTED_EDGE('',*,*,#628,.F.);
#435=ORIENTED_EDGE('',*,*,#629,.T.);
#436=ORIENTED_EDGE('',*,*,#630,.T.);
#437=ORIENTED_EDGE('',*,*,#631,.F.);
#438=ORIENTED_EDGE('',*,*,#632,.F.);
#439=ORIENTED_EDGE('',*,*,#633,.T.);
#440=ORIENTED_EDGE('',*,*,#600,.T.);
#441=ORIENTED_EDGE('',*,*,#634,.T.);
#442=ORIENTED_EDGE('',*,*,#635,.T.);
#443=ORIENTED_EDGE('',*,*,#636,.T.);
#444=ORIENTED_EDGE('',*,*,#637,.T.);
#445=ORIENTED_EDGE('',*,*,#638,.T.);
#446=ORIENTED_EDGE('',*,*,#587,.T.);
#447=ORIENTED_EDGE('',*,*,#636,.F.);
#448=ORIENTED_EDGE('',*,*,#588,.F.);
#449=ORIENTED_EDGE('',*,*,#638,.F.);
#450=ORIENTED_EDGE('',*,*,#639,.T.);
#451=ORIENTED_EDGE('',*,*,#640,.F.);
#452=ORIENTED_EDGE('',*,*,#597,.F.);
#453=ORIENTED_EDGE('',*,*,#633,.F.);
#454=ORIENTED_EDGE('',*,*,#641,.F.);
#455=ORIENTED_EDGE('',*,*,#642,.F.);
#456=ORIENTED_EDGE('',*,*,#628,.T.);
#457=ORIENTED_EDGE('',*,*,#643,.T.);
#458=ORIENTED_EDGE('',*,*,#644,.F.);
#459=ORIENTED_EDGE('',*,*,#645,.T.);
#460=ORIENTED_EDGE('',*,*,#635,.F.);
#461=ORIENTED_EDGE('',*,*,#646,.T.);
#462=ORIENTED_EDGE('',*,*,#598,.T.);
#463=ORIENTED_EDGE('',*,*,#640,.T.);
#464=ORIENTED_EDGE('',*,*,#632,.T.);
#465=ORIENTED_EDGE('',*,*,#647,.F.);
#466=ORIENTED_EDGE('',*,*,#646,.F.);
#467=ORIENTED_EDGE('',*,*,#634,.F.);
#468=ORIENTED_EDGE('',*,*,#599,.F.);
#469=ORIENTED_EDGE('',*,*,#645,.F.);
#470=ORIENTED_EDGE('',*,*,#648,.F.);
#471=ORIENTED_EDGE('',*,*,#625,.F.);
#472=ORIENTED_EDGE('',*,*,#648,.T.);
#473=ORIENTED_EDGE('',*,*,#644,.T.);
#474=ORIENTED_EDGE('',*,*,#649,.T.);
#475=ORIENTED_EDGE('',*,*,#626,.T.);
#476=ORIENTED_EDGE('',*,*,#643,.F.);
#477=ORIENTED_EDGE('',*,*,#627,.F.);
#478=ORIENTED_EDGE('',*,*,#649,.F.);
#479=ORIENTED_EDGE('',*,*,#650,.F.);
#480=ORIENTED_EDGE('',*,*,#651,.F.);
#481=ORIENTED_EDGE('',*,*,#629,.F.);
#482=ORIENTED_EDGE('',*,*,#642,.T.);
#483=ORIENTED_EDGE('',*,*,#652,.F.);
#484=ORIENTED_EDGE('',*,*,#653,.T.);
#485=ORIENTED_EDGE('',*,*,#651,.T.);
#486=ORIENTED_EDGE('',*,*,#654,.T.);
#487=ORIENTED_EDGE('',*,*,#655,.F.);
#488=ORIENTED_EDGE('',*,*,#630,.F.);
#489=ORIENTED_EDGE('',*,*,#631,.T.);
#490=ORIENTED_EDGE('',*,*,#655,.T.);
#491=ORIENTED_EDGE('',*,*,#656,.T.);
#492=ORIENTED_EDGE('',*,*,#657,.T.);
#493=ORIENTED_EDGE('',*,*,#647,.T.);
#494=ORIENTED_EDGE('',*,*,#658,.T.);
#495=ORIENTED_EDGE('',*,*,#637,.F.);
#496=ORIENTED_EDGE('',*,*,#639,.F.);
#497=ORIENTED_EDGE('',*,*,#641,.T.);
#498=ORIENTED_EDGE('',*,*,#657,.F.);
#499=ORIENTED_EDGE('',*,*,#659,.T.);
#500=ORIENTED_EDGE('',*,*,#652,.T.);
#501=ORIENTED_EDGE('',*,*,#659,.F.);
#502=ORIENTED_EDGE('',*,*,#656,.F.);
#503=ORIENTED_EDGE('',*,*,#654,.F.);
#504=ORIENTED_EDGE('',*,*,#650,.T.);
#505=ORIENTED_EDGE('',*,*,#658,.F.);
#506=ORIENTED_EDGE('',*,*,#653,.F.);
#507=ORIENTED_EDGE('',*,*,#660,.T.);
#508=ORIENTED_EDGE('',*,*,#620,.T.);
#509=ORIENTED_EDGE('',*,*,#661,.T.);
#510=ORIENTED_EDGE('',*,*,#614,.F.);
#511=ORIENTED_EDGE('',*,*,#662,.T.);
#512=ORIENTED_EDGE('',*,*,#616,.T.);
#513=ORIENTED_EDGE('',*,*,#663,.T.);
#514=ORIENTED_EDGE('',*,*,#610,.F.);
#515=ORIENTED_EDGE('',*,*,#664,.T.);
#516=ORIENTED_EDGE('',*,*,#612,.T.);
#517=ORIENTED_EDGE('',*,*,#665,.T.);
#518=ORIENTED_EDGE('',*,*,#622,.F.);
#519=ORIENTED_EDGE('',*,*,#666,.T.);
#520=ORIENTED_EDGE('',*,*,#624,.T.);
#521=ORIENTED_EDGE('',*,*,#667,.T.);
#522=ORIENTED_EDGE('',*,*,#618,.F.);
#523=ORIENTED_EDGE('',*,*,#589,.F.);
#524=ORIENTED_EDGE('',*,*,#668,.F.);
#525=ORIENTED_EDGE('',*,*,#619,.T.);
#526=ORIENTED_EDGE('',*,*,#669,.T.);
#527=ORIENTED_EDGE('',*,*,#590,.T.);
#528=ORIENTED_EDGE('',*,*,#669,.F.);
#529=ORIENTED_EDGE('',*,*,#667,.F.);
#530=ORIENTED_EDGE('',*,*,#670,.T.);
#531=ORIENTED_EDGE('',*,*,#591,.F.);
#532=ORIENTED_EDGE('',*,*,#670,.F.);
#533=ORIENTED_EDGE('',*,*,#623,.T.);
#534=ORIENTED_EDGE('',*,*,#671,.T.);
#535=ORIENTED_EDGE('',*,*,#592,.T.);
#536=ORIENTED_EDGE('',*,*,#671,.F.);
#537=ORIENTED_EDGE('',*,*,#665,.F.);
#538=ORIENTED_EDGE('',*,*,#672,.T.);
#539=ORIENTED_EDGE('',*,*,#593,.F.);
#540=ORIENTED_EDGE('',*,*,#672,.F.);
#541=ORIENTED_EDGE('',*,*,#611,.T.);
#542=ORIENTED_EDGE('',*,*,#673,.T.);
#543=ORIENTED_EDGE('',*,*,#594,.T.);
#544=ORIENTED_EDGE('',*,*,#673,.F.);
#545=ORIENTED_EDGE('',*,*,#663,.F.);
#546=ORIENTED_EDGE('',*,*,#674,.T.);
#547=ORIENTED_EDGE('',*,*,#595,.F.);
#548=ORIENTED_EDGE('',*,*,#674,.F.);
#549=ORIENTED_EDGE('',*,*,#615,.T.);
#550=ORIENTED_EDGE('',*,*,#675,.T.);
#551=ORIENTED_EDGE('',*,*,#596,.T.);
#552=ORIENTED_EDGE('',*,*,#675,.F.);
#553=ORIENTED_EDGE('',*,*,#661,.F.);
#554=ORIENTED_EDGE('',*,*,#668,.T.);
#555=ORIENTED_EDGE('',*,*,#601,.F.);
#556=ORIENTED_EDGE('',*,*,#676,.F.);
#557=ORIENTED_EDGE('',*,*,#609,.T.);
#558=ORIENTED_EDGE('',*,*,#677,.T.);
#559=ORIENTED_EDGE('',*,*,#602,.T.);
#560=ORIENTED_EDGE('',*,*,#677,.F.);
#561=ORIENTED_EDGE('',*,*,#664,.F.);
#562=ORIENTED_EDGE('',*,*,#678,.T.);
#563=ORIENTED_EDGE('',*,*,#603,.F.);
#564=ORIENTED_EDGE('',*,*,#678,.F.);
#565=ORIENTED_EDGE('',*,*,#621,.T.);
#566=ORIENTED_EDGE('',*,*,#679,.T.);
#567=ORIENTED_EDGE('',*,*,#604,.T.);
#568=ORIENTED_EDGE('',*,*,#679,.F.);
#569=ORIENTED_EDGE('',*,*,#666,.F.);
#570=ORIENTED_EDGE('',*,*,#680,.T.);
#571=ORIENTED_EDGE('',*,*,#605,.F.);
#572=ORIENTED_EDGE('',*,*,#680,.F.);
#573=ORIENTED_EDGE('',*,*,#617,.T.);
#574=ORIENTED_EDGE('',*,*,#681,.T.);
#575=ORIENTED_EDGE('',*,*,#606,.T.);
#576=ORIENTED_EDGE('',*,*,#681,.F.);
#577=ORIENTED_EDGE('',*,*,#660,.F.);
#578=ORIENTED_EDGE('',*,*,#682,.T.);
#579=ORIENTED_EDGE('',*,*,#607,.F.);
#580=ORIENTED_EDGE('',*,*,#682,.F.);
#581=ORIENTED_EDGE('',*,*,#613,.T.);
#582=ORIENTED_EDGE('',*,*,#683,.T.);
#583=ORIENTED_EDGE('',*,*,#608,.T.);
#584=ORIENTED_EDGE('',*,*,#683,.F.);
#585=ORIENTED_EDGE('',*,*,#662,.F.);
#586=ORIENTED_EDGE('',*,*,#676,.T.);
#587=EDGE_CURVE('',#684,#685,#686,.T.);
#588=EDGE_CURVE('',#684,#685,#687,.T.);
#589=EDGE_CURVE('',#688,#689,#690,.F.);
#590=EDGE_CURVE('',#691,#689,#692,.F.);
#591=EDGE_CURVE('',#691,#693,#694,.F.);
#592=EDGE_CURVE('',#695,#693,#696,.F.);
#593=EDGE_CURVE('',#695,#697,#698,.F.);
#594=EDGE_CURVE('',#699,#697,#700,.F.);
#595=EDGE_CURVE('',#699,#701,#702,.F.);
#596=EDGE_CURVE('',#688,#701,#703,.F.);
#597=EDGE_CURVE('',#704,#705,#706,.F.);
#598=EDGE_CURVE('',#707,#705,#708,.T.);
#599=EDGE_CURVE('',#707,#709,#710,.T.);
#600=EDGE_CURVE('',#704,#709,#711,.T.);
#601=EDGE_CURVE('',#712,#713,#714,.T.);
#602=EDGE_CURVE('',#715,#713,#716,.F.);
#603=EDGE_CURVE('',#715,#717,#718,.T.);
#604=EDGE_CURVE('',#719,#717,#720,.F.);
#605=EDGE_CURVE('',#719,#721,#722,.T.);
#606=EDGE_CURVE('',#723,#721,#724,.F.);
#607=EDGE_CURVE('',#723,#725,#726,.T.);
#608=EDGE_CURVE('',#712,#725,#727,.F.);
#609=EDGE_CURVE('',#728,#729,#730,.T.);
#610=EDGE_CURVE('',#728,#731,#732,.T.);
#611=EDGE_CURVE('',#733,#731,#734,.F.);
#612=EDGE_CURVE('',#729,#733,#735,.T.);
#613=EDGE_CURVE('',#736,#737,#738,.T.);
#614=EDGE_CURVE('',#736,#739,#740,.T.);
#615=EDGE_CURVE('',#741,#739,#742,.F.);
#616=EDGE_CURVE('',#737,#741,#743,.T.);
#617=EDGE_CURVE('',#744,#745,#746,.T.);
#618=EDGE_CURVE('',#744,#747,#748,.T.);
#619=EDGE_CURVE('',#749,#747,#750,.F.);
#620=EDGE_CURVE('',#745,#749,#751,.T.);
#621=EDGE_CURVE('',#752,#753,#754,.T.);
#622=EDGE_CURVE('',#752,#755,#756,.T.);
#623=EDGE_CURVE('',#757,#755,#758,.F.);
#624=EDGE_CURVE('',#753,#757,#759,.T.);
#625=EDGE_CURVE('',#760,#761,#762,.F.);
#626=EDGE_CURVE('',#763,#761,#764,.T.);
#627=EDGE_CURVE('',#763,#765,#766,.F.);
#628=EDGE_CURVE('',#767,#765,#768,.T.);
#629=EDGE_CURVE('',#767,#769,#770,.T.);
#630=EDGE_CURVE('',#769,#771,#772,.T.);
#631=EDGE_CURVE('',#773,#771,#774,.T.);
#632=EDGE_CURVE('',#775,#773,#776,.T.);
#633=EDGE_CURVE('',#775,#704,#777,.F.);
#634=EDGE_CURVE('',#709,#778,#779,.F.);
#635=EDGE_CURVE('',#778,#760,#780,.T.);
#636=EDGE_CURVE('',#685,#781,#782,.T.);
#637=EDGE_CURVE('',#781,#783,#784,.F.);
#638=EDGE_CURVE('',#783,#684,#785,.F.);
#639=EDGE_CURVE('',#783,#781,#786,.T.);
#640=EDGE_CURVE('',#705,#775,#787,.T.);
#641=EDGE_CURVE('',#788,#789,#790,.F.);
#642=EDGE_CURVE('',#767,#788,#791,.F.);
#643=EDGE_CURVE('',#765,#792,#793,.F.);
#644=EDGE_CURVE('',#794,#792,#795,.T.);
#645=EDGE_CURVE('',#794,#760,#796,.F.);
#646=EDGE_CURVE('',#778,#707,#797,.T.);
#647=EDGE_CURVE('',#789,#773,#798,.T.);
#648=EDGE_CURVE('',#761,#794,#799,.F.);
#649=EDGE_CURVE('',#792,#763,#800,.T.);
#650=EDGE_CURVE('',#801,#802,#803,.T.);
#651=EDGE_CURVE('',#769,#801,#804,.T.);
#652=EDGE_CURVE('',#802,#788,#805,.T.);
#653=EDGE_CURVE('',#806,#806,#807,.T.);
#654=EDGE_CURVE('',#801,#808,#809,.T.);
#655=EDGE_CURVE('',#771,#808,#810,.T.);
#656=EDGE_CURVE('',#808,#811,#812,.T.);
#657=EDGE_CURVE('',#811,#789,#813,.T.);
#658=EDGE_CURVE('',#814,#814,#815,.F.);
#659=EDGE_CURVE('',#811,#802,#816,.F.);
#660=EDGE_CURVE('',#736,#745,#817,.F.);
#661=EDGE_CURVE('',#749,#739,#818,.F.);
#662=EDGE_CURVE('',#728,#737,#819,.F.);
#663=EDGE_CURVE('',#741,#731,#820,.F.);
#664=EDGE_CURVE('',#752,#729,#821,.F.);
#665=EDGE_CURVE('',#733,#755,#822,.F.);
#666=EDGE_CURVE('',#744,#753,#823,.F.);
#667=EDGE_CURVE('',#757,#747,#824,.F.);
#668=EDGE_CURVE('',#749,#688,#825,.F.);
#669=EDGE_CURVE('',#747,#689,#826,.F.);
#670=EDGE_CURVE('',#757,#691,#827,.F.);
#671=EDGE_CURVE('',#755,#693,#828,.F.);
#672=EDGE_CURVE('',#733,#695,#829,.F.);
#673=EDGE_CURVE('',#731,#697,#830,.F.);
#674=EDGE_CURVE('',#741,#699,#831,.F.);
#675=EDGE_CURVE('',#739,#701,#832,.F.);
#676=EDGE_CURVE('',#728,#712,#833,.F.);
#677=EDGE_CURVE('',#729,#713,#834,.F.);
#678=EDGE_CURVE('',#752,#715,#835,.F.);
#679=EDGE_CURVE('',#753,#717,#836,.F.);
#680=EDGE_CURVE('',#744,#719,#837,.F.);
#681=EDGE_CURVE('',#745,#721,#838,.F.);
#682=EDGE_CURVE('',#736,#723,#839,.F.);
#683=EDGE_CURVE('',#737,#725,#840,.F.);
#684=VERTEX_POINT('',#841);
#685=VERTEX_POINT('',#842);
#686=LINE('',#843,#844);
#687=CIRCLE('',#846,86.);
#688=VERTEX_POINT('',#850);
#689=VERTEX_POINT('',#851);
#690=LINE('',#852,#853);
#691=VERTEX_POINT('',#855);
#692=CIRCLE('',#856,2.);
#693=VERTEX_POINT('',#860);
#694=LINE('',#861,#862);
#695=VERTEX_POINT('',#864);
#696=CIRCLE('',#865,1.99999999999999);
#697=VERTEX_POINT('',#869);
#698=LINE('',#870,#871);
#699=VERTEX_POINT('',#873);
#700=CIRCLE('',#874,2.00000000000001);
#701=VERTEX_POINT('',#878);
#702=LINE('',#879,#880);
#703=CIRCLE('',#882,2.00000000000001);
#704=VERTEX_POINT('',#886);
#705=VERTEX_POINT('',#887);
#706=LINE('',#888,#889);
#707=VERTEX_POINT('',#891);
#708=CIRCLE('',#892,100.);
#709=VERTEX_POINT('',#896);
#710=LINE('',#897,#898);
#711=LINE('',#900,#901);
#712=VERTEX_POINT('',#903);
#713=VERTEX_POINT('',#904);
#714=LINE('',#905,#906);
#715=VERTEX_POINT('',#908);
#716=CIRCLE('',#909,2.);
#717=VERTEX_POINT('',#913);
#718=LINE('',#914,#915);
#719=VERTEX_POINT('',#917);
#720=CIRCLE('',#918,2.);
#721=VERTEX_POINT('',#922);
#722=LINE('',#923,#924);
#723=VERTEX_POINT('',#926);
#724=CIRCLE('',#927,2.);
#725=VERTEX_POINT('',#931);
#726=LINE('',#932,#933);
#727=CIRCLE('',#935,2.);
#728=VERTEX_POINT('',#939);
#729=VERTEX_POINT('',#940);
#730=LINE('',#941,#942);
#731=VERTEX_POINT('',#944);
#732=LINE('',#945,#946);
#733=VERTEX_POINT('',#948);
#734=LINE('',#949,#950);
#735=LINE('',#952,#953);
#736=VERTEX_POINT('',#955);
#737=VERTEX_POINT('',#956);
#738=LINE('',#957,#958);
#739=VERTEX_POINT('',#960);
#740=LINE('',#961,#962);
#741=VERTEX_POINT('',#964);
#742=LINE('',#965,#966);
#743=LINE('',#968,#969);
#744=VERTEX_POINT('',#971);
#745=VERTEX_POINT('',#972);
#746=LINE('',#973,#974);
#747=VERTEX_POINT('',#976);
#748=LINE('',#977,#978);
#749=VERTEX_POINT('',#980);
#750=LINE('',#981,#982);
#751=LINE('',#984,#985);
#752=VERTEX_POINT('',#987);
#753=VERTEX_POINT('',#988);
#754=LINE('',#989,#990);
#755=VERTEX_POINT('',#992);
#756=LINE('',#993,#994);
#757=VERTEX_POINT('',#996);
#758=LINE('',#997,#998);
#759=LINE('',#1000,#1001);
#760=VERTEX_POINT('',#1003);
#761=VERTEX_POINT('',#1004);
#762=CIRCLE('',#1005,14.);
#763=VERTEX_POINT('',#1009);
#764=LINE('',#1010,#1011);
#765=VERTEX_POINT('',#1013);
#766=CIRCLE('',#1014,14.);
#767=VERTEX_POINT('',#1018);
#768=LINE('',#1019,#1020);
#769=VERTEX_POINT('',#1022);
#770=LINE('',#1023,#1024);
#771=VERTEX_POINT('',#1026);
#772=LINE('',#1027,#1028);
#773=VERTEX_POINT('',#1030);
#774=LINE('',#1031,#1032);
#775=VERTEX_POINT('',#1034);
#776=LINE('',#1035,#1036);
#777=CIRCLE('',#1038,14.);
#778=VERTEX_POINT('',#1042);
#779=CIRCLE('',#1043,14.);
#780=LINE('',#1047,#1048);
#781=VERTEX_POINT('',#1050);
#782=LINE('',#1051,#1052);
#783=VERTEX_POINT('',#1054);
#784=LINE('',#1055,#1056);
#785=LINE('',#1058,#1059);
#786=CIRCLE('',#1061,86.);
#787=B_SPLINE_CURVE_WITH_KNOTS('',3,
(#1065,#1066,#1067,#1068,#1069,#1070,#1071,#1072,#1073,#1074,#1075,#1076,#1077,#1078,
#1079,#1080,#1081,#1082,#1083,#1084,#1085,#1086,#1087,#1088,#1089,#1090,#1091,#1092,
#1093,#1094,#1095,#1096,#1097,#1098,#1099),
.UNSPECIFIED.,.F.,.F.,
(4,1,1,1,1,1,1,1,1,1,1,1,1,1,1,1,1,1,1,1,1,1,1,1,1,1,1,1,1,1,1,1,4),
(0.,0.0252449461967376,0.0506255081619044,0.0761082762862096,0.101744296020207,0.127453280103007,
0.153307244876659,0.179242581760578,0.205284037210241,0.231347538653722,0.257741797596624,
0.284436075448145,0.311706846226502,0.339244860006809,0.367585734953928,0.396457768571838,
0.42612374788646,0.456056842871699,0.487004761621919,0.518706739842111,0.55165341956013,
0.585091090908966,0.619752767862789,0.655141506879353,0.6914939775625,0.728074303286224,
0.765389140236968,0.803206580785725,0.841802137220481,0.880682876929807,0.920137059691663,
0.95990610820666,1.),
.UNSPECIFIED.);
#788=VERTEX_POINT('',#1100);
#789=VERTEX_POINT('',#1101);
#790=LINE('',#1102,#1103);
#791=CIRCLE('',#1105,100.);
#792=VERTEX_POINT('',#1109);
#793=B_SPLINE_CURVE_WITH_KNOTS('',3,
(#1110,#1111,#1112,#1113,#1114,#1115,#1116,#1117,#1118,#1119,#1120,#1121,#1122,#1123,
#1124,#1125,#1126,#1127,#1128,#1129,#1130,#1131,#1132,#1133,#1134,#1135,#1136,#1137,
#1138,#1139,#1140,#1141,#1142,#1143,#1144,#1145,#1146,#1147,#1148,#1149,#1150,#1151,
#1152),
.UNSPECIFIED.,.F.,.F.,
(4,1,1,1,1,1,1,1,1,1,1,1,1,1,1,1,1,1,1,1,1,1,1,1,1,1,1,1,1,1,1,1,1,1,1,1,1,1,1,1,
4),
(0.,0.0214799308151412,0.0431089655967979,0.0648772238494253,0.0868841710777425,
0.109008725895217,0.131436479094305,0.154056377129242,0.176953076820617,0.19993291598184,
0.223391051700514,0.247238218211716,0.271779314451787,0.296618438435494,0.322286859249366,
0.348482676087757,0.375434514971691,0.40261728102114,0.430349943143992,0.458405889228778,
0.486880985490464,0.515453594023801,0.544098462946133,0.572718165717373,0.60119160570175,
0.629544013653864,0.657369701614854,0.684789730761666,0.711520190757744,0.737966142308675,
0.763683661964341,0.788956001894383,0.813622551168218,0.838127117029602,0.862151762479357,
0.885858114680267,0.90908950077122,0.932165467370533,0.95492995845903,0.977541245927671,
1.),
.UNSPECIFIED.);
#794=VERTEX_POINT('',#1153);
#795=CIRCLE('',#1154,100.);
#796=B_SPLINE_CURVE_WITH_KNOTS('',3,
(#1158,#1159,#1160,#1161,#1162,#1163,#1164,#1165,#1166,#1167,#1168,#1169,#1170,#1171,
#1172,#1173,#1174,#1175,#1176,#1177,#1178,#1179,#1180,#1181,#1182,#1183,#1184,#1185,
#1186,#1187,#1188,#1189,#1190,#1191,#1192,#1193,#1194),
.UNSPECIFIED.,.F.,.F.,
(4,1,1,1,1,1,1,1,1,1,1,1,1,1,1,1,1,1,1,1,1,1,1,1,1,1,1,1,1,1,1,1,1,1,4),
(0.,0.0604661810984715,0.126325815332723,0.195481264491271,0.250040758376248,0.289482464036243,
0.315970159239459,0.342524281128007,0.369369363351747,0.396439233332997,0.423892137518019,
0.451503132864618,0.479464995679334,0.507619654035072,0.53600009855049,0.564413769198376,
0.592763804428406,0.621015034949946,0.649034308975735,0.676915497026595,0.704069000151954,
0.730630334829241,0.756138421662899,0.781189704032352,0.804971964230585,0.82794892322573,
0.849773844047602,0.871257449498581,0.891695855157675,0.911431227487669,0.930102599506728,
0.948407774758068,0.965982436816953,0.98318168015283,1.),
.UNSPECIFIED.);
#797=B_SPLINE_CURVE_WITH_KNOTS('',3,
(#1195,#1196,#1197,#1198,#1199,#1200,#1201,#1202,#1203,#1204,#1205,#1206,#1207,#1208,
#1209,#1210,#1211,#1212,#1213,#1214,#1215,#1216,#1217,#1218,#1219,#1220,#1221,#1222,
#1223,#1224,#1225,#1226,#1227,#1228,#1229,#1230,#1231,#1232,#1233,#1234,#1235,#1236,
#1237),
.UNSPECIFIED.,.F.,.F.,
(4,1,1,1,1,1,1,1,1,1,1,1,1,1,1,1,1,1,1,1,1,1,1,1,1,1,1,1,1,1,1,1,1,1,1,1,1,1,1,1,
4),
(0.,0.0224940937155012,0.0451901138061329,0.0680887317721989,0.0913978747575752,
0.114911799665108,0.139049699087476,0.163605178597872,0.188789874012855,0.214186380207484,
0.240249966224283,0.266770253250832,0.293992196241089,0.321460515208619,0.349453283751607,
0.377725086939113,0.406308499160187,0.434924461327658,0.463552921920621,0.492160880227542,
0.520693558382936,0.549171009185617,0.577446473942832,0.605572976682888,0.633455282283799,
0.661237451863667,0.688455816561878,0.715208160816679,0.741122301303407,0.766668930876155,
0.791175590035146,0.815017398644985,0.837898771025295,0.860490581448042,0.882189435849401,
0.903285864143292,0.923466864607225,0.943328911345649,0.962553757983288,0.981446373240099,
1.),
.UNSPECIFIED.);
#798=CIRCLE('',#1238,100.);
#799=LINE('',#1242,#1243);
#800=LINE('',#1245,#1246);
#801=VERTEX_POINT('',#1248);
#802=VERTEX_POINT('',#1249);
#803=CIRCLE('',#1250,11.);
#804=CIRCLE('',#1254,28.);
#805=LINE('',#1258,#1259);
#806=VERTEX_POINT('',#1261);
#807=CIRCLE('',#1262,5.);
#808=VERTEX_POINT('',#1266);
#809=LINE('',#1267,#1268);
#810=CIRCLE('',#1270,28.);
#811=VERTEX_POINT('',#1274);
#812=CIRCLE('',#1275,11.);
#813=LINE('',#1279,#1280);
#814=VERTEX_POINT('',#1282);
#815=CIRCLE('',#1283,5.);
#816=LINE('',#1287,#1288);
#817=CIRCLE('',#1290,1.);
#818=CIRCLE('',#1294,1.);
#819=CIRCLE('',#1298,1.);
#820=CIRCLE('',#1302,1.);
#821=CIRCLE('',#1306,1.);
#822=CIRCLE('',#1310,1.);
#823=CIRCLE('',#1314,1.);
#824=CIRCLE('',#1318,1.);
#825=CIRCLE('',#1322,1.);
#826=CIRCLE('',#1326,1.);
#827=CIRCLE('',#1330,1.);
#828=CIRCLE('',#1334,1.);
#829=CIRCLE('',#1338,1.);
#830=CIRCLE('',#1342,1.);
#831=CIRCLE('',#1346,1.);
#832=CIRCLE('',#1350,1.);
#833=CIRCLE('',#1354,1.);
#834=CIRCLE('',#1358,1.);
#835=CIRCLE('',#1362,1.);
#836=CIRCLE('',#1366,1.);
#837=CIRCLE('',#1370,1.);
#838=CIRCLE('',#1374,1.);
#839=CIRCLE('',#1378,1.);
#840=CIRCLE('',#1382,1.);
#841=CARTESIAN_POINT('',(115.,200.,85.9999999999999));
#842=CARTESIAN_POINT('',(115.,200.,-86.0000000000001));
#843=CARTESIAN_POINT('',(115.,200.,85.9999999999999));
#844=VECTOR('',#845,1.);
#845=DIRECTION('',(-4.13106241720988E-16,0.,-1.));
#846=AXIS2_PLACEMENT_3D('',#847,#848,#849);
#847=CARTESIAN_POINT('',(115.,200.,-8.5265128291212E-14));
#848=DIRECTION('',(-1.,-1.22464679914735E-16,4.4408920984997E-16));
#849=DIRECTION('',(4.4408920984997E-16,-3.30484993376791E-16,1.));
#850=CARTESIAN_POINT('',(115.,214.,11.4999999999999));
#851=CARTESIAN_POINT('',(115.,214.,-11.5000000000001));
#852=CARTESIAN_POINT('',(115.,214.,-11.5000000000001));
#853=VECTOR('',#854,1.);
#854=DIRECTION('',(6.17863248487044E-16,1.23572649697409E-15,1.));
#855=CARTESIAN_POINT('',(115.,216.,-13.5000000000001));
#856=AXIS2_PLACEMENT_3D('',#857,#858,#859);
#857=CARTESIAN_POINT('',(115.,216.,-11.5000000000001));
#858=DIRECTION('',(1.,1.22464679914735E-16,-4.4408920984997E-16));
#859=DIRECTION('',(1.22464679914735E-16,-1.,-5.43852429378643E-32));
#860=CARTESIAN_POINT('',(115.,224.,-13.5000000000001));
#861=CARTESIAN_POINT('',(115.,224.,-13.5));
#862=VECTOR('',#863,1.);
#863=DIRECTION('',(0.,-1.,0.));
#864=CARTESIAN_POINT('',(115.,226.,-11.5000000000001));
#865=AXIS2_PLACEMENT_3D('',#866,#867,#868);
#866=CARTESIAN_POINT('',(115.,224.,-11.5000000000001));
#867=DIRECTION('',(1.,1.22464679914735E-16,-4.4408920984997E-16));
#868=DIRECTION('',(-4.44089209849973E-16,2.84217094304042E-14,-1.));
#869=CARTESIAN_POINT('',(115.,226.,11.4999999999999));
#870=CARTESIAN_POINT('',(115.,226.,11.4999999999999));
#871=VECTOR('',#872,1.);
#872=DIRECTION('',(-6.17863248487044E-16,-1.23572649697409E-15,-1.));
#873=CARTESIAN_POINT('',(115.,224.,13.4999999999999));
#874=AXIS2_PLACEMENT_3D('',#875,#876,#877);
#875=CARTESIAN_POINT('',(115.,224.,11.4999999999999));
#876=DIRECTION('',(1.,1.22464679914735E-16,-4.4408920984997E-16));
#877=DIRECTION('',(-1.22464679914735E-16,1.,5.43852429378643E-32));
#878=CARTESIAN_POINT('',(115.,216.,13.4999999999999));
#879=CARTESIAN_POINT('',(115.,216.,13.4999999999999));
#880=VECTOR('',#881,1.);
#881=DIRECTION('',(0.,1.,0.));
#882=AXIS2_PLACEMENT_3D('',#883,#884,#885);
#883=CARTESIAN_POINT('',(115.,216.,11.4999999999999));
#884=DIRECTION('',(1.,1.22464679914735E-16,-4.4408920984997E-16));
#885=DIRECTION('',(4.4408920984997E-16,5.43852429378643E-32,1.));
#886=CARTESIAN_POINT('',(130.,200.,-86.));
#887=CARTESIAN_POINT('',(130.,251.029038744666,-85.9999999999998));
#888=CARTESIAN_POINT('',(130.,251.029038744665,-86.));
#889=VECTOR('',#890,1.);
#890=DIRECTION('',(0.,-1.,0.));
#891=CARTESIAN_POINT('',(130.,251.029038751266,85.9999999960836));
#892=AXIS2_PLACEMENT_3D('',#893,#894,#895);
#893=CARTESIAN_POINT('',(130.,199.999635455973,9.28283590181482E-15));
#894=DIRECTION('',(-1.,0.,0.));
#895=DIRECTION('',(0.,0.510294032952927,0.859999999960835));
#896=CARTESIAN_POINT('',(130.,200.,86.0000000000001));
#897=CARTESIAN_POINT('',(130.,251.029038744665,86.));
#898=VECTOR('',#899,1.);
#899=DIRECTION('',(0.,-1.,0.));
#900=CARTESIAN_POINT('',(130.,200.,-86.));
#901=VECTOR('',#902,1.);
#902=DIRECTION('',(0.,0.,1.));
#903=CARTESIAN_POINT('',(130.,226.,11.4999999999999));
#904=CARTESIAN_POINT('',(130.,226.,-11.5000000000001));
#905=CARTESIAN_POINT('',(130.,226.,11.4999999999999));
#906=VECTOR('',#907,1.);
#907=DIRECTION('',(0.,0.,-1.));
#908=CARTESIAN_POINT('',(130.,224.,-13.5000000000001));
#909=AXIS2_PLACEMENT_3D('',#910,#911,#912);
#910=CARTESIAN_POINT('',(130.,224.,-11.5000000000001));
#911=DIRECTION('',(-1.,0.,0.));
#912=DIRECTION('',(0.,1.,0.));
#913=CARTESIAN_POINT('',(130.,216.,-13.5000000000001));
#914=CARTESIAN_POINT('',(130.,224.,-13.5000000000001));
#915=VECTOR('',#916,1.);
#916=DIRECTION('',(0.,-1.,0.));
#917=CARTESIAN_POINT('',(130.,214.,-11.5000000000001));
#918=AXIS2_PLACEMENT_3D('',#919,#920,#921);
#919=CARTESIAN_POINT('',(130.,216.,-11.5000000000001));
#920=DIRECTION('',(-1.,0.,0.));
#921=DIRECTION('',(0.,0.,-1.));
#922=CARTESIAN_POINT('',(130.,214.,11.4999999999999));
#923=CARTESIAN_POINT('',(130.,214.,-11.5000000000001));
#924=VECTOR('',#925,1.);
#925=DIRECTION('',(0.,0.,1.));
#926=CARTESIAN_POINT('',(130.,216.,13.4999999999999));
#927=AXIS2_PLACEMENT_3D('',#928,#929,#930);
#928=CARTESIAN_POINT('',(130.,216.,11.4999999999999));
#929=DIRECTION('',(-1.,0.,0.));
#930=DIRECTION('',(0.,-1.,5.32907051820075E-15));
#931=CARTESIAN_POINT('',(130.,224.,13.4999999999999));
#932=CARTESIAN_POINT('',(130.,216.,13.4999999999999));
#933=VECTOR('',#934,1.);
#934=DIRECTION('',(0.,1.,0.));
#935=AXIS2_PLACEMENT_3D('',#936,#937,#938);
#936=CARTESIAN_POINT('',(130.,224.,11.4999999999999));
#937=DIRECTION('',(-1.,0.,0.));
#938=DIRECTION('',(0.,0.,1.));
#939=CARTESIAN_POINT('',(129.,225.,11.4999999999999));
#940=CARTESIAN_POINT('',(129.,225.,-11.5000000000001));
#941=CARTESIAN_POINT('',(129.,225.,11.4999999999999));
#942=VECTOR('',#943,1.);
#943=DIRECTION('',(0.,0.,-1.));
#944=CARTESIAN_POINT('',(116.,225.,11.4999999999999));
#945=CARTESIAN_POINT('',(129.,225.,11.4999999999999));
#946=VECTOR('',#947,1.);
#947=DIRECTION('',(-1.,0.,5.46571335200077E-16));
#948=CARTESIAN_POINT('',(116.,225.,-11.5000000000001));
#949=CARTESIAN_POINT('',(116.,225.,11.4999999999999));
#950=VECTOR('',#951,1.);
#951=DIRECTION('',(-6.17863248487044E-16,-1.23572649697409E-15,-1.));
#952=CARTESIAN_POINT('',(129.,225.,-11.5000000000001));
#953=VECTOR('',#954,1.);
#954=DIRECTION('',(-1.,0.,5.46571335200077E-16));
#955=CARTESIAN_POINT('',(129.,216.,12.4999999999999));
#956=CARTESIAN_POINT('',(129.,224.,12.4999999999999));
#957=CARTESIAN_POINT('',(129.,216.,12.4999999999999));
#958=VECTOR('',#959,1.);
#959=DIRECTION('',(0.,1.,0.));
#960=CARTESIAN_POINT('',(116.,216.,12.4999999999999));
#961=CARTESIAN_POINT('',(129.,216.,12.4999999999999));
#962=VECTOR('',#963,1.);
#963=DIRECTION('',(-1.,0.,5.46571335200077E-16));
#964=CARTESIAN_POINT('',(116.,224.,12.4999999999999));
#965=CARTESIAN_POINT('',(116.,216.,12.4999999999999));
#966=VECTOR('',#967,1.);
#967=DIRECTION('',(0.,1.,0.));
#968=CARTESIAN_POINT('',(129.,224.,12.4999999999999));
#969=VECTOR('',#970,1.);
#970=DIRECTION('',(-1.,0.,5.46571335200077E-16));
#971=CARTESIAN_POINT('',(129.,215.,-11.5000000000001));
#972=CARTESIAN_POINT('',(129.,215.,11.4999999999999));
#973=CARTESIAN_POINT('',(129.,215.,-11.5000000000001));
#974=VECTOR('',#975,1.);
#975=DIRECTION('',(0.,0.,1.));
#976=CARTESIAN_POINT('',(116.,215.,-11.5000000000001));
#977=CARTESIAN_POINT('',(129.,215.,-11.5000000000001));
#978=VECTOR('',#979,1.);
#979=DIRECTION('',(-1.,0.,4.09928501400057E-16));
#980=CARTESIAN_POINT('',(116.,215.,11.4999999999999));
#981=CARTESIAN_POINT('',(116.,215.,-11.5000000000001));
#982=VECTOR('',#983,1.);
#983=DIRECTION('',(6.17863248487044E-16,1.23572649697409E-15,1.));
#984=CARTESIAN_POINT('',(129.,215.,11.4999999999999));
#985=VECTOR('',#986,1.);
#986=DIRECTION('',(-1.,0.,2.73285667600039E-16));
#987=CARTESIAN_POINT('',(129.,224.,-12.5000000000001));
#988=CARTESIAN_POINT('',(129.,216.,-12.5000000000001));
#989=CARTESIAN_POINT('',(129.,224.,-12.5000000000001));
#990=VECTOR('',#991,1.);
#991=DIRECTION('',(0.,-1.,0.));
#992=CARTESIAN_POINT('',(116.,224.,-12.5000000000001));
#993=CARTESIAN_POINT('',(129.,224.,-12.5000000000001));
#994=VECTOR('',#995,1.);
#995=DIRECTION('',(-1.,0.,4.09928501400057E-16));
#996=CARTESIAN_POINT('',(116.,216.,-12.5000000000001));
#997=CARTESIAN_POINT('',(116.,224.,-12.5000000000001));
#998=VECTOR('',#999,1.);
#999=DIRECTION('',(0.,-1.,0.));
#1000=CARTESIAN_POINT('',(129.,216.,-12.5000000000001));
#1001=VECTOR('',#1002,1.);
#1002=DIRECTION('',(-1.,0.,4.09928501400057E-16));
#1003=CARTESIAN_POINT('',(-116.,200.,99.9999999996678));
#1004=CARTESIAN_POINT('',(-130.,200.,86.));
#1005=AXIS2_PLACEMENT_3D('',#1006,#1007,#1008);
#1006=CARTESIAN_POINT('',(-116.,200.,86.));
#1007=DIRECTION('',(0.,1.,0.));
#1008=DIRECTION('',(-1.,0.,-1.01506105108586E-15));
#1009=CARTESIAN_POINT('',(-130.,200.,-86.));
#1010=CARTESIAN_POINT('',(-130.,200.,-86.));
#1011=VECTOR('',#1012,1.);
#1012=DIRECTION('',(0.,0.,1.));
#1013=CARTESIAN_POINT('',(-116.,200.,-99.9999999996678));
#1014=AXIS2_PLACEMENT_3D('',#1015,#1016,#1017);
#1015=CARTESIAN_POINT('',(-116.,200.,-86.));
#1016=DIRECTION('',(0.,1.,0.));
#1017=DIRECTION('',(0.,0.,-1.));
#1018=CARTESIAN_POINT('',(-58.,200.,-99.9999999996678));
#1019=CARTESIAN_POINT('',(-58.,200.,-99.9999999996678));
#1020=VECTOR('',#1021,1.);
#1021=DIRECTION('',(-1.,0.,0.));
#1022=CARTESIAN_POINT('',(-58.,200.,-113.745286179986));
#1023=CARTESIAN_POINT('',(-58.,200.,-100.));
#1024=VECTOR('',#1025,1.);
#1025=DIRECTION('',(0.,0.,-1.));
#1026=CARTESIAN_POINT('',(58.,200.,-113.745286179986));
#1027=CARTESIAN_POINT('',(-58.,200.,-113.745286179986));
#1028=VECTOR('',#1029,1.);
#1029=DIRECTION('',(1.,0.,0.));
#1030=CARTESIAN_POINT('',(58.,200.,-99.9999999996678));
#1031=CARTESIAN_POINT('',(58.,200.,-100.));
#1032=VECTOR('',#1033,1.);
#1033=DIRECTION('',(0.,0.,-1.));
#1034=CARTESIAN_POINT('',(116.000000000004,200.,-99.9999999996678));
#1035=CARTESIAN_POINT('',(116.000000000004,200.,-99.9999999996678));
#1036=VECTOR('',#1037,1.);
#1037=DIRECTION('',(-1.,0.,0.));
#1038=AXIS2_PLACEMENT_3D('',#1039,#1040,#1041);
#1039=CARTESIAN_POINT('',(116.,200.,-86.));
#1040=DIRECTION('',(0.,1.,0.));
#1041=DIRECTION('',(1.,0.,0.));
#1042=CARTESIAN_POINT('',(116.000136401906,200.,99.9999999996678));
#1043=AXIS2_PLACEMENT_3D('',#1044,#1045,#1046);
#1044=CARTESIAN_POINT('',(116.,200.,86.));
#1045=DIRECTION('',(0.,1.,0.));
#1046=DIRECTION('',(9.74299326981867E-6,0.,0.999999999952537));
#1047=CARTESIAN_POINT('',(116.000136401906,200.,99.9999999996678));
#1048=VECTOR('',#1049,1.);
#1049=DIRECTION('',(-1.,0.,0.));
#1050=CARTESIAN_POINT('',(-115.,200.,-86.));
#1051=CARTESIAN_POINT('',(115.,200.,-86.0000000000001));
#1052=VECTOR('',#1053,1.);
#1053=DIRECTION('',(-1.,-1.23572649697409E-16,4.32504273940931E-16));
#1054=CARTESIAN_POINT('',(-115.,200.,86.));
#1055=CARTESIAN_POINT('',(-115.,200.,86.));
#1056=VECTOR('',#1057,1.);
#1057=DIRECTION('',(-4.13106241720988E-16,0.,-1.));
#1058=CARTESIAN_POINT('',(115.,200.,85.9999999999999));
#1059=VECTOR('',#1060,1.);
#1060=DIRECTION('',(-1.,0.,3.70717949092226E-16));
#1061=AXIS2_PLACEMENT_3D('',#1062,#1063,#1064);
#1062=CARTESIAN_POINT('',(-115.,200.,1.4210854715202E-14));
#1063=DIRECTION('',(-1.,-1.22464679914735E-16,4.4408920984997E-16));
#1064=DIRECTION('',(4.4408920984997E-16,-3.30484993376791E-16,1.));
#1065=CARTESIAN_POINT('',(130.,251.029038744666,-85.9999999999999));
#1066=CARTESIAN_POINT('',(129.999975274854,250.624300339226,-86.2401573705935));
#1067=CARTESIAN_POINT('',(129.987629456272,249.810363846556,-86.7153723635664));
#1068=CARTESIAN_POINT('',(129.934459850004,248.580054331698,-87.4105832247753));
#1069=CARTESIAN_POINT('',(129.84866084534,247.336907813143,-88.090028239807));
#1070=CARTESIAN_POINT('',(129.732078963847,246.082073735295,-88.7529257669175));
#1071=CARTESIAN_POINT('',(129.586318479726,244.815028704677,-89.3994175451367));
#1072=CARTESIAN_POINT('',(129.413034364724,243.537062434289,-90.0287203765429));
#1073=CARTESIAN_POINT('',(129.21355911576,242.24775516799,-90.6409188718257));
#1074=CARTESIAN_POINT('',(128.989561184183,240.949353028868,-91.2348652248959));
#1075=CARTESIAN_POINT('',(128.741579532517,239.637937022238,-91.8122603036934));
#1076=CARTESIAN_POINT('',(128.469965339012,238.310483267171,-92.3741216148214));
#1077=CARTESIAN_POINT('',(128.173447953121,236.957868546217,-92.9236690459695));
#1078=CARTESIAN_POINT('',(127.852679530784,235.581317517147,-93.4595213977631));
#1079=CARTESIAN_POINT('',(127.506047569456,234.17252525067,-93.9839192089935));
#1080=CARTESIAN_POINT('',(127.133982740858,232.732536486999,-94.49525420033));
#1081=CARTESIAN_POINT('',(126.734316245912,231.252723662754,-94.9951197447982));
#1082=CARTESIAN_POINT('',(126.309747536229,229.742615023648,-95.4788360706137));
#1083=CARTESIAN_POINT('',(125.858388965377,228.19447469471,-95.9475662613756));
#1084=CARTESIAN_POINT('',(125.380587608204,226.608838099021,-96.3995916270517));
#1085=CARTESIAN_POINT('',(124.871241084747,224.968789409937,-96.8376329534134));
#1086=CARTESIAN_POINT('',(124.333049436524,223.283155333621,-97.2569356235156));
#1087=CARTESIAN_POINT('',(123.763542800523,221.543740331038,-97.6572286991229));
#1088=CARTESIAN_POINT('',(123.165858017978,219.759376397188,-98.0341424359826));
#1089=CARTESIAN_POINT('',(122.537581429537,217.921863231026,-98.3869149786971));
#1090=CARTESIAN_POINT('',(121.885147300757,216.048421690797,-98.7099946901239));
#1091=CARTESIAN_POINT('',(121.209385395957,214.139028506079,-99.0016795175506));
#1092=CARTESIAN_POINT('',(120.514266661364,212.202161977574,-99.2592128300425));
#1093=CARTESIAN_POINT('',(119.797577919276,210.228836287826,-99.4821419583233));
#1094=CARTESIAN_POINT('',(119.063454329063,208.227466555184,-99.6677922140158));
#1095=CARTESIAN_POINT('',(118.312926238484,206.197525444853,-99.8147197251681));
#1096=CARTESIAN_POINT('',(117.550526773447,204.147737116305,-99.9210332985729));
#1097=CARTESIAN_POINT('',(116.777727224172,202.078131759512,-99.9855902835613));
#1098=CARTESIAN_POINT('',(116.259852063172,200.69426332254,-99.999998342774));
#1099=CARTESIAN_POINT('',(116.000000000002,200.,-99.9999999996678));
#1100=CARTESIAN_POINT('',(-58.,222.,-97.5499049714038));
#1101=CARTESIAN_POINT('',(58.,222.,-97.5499049714038));
#1102=CARTESIAN_POINT('',(58.,222.,-97.5499049714038));
#1103=VECTOR('',#1104,1.);
#1104=DIRECTION('',(-1.,0.,0.));
#1105=AXIS2_PLACEMENT_3D('',#1106,#1107,#1108);
#1106=CARTESIAN_POINT('',(-58.,199.999635455973,1.4210854715202E-14));
#1107=DIRECTION('',(-1.,0.,0.));
#1108=DIRECTION('',(0.,0.220003645440271,-0.975499049714038));
#1109=CARTESIAN_POINT('',(-130.,251.029038744665,-86.));
#1110=CARTESIAN_POINT('',(-130.,251.029038744665,-86.));
#1111=CARTESIAN_POINT('',(-129.999987062646,250.685100028082,-86.2040812494927));
#1112=CARTESIAN_POINT('',(-129.991055438019,249.993072252699,-86.6091076488998));
#1113=CARTESIAN_POINT('',(-129.952252905809,248.946432892527,-87.2049127164059));
#1114=CARTESIAN_POINT('',(-129.889020013876,247.886210018268,-87.791618757685));
#1115=CARTESIAN_POINT('',(-129.802249898823,246.812957855242,-88.3686101884578));
#1116=CARTESIAN_POINT('',(-129.692513624246,245.724066215601,-88.936957612976));
#1117=CARTESIAN_POINT('',(-129.560541633285,244.620308123367,-89.4958707630043));
#1118=CARTESIAN_POINT('',(-129.406575172478,243.499078333078,-90.0462245155421));
#1119=CARTESIAN_POINT('',(-129.231672159015,242.364072059124,-90.5857871368942));
#1120=CARTESIAN_POINT('',(-129.035672863824,241.210640425039,-91.116377967821));
#1121=CARTESIAN_POINT('',(-128.818625106467,240.036999464151,-91.6382499282064));
#1122=CARTESIAN_POINT('',(-128.5787246494,238.832993009764,-92.1550495726233));
#1123=CARTESIAN_POINT('',(-128.31650174692,237.601673670323,-92.6643994939214));
#1124=CARTESIAN_POINT('',(-128.030340836419,236.335713575748,-93.1682276448026));
#1125=CARTESIAN_POINT('',(-127.720786863613,235.038062843907,-93.6641268891183));
#1126=CARTESIAN_POINT('',(-127.385849984154,233.701156650271,-94.1535813209908));
#1127=CARTESIAN_POINT('',(-127.028062533254,232.335407404613,-94.6314365585537));
#1128=CARTESIAN_POINT('',(-126.647610580289,230.940815322926,-95.0966383715138));
#1129=CARTESIAN_POINT('',(-126.246835467281,229.524720350891,-95.5458824438238));
#1130=CARTESIAN_POINT('',(-125.825205530549,228.083905409965,-95.9793515758829));
#1131=CARTESIAN_POINT('',(-125.385459989542,226.626145418918,-96.3939887913114));
#1132=CARTESIAN_POINT('',(-124.929553462386,225.15583254443,-96.7881120647806));
#1133=CARTESIAN_POINT('',(-124.460683977642,223.680756687079,-97.1595338554907));
#1134=CARTESIAN_POINT('',(-123.981111773355,222.205309846212,-97.5072844142592));
#1135=CARTESIAN_POINT('',(-123.492904137972,220.733049232254,-97.8308626469091));
#1136=CARTESIAN_POINT('',(-122.999957406906,219.272869488662,-98.1288673447844));
#1137=CARTESIAN_POINT('',(-122.504846994416,217.829395800762,-98.4012457231392));
#1138=CARTESIAN_POINT('',(-122.012032538066,216.412614270194,-98.647299871868));
#1139=CARTESIAN_POINT('',(-121.521104178961,215.018510447261,-98.8690196732344));
#1140=CARTESIAN_POINT('',(-121.034965275901,213.65282894645,-99.0667142163089));
#1141=CARTESIAN_POINT('',(-120.552972369037,212.31148491568,-99.2421927045055));
#1142=CARTESIAN_POINT('',(-120.077919230017,211.000183403172,-99.3959608020914));
#1143=CARTESIAN_POINT('',(-119.606946812666,209.709232505178,-99.5302691478108));
#1144=CARTESIAN_POINT('',(-119.140863397074,208.43934379741,-99.645908048549));
#1145=CARTESIAN_POINT('',(-118.678379932393,207.185666992227,-99.7440646624078));
#1146=CARTESIAN_POINT('',(-118.222005085795,205.95376344201,-99.8250880241097));
#1147=CARTESIAN_POINT('',(-117.770114755491,204.738120878281,-99.8901033148504));
#1148=CARTESIAN_POINT('',(-117.323079846234,203.538729558135,-99.9397349201107));
#1149=CARTESIAN_POINT('',(-116.879178235148,202.350101375446,-99.9747026371115));
#1150=CARTESIAN_POINT('',(-116.438780004772,201.172258506932,-99.9954211595056));
#1151=CARTESIAN_POINT('',(-116.145945323179,200.389831718005,-99.9999986314729));
#1152=CARTESIAN_POINT('',(-116.,200.,-99.9999999996678));
#1153=CARTESIAN_POINT('',(-130.,251.029038744687,85.9999999999868));
#1154=AXIS2_PLACEMENT_3D('',#1155,#1156,#1157);
#1155=CARTESIAN_POINT('',(-130.,199.999635455973,9.28283590181482E-15));
#1156=DIRECTION('',(-1.,0.,0.));
#1157=DIRECTION('',(0.,0.51029403288737,0.859999999999735));
#1158=CARTESIAN_POINT('',(-116.,200.,99.9999999996678));
#1159=CARTESIAN_POINT('',(-116.393006010578,201.050157244236,99.9999813030071));
#1160=CARTESIAN_POINT('',(-117.214029324461,203.244178840175,99.9654401019365));
#1161=CARTESIAN_POINT('',(-118.477855298967,206.638246119995,99.8001257986348));
#1162=CARTESIAN_POINT('',(-119.689361031217,209.927282485083,99.5235951357664));
#1163=CARTESIAN_POINT('',(-120.714536813639,212.755138809115,99.1934354797071));
#1164=CARTESIAN_POINT('',(-121.458796214306,214.841251804748,98.8976154495441));
#1165=CARTESIAN_POINT('',(-122.021941800997,216.441040020255,98.6424280391588));
#1166=CARTESIAN_POINT('',(-122.502149397152,217.821806831278,98.4023853228665));
#1167=CARTESIAN_POINT('',(-122.978918320355,219.211378914195,98.1406299447438));
#1168=CARTESIAN_POINT('',(-123.453274618762,220.615071704068,97.8554852020607));
#1169=CARTESIAN_POINT('',(-123.923500658134,222.030432225991,97.5466702279601));
#1170=CARTESIAN_POINT('',(-124.389310326125,223.45947237209,97.2129684440951));
#1171=CARTESIAN_POINT('',(-124.848536222011,224.898660465161,96.8544338992116));
#1172=CARTESIAN_POINT('',(-125.300372817757,226.348900984246,96.4700667130422));
#1173=CARTESIAN_POINT('',(-125.741922157281,227.804494735019,96.0607006741752));
#1174=CARTESIAN_POINT('',(-126.170692332798,229.260826832034,95.6271634454165));
#1175=CARTESIAN_POINT('',(-126.583993155642,230.712174278579,95.1709598624397));
#1176=CARTESIAN_POINT('',(-126.979567740484,232.153878706537,94.6935680362046));
#1177=CARTESIAN_POINT('',(-127.356171833785,233.584583486434,94.1956113887767));
#1178=CARTESIAN_POINT('',(-127.710219128459,234.993557100297,93.6812077782965));
#1179=CARTESIAN_POINT('',(-128.039629867911,236.374194101058,93.153655376197));
#1180=CARTESIAN_POINT('',(-128.340696657461,237.710693511778,92.6204554512555));
#1181=CARTESIAN_POINT('',(-128.61480194391,239.007456469237,92.0816325528849));
#1182=CARTESIAN_POINT('',(-128.860074287756,240.253045925036,91.5437607374799));
#1183=CARTESIAN_POINT('',(-129.078159904917,241.451722917062,91.0070005218037));
#1184=CARTESIAN_POINT('',(-129.268161982571,242.592128987837,90.4786502316617));
#1185=CARTESIAN_POINT('',(-129.433854942032,243.689966313168,89.9534880728567));
#1186=CARTESIAN_POINT('',(-129.575574946205,244.741499409224,89.4349615230044));
#1187=CARTESIAN_POINT('',(-129.69521291,245.754391928139,88.9208288599671));
#1188=CARTESIAN_POINT('',(-129.792576503542,246.717116114666,88.418631463593));
#1189=CARTESIAN_POINT('',(-129.870084842408,247.641165687608,87.924031871008));
#1190=CARTESIAN_POINT('',(-129.928737854736,248.526415679106,87.4384521227021));
#1191=CARTESIAN_POINT('',(-129.970009045067,249.384272580063,86.9567114855492));
#1192=CARTESIAN_POINT('',(-129.994481720384,250.214704057558,86.4797453161119));
#1193=CARTESIAN_POINT('',(-129.999994974662,250.760004865184,86.1596353751045));
#1194=CARTESIAN_POINT('',(-130.,251.029038744688,85.9999999999868));
#1195=CARTESIAN_POINT('',(116.000136401906,200.,99.9999999993356));
#1196=CARTESIAN_POINT('',(116.14623263796,200.390458820331,99.9999984574254));
#1197=CARTESIAN_POINT('',(116.439770729306,201.174972115951,99.9954015407408));
#1198=CARTESIAN_POINT('',(116.881836957378,202.357195265134,99.9745580239857));
#1199=CARTESIAN_POINT('',(117.328652275612,203.55366297556,99.9392433131552));
#1200=CARTESIAN_POINT('',(117.779877557473,204.764333657787,99.8889109513028));
#1201=CARTESIAN_POINT('',(118.23784531166,205.996425310101,99.8226112350911));
#1202=CARTESIAN_POINT('',(118.702155560211,207.249944066738,99.739518962008));
#1203=CARTESIAN_POINT('',(119.175022041868,208.532126677489,99.6381423983151));
#1204=CARTESIAN_POINT('',(119.653235971036,209.835676066783,99.5180145619848));
#1205=CARTESIAN_POINT('',(120.137769391821,211.164766374469,99.37778578696));
#1206=CARTESIAN_POINT('',(120.626869388418,212.516279275446,99.2167630302609));
#1207=CARTESIAN_POINT('',(121.122837103188,213.898561035252,99.0327322479061));
#1208=CARTESIAN_POINT('',(121.622199750919,215.304169486124,98.8253956064258));
#1209=CARTESIAN_POINT('',(122.124468330623,216.734120437002,98.5934391646006));
#1210=CARTESIAN_POINT('',(122.626136239633,218.180941667236,98.3370351103608));
#1211=CARTESIAN_POINT('',(123.126594950586,219.645596405368,98.0550193134873));
#1212=CARTESIAN_POINT('',(123.62193655577,221.119440089658,97.7482310490654));
#1213=CARTESIAN_POINT('',(124.109654945372,222.597745226834,97.4171073500441));
#1214=CARTESIAN_POINT('',(124.586931066464,224.074565939388,97.0627033671146));
#1215=CARTESIAN_POINT('',(125.052259496096,225.547841926131,96.6853707864496));
#1216=CARTESIAN_POINT('',(125.504373434846,227.016222833498,96.2853890060515));
#1217=CARTESIAN_POINT('',(125.941427437165,228.476430579121,95.8636603993287));
#1218=CARTESIAN_POINT('',(126.362196424854,229.927069435909,95.4207141625432));
#1219=CARTESIAN_POINT('',(126.764941456146,231.364805322555,94.9578006849511));
#1220=CARTESIAN_POINT('',(127.149350497259,232.791297779513,94.4746529787092));
#1221=CARTESIAN_POINT('',(127.512745254513,234.199434700328,93.9740052557863));
#1222=CARTESIAN_POINT('',(127.853458683764,235.584937481391,93.4580268406498));
#1223=CARTESIAN_POINT('',(128.168108792083,236.934926166857,92.9326113196168));
#1224=CARTESIAN_POINT('',(128.457450511229,238.252467723148,92.3979374003024));
#1225=CARTESIAN_POINT('',(128.719497431128,239.527741430418,91.8594268011875));
#1226=CARTESIAN_POINT('',(128.955243663449,240.763665687959,91.317467452316));
#1227=CARTESIAN_POINT('',(129.163528278699,241.950456329155,90.7781812736048));
#1228=CARTESIAN_POINT('',(129.347288083501,243.100783745209,90.2375393145105));
#1229=CARTESIAN_POINT('',(129.506457908753,244.211009583353,89.6986733414594));
#1230=CARTESIAN_POINT('',(129.642409203691,245.287220225708,89.1599734685841));
#1231=CARTESIAN_POINT('',(129.754657499165,246.319370666208,88.6279720007968));
#1232=CARTESIAN_POINT('',(129.845131750285,247.317176928311,88.099155817979));
#1233=CARTESIAN_POINT('',(129.91446790527,248.280332844148,87.5749234411869));
#1234=CARTESIAN_POINT('',(129.963763119482,249.218493833257,87.0510131653161));
#1235=CARTESIAN_POINT('',(129.993294120918,250.131498036053,86.5283731579803));
#1236=CARTESIAN_POINT('',(129.999992611058,250.732118234545,86.176182319537));
#1237=CARTESIAN_POINT('',(130.,251.029038752428,85.9999999980418));
#1238=AXIS2_PLACEMENT_3D('',#1239,#1240,#1241);
#1239=CARTESIAN_POINT('',(58.,199.999635455973,1.4210854715202E-14));
#1240=DIRECTION('',(-1.,0.,0.));
#1241=DIRECTION('',(0.,0.220003645440271,-0.975499049714038));
#1242=CARTESIAN_POINT('',(-130.,251.029038744665,86.));
#1243=VECTOR('',#1244,1.);
#1244=DIRECTION('',(0.,-1.,0.));
#1245=CARTESIAN_POINT('',(-130.,251.029038744665,-86.));
#1246=VECTOR('',#1247,1.);
#1247=DIRECTION('',(0.,-1.,2.7848564395479E-16));
#1248=CARTESIAN_POINT('',(-58.,201.100040178327,-115.794871794872));
#1249=CARTESIAN_POINT('',(-58.,222.,-111.));
#1250=AXIS2_PLACEMENT_3D('',#1251,#1252,#1253);
#1251=CARTESIAN_POINT('',(-58.,211.,-111.));
#1252=DIRECTION('',(1.,0.,0.));
#1253=DIRECTION('',(0.,-0.899996347424834,-0.435897435897434));
#1254=AXIS2_PLACEMENT_3D('',#1255,#1256,#1257);
#1255=CARTESIAN_POINT('',(-58.,175.900142450431,-128.));
#1256=DIRECTION('',(-1.,0.,0.));
#1257=DIRECTION('',(0.,0.860709198198876,0.509096922143366));
#1258=CARTESIAN_POINT('',(-58.,222.,-111.));
#1259=VECTOR('',#1260,1.);
#1260=DIRECTION('',(0.,0.,1.));
#1261=CARTESIAN_POINT('',(-58.,216.,-111.));
#1262=AXIS2_PLACEMENT_3D('',#1263,#1264,#1265);
#1263=CARTESIAN_POINT('',(-58.,211.,-111.));
#1264=DIRECTION('',(1.,0.,0.));
#1265=DIRECTION('',(0.,1.,6.12323399573677E-17));
#1266=CARTESIAN_POINT('',(58.,201.100040178327,-115.794871794872));
#1267=CARTESIAN_POINT('',(-58.,201.100040178327,-115.794871794872));
#1268=VECTOR('',#1269,1.);
#1269=DIRECTION('',(1.,0.,0.));
#1270=AXIS2_PLACEMENT_3D('',#1271,#1272,#1273);
#1271=CARTESIAN_POINT('',(58.,175.900142450431,-128.));
#1272=DIRECTION('',(-1.,0.,0.));
#1273=DIRECTION('',(0.,0.860709198198876,0.509096922143366));
#1274=CARTESIAN_POINT('',(58.,222.,-111.));
#1275=AXIS2_PLACEMENT_3D('',#1276,#1277,#1278);
#1276=CARTESIAN_POINT('',(58.,211.,-111.));
#1277=DIRECTION('',(1.,0.,0.));
#1278=DIRECTION('',(0.,-0.899996347424834,-0.435897435897434));
#1279=CARTESIAN_POINT('',(58.,222.,-111.));
#1280=VECTOR('',#1281,1.);
#1281=DIRECTION('',(0.,0.,1.));
#1282=CARTESIAN_POINT('',(58.,216.,-111.));
#1283=AXIS2_PLACEMENT_3D('',#1284,#1285,#1286);
#1284=CARTESIAN_POINT('',(58.,211.,-111.));
#1285=DIRECTION('',(1.,0.,0.));
#1286=DIRECTION('',(0.,1.,6.12323399573677E-17));
#1287=CARTESIAN_POINT('',(-58.,222.,-111.));
#1288=VECTOR('',#1289,1.);
#1289=DIRECTION('',(1.,0.,0.));
#1290=AXIS2_PLACEMENT_3D('',#1291,#1292,#1293);
#1291=CARTESIAN_POINT('',(129.,216.,11.4999999999999));
#1292=DIRECTION('',(-1.,0.,4.63397436365283E-16));
#1293=DIRECTION('',(-7.451999132211E-32,-1.,-1.60812264967664E-16));
#1294=AXIS2_PLACEMENT_3D('',#1295,#1296,#1297);
#1295=CARTESIAN_POINT('',(116.,216.,11.4999999999999));
#1296=DIRECTION('',(1.,0.,-4.63397436365283E-16));
#1297=DIRECTION('',(4.63397436365283E-16,0.,1.));
#1298=AXIS2_PLACEMENT_3D('',#1299,#1300,#1301);
#1299=CARTESIAN_POINT('',(129.,224.,11.4999999999999));
#1300=DIRECTION('',(-1.,0.,4.63397436365283E-16));
#1301=DIRECTION('',(4.63397436365283E-16,-3.82856869892695E-16,1.));
#1302=AXIS2_PLACEMENT_3D('',#1303,#1304,#1305);
#1303=CARTESIAN_POINT('',(116.,224.,11.4999999999999));
#1304=DIRECTION('',(1.,0.,-4.63397436365283E-16));
#1305=DIRECTION('',(0.,1.,0.));
#1306=AXIS2_PLACEMENT_3D('',#1307,#1308,#1309);
#1307=CARTESIAN_POINT('',(129.,224.,-11.5000000000001));
#1308=DIRECTION('',(-1.,0.,4.63397436365283E-16));
#1309=DIRECTION('',(-2.83749093588917E-32,1.,-6.12323399573677E-17));
#1310=AXIS2_PLACEMENT_3D('',#1311,#1312,#1313);
#1311=CARTESIAN_POINT('',(116.,224.,-11.5000000000001));
#1312=DIRECTION('',(1.,0.,-4.63397436365283E-16));
#1313=DIRECTION('',(-4.63397436365283E-16,0.,-1.));
#1314=AXIS2_PLACEMENT_3D('',#1315,#1316,#1317);
#1315=CARTESIAN_POINT('',(129.,216.,-11.5000000000001));
#1316=DIRECTION('',(-1.,0.,3.86164530304403E-16));
#1317=DIRECTION('',(-3.86164530304403E-16,3.82856869892695E-16,-1.));
#1318=AXIS2_PLACEMENT_3D('',#1319,#1320,#1321);
#1319=CARTESIAN_POINT('',(116.,216.,-11.5000000000001));
#1320=DIRECTION('',(1.,0.,-3.86164530304403E-16));
#1321=DIRECTION('',(0.,-1.,0.));
#1322=AXIS2_PLACEMENT_3D('',#1323,#1324,#1325);
#1323=CARTESIAN_POINT('',(116.,214.,11.4999999999999));
#1324=DIRECTION('',(-4.4408920984997E-16,-3.23108914886508E-15,-1.));
#1325=DIRECTION('',(-1.,1.4348918270743E-30,4.4408920984997E-16));
#1326=AXIS2_PLACEMENT_3D('',#1327,#1328,#1329);
#1327=CARTESIAN_POINT('',(116.,214.,-11.5000000000001));
#1328=DIRECTION('',(-4.58414668232323E-16,-9.16829336464648E-16,-1.));
#1329=DIRECTION('',(-1.,-1.60812264967663E-16,4.58414668232323E-16));
#1330=AXIS2_PLACEMENT_3D('',#1331,#1332,#1333);
#1331=CARTESIAN_POINT('',(116.,216.,-13.5000000000001));
#1332=DIRECTION('',(-1.22464679914709E-16,1.,5.83748463403789E-14));
#1333=DIRECTION('',(-1.,-1.22464679914917E-16,3.55271367880049E-15));
#1334=AXIS2_PLACEMENT_3D('',#1335,#1336,#1337);
#1335=CARTESIAN_POINT('',(116.,224.,-13.5000000000001));
#1336=DIRECTION('',(0.,1.,4.44089209850063E-16));
#1337=DIRECTION('',(-1.,-2.71926214689379E-32,6.12323399573677E-17));
#1338=AXIS2_PLACEMENT_3D('',#1339,#1340,#1341);
#1339=CARTESIAN_POINT('',(116.,226.,-11.5000000000001));
#1340=DIRECTION('',(4.44089209849971E-16,-5.65069504813599E-15,1.));
#1341=DIRECTION('',(-1.,-2.50941269902985E-30,4.44089209849971E-16));
#1342=AXIS2_PLACEMENT_3D('',#1343,#1344,#1345);
#1343=CARTESIAN_POINT('',(116.,226.,11.4999999999999));
#1344=DIRECTION('',(4.58414668232323E-16,9.16829336464646E-16,1.));
#1345=DIRECTION('',(-1.,-6.12323399573668E-17,4.58414668232323E-16));
#1346=AXIS2_PLACEMENT_3D('',#1347,#1348,#1349);
#1347=CARTESIAN_POINT('',(116.,224.,13.4999999999999));
#1348=DIRECTION('',(1.2246467991475E-16,-1.,3.19744231092044E-14));
#1349=DIRECTION('',(-1.,-1.22464679914636E-16,3.5527136788005E-15));
#1350=AXIS2_PLACEMENT_3D('',#1351,#1352,#1353);
#1351=CARTESIAN_POINT('',(116.,216.,13.4999999999999));
#1352=DIRECTION('',(0.,-1.,0.));
#1353=DIRECTION('',(-1.,0.,-6.12323399573677E-17));
#1354=AXIS2_PLACEMENT_3D('',#1355,#1356,#1357);
#1355=CARTESIAN_POINT('',(129.,226.,11.4999999999999));
#1356=DIRECTION('',(0.,-5.20660583828602E-15,-1.));
#1357=DIRECTION('',(1.,0.,0.));
#1358=AXIS2_PLACEMENT_3D('',#1359,#1360,#1361);
#1359=CARTESIAN_POINT('',(129.,226.,-11.5000000000001));
#1360=DIRECTION('',(0.,0.,-1.));
#1361=DIRECTION('',(1.,-6.12323399573677E-17,0.));
#1362=AXIS2_PLACEMENT_3D('',#1363,#1364,#1365);
#1363=CARTESIAN_POINT('',(129.,224.,-13.5000000000001));
#1364=DIRECTION('',(0.,-1.,-1.22464679914735E-16));
#1365=DIRECTION('',(1.,0.,0.));
#1366=AXIS2_PLACEMENT_3D('',#1367,#1368,#1369);
#1367=CARTESIAN_POINT('',(129.,216.,-13.5000000000001));
#1368=DIRECTION('',(0.,-1.,0.));
#1369=DIRECTION('',(1.,0.,2.83276944882399E-16));
#1370=AXIS2_PLACEMENT_3D('',#1371,#1372,#1373);
#1371=CARTESIAN_POINT('',(129.,214.,-11.5000000000001));
#1372=DIRECTION('',(0.,1.65389215948551E-15,1.));
#1373=DIRECTION('',(1.,0.,0.));
#1374=AXIS2_PLACEMENT_3D('',#1375,#1376,#1377);
#1375=CARTESIAN_POINT('',(129.,214.,11.4999999999999));
#1376=DIRECTION('',(0.,0.,1.));
#1377=DIRECTION('',(1.,6.12323399573677E-17,0.));
#1378=AXIS2_PLACEMENT_3D('',#1379,#1380,#1381);
#1379=CARTESIAN_POINT('',(129.,216.,13.4999999999999));
#1380=DIRECTION('',(0.,1.,4.56335677841536E-15));
#1381=DIRECTION('',(1.,0.,0.));
#1382=AXIS2_PLACEMENT_3D('',#1383,#1384,#1385);
#1383=CARTESIAN_POINT('',(129.,224.,13.4999999999999));
#1384=DIRECTION('',(0.,1.,0.));
#1385=DIRECTION('',(1.,0.,3.82856869892695E-16));
ENDSEC;
END-ISO-10303-21;
