ISO-10303-21;
HEADER;
FILE_DESCRIPTION(('STEP AP203'),
    '1');
FILE_NAME('Деталь',
    '',
    ('UNSPECIFIED'),
    ('UNSPECIFIED'),
    'C3D Converter',
    'C3D Toolkit',
    '');
FILE_SCHEMA(('CONFIG_CONTROL_DESIGN'));
ENDSEC;

DATA;
#1=PRODUCT_DEFINITION('','UNSPECIFIED',#48,#51);
#2=SHAPE_DEFINITION_REPRESENTATION(#46,#3);
#3=SHAPE_REPRESENTATION('NONE',(#4),#8);
#4=AXIS2_PLACEMENT_3D('',#5,#6,#7);
#5=CARTESIAN_POINT('',(0.,0.,0.));
#6=DIRECTION('',(0.,0.,1.));
#7=DIRECTION('',(1.,0.,0.));
#8=(GEOMETRIC_REPRESENTATION_CONTEXT(3)GLOBAL_UNCERTAINTY_ASSIGNED_CONTEXT((#10))
GLOBAL_UNIT_ASSIGNED_CONTEXT((#9,#11,#12))REPRESENTATION_CONTEXT('NONE','NONE'));
#9=(LENGTH_UNIT()NAMED_UNIT(*)SI_UNIT(.MILLI.,.METRE.));
#10=UNCERTAINTY_MEASURE_WITH_UNIT(LENGTH_MEASURE(1.E-5),#9,'NONE','NONE');
#11=(NAMED_UNIT(*)PLANE_ANGLE_UNIT()SI_UNIT($,.RADIAN.));
#12=(NAMED_UNIT(*)SI_UNIT($,.STERADIAN.)SOLID_ANGLE_UNIT());
#13=MANIFOLD_SOLID_BREP('',#14);
#14=CLOSED_SHELL('',(#73,#74,#75,#76,#77,#78,#79,#80,#81,#82,#83,#84,#85,#86,#87,
#88,#89,#90,#91,#92,#93,#94,#95,#96,#97,#98));
#15=COLOUR_RGB('',0.564705882352941,0.564705882352941,0.564705882352941);
#16=FILL_AREA_STYLE_COLOUR('',#15);
#17=FILL_AREA_STYLE($,(#16));
#18=SURFACE_STYLE_FILL_AREA(#17);
#19=SURFACE_SIDE_STYLE('',(#18));
#20=SURFACE_STYLE_USAGE(.BOTH.,#19);
#21=PRESENTATION_STYLE_ASSIGNMENT((#20));
#22=MECHANICAL_DESIGN_GEOMETRIC_PRESENTATION_REPRESENTATION('NONE',(#23,#33,#43),
#8);
#23=STYLED_ITEM('',(#21),#13);
#24=MANIFOLD_SOLID_BREP('',#25);
#25=CLOSED_SHELL('',(#99,#100,#101,#102,#103,#104,#105,#106,#107,#108,#109));
#26=COLOUR_RGB('',0.564705882352941,0.564705882352941,0.564705882352941);
#27=FILL_AREA_STYLE_COLOUR('',#26);
#28=FILL_AREA_STYLE($,(#27));
#29=SURFACE_STYLE_FILL_AREA(#28);
#30=SURFACE_SIDE_STYLE('',(#29));
#31=SURFACE_STYLE_USAGE(.BOTH.,#30);
#32=PRESENTATION_STYLE_ASSIGNMENT((#31));
#33=STYLED_ITEM('',(#32),#24);
#34=MANIFOLD_SOLID_BREP('',#35);
#35=CLOSED_SHELL('',(#110,#111,#112,#113,#114,#115,#116,#117,#118,#119,#120));
#36=COLOUR_RGB('',0.564705882352941,0.564705882352941,0.564705882352941);
#37=FILL_AREA_STYLE_COLOUR('',#36);
#38=FILL_AREA_STYLE($,(#37));
#39=SURFACE_STYLE_FILL_AREA(#38);
#40=SURFACE_SIDE_STYLE('',(#39));
#41=SURFACE_STYLE_USAGE(.BOTH.,#40);
#42=PRESENTATION_STYLE_ASSIGNMENT((#41));
#43=STYLED_ITEM('',(#42),#34);
#44=ADVANCED_BREP_SHAPE_REPRESENTATION('NONE',(#13,#24,#34),#8);
#45=SHAPE_REPRESENTATION_RELATIONSHIP('','',#3,#44);
#46=PRODUCT_DEFINITION_SHAPE('NONE','NONE',#1);
#47=MECHANICAL_CONTEXT('NONE',#52,'mechanical');
#48=PRODUCT_DEFINITION_FORMATION_WITH_SPECIFIED_SOURCE('ANY','UNSPECIFIED',#49,.NOT_KNOWN.);
#49=PRODUCT('','\X2\0414043504420430043B044C\X0\','NONE',(#47));
#50=PRODUCT_RELATED_PRODUCT_CATEGORY('detail','',(#49));
#51=DESIGN_CONTEXT('detailed design',#52,'design');
#52=APPLICATION_CONTEXT('configuration controlled 3d designs of mechanical parts and assemblies');
#53=APPLICATION_PROTOCOL_DEFINITION('international standard','config_control_design',
1994,#52);
#54=CC_DESIGN_DATE_AND_TIME_ASSIGNMENT(#55,#59,(#1));
#55=DATE_AND_TIME(#56,#57);
#56=CALENDAR_DATE(0,1,1);
#57=LOCAL_TIME(0,0,0.,#58);
#58=COORDINATED_UNIVERSAL_TIME_OFFSET(0,0,.AHEAD.);
#59=DATE_TIME_ROLE('creation_date');
#60=CC_DESIGN_APPROVAL(#61,(#1));
#61=APPROVAL(#62,'UNSPECIFIED');
#62=APPROVAL_STATUS('not_yet_approved');
#63=APPROVAL_DATE_TIME(#64,#61);
#64=DATE_AND_TIME(#65,#66);
#65=CALENDAR_DATE(0,1,1);
#66=LOCAL_TIME(0,0,0.,#67);
#67=COORDINATED_UNIVERSAL_TIME_OFFSET(0,0,.AHEAD.);
#68=PERSON('UNSPECIFIED','grigo','UNSPECIFIED',('UNSPECIFIED'),('UNSPECIFIED'),(
'UNSPECIFIED'));
#69=ORGANIZATION('UNSPECIFIED','UNSPECIFIED','UNSPECIFIED');
#70=PERSON_AND_ORGANIZATION(#68,#69);
#71=PERSON_AND_ORGANIZATION_ROLE('creator');
#72=CC_DESIGN_PERSON_AND_ORGANIZATION_ASSIGNMENT(#70,#71,(#48,#1));
#73=ADVANCED_FACE('',(#121),#123,.F.);
#74=ADVANCED_FACE('',(#128),#130,.F.);
#75=ADVANCED_FACE('',(#135),#137,.F.);
#76=ADVANCED_FACE('',(#142,#144),#146,.T.);
#77=ADVANCED_FACE('',(#151),#153,.F.);
#78=ADVANCED_FACE('',(#158),#160,.F.);
#79=ADVANCED_FACE('',(#165),#167,.F.);
#80=ADVANCED_FACE('',(#172,#174),#176,.T.);
#81=ADVANCED_FACE('',(#181),#183,.F.);
#82=ADVANCED_FACE('',(#188),#190,.T.);
#83=ADVANCED_FACE('',(#195),#197,.T.);
#84=ADVANCED_FACE('',(#202),#204,.T.);
#85=ADVANCED_FACE('',(#209),#211,.T.);
#86=ADVANCED_FACE('',(#216),#218,.T.);
#87=ADVANCED_FACE('',(#223),#225,.F.);
#88=ADVANCED_FACE('',(#230),#232,.F.);
#89=ADVANCED_FACE('',(#237),#239,.F.);
#90=ADVANCED_FACE('',(#244),#246,.F.);
#91=ADVANCED_FACE('',(#251),#253,.T.);
#92=ADVANCED_FACE('',(#258),#260,.T.);
#93=ADVANCED_FACE('',(#265),#267,.T.);
#94=ADVANCED_FACE('',(#272),#274,.T.);
#95=ADVANCED_FACE('',(#279),#281,.T.);
#96=ADVANCED_FACE('',(#286),#288,.T.);
#97=ADVANCED_FACE('',(#293),#295,.T.);
#98=ADVANCED_FACE('',(#300),#302,.T.);
#99=ADVANCED_FACE('',(#307,#309),#311,.F.);
#100=ADVANCED_FACE('',(#316,#318),#320,.T.);
#101=ADVANCED_FACE('',(#325),#327,.F.);
#102=ADVANCED_FACE('',(#332),#334,.F.);
#103=ADVANCED_FACE('',(#339),#341,.F.);
#104=ADVANCED_FACE('',(#346),#348,.F.);
#105=ADVANCED_FACE('',(#353,#355),#357,.T.);
#106=ADVANCED_FACE('',(#362),#364,.F.);
#107=ADVANCED_FACE('',(#369),#371,.F.);
#108=ADVANCED_FACE('',(#376),#378,.F.);
#109=ADVANCED_FACE('',(#383),#385,.F.);
#110=ADVANCED_FACE('',(#390,#392),#394,.F.);
#111=ADVANCED_FACE('',(#399,#401),#403,.T.);
#112=ADVANCED_FACE('',(#408),#410,.F.);
#113=ADVANCED_FACE('',(#415),#417,.F.);
#114=ADVANCED_FACE('',(#422),#424,.F.);
#115=ADVANCED_FACE('',(#429),#431,.F.);
#116=ADVANCED_FACE('',(#436,#438),#440,.T.);
#117=ADVANCED_FACE('',(#445),#447,.F.);
#118=ADVANCED_FACE('',(#452),#454,.F.);
#119=ADVANCED_FACE('',(#459),#461,.F.);
#120=ADVANCED_FACE('',(#466),#468,.F.);
#121=FACE_BOUND('',#122,.T.);
#122=EDGE_LOOP('',(#473,#474,#475,#476,#477,#478));
#123=PLANE('',#124);
#124=AXIS2_PLACEMENT_3D('',#125,#126,#127);
#125=CARTESIAN_POINT('',(-6.50000000000001,2.5,3.));
#126=DIRECTION('',(-1.11022302462516E-16,-1.,4.22604056368399E-32));
#127=DIRECTION('',(1.,-1.11022302462516E-16,-4.44089209850063E-16));
#128=FACE_BOUND('',#129,.T.);
#129=EDGE_LOOP('',(#479,#480,#481,#482));
#130=PLANE('',#131);
#131=AXIS2_PLACEMENT_3D('',#132,#133,#134);
#132=CARTESIAN_POINT('',(-6.50000000000001,6.5,3.));
#133=DIRECTION('',(-1.,2.22044604925031E-16,3.80647894157197E-16));
#134=DIRECTION('',(-2.22044604925031E-16,-1.,0.));
#135=FACE_BOUND('',#136,.T.);
#136=EDGE_LOOP('',(#483,#484,#485,#486,#487,#488));
#137=PLANE('',#138);
#138=AXIS2_PLACEMENT_3D('',#139,#140,#141);
#139=CARTESIAN_POINT('',(-2.50000000000001,6.5,3.));
#140=DIRECTION('',(2.22044604925031E-16,1.,-8.92164118999954E-32));
#141=DIRECTION('',(-1.,2.22044604925031E-16,4.44089209850063E-16));
#142=FACE_BOUND('',#143,.T.);
#143=EDGE_LOOP('',(#489,#490,#491,#492,#493,#494,#495,#496));
#144=FACE_BOUND('',#145,.T.);
#145=EDGE_LOOP('',(#497,#498,#499,#500,#501,#502));
#146=PLANE('',#147);
#147=AXIS2_PLACEMENT_3D('',#148,#149,#150);
#148=CARTESIAN_POINT('',(15.,-5.51091059616309E-16,9.));
#149=DIRECTION('',(1.,0.,3.94745964311167E-16));
#150=DIRECTION('',(3.94745964311167E-16,6.12323399573677E-17,-1.));
#151=FACE_BOUND('',#152,.T.);
#152=EDGE_LOOP('',(#503,#504,#505,#506));
#153=PLANE('',#154);
#154=AXIS2_PLACEMENT_3D('',#155,#156,#157);
#155=CARTESIAN_POINT('',(-2.50000000000001,2.5,3.));
#156=DIRECTION('',(1.,-1.11022302462516E-16,-4.01794999388152E-16));
#157=DIRECTION('',(1.11022302462516E-16,1.,0.));
#158=FACE_BOUND('',#159,.T.);
#159=EDGE_LOOP('',(#507,#508,#509,#510));
#160=PLANE('',#161);
#161=AXIS2_PLACEMENT_3D('',#162,#163,#164);
#162=CARTESIAN_POINT('',(-6.50000000000001,2.50000000000001,2.50000000000001));
#163=DIRECTION('',(-3.71795617548889E-16,1.11022302462516E-16,-1.));
#164=DIRECTION('',(2.22044604925031E-16,1.,1.11022302462516E-16));
#165=FACE_BOUND('',#166,.T.);
#166=EDGE_LOOP('',(#511,#512,#513,#514));
#167=PLANE('',#168);
#168=AXIS2_PLACEMENT_3D('',#169,#170,#171);
#169=CARTESIAN_POINT('',(-6.50000000000001,6.50000000000001,6.50000000000001));
#170=DIRECTION('',(3.71795617548889E-16,-8.25552110115012E-32,1.));
#171=DIRECTION('',(-2.22044604925031E-16,-1.,0.));
#172=FACE_BOUND('',#173,.T.);
#173=EDGE_LOOP('',(#515,#516,#517,#518,#519,#520,#521,#522));
#174=FACE_BOUND('',#175,.T.);
#175=EDGE_LOOP('',(#523,#524,#525,#526,#527,#528));
#176=PLANE('',#177);
#177=AXIS2_PLACEMENT_3D('',#178,#179,#180);
#178=CARTESIAN_POINT('',(-9.,-1.46957615897682E-15,24.));
#179=DIRECTION('',(3.94745964311167E-16,0.,1.));
#180=DIRECTION('',(1.,4.38256058456118E-32,-3.94745964311167E-16));
#181=FACE_BOUND('',#182,.T.);
#182=EDGE_LOOP('',(#529,#530,#531,#532,#533,#534));
#183=PLANE('',#184);
#184=AXIS2_PLACEMENT_3D('',#185,#186,#187);
#185=CARTESIAN_POINT('',(0.,0.,0.));
#186=DIRECTION('',(0.,1.,6.12323399573677E-17));
#187=DIRECTION('',(6.12323399573677E-17,6.12323399573677E-17,-1.));
#188=FACE_BOUND('',#189,.T.);
#189=EDGE_LOOP('',(#535,#536,#537,#538));
#190=PLANE('',#191);
#191=AXIS2_PLACEMENT_3D('',#192,#193,#194);
#192=CARTESIAN_POINT('',(15.,-5.62409918498197E-32,9.18485099360515E-16));
#193=DIRECTION('',(6.12323399573677E-17,6.12323399573677E-17,-1.));
#194=DIRECTION('',(-1.,3.74939945665464E-33,-6.12323399573677E-17));
#195=FACE_BOUND('',#196,.T.);
#196=EDGE_LOOP('',(#539,#540,#541,#542,#543,#544));
#197=PLANE('',#198);
#198=AXIS2_PLACEMENT_3D('',#199,#200,#201);
#199=CARTESIAN_POINT('',(0.,9.,5.51091059616309E-16));
#200=DIRECTION('',(0.,1.,6.12323399573677E-17));
#201=DIRECTION('',(6.12323399573677E-17,6.12323399573677E-17,-1.));
#202=FACE_BOUND('',#203,.T.);
#203=EDGE_LOOP('',(#545,#546,#547,#548));
#204=PLANE('',#205);
#205=AXIS2_PLACEMENT_3D('',#206,#207,#208);
#206=CARTESIAN_POINT('',(3.37087360083816E-16,-5.51091059616309E-16,9.));
#207=DIRECTION('',(-1.1842378929335E-16,1.51929083932157E-64,1.));
#208=DIRECTION('',(1.,-6.57384087684176E-33,1.1842378929335E-16));
#209=FACE_BOUND('',#210,.T.);
#210=EDGE_LOOP('',(#549,#550,#551,#552));
#211=PLANE('',#212);
#212=AXIS2_PLACEMENT_3D('',#213,#214,#215);
#213=CARTESIAN_POINT('',(-1.46957615897682E-15,-1.46957615897682E-15,24.));
#214=DIRECTION('',(1.,0.,6.12323399573676E-17));
#215=DIRECTION('',(6.12323399573676E-17,6.12323399573676E-17,-1.));
#216=FACE_BOUND('',#217,.T.);
#217=EDGE_LOOP('',(#553,#554,#555,#556));
#218=PLANE('',#219);
#219=AXIS2_PLACEMENT_3D('',#220,#221,#222);
#220=CARTESIAN_POINT('',(-9.,3.37445951098918E-32,-5.51091059616309E-16));
#221=DIRECTION('',(-1.,4.5321035781563E-33,-7.40148683083437E-17));
#222=DIRECTION('',(-7.40148683083437E-17,-6.12323399573677E-17,1.));
#223=FACE_BOUND('',#224,.T.);
#224=EDGE_LOOP('',(#557,#558,#559,#560));
#225=CYLINDRICAL_SURFACE('',#226,1.);
#226=AXIS2_PLACEMENT_3D('',#227,#228,#229);
#227=CARTESIAN_POINT('',(-5.50000000000001,3.5,-1.49999999999999));
#228=DIRECTION('',(-3.91400659528869E-16,0.,-1.));
#229=DIRECTION('',(-1.73816809624969E-31,-1.,0.));
#230=FACE_BOUND('',#231,.T.);
#231=EDGE_LOOP('',(#561,#562,#563,#564));
#232=CYLINDRICAL_SURFACE('',#233,1.);
#233=AXIS2_PLACEMENT_3D('',#234,#235,#236);
#234=CARTESIAN_POINT('',(-10.5,3.5,3.50000000000001));
#235=DIRECTION('',(-1.,1.05377100642388E-16,3.61292916488186E-16));
#236=DIRECTION('',(-3.61292916488186E-16,-4.44089209850063E-16,-1.));
#237=FACE_BOUND('',#238,.T.);
#238=EDGE_LOOP('',(#565,#566,#567,#568));
#239=CYLINDRICAL_SURFACE('',#240,1.);
#240=AXIS2_PLACEMENT_3D('',#241,#242,#243);
#241=CARTESIAN_POINT('',(-10.5,5.5,3.50000000000001));
#242=DIRECTION('',(-1.,2.10754201284775E-16,3.61292916488186E-16));
#243=DIRECTION('',(2.10754201284775E-16,1.,-7.17929143274968E-31));
#244=FACE_BOUND('',#245,.T.);
#245=EDGE_LOOP('',(#569,#570,#571,#572));
#246=CYLINDRICAL_SURFACE('',#247,1.);
#247=AXIS2_PLACEMENT_3D('',#248,#249,#250);
#248=CARTESIAN_POINT('',(-5.50000000000001,5.5,-1.49999999999999));
#249=DIRECTION('',(-4.21508402569551E-16,0.,-1.));
#250=DIRECTION('',(-1.,0.,4.21508402569551E-16));
#251=FACE_BOUND('',#252,.T.);
#252=EDGE_LOOP('',(#573,#574,#575,#576));
#253=CYLINDRICAL_SURFACE('',#254,1.);
#254=AXIS2_PLACEMENT_3D('',#255,#256,#257);
#255=CARTESIAN_POINT('',(19.,1.,1.));
#256=DIRECTION('',(1.,-3.46944695195361E-18,6.59194920871187E-17));
#257=DIRECTION('',(-3.4694469519536E-18,-1.,-2.22044604925031E-16));
#258=FACE_BOUND('',#259,.T.);
#259=EDGE_LOOP('',(#577,#578,#579,#580));
#260=CYLINDRICAL_SURFACE('',#261,1.);
#261=AXIS2_PLACEMENT_3D('',#262,#263,#264);
#262=CARTESIAN_POINT('',(-8.,1.,-4.));
#263=DIRECTION('',(5.55111512312578E-17,5.89805981832114E-17,-1.));
#264=DIRECTION('',(8.88178419700125E-16,-1.,-5.89805981832114E-17));
#265=FACE_BOUND('',#266,.T.);
#266=EDGE_LOOP('',(#581,#582,#583,#584));
#267=CYLINDRICAL_SURFACE('',#268,1.);
#268=AXIS2_PLACEMENT_3D('',#269,#270,#271);
#269=CARTESIAN_POINT('',(19.,8.,1.));
#270=DIRECTION('',(-1.,0.,-6.2450045135165E-17));
#271=DIRECTION('',(0.,1.,0.));
#272=FACE_BOUND('',#273,.T.);
#273=EDGE_LOOP('',(#585,#586,#587,#588));
#274=CYLINDRICAL_SURFACE('',#275,1.);
#275=AXIS2_PLACEMENT_3D('',#276,#277,#278);
#276=CARTESIAN_POINT('',(-8.,8.,-4.));
#277=DIRECTION('',(-5.55111512312578E-17,-5.55111512312578E-17,1.));
#278=DIRECTION('',(8.88178419700125E-16,1.,5.55111512312578E-17));
#279=FACE_BOUND('',#280,.T.);
#280=EDGE_LOOP('',(#589,#590,#591,#592));
#281=CYLINDRICAL_SURFACE('',#282,1.);
#282=AXIS2_PLACEMENT_3D('',#283,#284,#285);
#283=CARTESIAN_POINT('',(-1.,0.999999999999998,28.));
#284=DIRECTION('',(-7.72329060608805E-17,-5.79246795456603E-17,1.));
#285=DIRECTION('',(2.78860093149961E-31,-1.,-5.79246795456602E-17));
#286=FACE_BOUND('',#287,.T.);
#287=EDGE_LOOP('',(#593,#594,#595,#596));
#288=CYLINDRICAL_SURFACE('',#289,1.);
#289=AXIS2_PLACEMENT_3D('',#290,#291,#292);
#290=CARTESIAN_POINT('',(-4.,1.,8.));
#291=DIRECTION('',(-1.,0.,-7.72329060608804E-17));
#292=DIRECTION('',(0.,-1.,0.));
#293=FACE_BOUND('',#294,.T.);
#294=EDGE_LOOP('',(#597,#598,#599,#600));
#295=CYLINDRICAL_SURFACE('',#296,1.);
#296=AXIS2_PLACEMENT_3D('',#297,#298,#299);
#297=CARTESIAN_POINT('',(-1.,8.,28.));
#298=DIRECTION('',(7.72329060608805E-17,7.72329060608805E-17,-1.));
#299=DIRECTION('',(2.68421480037395E-31,1.,7.72329060608804E-17));
#300=FACE_BOUND('',#301,.T.);
#301=EDGE_LOOP('',(#601,#602,#603,#604));
#302=CYLINDRICAL_SURFACE('',#303,1.);
#303=AXIS2_PLACEMENT_3D('',#304,#305,#306);
#304=CARTESIAN_POINT('',(-4.,8.,8.));
#305=DIRECTION('',(1.,0.,7.72329060608804E-17));
#306=DIRECTION('',(6.8596600454001E-32,1.,-8.88178419700125E-16));
#307=FACE_BOUND('',#308,.T.);
#308=EDGE_LOOP('',(#605));
#309=FACE_BOUND('',#310,.T.);
#310=EDGE_LOOP('',(#606,#607,#608,#609,#610,#611,#612,#613));
#311=PLANE('',#312);
#312=AXIS2_PLACEMENT_3D('',#313,#314,#315);
#313=CARTESIAN_POINT('',(0.,0.,24.));
#314=DIRECTION('',(3.94745964311167E-16,0.,1.));
#315=DIRECTION('',(-1.,1.22464679914735E-16,3.94745964311167E-16));
#316=FACE_BOUND('',#317,.T.);
#317=EDGE_LOOP('',(#614));
#318=FACE_BOUND('',#319,.T.);
#319=EDGE_LOOP('',(#615,#616,#617,#618,#619,#620,#621,#622));
#320=PLANE('',#321);
#321=AXIS2_PLACEMENT_3D('',#322,#323,#324);
#322=CARTESIAN_POINT('',(-6.44050655034264E-47,3.94430452610506E-31,32.));
#323=DIRECTION('',(3.94745964311167E-16,0.,1.));
#324=DIRECTION('',(-1.,1.22464679914735E-16,3.94745964311167E-16));
#325=FACE_BOUND('',#326,.T.);
#326=EDGE_LOOP('',(#623,#624,#625,#626));
#327=PLANE('',#328);
#328=AXIS2_PLACEMENT_3D('',#329,#330,#331);
#329=CARTESIAN_POINT('',(-6.5,2.5,24.));
#330=DIRECTION('',(-1.11022302462516E-16,-1.,4.93038065763132E-32));
#331=DIRECTION('',(1.,-1.11022302462516E-16,-8.88178419700125E-16));
#332=FACE_BOUND('',#333,.T.);
#333=EDGE_LOOP('',(#627,#628,#629,#630));
#334=PLANE('',#335);
#335=AXIS2_PLACEMENT_3D('',#336,#337,#338);
#336=CARTESIAN_POINT('',(-6.5,6.5,24.));
#337=DIRECTION('',(-1.,2.22044604925031E-16,4.44089209850063E-16));
#338=DIRECTION('',(-2.22044604925031E-16,-1.,0.));
#339=FACE_BOUND('',#340,.T.);
#340=EDGE_LOOP('',(#631,#632,#633,#634));
#341=PLANE('',#342);
#342=AXIS2_PLACEMENT_3D('',#343,#344,#345);
#343=CARTESIAN_POINT('',(-2.5,6.5,24.));
#344=DIRECTION('',(2.22044604925031E-16,1.,-8.62816615085481E-32));
#345=DIRECTION('',(-1.,2.22044604925031E-16,8.88178419700125E-16));
#346=FACE_BOUND('',#347,.T.);
#347=EDGE_LOOP('',(#635,#636,#637,#638));
#348=PLANE('',#349);
#349=AXIS2_PLACEMENT_3D('',#350,#351,#352);
#350=CARTESIAN_POINT('',(-2.5,2.5,24.));
#351=DIRECTION('',(1.,-1.11022302462516E-16,-3.88578058618805E-16));
#352=DIRECTION('',(1.11022302462516E-16,1.,0.));
#353=FACE_OUTER_BOUND('',#354,.T.);
#354=EDGE_LOOP('',(#639));
#355=FACE_OUTER_BOUND('',#356,.T.);
#356=EDGE_LOOP('',(#640));
#357=CONICAL_SURFACE('',#358,3.03921356237309,0.0526479122067075);
#358=AXIS2_PLACEMENT_3D('',#359,#360,#361);
#359=CARTESIAN_POINT('',(-4.5,4.5,28.));
#360=DIRECTION('',(-6.03797489094623E-48,-4.93038065763133E-32,-1.));
#361=DIRECTION('',(1.,-1.22464679914735E-16,0.));
#362=FACE_BOUND('',#363,.T.);
#363=EDGE_LOOP('',(#641,#642,#643,#644));
#364=CYLINDRICAL_SURFACE('',#365,1.);
#365=AXIS2_PLACEMENT_3D('',#366,#367,#368);
#366=CARTESIAN_POINT('',(-3.5,3.5,20.));
#367=DIRECTION('',(-3.88578058618805E-16,0.,-1.));
#368=DIRECTION('',(1.,0.,-3.88578058618805E-16));
#369=FACE_BOUND('',#370,.T.);
#370=EDGE_LOOP('',(#645,#646,#647,#648));
#371=CYLINDRICAL_SURFACE('',#372,1.);
#372=AXIS2_PLACEMENT_3D('',#373,#374,#375);
#373=CARTESIAN_POINT('',(-5.5,3.5,20.));
#374=DIRECTION('',(-4.44089209850063E-16,0.,-1.));
#375=DIRECTION('',(0.,-1.,0.));
#376=FACE_BOUND('',#377,.T.);
#377=EDGE_LOOP('',(#649,#650,#651,#652));
#378=CYLINDRICAL_SURFACE('',#379,1.);
#379=AXIS2_PLACEMENT_3D('',#380,#381,#382);
#380=CARTESIAN_POINT('',(-5.5,5.5,20.));
#381=DIRECTION('',(-4.44089209850063E-16,0.,-1.));
#382=DIRECTION('',(-1.,0.,4.44089209850063E-16));
#383=FACE_BOUND('',#384,.T.);
#384=EDGE_LOOP('',(#653,#654,#655,#656));
#385=CYLINDRICAL_SURFACE('',#386,1.);
#386=AXIS2_PLACEMENT_3D('',#387,#388,#389);
#387=CARTESIAN_POINT('',(-3.5,5.5,20.));
#388=DIRECTION('',(-3.60822483003176E-16,-5.55111512312578E-17,-1.));
#389=DIRECTION('',(4.44089209850062E-16,1.,-5.5511151231258E-17));
#390=FACE_BOUND('',#391,.T.);
#391=EDGE_LOOP('',(#657));
#392=FACE_BOUND('',#393,.T.);
#393=EDGE_LOOP('',(#658,#659,#660,#661,#662,#663,#664,#665));
#394=PLANE('',#395);
#395=AXIS2_PLACEMENT_3D('',#396,#397,#398);
#396=CARTESIAN_POINT('',(15.,-9.86076131526265E-32,5.92118946466751E-15));
#397=DIRECTION('',(1.,0.,3.94745964311167E-16));
#398=DIRECTION('',(-3.94745964311167E-16,0.,1.));
#399=FACE_BOUND('',#400,.T.);
#400=EDGE_LOOP('',(#666));
#401=FACE_BOUND('',#402,.T.);
#402=EDGE_LOOP('',(#667,#668,#669,#670,#671,#672,#673,#674));
#403=PLANE('',#404);
#404=AXIS2_PLACEMENT_3D('',#405,#406,#407);
#405=CARTESIAN_POINT('',(23.,9.86076131526265E-32,8.88178419700125E-15));
#406=DIRECTION('',(1.,0.,3.94745964311167E-16));
#407=DIRECTION('',(-3.94745964311167E-16,0.,1.));
#408=FACE_BOUND('',#409,.T.);
#409=EDGE_LOOP('',(#675,#676,#677,#678));
#410=PLANE('',#411);
#411=AXIS2_PLACEMENT_3D('',#412,#413,#414);
#412=CARTESIAN_POINT('',(15.,2.5,6.5));
#413=DIRECTION('',(0.,-1.,0.));
#414=DIRECTION('',(0.,0.,-1.));
#415=FACE_BOUND('',#416,.T.);
#416=EDGE_LOOP('',(#679,#680,#681,#682));
#417=PLANE('',#418);
#418=AXIS2_PLACEMENT_3D('',#419,#420,#421);
#419=CARTESIAN_POINT('',(15.,6.5,6.5));
#420=DIRECTION('',(-3.33066907387547E-16,0.,1.));
#421=DIRECTION('',(0.,-1.,0.));
#422=FACE_BOUND('',#423,.T.);
#423=EDGE_LOOP('',(#683,#684,#685,#686));
#424=PLANE('',#425);
#425=AXIS2_PLACEMENT_3D('',#426,#427,#428);
#426=CARTESIAN_POINT('',(15.,6.5,2.5));
#427=DIRECTION('',(0.,1.,0.));
#428=DIRECTION('',(0.,0.,1.));
#429=FACE_BOUND('',#430,.T.);
#430=EDGE_LOOP('',(#687,#688,#689,#690));
#431=PLANE('',#432);
#432=AXIS2_PLACEMENT_3D('',#433,#434,#435);
#433=CARTESIAN_POINT('',(15.,2.5,2.5));
#434=DIRECTION('',(3.88578058618805E-16,0.,-1.));
#435=DIRECTION('',(0.,1.,0.));
#436=FACE_OUTER_BOUND('',#437,.T.);
#437=EDGE_LOOP('',(#691));
#438=FACE_OUTER_BOUND('',#439,.T.);
#439=EDGE_LOOP('',(#692));
#440=CONICAL_SURFACE('',#441,3.41421356237309,0.145412950501427);
#441=AXIS2_PLACEMENT_3D('',#442,#443,#444);
#442=CARTESIAN_POINT('',(19.,4.5,4.5));
#443=DIRECTION('',(-1.,-2.46519032881566E-32,-3.70074341541718E-16));
#444=DIRECTION('',(3.70074341541718E-16,-6.08202458474328E-49,-1.));
#445=FACE_BOUND('',#446,.T.);
#446=EDGE_LOOP('',(#693,#694,#695,#696));
#447=CYLINDRICAL_SURFACE('',#448,1.);
#448=AXIS2_PLACEMENT_3D('',#449,#450,#451);
#449=CARTESIAN_POINT('',(11.,3.5,3.5));
#450=DIRECTION('',(-1.,0.,-3.88578058618805E-16));
#451=DIRECTION('',(3.88578058618805E-16,0.,-1.));
#452=FACE_BOUND('',#453,.T.);
#453=EDGE_LOOP('',(#697,#698,#699,#700));
#454=CYLINDRICAL_SURFACE('',#455,1.);
#455=AXIS2_PLACEMENT_3D('',#456,#457,#458);
#456=CARTESIAN_POINT('',(11.,3.5,5.5));
#457=DIRECTION('',(-1.,0.,-3.88578058618805E-16));
#458=DIRECTION('',(-3.45126646034193E-31,-1.,8.88178419700125E-16));
#459=FACE_BOUND('',#460,.T.);
#460=EDGE_LOOP('',(#701,#702,#703,#704));
#461=CYLINDRICAL_SURFACE('',#462,1.);
#462=AXIS2_PLACEMENT_3D('',#463,#464,#465);
#463=CARTESIAN_POINT('',(11.,5.5,5.5));
#464=DIRECTION('',(-1.,0.,-2.22044604925031E-16));
#465=DIRECTION('',(-2.22044604925031E-16,0.,1.));
#466=FACE_BOUND('',#467,.T.);
#467=EDGE_LOOP('',(#705,#706,#707,#708));
#468=CYLINDRICAL_SURFACE('',#469,1.);
#469=AXIS2_PLACEMENT_3D('',#470,#471,#472);
#470=CARTESIAN_POINT('',(11.,5.5,3.5));
#471=DIRECTION('',(-1.,0.,-3.88578058618805E-16));
#472=DIRECTION('',(0.,1.,-6.90253292068385E-31));
#473=ORIENTED_EDGE('',*,*,#709,.T.);
#474=ORIENTED_EDGE('',*,*,#710,.F.);
#475=ORIENTED_EDGE('',*,*,#711,.F.);
#476=ORIENTED_EDGE('',*,*,#712,.T.);
#477=ORIENTED_EDGE('',*,*,#713,.F.);
#478=ORIENTED_EDGE('',*,*,#714,.F.);
#479=ORIENTED_EDGE('',*,*,#715,.T.);
#480=ORIENTED_EDGE('',*,*,#716,.F.);
#481=ORIENTED_EDGE('',*,*,#717,.F.);
#482=ORIENTED_EDGE('',*,*,#718,.T.);
#483=ORIENTED_EDGE('',*,*,#719,.T.);
#484=ORIENTED_EDGE('',*,*,#720,.F.);
#485=ORIENTED_EDGE('',*,*,#721,.F.);
#486=ORIENTED_EDGE('',*,*,#722,.T.);
#487=ORIENTED_EDGE('',*,*,#723,.F.);
#488=ORIENTED_EDGE('',*,*,#724,.F.);
#489=ORIENTED_EDGE('',*,*,#725,.F.);
#490=ORIENTED_EDGE('',*,*,#726,.F.);
#491=ORIENTED_EDGE('',*,*,#727,.F.);
#492=ORIENTED_EDGE('',*,*,#728,.T.);
#493=ORIENTED_EDGE('',*,*,#729,.F.);
#494=ORIENTED_EDGE('',*,*,#730,.T.);
#495=ORIENTED_EDGE('',*,*,#731,.F.);
#496=ORIENTED_EDGE('',*,*,#732,.F.);
#497=ORIENTED_EDGE('',*,*,#733,.F.);
#498=ORIENTED_EDGE('',*,*,#734,.T.);
#499=ORIENTED_EDGE('',*,*,#735,.F.);
#500=ORIENTED_EDGE('',*,*,#713,.T.);
#501=ORIENTED_EDGE('',*,*,#736,.T.);
#502=ORIENTED_EDGE('',*,*,#720,.T.);
#503=ORIENTED_EDGE('',*,*,#737,.T.);
#504=ORIENTED_EDGE('',*,*,#711,.T.);
#505=ORIENTED_EDGE('',*,*,#738,.F.);
#506=ORIENTED_EDGE('',*,*,#722,.F.);
#507=ORIENTED_EDGE('',*,*,#739,.F.);
#508=ORIENTED_EDGE('',*,*,#718,.F.);
#509=ORIENTED_EDGE('',*,*,#740,.T.);
#510=ORIENTED_EDGE('',*,*,#734,.F.);
#511=ORIENTED_EDGE('',*,*,#737,.F.);
#512=ORIENTED_EDGE('',*,*,#721,.T.);
#513=ORIENTED_EDGE('',*,*,#736,.F.);
#514=ORIENTED_EDGE('',*,*,#712,.F.);
#515=ORIENTED_EDGE('',*,*,#741,.F.);
#516=ORIENTED_EDGE('',*,*,#742,.F.);
#517=ORIENTED_EDGE('',*,*,#743,.F.);
#518=ORIENTED_EDGE('',*,*,#744,.F.);
#519=ORIENTED_EDGE('',*,*,#745,.F.);
#520=ORIENTED_EDGE('',*,*,#746,.T.);
#521=ORIENTED_EDGE('',*,*,#747,.F.);
#522=ORIENTED_EDGE('',*,*,#748,.T.);
#523=ORIENTED_EDGE('',*,*,#749,.F.);
#524=ORIENTED_EDGE('',*,*,#723,.T.);
#525=ORIENTED_EDGE('',*,*,#738,.T.);
#526=ORIENTED_EDGE('',*,*,#710,.T.);
#527=ORIENTED_EDGE('',*,*,#750,.F.);
#528=ORIENTED_EDGE('',*,*,#716,.T.);
#529=ORIENTED_EDGE('',*,*,#751,.F.);
#530=ORIENTED_EDGE('',*,*,#746,.F.);
#531=ORIENTED_EDGE('',*,*,#752,.F.);
#532=ORIENTED_EDGE('',*,*,#753,.F.);
#533=ORIENTED_EDGE('',*,*,#728,.F.);
#534=ORIENTED_EDGE('',*,*,#754,.F.);
#535=ORIENTED_EDGE('',*,*,#755,.F.);
#536=ORIENTED_EDGE('',*,*,#730,.F.);
#537=ORIENTED_EDGE('',*,*,#756,.T.);
#538=ORIENTED_EDGE('',*,*,#757,.T.);
#539=ORIENTED_EDGE('',*,*,#758,.T.);
#540=ORIENTED_EDGE('',*,*,#759,.T.);
#541=ORIENTED_EDGE('',*,*,#732,.T.);
#542=ORIENTED_EDGE('',*,*,#760,.T.);
#543=ORIENTED_EDGE('',*,*,#761,.T.);
#544=ORIENTED_EDGE('',*,*,#742,.T.);
#545=ORIENTED_EDGE('',*,*,#762,.F.);
#546=ORIENTED_EDGE('',*,*,#763,.F.);
#547=ORIENTED_EDGE('',*,*,#764,.T.);
#548=ORIENTED_EDGE('',*,*,#726,.T.);
#549=ORIENTED_EDGE('',*,*,#765,.F.);
#550=ORIENTED_EDGE('',*,*,#748,.F.);
#551=ORIENTED_EDGE('',*,*,#766,.T.);
#552=ORIENTED_EDGE('',*,*,#763,.T.);
#553=ORIENTED_EDGE('',*,*,#767,.F.);
#554=ORIENTED_EDGE('',*,*,#757,.F.);
#555=ORIENTED_EDGE('',*,*,#768,.T.);
#556=ORIENTED_EDGE('',*,*,#744,.T.);
#557=ORIENTED_EDGE('',*,*,#717,.T.);
#558=ORIENTED_EDGE('',*,*,#750,.T.);
#559=ORIENTED_EDGE('',*,*,#709,.F.);
#560=ORIENTED_EDGE('',*,*,#769,.T.);
#561=ORIENTED_EDGE('',*,*,#714,.T.);
#562=ORIENTED_EDGE('',*,*,#735,.T.);
#563=ORIENTED_EDGE('',*,*,#740,.F.);
#564=ORIENTED_EDGE('',*,*,#769,.F.);
#565=ORIENTED_EDGE('',*,*,#739,.T.);
#566=ORIENTED_EDGE('',*,*,#733,.T.);
#567=ORIENTED_EDGE('',*,*,#719,.F.);
#568=ORIENTED_EDGE('',*,*,#770,.T.);
#569=ORIENTED_EDGE('',*,*,#724,.T.);
#570=ORIENTED_EDGE('',*,*,#749,.T.);
#571=ORIENTED_EDGE('',*,*,#715,.F.);
#572=ORIENTED_EDGE('',*,*,#770,.F.);
#573=ORIENTED_EDGE('',*,*,#756,.F.);
#574=ORIENTED_EDGE('',*,*,#729,.T.);
#575=ORIENTED_EDGE('',*,*,#753,.T.);
#576=ORIENTED_EDGE('',*,*,#771,.T.);
#577=ORIENTED_EDGE('',*,*,#768,.F.);
#578=ORIENTED_EDGE('',*,*,#771,.F.);
#579=ORIENTED_EDGE('',*,*,#752,.T.);
#580=ORIENTED_EDGE('',*,*,#745,.T.);
#581=ORIENTED_EDGE('',*,*,#755,.T.);
#582=ORIENTED_EDGE('',*,*,#772,.T.);
#583=ORIENTED_EDGE('',*,*,#760,.F.);
#584=ORIENTED_EDGE('',*,*,#731,.T.);
#585=ORIENTED_EDGE('',*,*,#767,.T.);
#586=ORIENTED_EDGE('',*,*,#743,.T.);
#587=ORIENTED_EDGE('',*,*,#761,.F.);
#588=ORIENTED_EDGE('',*,*,#772,.F.);
#589=ORIENTED_EDGE('',*,*,#766,.F.);
#590=ORIENTED_EDGE('',*,*,#747,.T.);
#591=ORIENTED_EDGE('',*,*,#751,.T.);
#592=ORIENTED_EDGE('',*,*,#773,.T.);
#593=ORIENTED_EDGE('',*,*,#764,.F.);
#594=ORIENTED_EDGE('',*,*,#773,.F.);
#595=ORIENTED_EDGE('',*,*,#754,.T.);
#596=ORIENTED_EDGE('',*,*,#727,.T.);
#597=ORIENTED_EDGE('',*,*,#765,.T.);
#598=ORIENTED_EDGE('',*,*,#774,.T.);
#599=ORIENTED_EDGE('',*,*,#758,.F.);
#600=ORIENTED_EDGE('',*,*,#741,.T.);
#601=ORIENTED_EDGE('',*,*,#762,.T.);
#602=ORIENTED_EDGE('',*,*,#725,.T.);
#603=ORIENTED_EDGE('',*,*,#759,.F.);
#604=ORIENTED_EDGE('',*,*,#774,.F.);
#605=ORIENTED_EDGE('',*,*,#775,.F.);
#606=ORIENTED_EDGE('',*,*,#776,.F.);
#607=ORIENTED_EDGE('',*,*,#777,.T.);
#608=ORIENTED_EDGE('',*,*,#778,.F.);
#609=ORIENTED_EDGE('',*,*,#779,.T.);
#610=ORIENTED_EDGE('',*,*,#780,.F.);
#611=ORIENTED_EDGE('',*,*,#781,.T.);
#612=ORIENTED_EDGE('',*,*,#782,.F.);
#613=ORIENTED_EDGE('',*,*,#783,.T.);
#614=ORIENTED_EDGE('',*,*,#784,.T.);
#615=ORIENTED_EDGE('',*,*,#785,.F.);
#616=ORIENTED_EDGE('',*,*,#786,.T.);
#617=ORIENTED_EDGE('',*,*,#787,.F.);
#618=ORIENTED_EDGE('',*,*,#788,.T.);
#619=ORIENTED_EDGE('',*,*,#789,.F.);
#620=ORIENTED_EDGE('',*,*,#790,.T.);
#621=ORIENTED_EDGE('',*,*,#791,.F.);
#622=ORIENTED_EDGE('',*,*,#792,.T.);
#623=ORIENTED_EDGE('',*,*,#793,.T.);
#624=ORIENTED_EDGE('',*,*,#788,.F.);
#625=ORIENTED_EDGE('',*,*,#794,.F.);
#626=ORIENTED_EDGE('',*,*,#781,.F.);
#627=ORIENTED_EDGE('',*,*,#795,.T.);
#628=ORIENTED_EDGE('',*,*,#790,.F.);
#629=ORIENTED_EDGE('',*,*,#796,.F.);
#630=ORIENTED_EDGE('',*,*,#779,.F.);
#631=ORIENTED_EDGE('',*,*,#797,.T.);
#632=ORIENTED_EDGE('',*,*,#792,.F.);
#633=ORIENTED_EDGE('',*,*,#798,.F.);
#634=ORIENTED_EDGE('',*,*,#777,.F.);
#635=ORIENTED_EDGE('',*,*,#799,.F.);
#636=ORIENTED_EDGE('',*,*,#783,.F.);
#637=ORIENTED_EDGE('',*,*,#800,.T.);
#638=ORIENTED_EDGE('',*,*,#786,.F.);
#639=ORIENTED_EDGE('',*,*,#784,.F.);
#640=ORIENTED_EDGE('',*,*,#775,.T.);
#641=ORIENTED_EDGE('',*,*,#794,.T.);
#642=ORIENTED_EDGE('',*,*,#787,.T.);
#643=ORIENTED_EDGE('',*,*,#800,.F.);
#644=ORIENTED_EDGE('',*,*,#782,.T.);
#645=ORIENTED_EDGE('',*,*,#796,.T.);
#646=ORIENTED_EDGE('',*,*,#789,.T.);
#647=ORIENTED_EDGE('',*,*,#793,.F.);
#648=ORIENTED_EDGE('',*,*,#780,.T.);
#649=ORIENTED_EDGE('',*,*,#798,.T.);
#650=ORIENTED_EDGE('',*,*,#791,.T.);
#651=ORIENTED_EDGE('',*,*,#795,.F.);
#652=ORIENTED_EDGE('',*,*,#778,.T.);
#653=ORIENTED_EDGE('',*,*,#799,.T.);
#654=ORIENTED_EDGE('',*,*,#785,.T.);
#655=ORIENTED_EDGE('',*,*,#797,.F.);
#656=ORIENTED_EDGE('',*,*,#776,.T.);
#657=ORIENTED_EDGE('',*,*,#801,.F.);
#658=ORIENTED_EDGE('',*,*,#802,.F.);
#659=ORIENTED_EDGE('',*,*,#803,.T.);
#660=ORIENTED_EDGE('',*,*,#804,.F.);
#661=ORIENTED_EDGE('',*,*,#805,.T.);
#662=ORIENTED_EDGE('',*,*,#806,.F.);
#663=ORIENTED_EDGE('',*,*,#807,.T.);
#664=ORIENTED_EDGE('',*,*,#808,.F.);
#665=ORIENTED_EDGE('',*,*,#809,.T.);
#666=ORIENTED_EDGE('',*,*,#810,.T.);
#667=ORIENTED_EDGE('',*,*,#811,.F.);
#668=ORIENTED_EDGE('',*,*,#812,.T.);
#669=ORIENTED_EDGE('',*,*,#813,.F.);
#670=ORIENTED_EDGE('',*,*,#814,.T.);
#671=ORIENTED_EDGE('',*,*,#815,.F.);
#672=ORIENTED_EDGE('',*,*,#816,.T.);
#673=ORIENTED_EDGE('',*,*,#817,.F.);
#674=ORIENTED_EDGE('',*,*,#818,.T.);
#675=ORIENTED_EDGE('',*,*,#819,.T.);
#676=ORIENTED_EDGE('',*,*,#814,.F.);
#677=ORIENTED_EDGE('',*,*,#820,.F.);
#678=ORIENTED_EDGE('',*,*,#807,.F.);
#679=ORIENTED_EDGE('',*,*,#821,.T.);
#680=ORIENTED_EDGE('',*,*,#816,.F.);
#681=ORIENTED_EDGE('',*,*,#822,.F.);
#682=ORIENTED_EDGE('',*,*,#805,.F.);
#683=ORIENTED_EDGE('',*,*,#823,.T.);
#684=ORIENTED_EDGE('',*,*,#818,.F.);
#685=ORIENTED_EDGE('',*,*,#824,.F.);
#686=ORIENTED_EDGE('',*,*,#803,.F.);
#687=ORIENTED_EDGE('',*,*,#825,.F.);
#688=ORIENTED_EDGE('',*,*,#809,.F.);
#689=ORIENTED_EDGE('',*,*,#826,.T.);
#690=ORIENTED_EDGE('',*,*,#812,.F.);
#691=ORIENTED_EDGE('',*,*,#810,.F.);
#692=ORIENTED_EDGE('',*,*,#801,.T.);
#693=ORIENTED_EDGE('',*,*,#820,.T.);
#694=ORIENTED_EDGE('',*,*,#813,.T.);
#695=ORIENTED_EDGE('',*,*,#826,.F.);
#696=ORIENTED_EDGE('',*,*,#808,.T.);
#697=ORIENTED_EDGE('',*,*,#822,.T.);
#698=ORIENTED_EDGE('',*,*,#815,.T.);
#699=ORIENTED_EDGE('',*,*,#819,.F.);
#700=ORIENTED_EDGE('',*,*,#806,.T.);
#701=ORIENTED_EDGE('',*,*,#824,.T.);
#702=ORIENTED_EDGE('',*,*,#817,.T.);
#703=ORIENTED_EDGE('',*,*,#821,.F.);
#704=ORIENTED_EDGE('',*,*,#804,.T.);
#705=ORIENTED_EDGE('',*,*,#825,.T.);
#706=ORIENTED_EDGE('',*,*,#811,.T.);
#707=ORIENTED_EDGE('',*,*,#823,.F.);
#708=ORIENTED_EDGE('',*,*,#802,.T.);
#709=EDGE_CURVE('',#827,#828,#829,.T.);
#710=EDGE_CURVE('',#830,#828,#831,.F.);
#711=EDGE_CURVE('',#832,#830,#833,.T.);
#712=EDGE_CURVE('',#832,#834,#835,.T.);
#713=EDGE_CURVE('',#836,#834,#837,.F.);
#714=EDGE_CURVE('',#827,#836,#838,.T.);
#715=EDGE_CURVE('',#839,#840,#841,.T.);
#716=EDGE_CURVE('',#842,#840,#843,.F.);
#717=EDGE_CURVE('',#844,#842,#845,.T.);
#718=EDGE_CURVE('',#844,#839,#846,.T.);
#719=EDGE_CURVE('',#847,#848,#849,.T.);
#720=EDGE_CURVE('',#850,#848,#851,.F.);
#721=EDGE_CURVE('',#852,#850,#853,.T.);
#722=EDGE_CURVE('',#852,#854,#855,.T.);
#723=EDGE_CURVE('',#856,#854,#857,.F.);
#724=EDGE_CURVE('',#847,#856,#858,.T.);
#725=EDGE_CURVE('',#859,#860,#861,.F.);
#726=EDGE_CURVE('',#862,#859,#863,.T.);
#727=EDGE_CURVE('',#864,#862,#865,.F.);
#728=EDGE_CURVE('',#864,#866,#867,.T.);
#729=EDGE_CURVE('',#868,#866,#869,.F.);
#730=EDGE_CURVE('',#868,#870,#871,.T.);
#731=EDGE_CURVE('',#872,#870,#873,.F.);
#732=EDGE_CURVE('',#860,#872,#874,.T.);
#733=EDGE_CURVE('',#875,#848,#876,.F.);
#734=EDGE_CURVE('',#875,#877,#878,.F.);
#735=EDGE_CURVE('',#836,#877,#879,.F.);
#736=EDGE_CURVE('',#834,#850,#880,.F.);
#737=EDGE_CURVE('',#852,#832,#881,.T.);
#738=EDGE_CURVE('',#854,#830,#882,.F.);
#739=EDGE_CURVE('',#839,#875,#883,.T.);
#740=EDGE_CURVE('',#844,#877,#884,.T.);
#741=EDGE_CURVE('',#885,#886,#887,.F.);
#742=EDGE_CURVE('',#888,#885,#889,.T.);
#743=EDGE_CURVE('',#890,#888,#891,.F.);
#744=EDGE_CURVE('',#892,#890,#893,.T.);
#745=EDGE_CURVE('',#894,#892,#895,.F.);
#746=EDGE_CURVE('',#894,#896,#897,.T.);
#747=EDGE_CURVE('',#898,#896,#899,.F.);
#748=EDGE_CURVE('',#898,#886,#900,.T.);
#749=EDGE_CURVE('',#856,#840,#901,.F.);
#750=EDGE_CURVE('',#842,#828,#902,.F.);
#751=EDGE_CURVE('',#896,#903,#904,.T.);
#752=EDGE_CURVE('',#905,#894,#906,.T.);
#753=EDGE_CURVE('',#866,#905,#907,.T.);
#754=EDGE_CURVE('',#903,#864,#908,.T.);
#755=EDGE_CURVE('',#870,#909,#910,.T.);
#756=EDGE_CURVE('',#868,#911,#912,.T.);
#757=EDGE_CURVE('',#911,#909,#913,.T.);
#758=EDGE_CURVE('',#885,#914,#915,.T.);
#759=EDGE_CURVE('',#914,#860,#916,.T.);
#760=EDGE_CURVE('',#872,#917,#918,.T.);
#761=EDGE_CURVE('',#917,#888,#919,.T.);
#762=EDGE_CURVE('',#920,#859,#921,.T.);
#763=EDGE_CURVE('',#922,#920,#923,.T.);
#764=EDGE_CURVE('',#922,#862,#924,.T.);
#765=EDGE_CURVE('',#886,#920,#925,.T.);
#766=EDGE_CURVE('',#898,#922,#926,.T.);
#767=EDGE_CURVE('',#909,#890,#927,.T.);
#768=EDGE_CURVE('',#911,#892,#928,.T.);
#769=EDGE_CURVE('',#827,#844,#929,.F.);
#770=EDGE_CURVE('',#847,#839,#930,.F.);
#771=EDGE_CURVE('',#905,#911,#931,.F.);
#772=EDGE_CURVE('',#909,#917,#932,.T.);
#773=EDGE_CURVE('',#903,#922,#933,.F.);
#774=EDGE_CURVE('',#920,#914,#934,.T.);
#775=EDGE_CURVE('',#935,#935,#936,.T.);
#776=EDGE_CURVE('',#937,#938,#939,.F.);
#777=EDGE_CURVE('',#937,#940,#941,.T.);
#778=EDGE_CURVE('',#942,#940,#943,.F.);
#779=EDGE_CURVE('',#942,#944,#945,.T.);
#780=EDGE_CURVE('',#946,#944,#947,.F.);
#781=EDGE_CURVE('',#946,#948,#949,.T.);
#782=EDGE_CURVE('',#950,#948,#951,.F.);
#783=EDGE_CURVE('',#950,#938,#952,.T.);
#784=EDGE_CURVE('',#953,#953,#954,.T.);
#785=EDGE_CURVE('',#955,#956,#957,.F.);
#786=EDGE_CURVE('',#955,#958,#959,.F.);
#787=EDGE_CURVE('',#960,#958,#961,.F.);
#788=EDGE_CURVE('',#960,#962,#963,.F.);
#789=EDGE_CURVE('',#964,#962,#965,.F.);
#790=EDGE_CURVE('',#964,#966,#967,.F.);
#791=EDGE_CURVE('',#968,#966,#969,.F.);
#792=EDGE_CURVE('',#968,#956,#970,.F.);
#793=EDGE_CURVE('',#946,#962,#971,.T.);
#794=EDGE_CURVE('',#948,#960,#972,.T.);
#795=EDGE_CURVE('',#942,#966,#973,.T.);
#796=EDGE_CURVE('',#944,#964,#974,.T.);
#797=EDGE_CURVE('',#937,#956,#975,.T.);
#798=EDGE_CURVE('',#940,#968,#976,.T.);
#799=EDGE_CURVE('',#938,#955,#977,.T.);
#800=EDGE_CURVE('',#950,#958,#978,.T.);
#801=EDGE_CURVE('',#979,#979,#980,.T.);
#802=EDGE_CURVE('',#981,#982,#983,.F.);
#803=EDGE_CURVE('',#981,#984,#985,.T.);
#804=EDGE_CURVE('',#986,#984,#987,.F.);
#805=EDGE_CURVE('',#986,#988,#989,.T.);
#806=EDGE_CURVE('',#990,#988,#991,.F.);
#807=EDGE_CURVE('',#990,#992,#993,.T.);
#808=EDGE_CURVE('',#994,#992,#995,.F.);
#809=EDGE_CURVE('',#994,#982,#996,.T.);
#810=EDGE_CURVE('',#997,#997,#998,.T.);
#811=EDGE_CURVE('',#999,#1000,#1001,.F.);
#812=EDGE_CURVE('',#999,#1002,#1003,.F.);
#813=EDGE_CURVE('',#1004,#1002,#1005,.F.);
#814=EDGE_CURVE('',#1004,#1006,#1007,.F.);
#815=EDGE_CURVE('',#1008,#1006,#1009,.F.);
#816=EDGE_CURVE('',#1008,#1010,#1011,.F.);
#817=EDGE_CURVE('',#1012,#1010,#1013,.F.);
#818=EDGE_CURVE('',#1012,#1000,#1014,.F.);
#819=EDGE_CURVE('',#990,#1006,#1015,.T.);
#820=EDGE_CURVE('',#992,#1004,#1016,.T.);
#821=EDGE_CURVE('',#986,#1010,#1017,.T.);
#822=EDGE_CURVE('',#988,#1008,#1018,.T.);
#823=EDGE_CURVE('',#981,#1000,#1019,.T.);
#824=EDGE_CURVE('',#984,#1012,#1020,.T.);
#825=EDGE_CURVE('',#982,#999,#1021,.T.);
#826=EDGE_CURVE('',#994,#1002,#1022,.T.);
#827=VERTEX_POINT('',#1023);
#828=VERTEX_POINT('',#1024);
#829=LINE('',#1025,#1026);
#830=VERTEX_POINT('',#1028);
#831=LINE('',#1029,#1030);
#832=VERTEX_POINT('',#1032);
#833=LINE('',#1033,#1034);
#834=VERTEX_POINT('',#1036);
#835=LINE('',#1037,#1038);
#836=VERTEX_POINT('',#1040);
#837=LINE('',#1041,#1042);
#838=LINE('',#1044,#1045);
#839=VERTEX_POINT('',#1047);
#840=VERTEX_POINT('',#1048);
#841=LINE('',#1049,#1050);
#842=VERTEX_POINT('',#1052);
#843=LINE('',#1053,#1054);
#844=VERTEX_POINT('',#1056);
#845=LINE('',#1057,#1058);
#846=LINE('',#1060,#1061);
#847=VERTEX_POINT('',#1063);
#848=VERTEX_POINT('',#1064);
#849=LINE('',#1065,#1066);
#850=VERTEX_POINT('',#1068);
#851=LINE('',#1069,#1070);
#852=VERTEX_POINT('',#1072);
#853=LINE('',#1073,#1074);
#854=VERTEX_POINT('',#1076);
#855=LINE('',#1077,#1078);
#856=VERTEX_POINT('',#1080);
#857=LINE('',#1081,#1082);
#858=LINE('',#1084,#1085);
#859=VERTEX_POINT('',#1087);
#860=VERTEX_POINT('',#1088);
#861=CIRCLE('',#1089,1.);
#862=VERTEX_POINT('',#1093);
#863=LINE('',#1094,#1095);
#864=VERTEX_POINT('',#1097);
#865=CIRCLE('',#1098,0.999999999999994);
#866=VERTEX_POINT('',#1102);
#867=LINE('',#1103,#1104);
#868=VERTEX_POINT('',#1106);
#869=CIRCLE('',#1107,1.);
#870=VERTEX_POINT('',#1111);
#871=LINE('',#1112,#1113);
#872=VERTEX_POINT('',#1115);
#873=CIRCLE('',#1116,0.999999999999998);
#874=LINE('',#1120,#1121);
#875=VERTEX_POINT('',#1123);
#876=CIRCLE('',#1124,1.);
#877=VERTEX_POINT('',#1128);
#878=LINE('',#1129,#1130);
#879=CIRCLE('',#1132,1.00000000000002);
#880=LINE('',#1136,#1137);
#881=LINE('',#1139,#1140);
#882=LINE('',#1142,#1143);
#883=LINE('',#1145,#1146);
#884=LINE('',#1148,#1149);
#885=VERTEX_POINT('',#1151);
#886=VERTEX_POINT('',#1152);
#887=CIRCLE('',#1153,1.);
#888=VERTEX_POINT('',#1157);
#889=LINE('',#1158,#1159);
#890=VERTEX_POINT('',#1161);
#891=CIRCLE('',#1162,0.999999999999998);
#892=VERTEX_POINT('',#1166);
#893=LINE('',#1167,#1168);
#894=VERTEX_POINT('',#1170);
#895=CIRCLE('',#1171,1.);
#896=VERTEX_POINT('',#1175);
#897=LINE('',#1176,#1177);
#898=VERTEX_POINT('',#1179);
#899=CIRCLE('',#1180,1.);
#900=LINE('',#1184,#1185);
#901=CIRCLE('',#1187,0.999999999999991);
#902=CIRCLE('',#1191,1.);
#903=VERTEX_POINT('',#1195);
#904=LINE('',#1196,#1197);
#905=VERTEX_POINT('',#1199);
#906=LINE('',#1200,#1201);
#907=LINE('',#1203,#1204);
#908=LINE('',#1206,#1207);
#909=VERTEX_POINT('',#1209);
#910=LINE('',#1210,#1211);
#911=VERTEX_POINT('',#1213);
#912=LINE('',#1214,#1215);
#913=LINE('',#1217,#1218);
#914=VERTEX_POINT('',#1220);
#915=LINE('',#1221,#1222);
#916=LINE('',#1224,#1225);
#917=VERTEX_POINT('',#1227);
#918=LINE('',#1228,#1229);
#919=LINE('',#1231,#1232);
#920=VERTEX_POINT('',#1234);
#921=LINE('',#1235,#1236);
#922=VERTEX_POINT('',#1238);
#923=LINE('',#1239,#1240);
#924=LINE('',#1242,#1243);
#925=LINE('',#1245,#1246);
#926=LINE('',#1248,#1249);
#927=LINE('',#1251,#1252);
#928=LINE('',#1254,#1255);
#929=(BOUNDED_CURVE()B_SPLINE_CURVE(3,
(#1257,#1258,#1259,#1260),
.UNSPECIFIED.,.F.,.F.)B_SPLINE_CURVE_WITH_KNOTS((4,4),
(0.,1.),
.UNSPECIFIED.)CURVE()GEOMETRIC_REPRESENTATION_ITEM()RATIONAL_B_SPLINE_CURVE((1.,
0.804737854124365,0.804737854124365,1.))REPRESENTATION_ITEM(''));
#930=(BOUNDED_CURVE()B_SPLINE_CURVE(3,
(#1261,#1262,#1263,#1264),
.UNSPECIFIED.,.F.,.F.)B_SPLINE_CURVE_WITH_KNOTS((4,4),
(0.,1.),
.UNSPECIFIED.)CURVE()GEOMETRIC_REPRESENTATION_ITEM()RATIONAL_B_SPLINE_CURVE((1.,
0.804737854124365,0.804737854124365,1.))REPRESENTATION_ITEM(''));
#931=(BOUNDED_CURVE()B_SPLINE_CURVE(3,
(#1265,#1266,#1267,#1268),
.UNSPECIFIED.,.F.,.F.)B_SPLINE_CURVE_WITH_KNOTS((4,4),
(0.,1.),
.UNSPECIFIED.)CURVE()GEOMETRIC_REPRESENTATION_ITEM()RATIONAL_B_SPLINE_CURVE((1.,
0.804737854124365,0.804737854124365,1.))REPRESENTATION_ITEM(''));
#932=(BOUNDED_CURVE()B_SPLINE_CURVE(3,
(#1269,#1270,#1271,#1272),
.UNSPECIFIED.,.F.,.F.)B_SPLINE_CURVE_WITH_KNOTS((4,4),
(0.,1.),
.UNSPECIFIED.)CURVE()GEOMETRIC_REPRESENTATION_ITEM()RATIONAL_B_SPLINE_CURVE((1.,
0.804737854124365,0.804737854124365,1.))REPRESENTATION_ITEM(''));
#933=(BOUNDED_CURVE()B_SPLINE_CURVE(3,
(#1273,#1274,#1275,#1276),
.UNSPECIFIED.,.F.,.F.)B_SPLINE_CURVE_WITH_KNOTS((4,4),
(0.,1.),
.UNSPECIFIED.)CURVE()GEOMETRIC_REPRESENTATION_ITEM()RATIONAL_B_SPLINE_CURVE((1.,
0.804737854124365,0.804737854124365,1.))REPRESENTATION_ITEM(''));
#934=(BOUNDED_CURVE()B_SPLINE_CURVE(3,
(#1277,#1278,#1279,#1280),
.UNSPECIFIED.,.F.,.F.)B_SPLINE_CURVE_WITH_KNOTS((4,4),
(0.,1.),
.UNSPECIFIED.)CURVE()GEOMETRIC_REPRESENTATION_ITEM()RATIONAL_B_SPLINE_CURVE((1.,
0.804737854124365,0.804737854124365,1.))REPRESENTATION_ITEM(''));
#935=VERTEX_POINT('',#1281);
#936=CIRCLE('',#1282,3.25);
#937=VERTEX_POINT('',#1286);
#938=VERTEX_POINT('',#1287);
#939=CIRCLE('',#1288,1.);
#940=VERTEX_POINT('',#1292);
#941=LINE('',#1293,#1294);
#942=VERTEX_POINT('',#1296);
#943=CIRCLE('',#1297,1.);
#944=VERTEX_POINT('',#1301);
#945=LINE('',#1302,#1303);
#946=VERTEX_POINT('',#1305);
#947=CIRCLE('',#1306,1.);
#948=VERTEX_POINT('',#1310);
#949=LINE('',#1311,#1312);
#950=VERTEX_POINT('',#1314);
#951=CIRCLE('',#1315,1.);
#952=LINE('',#1319,#1320);
#953=VERTEX_POINT('',#1322);
#954=CIRCLE('',#1323,2.82842712474619);
#955=VERTEX_POINT('',#1327);
#956=VERTEX_POINT('',#1328);
#957=CIRCLE('',#1329,1.);
#958=VERTEX_POINT('',#1333);
#959=LINE('',#1334,#1335);
#960=VERTEX_POINT('',#1337);
#961=CIRCLE('',#1338,1.);
#962=VERTEX_POINT('',#1342);
#963=LINE('',#1343,#1344);
#964=VERTEX_POINT('',#1346);
#965=CIRCLE('',#1347,1.);
#966=VERTEX_POINT('',#1351);
#967=LINE('',#1352,#1353);
#968=VERTEX_POINT('',#1355);
#969=CIRCLE('',#1356,0.999999999999998);
#970=LINE('',#1360,#1361);
#971=LINE('',#1363,#1364);
#972=LINE('',#1366,#1367);
#973=LINE('',#1369,#1370);
#974=LINE('',#1372,#1373);
#975=LINE('',#1375,#1376);
#976=LINE('',#1378,#1379);
#977=LINE('',#1381,#1382);
#978=LINE('',#1384,#1385);
#979=VERTEX_POINT('',#1387);
#980=CIRCLE('',#1388,4.);
#981=VERTEX_POINT('',#1392);
#982=VERTEX_POINT('',#1393);
#983=CIRCLE('',#1394,1.);
#984=VERTEX_POINT('',#1398);
#985=LINE('',#1399,#1400);
#986=VERTEX_POINT('',#1402);
#987=CIRCLE('',#1403,1.);
#988=VERTEX_POINT('',#1407);
#989=LINE('',#1408,#1409);
#990=VERTEX_POINT('',#1411);
#991=CIRCLE('',#1412,0.999999999999999);
#992=VERTEX_POINT('',#1416);
#993=LINE('',#1417,#1418);
#994=VERTEX_POINT('',#1420);
#995=CIRCLE('',#1421,1.);
#996=LINE('',#1425,#1426);
#997=VERTEX_POINT('',#1428);
#998=CIRCLE('',#1429,2.82842712474619);
#999=VERTEX_POINT('',#1433);
#1000=VERTEX_POINT('',#1434);
#1001=CIRCLE('',#1435,0.999999999999999);
#1002=VERTEX_POINT('',#1439);
#1003=LINE('',#1440,#1441);
#1004=VERTEX_POINT('',#1443);
#1005=CIRCLE('',#1444,1.);
#1006=VERTEX_POINT('',#1448);
#1007=LINE('',#1449,#1450);
#1008=VERTEX_POINT('',#1452);
#1009=CIRCLE('',#1453,1.);
#1010=VERTEX_POINT('',#1457);
#1011=LINE('',#1458,#1459);
#1012=VERTEX_POINT('',#1461);
#1013=CIRCLE('',#1462,0.999999999999997);
#1014=LINE('',#1466,#1467);
#1015=LINE('',#1469,#1470);
#1016=LINE('',#1472,#1473);
#1017=LINE('',#1475,#1476);
#1018=LINE('',#1478,#1479);
#1019=LINE('',#1481,#1482);
#1020=LINE('',#1484,#1485);
#1021=LINE('',#1487,#1488);
#1022=LINE('',#1490,#1491);
#1023=CARTESIAN_POINT('',(-5.50000000000001,2.5,3.50000000000001));
#1024=CARTESIAN_POINT('',(-5.5,2.5,24.));
#1025=CARTESIAN_POINT('',(-5.50000000000001,2.5,3.50000000000001));
#1026=VECTOR('',#1027,1.);
#1027=DIRECTION('',(3.8993198913664E-16,0.,1.));
#1028=CARTESIAN_POINT('',(-2.5,2.5,24.));
#1029=CARTESIAN_POINT('',(-5.5,2.5,24.));
#1030=VECTOR('',#1031,1.);
#1031=DIRECTION('',(1.,-2.96059473233375E-16,-1.1842378929335E-15));
#1032=CARTESIAN_POINT('',(-2.50000000000001,2.5,6.50000000000001));
#1033=CARTESIAN_POINT('',(-2.50000000000001,2.5,6.50000000000001));
#1034=VECTOR('',#1035,1.);
#1035=DIRECTION('',(4.06024420434343E-16,0.,1.));
#1036=CARTESIAN_POINT('',(15.,2.5,6.5));
#1037=CARTESIAN_POINT('',(-2.50000000000001,2.5,6.50000000000001));
#1038=VECTOR('',#1039,1.);
#1039=DIRECTION('',(1.,-1.77635683940025E-16,-4.06024420434343E-16));
#1040=CARTESIAN_POINT('',(15.,2.49999999999999,3.5));
#1041=CARTESIAN_POINT('',(15.,2.5,6.5));
#1042=VECTOR('',#1043,1.);
#1043=DIRECTION('',(5.9211894646675E-16,1.48029736616688E-16,-1.));
#1044=CARTESIAN_POINT('',(-5.50000000000001,2.5,3.50000000000001));
#1045=VECTOR('',#1046,1.);
#1046=DIRECTION('',(1.,-1.08314441426844E-16,-3.68269100851271E-16));
#1047=CARTESIAN_POINT('',(-6.50000000000001,5.5,2.50000000000001));
#1048=CARTESIAN_POINT('',(-6.5,5.5,24.));
#1049=CARTESIAN_POINT('',(-6.50000000000001,5.5,2.50000000000001));
#1050=VECTOR('',#1051,1.);
#1051=DIRECTION('',(4.13106241720988E-16,0.,1.));
#1052=CARTESIAN_POINT('',(-6.5,3.5,24.));
#1053=CARTESIAN_POINT('',(-6.5,5.5,24.));
#1054=VECTOR('',#1055,1.);
#1055=DIRECTION('',(0.,-1.,0.));
#1056=CARTESIAN_POINT('',(-6.50000000000001,3.5,2.50000000000001));
#1057=CARTESIAN_POINT('',(-6.50000000000001,3.5,2.50000000000001));
#1058=VECTOR('',#1059,1.);
#1059=DIRECTION('',(3.7179561754889E-16,0.,1.));
#1060=CARTESIAN_POINT('',(-6.50000000000001,3.5,2.50000000000001));
#1061=VECTOR('',#1062,1.);
#1062=DIRECTION('',(4.44089209850063E-16,1.,2.22044604925031E-16));
#1063=CARTESIAN_POINT('',(-5.50000000000001,6.5,3.50000000000001));
#1064=CARTESIAN_POINT('',(15.,6.5,3.5));
#1065=CARTESIAN_POINT('',(-5.50000000000001,6.5,3.50000000000001));
#1066=VECTOR('',#1067,1.);
#1067=DIRECTION('',(1.,-2.16628882853689E-16,-3.46606212565902E-16));
#1068=CARTESIAN_POINT('',(15.,6.5,6.5));
#1069=CARTESIAN_POINT('',(15.,6.5,3.5));
#1070=VECTOR('',#1071,1.);
#1071=DIRECTION('',(5.92118946466751E-16,0.,1.));
#1072=CARTESIAN_POINT('',(-2.50000000000001,6.5,6.50000000000001));
#1073=CARTESIAN_POINT('',(-2.50000000000001,6.5,6.50000000000001));
#1074=VECTOR('',#1075,1.);
#1075=DIRECTION('',(1.,-2.03012210217171E-16,-4.06024420434343E-16));
#1076=CARTESIAN_POINT('',(-2.5,6.5,24.));
#1077=CARTESIAN_POINT('',(-2.50000000000001,6.5,6.50000000000001));
#1078=VECTOR('',#1079,1.);
#1079=DIRECTION('',(3.80647894157197E-16,0.,1.));
#1080=CARTESIAN_POINT('',(-5.5,6.5,24.));
#1081=CARTESIAN_POINT('',(-2.5,6.5,24.));
#1082=VECTOR('',#1083,1.);
#1083=DIRECTION('',(-1.,2.96059473233375E-16,2.368475785867E-15));
#1084=CARTESIAN_POINT('',(-5.50000000000001,6.5,3.50000000000001));
#1085=VECTOR('',#1086,1.);
#1086=DIRECTION('',(4.33257765707378E-16,0.,1.));
#1087=CARTESIAN_POINT('',(15.,8.,9.));
#1088=CARTESIAN_POINT('',(15.,9.,8.));
#1089=AXIS2_PLACEMENT_3D('',#1090,#1091,#1092);
#1090=CARTESIAN_POINT('',(15.,8.,8.00000000000001));
#1091=DIRECTION('',(1.,0.,3.94745964311167E-16));
#1092=DIRECTION('',(2.10362908058936E-30,1.,-5.32907051820075E-15));
#1093=CARTESIAN_POINT('',(15.,1.,9.));
#1094=CARTESIAN_POINT('',(15.,0.999999999999999,9.));
#1095=VECTOR('',#1096,1.);
#1096=DIRECTION('',(0.,1.,0.));
#1097=CARTESIAN_POINT('',(15.,4.69087354542068E-16,8.));
#1098=AXIS2_PLACEMENT_3D('',#1099,#1100,#1101);
#1099=CARTESIAN_POINT('',(15.,0.999999999999999,8.00000000000001));
#1100=DIRECTION('',(1.,0.,3.94745964311167E-16));
#1101=DIRECTION('',(-3.94745964311167E-16,0.,1.));
#1102=CARTESIAN_POINT('',(15.,-1.14836428279922E-16,1.));
#1103=CARTESIAN_POINT('',(15.,-4.89858719658941E-16,8.));
#1104=VECTOR('',#1105,1.);
#1105=DIRECTION('',(5.07530525542929E-16,6.12323399573677E-17,-1.));
#1106=CARTESIAN_POINT('',(15.,1.,1.01311707453351E-15));
#1107=AXIS2_PLACEMENT_3D('',#1108,#1109,#1110);
#1108=CARTESIAN_POINT('',(15.,1.,1.));
#1109=DIRECTION('',(1.,0.,3.94745964311167E-16));
#1110=DIRECTION('',(-7.88860905221012E-31,-1.,1.99840144432528E-15));
#1111=CARTESIAN_POINT('',(15.,8.,1.66894233587628E-15));
#1112=CARTESIAN_POINT('',(15.,1.,1.40865330933775E-15));
#1113=VECTOR('',#1114,1.);
#1114=DIRECTION('',(0.,1.,6.12323399573677E-17));
#1115=CARTESIAN_POINT('',(15.,9.,1.));
#1116=AXIS2_PLACEMENT_3D('',#1117,#1118,#1119);
#1117=CARTESIAN_POINT('',(15.,8.,1.));
#1118=DIRECTION('',(1.,0.,3.94745964311167E-16));
#1119=DIRECTION('',(3.94745964311167E-16,0.,-1.));
#1120=CARTESIAN_POINT('',(15.,9.,8.));
#1121=VECTOR('',#1122,1.);
#1122=DIRECTION('',(5.07530525542929E-16,0.,-1.));
#1123=CARTESIAN_POINT('',(15.,5.49999999999999,2.5));
#1124=AXIS2_PLACEMENT_3D('',#1125,#1126,#1127);
#1125=CARTESIAN_POINT('',(15.,5.5,3.50000000000002));
#1126=DIRECTION('',(-1.,0.,-3.94745964311167E-16));
#1127=DIRECTION('',(7.71330662882766E-30,1.,-1.95399252334027E-14));
#1128=CARTESIAN_POINT('',(15.,3.5,2.5));
#1129=CARTESIAN_POINT('',(15.,3.5,2.5));
#1130=VECTOR('',#1131,1.);
#1131=DIRECTION('',(8.88178419700127E-16,1.,4.44089209850063E-16));
#1132=AXIS2_PLACEMENT_3D('',#1133,#1134,#1135);
#1133=CARTESIAN_POINT('',(15.,3.5,3.50000000000002));
#1134=DIRECTION('',(-1.,0.,-3.94745964311167E-16));
#1135=DIRECTION('',(3.94745964311167E-16,0.,-1.));
#1136=CARTESIAN_POINT('',(15.,6.5,6.5));
#1137=VECTOR('',#1138,1.);
#1138=DIRECTION('',(0.,-1.,0.));
#1139=CARTESIAN_POINT('',(-2.50000000000001,6.5,6.50000000000001));
#1140=VECTOR('',#1141,1.);
#1141=DIRECTION('',(-1.11022302462516E-16,-1.,0.));
#1142=CARTESIAN_POINT('',(-2.5,2.5,24.));
#1143=VECTOR('',#1144,1.);
#1144=DIRECTION('',(2.22044604925031E-16,1.,0.));
#1145=CARTESIAN_POINT('',(-6.50000000000001,5.5,2.50000000000001));
#1146=VECTOR('',#1147,1.);
#1147=DIRECTION('',(1.,-2.06553120860494E-16,-3.5114030546284E-16));
#1148=CARTESIAN_POINT('',(-6.50000000000001,3.5,2.50000000000001));
#1149=VECTOR('',#1150,1.);
#1150=DIRECTION('',(1.,-8.26212483441977E-17,-3.71795617548889E-16));
#1151=CARTESIAN_POINT('',(-1.,9.,24.));
#1152=CARTESIAN_POINT('',(-1.6000817442841E-15,8.,24.));
#1153=AXIS2_PLACEMENT_3D('',#1154,#1155,#1156);
#1154=CARTESIAN_POINT('',(-1.,8.,24.));
#1155=DIRECTION('',(3.94745964311167E-16,0.,1.));
#1156=DIRECTION('',(1.,0.,-3.94745964311167E-16));
#1157=CARTESIAN_POINT('',(-8.,9.,24.));
#1158=CARTESIAN_POINT('',(-8.,9.,24.));
#1159=VECTOR('',#1160,1.);
#1160=DIRECTION('',(1.,0.,-5.07530525542929E-16));
#1161=CARTESIAN_POINT('',(-9.,8.,24.));
#1162=AXIS2_PLACEMENT_3D('',#1163,#1164,#1165);
#1163=CARTESIAN_POINT('',(-8.,8.,24.));
#1164=DIRECTION('',(3.94745964311167E-16,0.,1.));
#1165=DIRECTION('',(-1.77635683940025E-15,1.,7.0120969352979E-31));
#1166=CARTESIAN_POINT('',(-9.,0.999999999999998,24.));
#1167=CARTESIAN_POINT('',(-9.,0.999999999999999,24.));
#1168=VECTOR('',#1169,1.);
#1169=DIRECTION('',(0.,1.,0.));
#1170=CARTESIAN_POINT('',(-8.,-1.42380664916795E-15,24.));
#1171=AXIS2_PLACEMENT_3D('',#1172,#1173,#1174);
#1172=CARTESIAN_POINT('',(-8.,1.,24.));
#1173=DIRECTION('',(3.94745964311167E-16,0.,1.));
#1174=DIRECTION('',(-1.,-1.66533453693773E-15,3.94745964311167E-16));
#1175=CARTESIAN_POINT('',(-1.,-1.46081408332212E-15,24.));
#1176=CARTESIAN_POINT('',(-8.,-1.46957615897682E-15,24.));
#1177=VECTOR('',#1178,1.);
#1178=DIRECTION('',(1.,8.45208112736799E-32,-5.07530525542929E-16));
#1179=CARTESIAN_POINT('',(-1.6000817442841E-15,0.999999999999998,24.));
#1180=AXIS2_PLACEMENT_3D('',#1181,#1182,#1183);
#1181=CARTESIAN_POINT('',(-1.,0.999999999999998,24.));
#1182=DIRECTION('',(3.94745964311167E-16,0.,1.));
#1183=DIRECTION('',(-2.22044604925031E-16,-1.,8.76512116912236E-32));
#1184=CARTESIAN_POINT('',(-1.62296649918854E-15,0.999999999999999,24.));
#1185=VECTOR('',#1186,1.);
#1186=DIRECTION('',(-2.81736037578933E-32,1.,0.));
#1187=AXIS2_PLACEMENT_3D('',#1188,#1189,#1190);
#1188=CARTESIAN_POINT('',(-5.50000000000001,5.5,24.));
#1189=DIRECTION('',(-3.94745964311167E-16,0.,-1.));
#1190=DIRECTION('',(-1.,0.,3.94745964311167E-16));
#1191=AXIS2_PLACEMENT_3D('',#1192,#1193,#1194);
#1192=CARTESIAN_POINT('',(-5.50000000000001,3.5,24.));
#1193=DIRECTION('',(-3.94745964311167E-16,0.,-1.));
#1194=DIRECTION('',(9.76996261670138E-15,-1.,-3.85665331441384E-30));
#1195=CARTESIAN_POINT('',(-1.,-4.96353147273861E-16,8.));
#1196=CARTESIAN_POINT('',(-1.,-1.45643304549476E-15,24.));
#1197=VECTOR('',#1198,1.);
#1198=DIRECTION('',(8.32667268468867E-17,5.83717455943127E-17,-1.));
#1199=CARTESIAN_POINT('',(-8.,-5.74182141399611E-17,1.));
#1200=CARTESIAN_POINT('',(-8.,-3.06161699786838E-17,0.999999999999999));
#1201=VECTOR('',#1202,1.);
#1202=DIRECTION('',(-1.54465812121761E-16,-5.9578509751514E-17,1.));
#1203=CARTESIAN_POINT('',(15.,-1.416384724412E-16,1.));
#1204=VECTOR('',#1205,1.);
#1205=DIRECTION('',(-1.,2.41352831440252E-18,-6.27517361744653E-17));
#1206=CARTESIAN_POINT('',(-1.,-4.66973964754502E-16,8.));
#1207=VECTOR('',#1208,1.);
#1208=DIRECTION('',(1.,-6.16297582203915E-33,1.11022302462516E-16));
#1209=CARTESIAN_POINT('',(-9.,8.,-3.06161699786839E-17));
#1210=CARTESIAN_POINT('',(15.,8.,1.37030572428482E-15));
#1211=VECTOR('',#1212,1.);
#1212=DIRECTION('',(-1.,0.,-6.29976748635842E-17));
#1213=CARTESIAN_POINT('',(-9.,1.,-5.2248511598576E-16));
#1214=CARTESIAN_POINT('',(15.,1.,1.04497023197152E-15));
#1215=VECTOR('',#1216,1.);
#1216=DIRECTION('',(-1.,0.,-6.29976748635842E-17));
#1217=CARTESIAN_POINT('',(-9.,1.,-4.89858719658941E-16));
#1218=VECTOR('',#1219,1.);
#1219=DIRECTION('',(0.,1.,6.12323399573677E-17));
#1220=CARTESIAN_POINT('',(-1.,9.,8.));
#1221=CARTESIAN_POINT('',(-1.,9.,24.));
#1222=VECTOR('',#1223,1.);
#1223=DIRECTION('',(8.32667268468867E-17,1.11022302462516E-16,-1.));
#1224=CARTESIAN_POINT('',(-1.,9.,8.));
#1225=VECTOR('',#1226,1.);
#1226=DIRECTION('',(1.,0.,1.11022302462516E-16));
#1227=CARTESIAN_POINT('',(-8.,9.,1.));
#1228=CARTESIAN_POINT('',(15.,9.,1.));
#1229=VECTOR('',#1230,1.);
#1230=DIRECTION('',(-1.,0.,-5.79246795456603E-17));
#1231=CARTESIAN_POINT('',(-8.,9.,1.));
#1232=VECTOR('',#1233,1.);
#1233=DIRECTION('',(-1.54465812121761E-16,-7.72329060608805E-17,1.));
#1234=CARTESIAN_POINT('',(1.1303252881065E-16,8.,9.));
#1235=CARTESIAN_POINT('',(6.12632889891971E-16,8.,9.));
#1236=VECTOR('',#1237,1.);
#1237=DIRECTION('',(1.,0.,1.1842378929335E-16));
#1238=CARTESIAN_POINT('',(1.68543680041908E-16,0.999999999999999,9.));
#1239=CARTESIAN_POINT('',(-1.07001849766246E-16,0.999999999999999,9.));
#1240=VECTOR('',#1241,1.);
#1241=DIRECTION('',(1.76085023486833E-32,1.,0.));
#1242=CARTESIAN_POINT('',(8.34677494817002E-16,1.,9.));
#1243=VECTOR('',#1244,1.);
#1244=DIRECTION('',(1.,7.40148683083437E-18,1.1842378929335E-16));
#1245=CARTESIAN_POINT('',(-1.51194419672602E-15,8.,24.));
#1246=VECTOR('',#1247,1.);
#1247=DIRECTION('',(7.50250909636901E-17,1.1842378929335E-16,-1.));
#1248=CARTESIAN_POINT('',(-1.51194419672602E-15,0.999999999999999,24.));
#1249=VECTOR('',#1250,1.);
#1250=DIRECTION('',(7.50250909636901E-17,5.18104078158406E-17,-1.));
#1251=CARTESIAN_POINT('',(-9.,8.,1.91428434946348E-16));
#1252=VECTOR('',#1253,1.);
#1253=DIRECTION('',(-7.40148683083438E-17,-7.40148683083438E-17,1.));
#1254=CARTESIAN_POINT('',(-9.,0.999999999999999,-9.11063174604565E-16));
#1255=VECTOR('',#1256,1.);
#1256=DIRECTION('',(-7.40148683083438E-17,-5.55111512312578E-17,1.));
#1257=CARTESIAN_POINT('',(-6.50000000000001,3.5,2.50000000000001));
#1258=CARTESIAN_POINT('',(-6.50000000000001,2.91421356237309,2.50000000000001));
#1259=CARTESIAN_POINT('',(-6.08578643762692,2.5,2.9142135623731));
#1260=CARTESIAN_POINT('',(-5.50000000000001,2.5,3.50000000000001));
#1261=CARTESIAN_POINT('',(-6.50000000000001,5.5,2.50000000000001));
#1262=CARTESIAN_POINT('',(-6.50000000000001,6.0857864376269,2.50000000000001));
#1263=CARTESIAN_POINT('',(-6.08578643762691,6.5,2.9142135623731));
#1264=CARTESIAN_POINT('',(-5.50000000000001,6.5,3.50000000000001));
#1265=CARTESIAN_POINT('',(-9.,1.,-4.44089209850063E-16));
#1266=CARTESIAN_POINT('',(-9.,0.414213562373095,-8.88178419700125E-16));
#1267=CARTESIAN_POINT('',(-8.5857864376269,1.11022302462516E-16,0.414213562373094));
#1268=CARTESIAN_POINT('',(-8.,0.,0.999999999999999));
#1269=CARTESIAN_POINT('',(-9.,8.,-1.11022302462516E-16));
#1270=CARTESIAN_POINT('',(-9.,8.5857864376269,-3.33066907387547E-16));
#1271=CARTESIAN_POINT('',(-8.58578643762691,9.,0.414213562373095));
#1272=CARTESIAN_POINT('',(-8.,9.,1.));
#1273=CARTESIAN_POINT('',(-2.22044604925031E-16,1.,9.));
#1274=CARTESIAN_POINT('',(0.,0.414213562373095,9.));
#1275=CARTESIAN_POINT('',(-0.414213562373095,-4.44089209850063E-16,8.5857864376269));
#1276=CARTESIAN_POINT('',(-1.,-5.55111512312578E-16,8.));
#1277=CARTESIAN_POINT('',(-2.22044604925031E-16,8.,9.));
#1278=CARTESIAN_POINT('',(0.,8.5857864376269,9.));
#1279=CARTESIAN_POINT('',(-0.414213562373095,9.,8.58578643762691));
#1280=CARTESIAN_POINT('',(-1.,9.,8.));
#1281=CARTESIAN_POINT('',(-7.75,4.5,24.));
#1282=AXIS2_PLACEMENT_3D('',#1283,#1284,#1285);
#1283=CARTESIAN_POINT('',(-4.5,4.5,24.));
#1284=DIRECTION('',(3.94745964311167E-16,0.,1.));
#1285=DIRECTION('',(-1.,1.22464679914735E-16,3.94745964311167E-16));
#1286=CARTESIAN_POINT('',(-3.5,6.5,24.));
#1287=CARTESIAN_POINT('',(-2.5,5.5,24.));
#1288=AXIS2_PLACEMENT_3D('',#1289,#1290,#1291);
#1289=CARTESIAN_POINT('',(-3.5,5.5,24.));
#1290=DIRECTION('',(3.94745964311167E-16,0.,1.));
#1291=DIRECTION('',(1.,0.,-3.94745964311167E-16));
#1292=CARTESIAN_POINT('',(-5.5,6.5,24.));
#1293=CARTESIAN_POINT('',(-3.5,6.5,24.));
#1294=VECTOR('',#1295,1.);
#1295=DIRECTION('',(-1.,8.88178419700124E-16,1.77635683940025E-15));
#1296=CARTESIAN_POINT('',(-6.5,5.5,24.));
#1297=AXIS2_PLACEMENT_3D('',#1298,#1299,#1300);
#1298=CARTESIAN_POINT('',(-5.5,5.5,24.));
#1299=DIRECTION('',(3.94745964311167E-16,0.,1.));
#1300=DIRECTION('',(8.88178419700125E-16,1.,-3.50604846764894E-31));
#1301=CARTESIAN_POINT('',(-6.5,3.5,24.));
#1302=CARTESIAN_POINT('',(-6.5,5.5,24.));
#1303=VECTOR('',#1304,1.);
#1304=DIRECTION('',(-4.44089209850063E-16,-1.,0.));
#1305=CARTESIAN_POINT('',(-5.5,2.5,24.));
#1306=AXIS2_PLACEMENT_3D('',#1307,#1308,#1309);
#1307=CARTESIAN_POINT('',(-5.5,3.5,24.));
#1308=DIRECTION('',(3.94745964311167E-16,0.,1.));
#1309=DIRECTION('',(-1.,0.,3.94745964311167E-16));
#1310=CARTESIAN_POINT('',(-3.5,2.5,24.));
#1311=CARTESIAN_POINT('',(-5.5,2.5,24.));
#1312=VECTOR('',#1313,1.);
#1313=DIRECTION('',(1.,-2.22044604925031E-16,-1.77635683940025E-15));
#1314=CARTESIAN_POINT('',(-2.5,3.5,24.));
#1315=AXIS2_PLACEMENT_3D('',#1316,#1317,#1318);
#1316=CARTESIAN_POINT('',(-3.5,3.5,24.));
#1317=DIRECTION('',(3.94745964311167E-16,0.,1.));
#1318=DIRECTION('',(-8.88178419700126E-16,-1.,3.50604846764894E-31));
#1319=CARTESIAN_POINT('',(-2.5,3.5,24.));
#1320=VECTOR('',#1321,1.);
#1321=DIRECTION('',(2.22044604925032E-16,1.,0.));
#1322=CARTESIAN_POINT('',(-7.32842712474619,4.5,32.));
#1323=AXIS2_PLACEMENT_3D('',#1324,#1325,#1326);
#1324=CARTESIAN_POINT('',(-4.5,4.5,32.));
#1325=DIRECTION('',(3.94745964311167E-16,0.,1.));
#1326=DIRECTION('',(-1.,1.22464679914735E-16,3.94745964311167E-16));
#1327=CARTESIAN_POINT('',(-2.5,5.5,32.));
#1328=CARTESIAN_POINT('',(-3.5,6.5,32.));
#1329=AXIS2_PLACEMENT_3D('',#1330,#1331,#1332);
#1330=CARTESIAN_POINT('',(-3.5,5.5,32.));
#1331=DIRECTION('',(-3.94745964311167E-16,0.,-1.));
#1332=DIRECTION('',(4.44089209850063E-16,1.,-1.75302423382447E-31));
#1333=CARTESIAN_POINT('',(-2.5,3.5,32.));
#1334=CARTESIAN_POINT('',(-2.5,3.5,32.));
#1335=VECTOR('',#1336,1.);
#1336=DIRECTION('',(4.44089209850063E-16,1.,0.));
#1337=CARTESIAN_POINT('',(-3.5,2.5,32.));
#1338=AXIS2_PLACEMENT_3D('',#1339,#1340,#1341);
#1339=CARTESIAN_POINT('',(-3.5,3.5,32.));
#1340=DIRECTION('',(-3.94745964311167E-16,0.,-1.));
#1341=DIRECTION('',(1.,0.,-3.94745964311167E-16));
#1342=CARTESIAN_POINT('',(-5.5,2.5,32.));
#1343=CARTESIAN_POINT('',(-5.5,2.5,32.));
#1344=VECTOR('',#1345,1.);
#1345=DIRECTION('',(1.,-2.22044604925031E-16,-1.77635683940025E-15));
#1346=CARTESIAN_POINT('',(-6.5,3.5,32.));
#1347=AXIS2_PLACEMENT_3D('',#1348,#1349,#1350);
#1348=CARTESIAN_POINT('',(-5.5,3.5,32.));
#1349=DIRECTION('',(-3.94745964311167E-16,0.,-1.));
#1350=DIRECTION('',(8.88178419700125E-16,-1.,-3.50604846764894E-31));
#1351=CARTESIAN_POINT('',(-6.5,5.5,32.));
#1352=CARTESIAN_POINT('',(-6.5,5.5,32.));
#1353=VECTOR('',#1354,1.);
#1354=DIRECTION('',(-4.44089209850063E-16,-1.,0.));
#1355=CARTESIAN_POINT('',(-5.5,6.5,32.));
#1356=AXIS2_PLACEMENT_3D('',#1357,#1358,#1359);
#1357=CARTESIAN_POINT('',(-5.5,5.5,32.));
#1358=DIRECTION('',(-3.94745964311167E-16,-8.75811540203011E-47,-1.));
#1359=DIRECTION('',(-1.,3.45723070992286E-62,3.94745964311167E-16));
#1360=CARTESIAN_POINT('',(-3.5,6.5,32.));
#1361=VECTOR('',#1362,1.);
#1362=DIRECTION('',(-1.,8.88178419700125E-16,1.77635683940025E-15));
#1363=CARTESIAN_POINT('',(-5.5,2.5,24.));
#1364=VECTOR('',#1365,1.);
#1365=DIRECTION('',(4.44089209850063E-16,0.,1.));
#1366=CARTESIAN_POINT('',(-3.5,2.5,24.));
#1367=VECTOR('',#1368,1.);
#1368=DIRECTION('',(3.88578058618805E-16,0.,1.));
#1369=CARTESIAN_POINT('',(-6.5,5.5,24.));
#1370=VECTOR('',#1371,1.);
#1371=DIRECTION('',(4.44089209850063E-16,0.,1.));
#1372=CARTESIAN_POINT('',(-6.5,3.5,24.));
#1373=VECTOR('',#1374,1.);
#1374=DIRECTION('',(4.44089209850063E-16,0.,1.));
#1375=CARTESIAN_POINT('',(-3.5,6.5,24.));
#1376=VECTOR('',#1377,1.);
#1377=DIRECTION('',(3.88578058618805E-16,1.11022302462516E-16,1.));
#1378=CARTESIAN_POINT('',(-5.5,6.5,24.));
#1379=VECTOR('',#1380,1.);
#1380=DIRECTION('',(4.44089209850063E-16,0.,1.));
#1381=CARTESIAN_POINT('',(-2.5,5.5,24.));
#1382=VECTOR('',#1383,1.);
#1383=DIRECTION('',(3.88578058618805E-16,0.,1.));
#1384=CARTESIAN_POINT('',(-2.5,3.5,24.));
#1385=VECTOR('',#1386,1.);
#1386=DIRECTION('',(3.33066907387547E-16,0.,1.));
#1387=CARTESIAN_POINT('',(15.,4.5,8.5));
#1388=AXIS2_PLACEMENT_3D('',#1389,#1390,#1391);
#1389=CARTESIAN_POINT('',(15.,4.5,4.5));
#1390=DIRECTION('',(1.,0.,3.94745964311167E-16));
#1391=DIRECTION('',(-3.94745964311167E-16,0.,1.));
#1392=CARTESIAN_POINT('',(15.,6.5,3.5));
#1393=CARTESIAN_POINT('',(15.,5.5,2.5));
#1394=AXIS2_PLACEMENT_3D('',#1395,#1396,#1397);
#1395=CARTESIAN_POINT('',(15.,5.5,3.5));
#1396=DIRECTION('',(1.,0.,3.94745964311167E-16));
#1397=DIRECTION('',(3.94745964311167E-16,8.88178419700125E-16,-1.));
#1398=CARTESIAN_POINT('',(15.,6.5,5.5));
#1399=CARTESIAN_POINT('',(15.,6.5,3.5));
#1400=VECTOR('',#1401,1.);
#1401=DIRECTION('',(0.,0.,1.));
#1402=CARTESIAN_POINT('',(15.,5.5,6.5));
#1403=AXIS2_PLACEMENT_3D('',#1404,#1405,#1406);
#1404=CARTESIAN_POINT('',(15.,5.5,5.5));
#1405=DIRECTION('',(1.,0.,3.94745964311167E-16));
#1406=DIRECTION('',(7.01209693529788E-31,1.,-1.77635683940025E-15));
#1407=CARTESIAN_POINT('',(15.,3.5,6.5));
#1408=CARTESIAN_POINT('',(15.,5.5,6.5));
#1409=VECTOR('',#1410,1.);
#1410=DIRECTION('',(0.,-1.,0.));
#1411=CARTESIAN_POINT('',(15.,2.5,5.5));
#1412=AXIS2_PLACEMENT_3D('',#1413,#1414,#1415);
#1413=CARTESIAN_POINT('',(15.,3.5,5.5));
#1414=DIRECTION('',(1.,0.,3.94745964311167E-16));
#1415=DIRECTION('',(-3.94745964311167E-16,0.,1.));
#1416=CARTESIAN_POINT('',(15.,2.5,3.5));
#1417=CARTESIAN_POINT('',(15.,2.5,5.5));
#1418=VECTOR('',#1419,1.);
#1419=DIRECTION('',(0.,0.,-1.));
#1420=CARTESIAN_POINT('',(15.,3.5,2.5));
#1421=AXIS2_PLACEMENT_3D('',#1422,#1423,#1424);
#1422=CARTESIAN_POINT('',(15.,3.5,3.5));
#1423=DIRECTION('',(1.,0.,3.94745964311167E-16));
#1424=DIRECTION('',(3.50604846764894E-31,-1.,-8.88178419700125E-16));
#1425=CARTESIAN_POINT('',(15.,3.5,2.5));
#1426=VECTOR('',#1427,1.);
#1427=DIRECTION('',(0.,1.,0.));
#1428=CARTESIAN_POINT('',(23.,4.5,7.3284271247462));
#1429=AXIS2_PLACEMENT_3D('',#1430,#1431,#1432);
#1430=CARTESIAN_POINT('',(23.,4.5,4.50000000000001));
#1431=DIRECTION('',(1.,0.,3.94745964311167E-16));
#1432=DIRECTION('',(-3.94745964311167E-16,0.,1.));
#1433=CARTESIAN_POINT('',(23.,5.5,2.50000000000001));
#1434=CARTESIAN_POINT('',(23.,6.5,3.50000000000001));
#1435=AXIS2_PLACEMENT_3D('',#1436,#1437,#1438);
#1436=CARTESIAN_POINT('',(23.,5.5,3.50000000000001));
#1437=DIRECTION('',(-1.,0.,-3.94745964311167E-16));
#1438=DIRECTION('',(1.75302423382447E-31,1.,-4.44089209850063E-16));
#1439=CARTESIAN_POINT('',(23.,3.5,2.50000000000001));
#1440=CARTESIAN_POINT('',(23.,3.5,2.50000000000001));
#1441=VECTOR('',#1442,1.);
#1442=DIRECTION('',(0.,1.,0.));
#1443=CARTESIAN_POINT('',(23.,2.5,3.50000000000001));
#1444=AXIS2_PLACEMENT_3D('',#1445,#1446,#1447);
#1445=CARTESIAN_POINT('',(23.,3.5,3.50000000000001));
#1446=DIRECTION('',(-1.,0.,-3.94745964311167E-16));
#1447=DIRECTION('',(3.94745964311167E-16,0.,-1.));
#1448=CARTESIAN_POINT('',(23.,2.5,5.5));
#1449=CARTESIAN_POINT('',(23.,2.5,5.5));
#1450=VECTOR('',#1451,1.);
#1451=DIRECTION('',(1.77635683940025E-15,0.,-1.));
#1452=CARTESIAN_POINT('',(23.,3.5,6.5));
#1453=AXIS2_PLACEMENT_3D('',#1454,#1455,#1456);
#1454=CARTESIAN_POINT('',(23.,3.5,5.5));
#1455=DIRECTION('',(-1.,0.,-3.94745964311167E-16));
#1456=DIRECTION('',(0.,-1.,0.));
#1457=CARTESIAN_POINT('',(23.,5.5,6.5));
#1458=CARTESIAN_POINT('',(23.,5.5,6.5));
#1459=VECTOR('',#1460,1.);
#1460=DIRECTION('',(0.,-1.,0.));
#1461=CARTESIAN_POINT('',(23.,6.5,5.5));
#1462=AXIS2_PLACEMENT_3D('',#1463,#1464,#1465);
#1463=CARTESIAN_POINT('',(23.,5.5,5.50000000000001));
#1464=DIRECTION('',(-1.,0.,-3.94745964311167E-16));
#1465=DIRECTION('',(-3.94745964311167E-16,0.,1.));
#1466=CARTESIAN_POINT('',(23.,6.5,3.50000000000001));
#1467=VECTOR('',#1468,1.);
#1468=DIRECTION('',(0.,0.,1.));
#1469=CARTESIAN_POINT('',(15.,2.5,5.5));
#1470=VECTOR('',#1471,1.);
#1471=DIRECTION('',(1.,0.,4.44089209850063E-16));
#1472=CARTESIAN_POINT('',(15.,2.5,3.5));
#1473=VECTOR('',#1474,1.);
#1474=DIRECTION('',(1.,0.,4.44089209850063E-16));
#1475=CARTESIAN_POINT('',(15.,5.5,6.5));
#1476=VECTOR('',#1477,1.);
#1477=DIRECTION('',(1.,0.,3.33066907387547E-16));
#1478=CARTESIAN_POINT('',(15.,3.5,6.5));
#1479=VECTOR('',#1480,1.);
#1480=DIRECTION('',(1.,0.,3.33066907387547E-16));
#1481=CARTESIAN_POINT('',(15.,6.5,3.5));
#1482=VECTOR('',#1483,1.);
#1483=DIRECTION('',(1.,0.,3.33066907387547E-16));
#1484=CARTESIAN_POINT('',(15.,6.5,5.5));
#1485=VECTOR('',#1486,1.);
#1486=DIRECTION('',(1.,0.,2.22044604925032E-16));
#1487=CARTESIAN_POINT('',(15.,5.5,2.5));
#1488=VECTOR('',#1489,1.);
#1489=DIRECTION('',(1.,0.,3.33066907387547E-16));
#1490=CARTESIAN_POINT('',(15.,3.5,2.5));
#1491=VECTOR('',#1492,1.);
#1492=DIRECTION('',(1.,0.,4.44089209850063E-16));
ENDSEC;
END-ISO-10303-21;
