ISO-10303-21;
HEADER;
FILE_DESCRIPTION(('STEP AP203'),
    '1');
FILE_NAME('шит дисплея',
    '',
    ('UNSPECIFIED'),
    ('UNSPECIFIED'),
    'C3D Converter',
    'C3D Toolkit',
    '');
FILE_SCHEMA(('CONFIG_CONTROL_DESIGN'));
ENDSEC;

DATA;
#1=PRODUCT_DEFINITION('','UNSPECIFIED',#28,#31);
#2=SHAPE_DEFINITION_REPRESENTATION(#26,#3);
#3=SHAPE_REPRESENTATION('NONE',(#4),#8);
#4=AXIS2_PLACEMENT_3D('',#5,#6,#7);
#5=CARTESIAN_POINT('',(0.,0.,0.));
#6=DIRECTION('',(0.,0.,1.));
#7=DIRECTION('',(1.,0.,0.));
#8=(GEOMETRIC_REPRESENTATION_CONTEXT(3)GLOBAL_UNCERTAINTY_ASSIGNED_CONTEXT((#10))
GLOBAL_UNIT_ASSIGNED_CONTEXT((#9,#11,#12))REPRESENTATION_CONTEXT('NONE','NONE'));
#9=(LENGTH_UNIT()NAMED_UNIT(*)SI_UNIT(.MILLI.,.METRE.));
#10=UNCERTAINTY_MEASURE_WITH_UNIT(LENGTH_MEASURE(1.E-5),#9,'NONE','NONE');
#11=(NAMED_UNIT(*)PLANE_ANGLE_UNIT()SI_UNIT($,.RADIAN.));
#12=(NAMED_UNIT(*)SI_UNIT($,.STERADIAN.)SOLID_ANGLE_UNIT());
#13=MANIFOLD_SOLID_BREP('',#14);
#14=CLOSED_SHELL('',(#53,#54,#55,#56,#57,#58,#59,#60,#61,#62,#63,#64,#65,#66,#67,
#68,#69,#70,#71,#72,#73,#74,#75,#76,#77,#78,#79,#80));
#15=COLOUR_RGB('',0.564705882352941,0.564705882352941,0.564705882352941);
#16=FILL_AREA_STYLE_COLOUR('',#15);
#17=FILL_AREA_STYLE($,(#16));
#18=SURFACE_STYLE_FILL_AREA(#17);
#19=SURFACE_SIDE_STYLE('',(#18));
#20=SURFACE_STYLE_USAGE(.BOTH.,#19);
#21=PRESENTATION_STYLE_ASSIGNMENT((#20));
#22=MECHANICAL_DESIGN_GEOMETRIC_PRESENTATION_REPRESENTATION('NONE',(#23),#8);
#23=STYLED_ITEM('',(#21),#13);
#24=ADVANCED_BREP_SHAPE_REPRESENTATION('NONE',(#13),#8);
#25=SHAPE_REPRESENTATION_RELATIONSHIP('','',#3,#24);
#26=PRODUCT_DEFINITION_SHAPE('NONE','NONE',#1);
#27=MECHANICAL_CONTEXT('NONE',#32,'mechanical');
#28=PRODUCT_DEFINITION_FORMATION_WITH_SPECIFIED_SOURCE('ANY','UNSPECIFIED',#29,.NOT_KNOWN.);
#29=PRODUCT('','\X2\0414043504420430043B044C\X0\','NONE',(#27));
#30=PRODUCT_RELATED_PRODUCT_CATEGORY('detail','',(#29));
#31=DESIGN_CONTEXT('detailed design',#32,'design');
#32=APPLICATION_CONTEXT('configuration controlled 3d designs of mechanical parts and assemblies');
#33=APPLICATION_PROTOCOL_DEFINITION('international standard','config_control_design',
1994,#32);
#34=CC_DESIGN_DATE_AND_TIME_ASSIGNMENT(#35,#39,(#1));
#35=DATE_AND_TIME(#36,#37);
#36=CALENDAR_DATE(0,1,1);
#37=LOCAL_TIME(0,0,0.,#38);
#38=COORDINATED_UNIVERSAL_TIME_OFFSET(0,0,.AHEAD.);
#39=DATE_TIME_ROLE('creation_date');
#40=CC_DESIGN_APPROVAL(#41,(#1));
#41=APPROVAL(#42,'UNSPECIFIED');
#42=APPROVAL_STATUS('not_yet_approved');
#43=APPROVAL_DATE_TIME(#44,#41);
#44=DATE_AND_TIME(#45,#46);
#45=CALENDAR_DATE(0,1,1);
#46=LOCAL_TIME(0,0,0.,#47);
#47=COORDINATED_UNIVERSAL_TIME_OFFSET(0,0,.AHEAD.);
#48=PERSON('UNSPECIFIED','grigo','UNSPECIFIED',('UNSPECIFIED'),('UNSPECIFIED'),(
'UNSPECIFIED'));
#49=ORGANIZATION('UNSPECIFIED','UNSPECIFIED','UNSPECIFIED');
#50=PERSON_AND_ORGANIZATION(#48,#49);
#51=PERSON_AND_ORGANIZATION_ROLE('creator');
#52=CC_DESIGN_PERSON_AND_ORGANIZATION_ASSIGNMENT(#50,#51,(#28,#1));
#53=ADVANCED_FACE('',(#81),#83,.F.);
#54=ADVANCED_FACE('',(#88),#90,.F.);
#55=ADVANCED_FACE('',(#95),#97,.T.);
#56=ADVANCED_FACE('',(#102),#104,.F.);
#57=ADVANCED_FACE('',(#109),#111,.T.);
#58=ADVANCED_FACE('',(#116),#118,.T.);
#59=ADVANCED_FACE('',(#123,#125),#127,.T.);
#60=ADVANCED_FACE('',(#132),#134,.F.);
#61=ADVANCED_FACE('',(#139),#141,.T.);
#62=ADVANCED_FACE('',(#146),#148,.T.);
#63=ADVANCED_FACE('',(#153),#155,.T.);
#64=ADVANCED_FACE('',(#160,#162),#164,.F.);
#65=ADVANCED_FACE('',(#169),#171,.F.);
#66=ADVANCED_FACE('',(#176),#178,.F.);
#67=ADVANCED_FACE('',(#183),#185,.F.);
#68=ADVANCED_FACE('',(#190),#192,.F.);
#69=ADVANCED_FACE('',(#197),#199,.T.);
#70=ADVANCED_FACE('',(#204),#206,.T.);
#71=ADVANCED_FACE('',(#211),#213,.T.);
#72=ADVANCED_FACE('',(#218),#220,.T.);
#73=ADVANCED_FACE('',(#225),#227,.F.);
#74=ADVANCED_FACE('',(#232),#234,.T.);
#75=ADVANCED_FACE('',(#239),#241,.F.);
#76=ADVANCED_FACE('',(#246),#248,.T.);
#77=ADVANCED_FACE('',(#253),#255,.F.);
#78=ADVANCED_FACE('',(#260),#262,.T.);
#79=ADVANCED_FACE('',(#267),#269,.F.);
#80=ADVANCED_FACE('',(#274),#276,.T.);
#81=FACE_BOUND('',#82,.T.);
#82=EDGE_LOOP('',(#281,#282,#283,#284,#285,#286));
#83=PLANE('',#84);
#84=AXIS2_PLACEMENT_3D('',#85,#86,#87);
#85=CARTESIAN_POINT('',(-23.5,2.75545529808154E-15,-45.));
#86=DIRECTION('',(-1.,0.,-8.66515531414756E-17));
#87=DIRECTION('',(-8.66515531414756E-17,-6.12323399573677E-17,1.));
#88=FACE_BOUND('',#89,.T.);
#89=EDGE_LOOP('',(#287,#288,#289,#290,#291,#292));
#90=PLANE('',#91);
#91=AXIS2_PLACEMENT_3D('',#92,#93,#94);
#92=CARTESIAN_POINT('',(23.5,-2.2655965784226E-15,37.));
#93=DIRECTION('',(1.,0.,8.66515531414756E-17));
#94=DIRECTION('',(8.66515531414756E-17,6.12323399573677E-17,-1.));
#95=FACE_BOUND('',#96,.T.);
#96=EDGE_LOOP('',(#293,#294,#295,#296,#297,#298,#299,#300,#301,#302,#303,#304));
#97=PLANE('',#98);
#98=AXIS2_PLACEMENT_3D('',#99,#100,#101);
#99=CARTESIAN_POINT('',(0.,25.,1.53080849893419E-15));
#100=DIRECTION('',(0.,1.,6.12323399573677E-17));
#101=DIRECTION('',(6.12323399573677E-17,6.12323399573677E-17,-1.));
#102=FACE_BOUND('',#103,.T.);
#103=EDGE_LOOP('',(#305,#306,#307,#308));
#104=PLANE('',#105);
#105=AXIS2_PLACEMENT_3D('',#106,#107,#108);
#106=CARTESIAN_POINT('',(23.5,2.75545529808154E-15,-45.));
#107=DIRECTION('',(0.,0.,-1.));
#108=DIRECTION('',(-1.,0.,0.));
#109=FACE_BOUND('',#110,.T.);
#110=EDGE_LOOP('',(#309,#310,#311,#312,#313,#314,#315,#316));
#111=PLANE('',#112);
#112=AXIS2_PLACEMENT_3D('',#113,#114,#115);
#113=CARTESIAN_POINT('',(29.,3.15346550780443E-15,-51.5));
#114=DIRECTION('',(0.,0.,-1.));
#115=DIRECTION('',(-1.,0.,0.));
#116=FACE_BOUND('',#117,.T.);
#117=EDGE_LOOP('',(#317,#318,#319,#320));
#118=PLANE('',#119);
#119=AXIS2_PLACEMENT_3D('',#120,#121,#122);
#120=CARTESIAN_POINT('',(1.09476442525376E-47,23.,1.40834381901946E-15));
#121=DIRECTION('',(0.,1.,6.12323399573677E-17));
#122=DIRECTION('',(1.,0.,0.));
#123=FACE_BOUND('',#124,.T.);
#124=EDGE_LOOP('',(#321,#322,#323,#324));
#125=FACE_BOUND('',#126,.T.);
#126=EDGE_LOOP('',(#325,#326,#327,#328));
#127=PLANE('',#128);
#128=AXIS2_PLACEMENT_3D('',#129,#130,#131);
#129=CARTESIAN_POINT('',(0.,0.,0.));
#130=DIRECTION('',(0.,1.,6.12323399573677E-17));
#131=DIRECTION('',(6.12323399573677E-17,6.12323399573677E-17,-1.));
#132=FACE_BOUND('',#133,.T.);
#133=EDGE_LOOP('',(#329,#330,#331,#332));
#134=PLANE('',#135);
#135=AXIS2_PLACEMENT_3D('',#136,#137,#138);
#136=CARTESIAN_POINT('',(-23.5,-2.2655965784226E-15,37.));
#137=DIRECTION('',(0.,0.,1.));
#138=DIRECTION('',(1.,0.,0.));
#139=FACE_BOUND('',#140,.T.);
#140=EDGE_LOOP('',(#333,#334,#335,#336));
#141=PLANE('',#142);
#142=AXIS2_PLACEMENT_3D('',#143,#144,#145);
#143=CARTESIAN_POINT('',(-29.,3.15346550780443E-15,-51.5));
#144=DIRECTION('',(-1.,0.,-7.47939721852737E-17));
#145=DIRECTION('',(-7.47939721852737E-17,-6.12323399573677E-17,1.));
#146=FACE_BOUND('',#147,.T.);
#147=EDGE_LOOP('',(#337,#338,#339,#340));
#148=PLANE('',#149);
#149=AXIS2_PLACEMENT_3D('',#150,#151,#152);
#150=CARTESIAN_POINT('',(-29.,-2.66360678814549E-15,43.5));
#151=DIRECTION('',(0.,0.,1.));
#152=DIRECTION('',(1.,0.,0.));
#153=FACE_BOUND('',#154,.T.);
#154=EDGE_LOOP('',(#341,#342,#343,#344));
#155=PLANE('',#156);
#156=AXIS2_PLACEMENT_3D('',#157,#158,#159);
#157=CARTESIAN_POINT('',(29.,-2.66360678814549E-15,43.5));
#158=DIRECTION('',(1.,0.,7.47939721852737E-17));
#159=DIRECTION('',(7.47939721852737E-17,6.12323399573677E-17,-1.));
#160=FACE_BOUND('',#161,.T.);
#161=EDGE_LOOP('',(#345,#346,#347,#348,#349,#350,#351,#352));
#162=FACE_BOUND('',#163,.T.);
#163=EDGE_LOOP('',(#353,#354,#355,#356));
#164=PLANE('',#165);
#165=AXIS2_PLACEMENT_3D('',#166,#167,#168);
#166=CARTESIAN_POINT('',(0.,-2.,-1.22464679914735E-16));
#167=DIRECTION('',(0.,1.,6.12323399573677E-17));
#168=DIRECTION('',(6.12323399573677E-17,6.12323399573677E-17,-1.));
#169=FACE_BOUND('',#170,.T.);
#170=EDGE_LOOP('',(#357,#358,#359,#360));
#171=PLANE('',#172);
#172=AXIS2_PLACEMENT_3D('',#173,#174,#175);
#173=CARTESIAN_POINT('',(21.5,-2.,-30.));
#174=DIRECTION('',(0.,0.,-1.));
#175=DIRECTION('',(-1.,0.,0.));
#176=FACE_BOUND('',#177,.T.);
#177=EDGE_LOOP('',(#361,#362,#363,#364));
#178=PLANE('',#179);
#179=AXIS2_PLACEMENT_3D('',#180,#181,#182);
#180=CARTESIAN_POINT('',(21.5,-2.,30.));
#181=DIRECTION('',(1.,0.,1.1842378929335E-16));
#182=DIRECTION('',(1.1842378929335E-16,5.9211894646675E-17,-1.));
#183=FACE_BOUND('',#184,.T.);
#184=EDGE_LOOP('',(#365,#366,#367,#368));
#185=PLANE('',#186);
#186=AXIS2_PLACEMENT_3D('',#187,#188,#189);
#187=CARTESIAN_POINT('',(-21.5,-2.,30.));
#188=DIRECTION('',(-8.26212483441977E-17,0.,1.));
#189=DIRECTION('',(1.,0.,8.26212483441977E-17));
#190=FACE_BOUND('',#191,.T.);
#191=EDGE_LOOP('',(#369,#370,#371,#372));
#192=PLANE('',#193);
#193=AXIS2_PLACEMENT_3D('',#194,#195,#196);
#194=CARTESIAN_POINT('',(-21.5,-2.,-30.));
#195=DIRECTION('',(-1.,0.,-1.1842378929335E-16));
#196=DIRECTION('',(-1.1842378929335E-16,-5.9211894646675E-17,1.));
#197=FACE_BOUND('',#198,.T.);
#198=EDGE_LOOP('',(#373,#374,#375,#376));
#199=CYLINDRICAL_SURFACE('',#200,4.);
#200=AXIS2_PLACEMENT_3D('',#201,#202,#203);
#201=CARTESIAN_POINT('',(25.,-18.,-47.5));
#202=DIRECTION('',(0.,-1.,1.20430972162729E-16));
#203=DIRECTION('',(0.,-1.20430972162729E-16,-1.));
#204=FACE_BOUND('',#205,.T.);
#205=EDGE_LOOP('',(#377,#378,#379,#380));
#206=CYLINDRICAL_SURFACE('',#207,4.);
#207=AXIS2_PLACEMENT_3D('',#208,#209,#210);
#208=CARTESIAN_POINT('',(-25.,-18.,-47.5));
#209=DIRECTION('',(6.02154860813644E-17,-1.,0.));
#210=DIRECTION('',(-1.,-6.02154860813644E-17,0.));
#211=FACE_BOUND('',#212,.T.);
#212=EDGE_LOOP('',(#381,#382,#383,#384));
#213=CYLINDRICAL_SURFACE('',#214,4.);
#214=AXIS2_PLACEMENT_3D('',#215,#216,#217);
#215=CARTESIAN_POINT('',(-25.,-18.,39.5));
#216=DIRECTION('',(0.,-1.,-1.20430972162729E-16));
#217=DIRECTION('',(0.,-1.20430972162729E-16,1.));
#218=FACE_BOUND('',#219,.T.);
#219=EDGE_LOOP('',(#385,#386,#387,#388));
#220=CYLINDRICAL_SURFACE('',#221,4.);
#221=AXIS2_PLACEMENT_3D('',#222,#223,#224);
#222=CARTESIAN_POINT('',(25.,-18.,39.5));
#223=DIRECTION('',(0.,-1.,0.));
#224=DIRECTION('',(1.,0.,0.));
#225=FACE_BOUND('',#226,.T.);
#226=EDGE_LOOP('',(#389,#390,#391,#392));
#227=PLANE('',#228);
#228=AXIS2_PLACEMENT_3D('',#229,#230,#231);
#229=CARTESIAN_POINT('',(29.,-0.999999999999997,-51.5));
#230=DIRECTION('',(0.,0.707106781186545,0.70710678118655));
#231=DIRECTION('',(-1.,0.,0.));
#232=FACE_BOUND('',#233,.T.);
#233=EDGE_LOOP('',(#393,#394,#395,#396));
#234=CONICAL_SURFACE('',#235,3.5,0.785398163397448);
#235=AXIS2_PLACEMENT_3D('',#236,#237,#238);
#236=CARTESIAN_POINT('',(-25.,-1.5,-47.5));
#237=DIRECTION('',(0.,1.,6.12323399573677E-17));
#238=DIRECTION('',(0.707106781186547,4.32978028117747E-17,-0.707106781186549));
#239=FACE_BOUND('',#240,.T.);
#240=EDGE_LOOP('',(#397,#398,#399,#400));
#241=PLANE('',#242);
#242=AXIS2_PLACEMENT_3D('',#243,#244,#245);
#243=CARTESIAN_POINT('',(-29.,-0.999999999999997,-51.5));
#244=DIRECTION('',(0.707106781186546,0.707106781186549,9.42055475210265E-17));
#245=DIRECTION('',(-7.47939721852737E-17,-5.84327907697451E-17,1.));
#246=FACE_BOUND('',#247,.T.);
#247=EDGE_LOOP('',(#401,#402,#403,#404));
#248=CONICAL_SURFACE('',#249,3.5,0.78539816339745);
#249=AXIS2_PLACEMENT_3D('',#250,#251,#252);
#250=CARTESIAN_POINT('',(-25.,-1.50000000000001,39.5));
#251=DIRECTION('',(0.,1.,6.12323399573676E-17));
#252=DIRECTION('',(-0.707106781186548,4.32978028117746E-17,-0.707106781186547));
#253=FACE_BOUND('',#254,.T.);
#254=EDGE_LOOP('',(#405,#406,#407,#408));
#255=PLANE('',#256);
#256=AXIS2_PLACEMENT_3D('',#257,#258,#259);
#257=CARTESIAN_POINT('',(-29.,-1.,43.5));
#258=DIRECTION('',(0.,0.707106781186545,-0.70710678118655));
#259=DIRECTION('',(1.,0.,0.));
#260=FACE_BOUND('',#261,.T.);
#261=EDGE_LOOP('',(#409,#410,#411,#412));
#262=CONICAL_SURFACE('',#263,3.5,0.785398163397448);
#263=AXIS2_PLACEMENT_3D('',#264,#265,#266);
#264=CARTESIAN_POINT('',(25.,-1.5,39.5));
#265=DIRECTION('',(0.,1.,6.12323399573677E-17));
#266=DIRECTION('',(-0.707106781186547,-4.32978028117747E-17,0.707106781186549));
#267=FACE_BOUND('',#268,.T.);
#268=EDGE_LOOP('',(#413,#414,#415,#416));
#269=PLANE('',#270);
#270=AXIS2_PLACEMENT_3D('',#271,#272,#273);
#271=CARTESIAN_POINT('',(29.,-1.,43.5));
#272=DIRECTION('',(-0.707106781186546,0.707106781186549,-1.15691023271434E-17));
#273=DIRECTION('',(7.47939721852737E-17,5.84327907697451E-17,-1.));
#274=FACE_BOUND('',#275,.T.);
#275=EDGE_LOOP('',(#417,#418,#419,#420));
#276=CONICAL_SURFACE('',#277,3.5,0.785398163397447);
#277=AXIS2_PLACEMENT_3D('',#278,#279,#280);
#278=CARTESIAN_POINT('',(25.,-1.5,-47.5));
#279=DIRECTION('',(0.,1.,6.12323399573676E-17));
#280=DIRECTION('',(0.707106781186548,-4.32978028117746E-17,0.707106781186547));
#281=ORIENTED_EDGE('',*,*,#421,.F.);
#282=ORIENTED_EDGE('',*,*,#422,.T.);
#283=ORIENTED_EDGE('',*,*,#423,.F.);
#284=ORIENTED_EDGE('',*,*,#424,.F.);
#285=ORIENTED_EDGE('',*,*,#425,.F.);
#286=ORIENTED_EDGE('',*,*,#426,.F.);
#287=ORIENTED_EDGE('',*,*,#427,.F.);
#288=ORIENTED_EDGE('',*,*,#428,.T.);
#289=ORIENTED_EDGE('',*,*,#429,.F.);
#290=ORIENTED_EDGE('',*,*,#430,.F.);
#291=ORIENTED_EDGE('',*,*,#431,.F.);
#292=ORIENTED_EDGE('',*,*,#432,.F.);
#293=ORIENTED_EDGE('',*,*,#433,.F.);
#294=ORIENTED_EDGE('',*,*,#434,.T.);
#295=ORIENTED_EDGE('',*,*,#435,.F.);
#296=ORIENTED_EDGE('',*,*,#436,.T.);
#297=ORIENTED_EDGE('',*,*,#429,.T.);
#298=ORIENTED_EDGE('',*,*,#437,.T.);
#299=ORIENTED_EDGE('',*,*,#425,.T.);
#300=ORIENTED_EDGE('',*,*,#438,.T.);
#301=ORIENTED_EDGE('',*,*,#439,.F.);
#302=ORIENTED_EDGE('',*,*,#440,.T.);
#303=ORIENTED_EDGE('',*,*,#441,.F.);
#304=ORIENTED_EDGE('',*,*,#442,.T.);
#305=ORIENTED_EDGE('',*,*,#443,.T.);
#306=ORIENTED_EDGE('',*,*,#422,.F.);
#307=ORIENTED_EDGE('',*,*,#444,.F.);
#308=ORIENTED_EDGE('',*,*,#432,.T.);
#309=ORIENTED_EDGE('',*,*,#445,.T.);
#310=ORIENTED_EDGE('',*,*,#446,.T.);
#311=ORIENTED_EDGE('',*,*,#438,.F.);
#312=ORIENTED_EDGE('',*,*,#424,.T.);
#313=ORIENTED_EDGE('',*,*,#447,.T.);
#314=ORIENTED_EDGE('',*,*,#430,.T.);
#315=ORIENTED_EDGE('',*,*,#436,.F.);
#316=ORIENTED_EDGE('',*,*,#448,.F.);
#317=ORIENTED_EDGE('',*,*,#447,.F.);
#318=ORIENTED_EDGE('',*,*,#423,.T.);
#319=ORIENTED_EDGE('',*,*,#443,.F.);
#320=ORIENTED_EDGE('',*,*,#431,.T.);
#321=ORIENTED_EDGE('',*,*,#427,.T.);
#322=ORIENTED_EDGE('',*,*,#444,.T.);
#323=ORIENTED_EDGE('',*,*,#421,.T.);
#324=ORIENTED_EDGE('',*,*,#449,.T.);
#325=ORIENTED_EDGE('',*,*,#450,.T.);
#326=ORIENTED_EDGE('',*,*,#451,.T.);
#327=ORIENTED_EDGE('',*,*,#452,.T.);
#328=ORIENTED_EDGE('',*,*,#453,.T.);
#329=ORIENTED_EDGE('',*,*,#449,.F.);
#330=ORIENTED_EDGE('',*,*,#426,.T.);
#331=ORIENTED_EDGE('',*,*,#437,.F.);
#332=ORIENTED_EDGE('',*,*,#428,.F.);
#333=ORIENTED_EDGE('',*,*,#454,.T.);
#334=ORIENTED_EDGE('',*,*,#455,.T.);
#335=ORIENTED_EDGE('',*,*,#440,.F.);
#336=ORIENTED_EDGE('',*,*,#456,.F.);
#337=ORIENTED_EDGE('',*,*,#457,.T.);
#338=ORIENTED_EDGE('',*,*,#458,.T.);
#339=ORIENTED_EDGE('',*,*,#442,.F.);
#340=ORIENTED_EDGE('',*,*,#459,.F.);
#341=ORIENTED_EDGE('',*,*,#460,.T.);
#342=ORIENTED_EDGE('',*,*,#461,.T.);
#343=ORIENTED_EDGE('',*,*,#434,.F.);
#344=ORIENTED_EDGE('',*,*,#462,.F.);
#345=ORIENTED_EDGE('',*,*,#463,.F.);
#346=ORIENTED_EDGE('',*,*,#464,.F.);
#347=ORIENTED_EDGE('',*,*,#465,.F.);
#348=ORIENTED_EDGE('',*,*,#466,.F.);
#349=ORIENTED_EDGE('',*,*,#467,.F.);
#350=ORIENTED_EDGE('',*,*,#468,.F.);
#351=ORIENTED_EDGE('',*,*,#469,.F.);
#352=ORIENTED_EDGE('',*,*,#470,.F.);
#353=ORIENTED_EDGE('',*,*,#471,.T.);
#354=ORIENTED_EDGE('',*,*,#472,.T.);
#355=ORIENTED_EDGE('',*,*,#473,.T.);
#356=ORIENTED_EDGE('',*,*,#474,.T.);
#357=ORIENTED_EDGE('',*,*,#450,.F.);
#358=ORIENTED_EDGE('',*,*,#475,.F.);
#359=ORIENTED_EDGE('',*,*,#471,.F.);
#360=ORIENTED_EDGE('',*,*,#476,.T.);
#361=ORIENTED_EDGE('',*,*,#451,.F.);
#362=ORIENTED_EDGE('',*,*,#476,.F.);
#363=ORIENTED_EDGE('',*,*,#474,.F.);
#364=ORIENTED_EDGE('',*,*,#477,.T.);
#365=ORIENTED_EDGE('',*,*,#452,.F.);
#366=ORIENTED_EDGE('',*,*,#477,.F.);
#367=ORIENTED_EDGE('',*,*,#473,.F.);
#368=ORIENTED_EDGE('',*,*,#478,.T.);
#369=ORIENTED_EDGE('',*,*,#453,.F.);
#370=ORIENTED_EDGE('',*,*,#478,.F.);
#371=ORIENTED_EDGE('',*,*,#472,.F.);
#372=ORIENTED_EDGE('',*,*,#475,.T.);
#373=ORIENTED_EDGE('',*,*,#479,.T.);
#374=ORIENTED_EDGE('',*,*,#448,.T.);
#375=ORIENTED_EDGE('',*,*,#435,.T.);
#376=ORIENTED_EDGE('',*,*,#461,.F.);
#377=ORIENTED_EDGE('',*,*,#480,.T.);
#378=ORIENTED_EDGE('',*,*,#456,.T.);
#379=ORIENTED_EDGE('',*,*,#439,.T.);
#380=ORIENTED_EDGE('',*,*,#446,.F.);
#381=ORIENTED_EDGE('',*,*,#481,.T.);
#382=ORIENTED_EDGE('',*,*,#459,.T.);
#383=ORIENTED_EDGE('',*,*,#441,.T.);
#384=ORIENTED_EDGE('',*,*,#455,.F.);
#385=ORIENTED_EDGE('',*,*,#482,.T.);
#386=ORIENTED_EDGE('',*,*,#462,.T.);
#387=ORIENTED_EDGE('',*,*,#433,.T.);
#388=ORIENTED_EDGE('',*,*,#458,.F.);
#389=ORIENTED_EDGE('',*,*,#445,.F.);
#390=ORIENTED_EDGE('',*,*,#483,.F.);
#391=ORIENTED_EDGE('',*,*,#463,.T.);
#392=ORIENTED_EDGE('',*,*,#484,.T.);
#393=ORIENTED_EDGE('',*,*,#470,.T.);
#394=ORIENTED_EDGE('',*,*,#485,.T.);
#395=ORIENTED_EDGE('',*,*,#480,.F.);
#396=ORIENTED_EDGE('',*,*,#484,.F.);
#397=ORIENTED_EDGE('',*,*,#454,.F.);
#398=ORIENTED_EDGE('',*,*,#485,.F.);
#399=ORIENTED_EDGE('',*,*,#469,.T.);
#400=ORIENTED_EDGE('',*,*,#486,.T.);
#401=ORIENTED_EDGE('',*,*,#468,.T.);
#402=ORIENTED_EDGE('',*,*,#487,.T.);
#403=ORIENTED_EDGE('',*,*,#481,.F.);
#404=ORIENTED_EDGE('',*,*,#486,.F.);
#405=ORIENTED_EDGE('',*,*,#457,.F.);
#406=ORIENTED_EDGE('',*,*,#487,.F.);
#407=ORIENTED_EDGE('',*,*,#467,.T.);
#408=ORIENTED_EDGE('',*,*,#488,.T.);
#409=ORIENTED_EDGE('',*,*,#466,.T.);
#410=ORIENTED_EDGE('',*,*,#489,.T.);
#411=ORIENTED_EDGE('',*,*,#482,.F.);
#412=ORIENTED_EDGE('',*,*,#488,.F.);
#413=ORIENTED_EDGE('',*,*,#460,.F.);
#414=ORIENTED_EDGE('',*,*,#489,.F.);
#415=ORIENTED_EDGE('',*,*,#465,.T.);
#416=ORIENTED_EDGE('',*,*,#490,.T.);
#417=ORIENTED_EDGE('',*,*,#464,.T.);
#418=ORIENTED_EDGE('',*,*,#483,.T.);
#419=ORIENTED_EDGE('',*,*,#479,.F.);
#420=ORIENTED_EDGE('',*,*,#490,.F.);
#421=EDGE_CURVE('',#491,#492,#493,.F.);
#422=EDGE_CURVE('',#491,#494,#495,.T.);
#423=EDGE_CURVE('',#496,#494,#497,.T.);
#424=EDGE_CURVE('',#498,#496,#499,.F.);
#425=EDGE_CURVE('',#500,#498,#501,.F.);
#426=EDGE_CURVE('',#492,#500,#502,.T.);
#427=EDGE_CURVE('',#503,#504,#505,.F.);
#428=EDGE_CURVE('',#503,#506,#507,.T.);
#429=EDGE_CURVE('',#508,#506,#509,.F.);
#430=EDGE_CURVE('',#510,#508,#511,.F.);
#431=EDGE_CURVE('',#512,#510,#513,.T.);
#432=EDGE_CURVE('',#504,#512,#514,.T.);
#433=EDGE_CURVE('',#515,#516,#517,.F.);
#434=EDGE_CURVE('',#515,#518,#519,.T.);
#435=EDGE_CURVE('',#520,#518,#521,.F.);
#436=EDGE_CURVE('',#520,#508,#522,.T.);
#437=EDGE_CURVE('',#506,#500,#523,.F.);
#438=EDGE_CURVE('',#498,#524,#525,.T.);
#439=EDGE_CURVE('',#526,#524,#527,.F.);
#440=EDGE_CURVE('',#526,#528,#529,.T.);
#441=EDGE_CURVE('',#530,#528,#531,.F.);
#442=EDGE_CURVE('',#530,#516,#532,.T.);
#443=EDGE_CURVE('',#512,#494,#533,.F.);
#444=EDGE_CURVE('',#504,#491,#534,.F.);
#445=EDGE_CURVE('',#535,#536,#537,.T.);
#446=EDGE_CURVE('',#536,#524,#538,.T.);
#447=EDGE_CURVE('',#496,#510,#539,.T.);
#448=EDGE_CURVE('',#535,#520,#540,.T.);
#449=EDGE_CURVE('',#492,#503,#541,.F.);
#450=EDGE_CURVE('',#542,#543,#544,.F.);
#451=EDGE_CURVE('',#543,#545,#546,.F.);
#452=EDGE_CURVE('',#545,#547,#548,.F.);
#453=EDGE_CURVE('',#547,#542,#549,.F.);
#454=EDGE_CURVE('',#550,#551,#552,.T.);
#455=EDGE_CURVE('',#551,#528,#553,.T.);
#456=EDGE_CURVE('',#550,#526,#554,.T.);
#457=EDGE_CURVE('',#555,#556,#557,.T.);
#458=EDGE_CURVE('',#556,#516,#558,.T.);
#459=EDGE_CURVE('',#555,#530,#559,.T.);
#460=EDGE_CURVE('',#560,#561,#562,.T.);
#461=EDGE_CURVE('',#561,#518,#563,.T.);
#462=EDGE_CURVE('',#560,#515,#564,.T.);
#463=EDGE_CURVE('',#565,#566,#567,.T.);
#464=EDGE_CURVE('',#568,#565,#569,.F.);
#465=EDGE_CURVE('',#570,#568,#571,.T.);
#466=EDGE_CURVE('',#572,#570,#573,.F.);
#467=EDGE_CURVE('',#574,#572,#575,.T.);
#468=EDGE_CURVE('',#576,#574,#577,.F.);
#469=EDGE_CURVE('',#578,#576,#579,.T.);
#470=EDGE_CURVE('',#566,#578,#580,.F.);
#471=EDGE_CURVE('',#581,#582,#583,.T.);
#472=EDGE_CURVE('',#582,#584,#585,.T.);
#473=EDGE_CURVE('',#584,#586,#587,.T.);
#474=EDGE_CURVE('',#586,#581,#588,.T.);
#475=EDGE_CURVE('',#582,#542,#589,.T.);
#476=EDGE_CURVE('',#581,#543,#590,.T.);
#477=EDGE_CURVE('',#586,#545,#591,.T.);
#478=EDGE_CURVE('',#584,#547,#592,.T.);
#479=EDGE_CURVE('',#561,#535,#593,.F.);
#480=EDGE_CURVE('',#536,#550,#594,.F.);
#481=EDGE_CURVE('',#551,#555,#595,.F.);
#482=EDGE_CURVE('',#556,#560,#596,.F.);
#483=EDGE_CURVE('',#565,#535,#597,.T.);
#484=EDGE_CURVE('',#566,#536,#598,.F.);
#485=EDGE_CURVE('',#578,#550,#599,.T.);
#486=EDGE_CURVE('',#576,#551,#600,.F.);
#487=EDGE_CURVE('',#574,#555,#601,.T.);
#488=EDGE_CURVE('',#572,#556,#602,.F.);
#489=EDGE_CURVE('',#570,#560,#603,.T.);
#490=EDGE_CURVE('',#568,#561,#604,.F.);
#491=VERTEX_POINT('',#605);
#492=VERTEX_POINT('',#606);
#493=LINE('',#607,#608);
#494=VERTEX_POINT('',#610);
#495=LINE('',#611,#612);
#496=VERTEX_POINT('',#614);
#497=LINE('',#615,#616);
#498=VERTEX_POINT('',#618);
#499=LINE('',#619,#620);
#500=VERTEX_POINT('',#622);
#501=LINE('',#623,#624);
#502=LINE('',#626,#627);
#503=VERTEX_POINT('',#629);
#504=VERTEX_POINT('',#630);
#505=LINE('',#631,#632);
#506=VERTEX_POINT('',#634);
#507=LINE('',#635,#636);
#508=VERTEX_POINT('',#638);
#509=LINE('',#639,#640);
#510=VERTEX_POINT('',#642);
#511=LINE('',#643,#644);
#512=VERTEX_POINT('',#646);
#513=LINE('',#647,#648);
#514=LINE('',#650,#651);
#515=VERTEX_POINT('',#653);
#516=VERTEX_POINT('',#654);
#517=CIRCLE('',#655,4.);
#518=VERTEX_POINT('',#659);
#519=LINE('',#660,#661);
#520=VERTEX_POINT('',#663);
#521=CIRCLE('',#664,4.);
#522=LINE('',#668,#669);
#523=LINE('',#671,#672);
#524=VERTEX_POINT('',#674);
#525=LINE('',#675,#676);
#526=VERTEX_POINT('',#678);
#527=CIRCLE('',#679,4.00000000000001);
#528=VERTEX_POINT('',#683);
#529=LINE('',#684,#685);
#530=VERTEX_POINT('',#687);
#531=CIRCLE('',#688,4.);
#532=LINE('',#692,#693);
#533=LINE('',#695,#696);
#534=LINE('',#698,#699);
#535=VERTEX_POINT('',#701);
#536=VERTEX_POINT('',#702);
#537=LINE('',#703,#704);
#538=LINE('',#706,#707);
#539=LINE('',#709,#710);
#540=LINE('',#712,#713);
#541=LINE('',#715,#716);
#542=VERTEX_POINT('',#718);
#543=VERTEX_POINT('',#719);
#544=LINE('',#720,#721);
#545=VERTEX_POINT('',#723);
#546=LINE('',#724,#725);
#547=VERTEX_POINT('',#727);
#548=LINE('',#728,#729);
#549=LINE('',#731,#732);
#550=VERTEX_POINT('',#734);
#551=VERTEX_POINT('',#735);
#552=LINE('',#736,#737);
#553=LINE('',#739,#740);
#554=LINE('',#742,#743);
#555=VERTEX_POINT('',#745);
#556=VERTEX_POINT('',#746);
#557=LINE('',#747,#748);
#558=LINE('',#750,#751);
#559=LINE('',#753,#754);
#560=VERTEX_POINT('',#756);
#561=VERTEX_POINT('',#757);
#562=LINE('',#758,#759);
#563=LINE('',#761,#762);
#564=LINE('',#764,#765);
#565=VERTEX_POINT('',#767);
#566=VERTEX_POINT('',#768);
#567=LINE('',#769,#770);
#568=VERTEX_POINT('',#772);
#569=CIRCLE('',#773,3.);
#570=VERTEX_POINT('',#777);
#571=LINE('',#778,#779);
#572=VERTEX_POINT('',#781);
#573=CIRCLE('',#782,3.);
#574=VERTEX_POINT('',#786);
#575=LINE('',#787,#788);
#576=VERTEX_POINT('',#790);
#577=CIRCLE('',#791,3.);
#578=VERTEX_POINT('',#795);
#579=LINE('',#796,#797);
#580=CIRCLE('',#799,3.);
#581=VERTEX_POINT('',#803);
#582=VERTEX_POINT('',#804);
#583=LINE('',#805,#806);
#584=VERTEX_POINT('',#808);
#585=LINE('',#809,#810);
#586=VERTEX_POINT('',#812);
#587=LINE('',#813,#814);
#588=LINE('',#816,#817);
#589=LINE('',#819,#820);
#590=LINE('',#822,#823);
#591=LINE('',#825,#826);
#592=LINE('',#828,#829);
#593=CIRCLE('',#831,4.);
#594=CIRCLE('',#835,4.);
#595=CIRCLE('',#839,4.);
#596=CIRCLE('',#843,4.);
#597=LINE('',#847,#848);
#598=LINE('',#850,#851);
#599=LINE('',#853,#854);
#600=LINE('',#856,#857);
#601=LINE('',#859,#860);
#602=LINE('',#862,#863);
#603=LINE('',#865,#866);
#604=LINE('',#868,#869);
#605=CARTESIAN_POINT('',(-23.5,2.75545529808154E-15,-45.));
#606=CARTESIAN_POINT('',(-23.5,-2.2655965784226E-15,37.));
#607=CARTESIAN_POINT('',(-23.5,-2.2655965784226E-15,37.));
#608=VECTOR('',#609,1.);
#609=DIRECTION('',(8.66515531414756E-17,6.12323399573677E-17,-1.));
#610=CARTESIAN_POINT('',(-23.5,23.,-45.));
#611=CARTESIAN_POINT('',(-23.5,2.75545529808154E-15,-45.));
#612=VECTOR('',#613,1.);
#613=DIRECTION('',(0.,1.,0.));
#614=CARTESIAN_POINT('',(-23.5,23.,-51.5));
#615=CARTESIAN_POINT('',(-23.5,23.,-51.5));
#616=VECTOR('',#617,1.);
#617=DIRECTION('',(0.,0.,1.));
#618=CARTESIAN_POINT('',(-23.5,25.,-51.5));
#619=CARTESIAN_POINT('',(-23.5,23.,-51.5));
#620=VECTOR('',#621,1.);
#621=DIRECTION('',(0.,1.,0.));
#622=CARTESIAN_POINT('',(-23.5,25.,37.));
#623=CARTESIAN_POINT('',(-23.5,25.,-51.5));
#624=VECTOR('',#625,1.);
#625=DIRECTION('',(-1.20430972162729E-16,-1.20430972162729E-16,1.));
#626=CARTESIAN_POINT('',(-23.5,-2.2655965784226E-15,37.));
#627=VECTOR('',#628,1.);
#628=DIRECTION('',(0.,1.,0.));
#629=CARTESIAN_POINT('',(23.5,-2.2655965784226E-15,37.));
#630=CARTESIAN_POINT('',(23.5,2.75545529808154E-15,-45.));
#631=CARTESIAN_POINT('',(23.5,2.75545529808154E-15,-45.));
#632=VECTOR('',#633,1.);
#633=DIRECTION('',(-8.66515531414756E-17,-6.12323399573677E-17,1.));
#634=CARTESIAN_POINT('',(23.5,25.,37.));
#635=CARTESIAN_POINT('',(23.5,-2.2655965784226E-15,37.));
#636=VECTOR('',#637,1.);
#637=DIRECTION('',(0.,1.,0.));
#638=CARTESIAN_POINT('',(23.5,25.,-51.5));
#639=CARTESIAN_POINT('',(23.5,25.,37.));
#640=VECTOR('',#641,1.);
#641=DIRECTION('',(1.20430972162729E-16,1.20430972162729E-16,-1.));
#642=CARTESIAN_POINT('',(23.5,23.,-51.5));
#643=CARTESIAN_POINT('',(23.5,25.,-51.5));
#644=VECTOR('',#645,1.);
#645=DIRECTION('',(0.,-1.,0.));
#646=CARTESIAN_POINT('',(23.5,23.,-45.));
#647=CARTESIAN_POINT('',(23.5,23.,-45.));
#648=VECTOR('',#649,1.);
#649=DIRECTION('',(0.,0.,-1.));
#650=CARTESIAN_POINT('',(23.5,2.75545529808154E-15,-45.));
#651=VECTOR('',#652,1.);
#652=DIRECTION('',(0.,1.,0.));
#653=CARTESIAN_POINT('',(29.,25.,39.5));
#654=CARTESIAN_POINT('',(25.,25.,43.5));
#655=AXIS2_PLACEMENT_3D('',#656,#657,#658);
#656=CARTESIAN_POINT('',(25.,25.,39.5));
#657=DIRECTION('',(0.,1.,6.12323399573677E-17));
#658=DIRECTION('',(0.,-6.12323399573677E-17,1.));
#659=CARTESIAN_POINT('',(29.,25.,-47.5));
#660=CARTESIAN_POINT('',(29.,25.,39.5));
#661=VECTOR('',#662,1.);
#662=DIRECTION('',(8.1671578823E-17,8.1671578823E-17,-1.));
#663=CARTESIAN_POINT('',(25.,25.,-51.5));
#664=AXIS2_PLACEMENT_3D('',#665,#666,#667);
#665=CARTESIAN_POINT('',(25.,25.,-47.5));
#666=DIRECTION('',(0.,1.,6.12323399573677E-17));
#667=DIRECTION('',(1.,3.26311457627254E-31,-5.32907051820075E-15));
#668=CARTESIAN_POINT('',(25.,25.,-51.5));
#669=VECTOR('',#670,1.);
#670=DIRECTION('',(-1.,2.368475785867E-15,0.));
#671=CARTESIAN_POINT('',(-23.5,25.,37.));
#672=VECTOR('',#673,1.);
#673=DIRECTION('',(1.,0.,0.));
#674=CARTESIAN_POINT('',(-25.,25.,-51.5));
#675=CARTESIAN_POINT('',(-23.5,25.,-51.5));
#676=VECTOR('',#677,1.);
#677=DIRECTION('',(-1.,0.,0.));
#678=CARTESIAN_POINT('',(-29.,25.,-47.5));
#679=AXIS2_PLACEMENT_3D('',#680,#681,#682);
#680=CARTESIAN_POINT('',(-25.,25.,-47.5));
#681=DIRECTION('',(0.,1.,6.12323399573677E-17));
#682=DIRECTION('',(0.,6.12323399573677E-17,-1.));
#683=CARTESIAN_POINT('',(-29.,25.,39.5));
#684=CARTESIAN_POINT('',(-29.,25.,-47.5));
#685=VECTOR('',#686,1.);
#686=DIRECTION('',(-8.1671578823E-17,-8.1671578823E-17,1.));
#687=CARTESIAN_POINT('',(-25.,25.,43.5));
#688=AXIS2_PLACEMENT_3D('',#689,#690,#691);
#689=CARTESIAN_POINT('',(-25.,25.,39.5));
#690=DIRECTION('',(0.,1.,6.12323399573677E-17));
#691=DIRECTION('',(-1.,-1.08770485875751E-31,1.77635683940025E-15));
#692=CARTESIAN_POINT('',(-25.,25.,43.5));
#693=VECTOR('',#694,1.);
#694=DIRECTION('',(1.,0.,0.));
#695=CARTESIAN_POINT('',(-23.5,23.,-45.));
#696=VECTOR('',#697,1.);
#697=DIRECTION('',(1.,0.,0.));
#698=CARTESIAN_POINT('',(-23.5,2.75545529808154E-15,-45.));
#699=VECTOR('',#700,1.);
#700=DIRECTION('',(1.,0.,0.));
#701=CARTESIAN_POINT('',(25.,-0.999999999999997,-51.5));
#702=CARTESIAN_POINT('',(-25.,-0.999999999999996,-51.5));
#703=CARTESIAN_POINT('',(25.,-0.999999999999997,-51.5));
#704=VECTOR('',#705,1.);
#705=DIRECTION('',(-1.,0.,0.));
#706=CARTESIAN_POINT('',(-25.,-0.999999999999996,-51.5));
#707=VECTOR('',#708,1.);
#708=DIRECTION('',(-1.36642833800019E-16,1.,0.));
#709=CARTESIAN_POINT('',(-23.5,23.,-51.5));
#710=VECTOR('',#711,1.);
#711=DIRECTION('',(1.,0.,0.));
#712=CARTESIAN_POINT('',(25.,-0.999999999999998,-51.5));
#713=VECTOR('',#714,1.);
#714=DIRECTION('',(0.,1.,0.));
#715=CARTESIAN_POINT('',(23.5,-2.2655965784226E-15,37.));
#716=VECTOR('',#717,1.);
#717=DIRECTION('',(-1.,0.,0.));
#718=CARTESIAN_POINT('',(-21.5,1.83697019872103E-15,-30.));
#719=CARTESIAN_POINT('',(21.5,1.83697019872103E-15,-30.));
#720=CARTESIAN_POINT('',(21.5,1.80666351906064E-15,-30.));
#721=VECTOR('',#722,1.);
#722=DIRECTION('',(-1.,-9.17280122350014E-33,0.));
#723=CARTESIAN_POINT('',(21.5,-1.83697019872103E-15,30.));
#724=CARTESIAN_POINT('',(21.5,-1.80666351906064E-15,30.));
#725=VECTOR('',#726,1.);
#726=DIRECTION('',(1.77635683940025E-16,6.02221173020213E-17,-1.));
#727=CARTESIAN_POINT('',(-21.5,-1.83697019872103E-15,30.));
#728=CARTESIAN_POINT('',(-21.5,-1.80666351906064E-15,30.));
#729=VECTOR('',#730,1.);
#730=DIRECTION('',(1.,0.,0.));
#731=CARTESIAN_POINT('',(-21.5,1.80666351906064E-15,-30.));
#732=VECTOR('',#733,1.);
#733=DIRECTION('',(-1.77635683940025E-16,-6.02221173020213E-17,1.));
#734=CARTESIAN_POINT('',(-29.,-0.999999999999997,-47.5));
#735=CARTESIAN_POINT('',(-29.,-1.,39.5));
#736=CARTESIAN_POINT('',(-29.,-0.999999999999997,-47.5));
#737=VECTOR('',#738,1.);
#738=DIRECTION('',(-8.1671578823E-17,-5.87014472790313E-17,1.));
#739=CARTESIAN_POINT('',(-29.,-1.,39.5));
#740=VECTOR('',#741,1.);
#741=DIRECTION('',(0.,1.,2.73285667600038E-16));
#742=CARTESIAN_POINT('',(-29.,-0.999999999999996,-47.5));
#743=VECTOR('',#744,1.);
#744=DIRECTION('',(-1.36642833800019E-16,1.,0.));
#745=CARTESIAN_POINT('',(-25.,-1.,43.5));
#746=CARTESIAN_POINT('',(25.,-1.,43.5));
#747=CARTESIAN_POINT('',(-25.,-1.,43.5));
#748=VECTOR('',#749,1.);
#749=DIRECTION('',(1.,0.,0.));
#750=CARTESIAN_POINT('',(25.,-1.,43.5));
#751=VECTOR('',#752,1.);
#752=DIRECTION('',(0.,1.,0.));
#753=CARTESIAN_POINT('',(-25.,-1.,43.5));
#754=VECTOR('',#755,1.);
#755=DIRECTION('',(0.,1.,0.));
#756=CARTESIAN_POINT('',(29.,-1.,39.5));
#757=CARTESIAN_POINT('',(29.,-0.999999999999997,-47.5));
#758=CARTESIAN_POINT('',(29.,-1.,39.5));
#759=VECTOR('',#760,1.);
#760=DIRECTION('',(8.1671578823E-17,5.87014472790313E-17,-1.));
#761=CARTESIAN_POINT('',(29.,-0.999999999999998,-47.5));
#762=VECTOR('',#763,1.);
#763=DIRECTION('',(0.,1.,-5.46571335200077E-16));
#764=CARTESIAN_POINT('',(29.,-1.,39.5));
#765=VECTOR('',#766,1.);
#766=DIRECTION('',(0.,1.,0.));
#767=CARTESIAN_POINT('',(25.,-2.,-50.5));
#768=CARTESIAN_POINT('',(-25.,-2.,-50.5));
#769=CARTESIAN_POINT('',(25.,-2.,-50.5));
#770=VECTOR('',#771,1.);
#771=DIRECTION('',(-1.,0.,0.));
#772=CARTESIAN_POINT('',(28.,-2.,-47.5));
#773=AXIS2_PLACEMENT_3D('',#774,#775,#776);
#774=CARTESIAN_POINT('',(25.,-2.,-47.5));
#775=DIRECTION('',(0.,-1.,-6.12323399573677E-17));
#776=DIRECTION('',(0.,6.12323399573676E-17,-1.));
#777=CARTESIAN_POINT('',(28.,-2.,39.5));
#778=CARTESIAN_POINT('',(28.,-2.,39.5));
#779=VECTOR('',#780,1.);
#780=DIRECTION('',(8.1671578823E-17,6.125368411725E-17,-1.));
#781=CARTESIAN_POINT('',(25.,-2.,42.5));
#782=AXIS2_PLACEMENT_3D('',#783,#784,#785);
#783=CARTESIAN_POINT('',(25.,-2.,39.5));
#784=DIRECTION('',(0.,-1.,-6.12323399573677E-17));
#785=DIRECTION('',(1.,0.,0.));
#786=CARTESIAN_POINT('',(-25.,-2.,42.5));
#787=CARTESIAN_POINT('',(-25.,-2.,42.5));
#788=VECTOR('',#789,1.);
#789=DIRECTION('',(1.,0.,-1.4210854715202E-16));
#790=CARTESIAN_POINT('',(-28.,-2.,39.5));
#791=AXIS2_PLACEMENT_3D('',#792,#793,#794);
#792=CARTESIAN_POINT('',(-25.,-2.,39.5));
#793=DIRECTION('',(0.,-1.,-6.12323399573677E-17));
#794=DIRECTION('',(0.,-6.12323399573676E-17,1.));
#795=CARTESIAN_POINT('',(-28.,-2.,-47.5));
#796=CARTESIAN_POINT('',(-28.,-2.,-47.5));
#797=VECTOR('',#798,1.);
#798=DIRECTION('',(-8.1671578823E-17,-5.87014472790313E-17,1.));
#799=AXIS2_PLACEMENT_3D('',#800,#801,#802);
#800=CARTESIAN_POINT('',(-25.,-2.,-47.5));
#801=DIRECTION('',(0.,-1.,-6.12323399573677E-17));
#802=DIRECTION('',(-1.,0.,0.));
#803=CARTESIAN_POINT('',(21.5,-2.,-30.));
#804=CARTESIAN_POINT('',(-21.5,-2.,-30.));
#805=CARTESIAN_POINT('',(21.5,-2.,-30.));
#806=VECTOR('',#807,1.);
#807=DIRECTION('',(-1.,0.,0.));
#808=CARTESIAN_POINT('',(-21.5,-2.,30.));
#809=CARTESIAN_POINT('',(-21.5,-2.,-30.));
#810=VECTOR('',#811,1.);
#811=DIRECTION('',(-1.77635683940025E-16,-5.9211894646675E-17,1.));
#812=CARTESIAN_POINT('',(21.5,-2.,30.));
#813=CARTESIAN_POINT('',(-21.5,-2.,30.));
#814=VECTOR('',#815,1.);
#815=DIRECTION('',(1.,0.,0.));
#816=CARTESIAN_POINT('',(21.5,-2.,30.));
#817=VECTOR('',#818,1.);
#818=DIRECTION('',(1.77635683940025E-16,5.9211894646675E-17,-1.));
#819=CARTESIAN_POINT('',(-21.5,-2.,-30.));
#820=VECTOR('',#821,1.);
#821=DIRECTION('',(0.,1.,0.));
#822=CARTESIAN_POINT('',(21.5,-2.,-30.));
#823=VECTOR('',#824,1.);
#824=DIRECTION('',(0.,1.,0.));
#825=CARTESIAN_POINT('',(21.5,-2.,30.));
#826=VECTOR('',#827,1.);
#827=DIRECTION('',(0.,1.,0.));
#828=CARTESIAN_POINT('',(-21.5,-2.,30.));
#829=VECTOR('',#830,1.);
#830=DIRECTION('',(0.,1.,0.));
#831=AXIS2_PLACEMENT_3D('',#832,#833,#834);
#832=CARTESIAN_POINT('',(25.,-0.999999999999996,-47.5));
#833=DIRECTION('',(0.,-1.,1.20430972162729E-16));
#834=DIRECTION('',(0.,-1.20430972162729E-16,-1.));
#835=AXIS2_PLACEMENT_3D('',#836,#837,#838);
#836=CARTESIAN_POINT('',(-25.,-0.999999999999996,-47.5));
#837=DIRECTION('',(6.02154860813644E-17,-1.,0.));
#838=DIRECTION('',(-1.,-6.02154860813644E-17,0.));
#839=AXIS2_PLACEMENT_3D('',#840,#841,#842);
#840=CARTESIAN_POINT('',(-25.,-1.00000000000001,39.5));
#841=DIRECTION('',(0.,-1.,-1.20430972162729E-16));
#842=DIRECTION('',(0.,-1.20430972162729E-16,1.));
#843=AXIS2_PLACEMENT_3D('',#844,#845,#846);
#844=CARTESIAN_POINT('',(25.,-1.,39.5));
#845=DIRECTION('',(0.,-1.,0.));
#846=DIRECTION('',(1.,0.,0.));
#847=CARTESIAN_POINT('',(25.,-2.,-50.5));
#848=VECTOR('',#849,1.);
#849=DIRECTION('',(0.,0.707106781186548,-0.707106781186547));
#850=CARTESIAN_POINT('',(-25.,-0.999999999999997,-51.5));
#851=VECTOR('',#852,1.);
#852=DIRECTION('',(2.51214793389404E-15,-0.707106781186548,0.707106781186547));
#853=CARTESIAN_POINT('',(-28.,-2.,-47.5));
#854=VECTOR('',#855,1.);
#855=DIRECTION('',(-0.707106781186548,0.707106781186547,0.));
#856=CARTESIAN_POINT('',(-29.,-1.,39.5));
#857=VECTOR('',#858,1.);
#858=DIRECTION('',(0.70710678118655,-0.707106781186545,0.));
#859=CARTESIAN_POINT('',(-25.,-2.,42.5));
#860=VECTOR('',#861,1.);
#861=DIRECTION('',(0.,0.707106781186547,0.707106781186548));
#862=CARTESIAN_POINT('',(25.,-1.,43.5));
#863=VECTOR('',#864,1.);
#864=DIRECTION('',(-2.51214793389404E-15,-0.707106781186548,-0.707106781186547));
#865=CARTESIAN_POINT('',(28.,-2.,39.5));
#866=VECTOR('',#867,1.);
#867=DIRECTION('',(0.707106781186548,0.707106781186547,0.));
#868=CARTESIAN_POINT('',(29.,-0.999999999999997,-47.5));
#869=VECTOR('',#870,1.);
#870=DIRECTION('',(-0.707106781186548,-0.707106781186547,0.));
ENDSEC;
END-ISO-10303-21;
