ISO-10303-21;
HEADER;
FILE_DESCRIPTION(('STEP AP203'),
    '1');
FILE_NAME('ίχεικθ',
    '2026-09-26T20:25:46',
    ('grigo'),
    (''),
    'C3D Converter',
    'C3D Toolkit',
    '');
/**/
FILE_SCHEMA(('CONFIG_CONTROL_DESIGN'));
ENDSEC;

DATA;
#1=PRODUCT_DEFINITION('','UNSPECIFIED',#18,#21);
#2=SHAPE_DEFINITION_REPRESENTATION(#16,#3);
#3=SHAPE_REPRESENTATION('NONE',(#4),#8);
#4=AXIS2_PLACEMENT_3D('',#5,#6,#7);
#5=CARTESIAN_POINT('',(0.,0.,0.));
#6=DIRECTION('',(0.,0.,1.));
#7=DIRECTION('',(1.,0.,0.));
#8=(GEOMETRIC_REPRESENTATION_CONTEXT(3)GLOBAL_UNCERTAINTY_ASSIGNED_CONTEXT((#10))
GLOBAL_UNIT_ASSIGNED_CONTEXT((#9,#11,#12))REPRESENTATION_CONTEXT('NONE','NONE'));
#9=(LENGTH_UNIT()NAMED_UNIT(*)SI_UNIT(.MILLI.,.METRE.));
#10=UNCERTAINTY_MEASURE_WITH_UNIT(LENGTH_MEASURE(1.E-5),#9,'NONE','NONE');
#11=(NAMED_UNIT(*)PLANE_ANGLE_UNIT()SI_UNIT($,.RADIAN.));
#12=(NAMED_UNIT(*)SI_UNIT($,.STERADIAN.)SOLID_ANGLE_UNIT());
#13=GEOMETRIC_CURVE_SET('',(#43,#50,#56,#62,#68,#74,#80,#86,#92,#98,#104,#110,#116,
#122,#128,#134,#140,#146,#152,#158,#164,#170,#176,#182,#188,#194,#200,#206,#212,
#218,#224,#230,#236));
#14=GEOMETRICALLY_BOUNDED_WIREFRAME_SHAPE_REPRESENTATION('NONE',(#13),#8);
#15=SHAPE_REPRESENTATION_RELATIONSHIP('','',#3,#14);
#16=PRODUCT_DEFINITION_SHAPE('NONE','NONE',#1);
#17=MECHANICAL_CONTEXT('NONE',#22,'mechanical');
#18=PRODUCT_DEFINITION_FORMATION_WITH_SPECIFIED_SOURCE('ANY','UNSPECIFIED',#19,.NOT_KNOWN.);
#19=PRODUCT('','\X2\042F044704350439043A0438\X0\','NONE',(#17));
#20=PRODUCT_RELATED_PRODUCT_CATEGORY('detail','',(#19));
#21=DESIGN_CONTEXT('detailed design',#22,'design');
#22=APPLICATION_CONTEXT('configuration controlled 3d designs of mechanical parts and assemblies');
#23=APPLICATION_PROTOCOL_DEFINITION('international standard','config_control_design',
1994,#22);
#24=CC_DESIGN_DATE_AND_TIME_ASSIGNMENT(#25,#29,(#1));
#25=DATE_AND_TIME(#26,#27);
#26=CALENDAR_DATE(0,1,1);
#27=LOCAL_TIME(0,0,0.,#28);
#28=COORDINATED_UNIVERSAL_TIME_OFFSET(0,0,.AHEAD.);
#29=DATE_TIME_ROLE('creation_date');
#30=CC_DESIGN_APPROVAL(#31,(#1));
#31=APPROVAL(#32,'UNSPECIFIED');
#32=APPROVAL_STATUS('not_yet_approved');
#33=APPROVAL_DATE_TIME(#34,#31);
#34=DATE_AND_TIME(#35,#36);
#35=CALENDAR_DATE(0,1,1);
#36=LOCAL_TIME(0,0,0.,#37);
#37=COORDINATED_UNIVERSAL_TIME_OFFSET(0,0,.AHEAD.);
#38=PERSON('UNSPECIFIED','grigo','UNSPECIFIED',('UNSPECIFIED'),('UNSPECIFIED'),(
'UNSPECIFIED'));
#39=ORGANIZATION('UNSPECIFIED','UNSPECIFIED','UNSPECIFIED');
#40=PERSON_AND_ORGANIZATION(#38,#39);
#41=PERSON_AND_ORGANIZATION_ROLE('creator');
#42=CC_DESIGN_PERSON_AND_ORGANIZATION_ASSIGNMENT(#40,#41,(#18,#1));
#43=CIRCLE('',#242,13.);
#44=COLOUR_RGB('',0.2,0.674509803921569,0.792156862745098);
#45=PRESENTATION_STYLE_ASSIGNMENT((#46));
#46=CURVE_STYLE('',#47,POSITIVE_LENGTH_MEASURE(0.1),#44);
#47=PRE_DEFINED_CURVE_FONT('continuous');
#48=MECHANICAL_DESIGN_GEOMETRIC_PRESENTATION_REPRESENTATION('NONE',(#49,#55,#61,
#67,#73,#79,#85,#91,#97,#103,#109,#115,#121,#127,#133,#139,#145,#151,#157,#163,#169,
#175,#181,#187,#193,#199,#205,#211,#217,#223,#229,#235,#241),#8);
#49=STYLED_ITEM('',(#45),#43);
#50=CIRCLE('',#246,13.);
#51=COLOUR_RGB('',0.2,0.674509803921569,0.792156862745098);
#52=PRESENTATION_STYLE_ASSIGNMENT((#53));
#53=CURVE_STYLE('',#54,POSITIVE_LENGTH_MEASURE(0.1),#51);
#54=PRE_DEFINED_CURVE_FONT('continuous');
#55=STYLED_ITEM('',(#52),#50);
#56=CIRCLE('',#250,13.);
#57=COLOUR_RGB('',0.2,0.674509803921569,0.792156862745098);
#58=PRESENTATION_STYLE_ASSIGNMENT((#59));
#59=CURVE_STYLE('',#60,POSITIVE_LENGTH_MEASURE(0.1),#57);
#60=PRE_DEFINED_CURVE_FONT('continuous');
#61=STYLED_ITEM('',(#58),#56);
#62=CIRCLE('',#254,13.);
#63=COLOUR_RGB('',0.2,0.674509803921569,0.792156862745098);
#64=PRESENTATION_STYLE_ASSIGNMENT((#65));
#65=CURVE_STYLE('',#66,POSITIVE_LENGTH_MEASURE(0.1),#63);
#66=PRE_DEFINED_CURVE_FONT('continuous');
#67=STYLED_ITEM('',(#64),#62);
#68=CIRCLE('',#258,13.);
#69=COLOUR_RGB('',0.2,0.674509803921569,0.792156862745098);
#70=PRESENTATION_STYLE_ASSIGNMENT((#71));
#71=CURVE_STYLE('',#72,POSITIVE_LENGTH_MEASURE(0.1),#69);
#72=PRE_DEFINED_CURVE_FONT('continuous');
#73=STYLED_ITEM('',(#70),#68);
#74=CIRCLE('',#262,13.);
#75=COLOUR_RGB('',0.2,0.674509803921569,0.792156862745098);
#76=PRESENTATION_STYLE_ASSIGNMENT((#77));
#77=CURVE_STYLE('',#78,POSITIVE_LENGTH_MEASURE(0.1),#75);
#78=PRE_DEFINED_CURVE_FONT('continuous');
#79=STYLED_ITEM('',(#76),#74);
#80=CIRCLE('',#266,13.);
#81=COLOUR_RGB('',0.2,0.674509803921569,0.792156862745098);
#82=PRESENTATION_STYLE_ASSIGNMENT((#83));
#83=CURVE_STYLE('',#84,POSITIVE_LENGTH_MEASURE(0.1),#81);
#84=PRE_DEFINED_CURVE_FONT('continuous');
#85=STYLED_ITEM('',(#82),#80);
#86=CIRCLE('',#270,13.);
#87=COLOUR_RGB('',0.2,0.674509803921569,0.792156862745098);
#88=PRESENTATION_STYLE_ASSIGNMENT((#89));
#89=CURVE_STYLE('',#90,POSITIVE_LENGTH_MEASURE(0.1),#87);
#90=PRE_DEFINED_CURVE_FONT('continuous');
#91=STYLED_ITEM('',(#88),#86);
#92=CIRCLE('',#274,13.);
#93=COLOUR_RGB('',0.2,0.674509803921569,0.792156862745098);
#94=PRESENTATION_STYLE_ASSIGNMENT((#95));
#95=CURVE_STYLE('',#96,POSITIVE_LENGTH_MEASURE(0.1),#93);
#96=PRE_DEFINED_CURVE_FONT('continuous');
#97=STYLED_ITEM('',(#94),#92);
#98=CIRCLE('',#278,13.);
#99=COLOUR_RGB('',0.2,0.674509803921569,0.792156862745098);
#100=PRESENTATION_STYLE_ASSIGNMENT((#101));
#101=CURVE_STYLE('',#102,POSITIVE_LENGTH_MEASURE(0.1),#99);
#102=PRE_DEFINED_CURVE_FONT('continuous');
#103=STYLED_ITEM('',(#100),#98);
#104=CIRCLE('',#282,13.);
#105=COLOUR_RGB('',0.2,0.674509803921569,0.792156862745098);
#106=PRESENTATION_STYLE_ASSIGNMENT((#107));
#107=CURVE_STYLE('',#108,POSITIVE_LENGTH_MEASURE(0.1),#105);
#108=PRE_DEFINED_CURVE_FONT('continuous');
#109=STYLED_ITEM('',(#106),#104);
#110=CIRCLE('',#286,13.);
#111=COLOUR_RGB('',0.2,0.674509803921569,0.792156862745098);
#112=PRESENTATION_STYLE_ASSIGNMENT((#113));
#113=CURVE_STYLE('',#114,POSITIVE_LENGTH_MEASURE(0.1),#111);
#114=PRE_DEFINED_CURVE_FONT('continuous');
#115=STYLED_ITEM('',(#112),#110);
#116=CIRCLE('',#290,13.);
#117=COLOUR_RGB('',0.2,0.674509803921569,0.792156862745098);
#118=PRESENTATION_STYLE_ASSIGNMENT((#119));
#119=CURVE_STYLE('',#120,POSITIVE_LENGTH_MEASURE(0.1),#117);
#120=PRE_DEFINED_CURVE_FONT('continuous');
#121=STYLED_ITEM('',(#118),#116);
#122=CIRCLE('',#294,13.);
#123=COLOUR_RGB('',0.2,0.674509803921569,0.792156862745098);
#124=PRESENTATION_STYLE_ASSIGNMENT((#125));
#125=CURVE_STYLE('',#126,POSITIVE_LENGTH_MEASURE(0.1),#123);
#126=PRE_DEFINED_CURVE_FONT('continuous');
#127=STYLED_ITEM('',(#124),#122);
#128=CIRCLE('',#298,13.);
#129=COLOUR_RGB('',0.2,0.674509803921569,0.792156862745098);
#130=PRESENTATION_STYLE_ASSIGNMENT((#131));
#131=CURVE_STYLE('',#132,POSITIVE_LENGTH_MEASURE(0.1),#129);
#132=PRE_DEFINED_CURVE_FONT('continuous');
#133=STYLED_ITEM('',(#130),#128);
#134=CIRCLE('',#302,13.);
#135=COLOUR_RGB('',0.2,0.674509803921569,0.792156862745098);
#136=PRESENTATION_STYLE_ASSIGNMENT((#137));
#137=CURVE_STYLE('',#138,POSITIVE_LENGTH_MEASURE(0.1),#135);
#138=PRE_DEFINED_CURVE_FONT('continuous');
#139=STYLED_ITEM('',(#136),#134);
#140=CIRCLE('',#306,13.);
#141=COLOUR_RGB('',0.2,0.674509803921569,0.792156862745098);
#142=PRESENTATION_STYLE_ASSIGNMENT((#143));
#143=CURVE_STYLE('',#144,POSITIVE_LENGTH_MEASURE(0.1),#141);
#144=PRE_DEFINED_CURVE_FONT('continuous');
#145=STYLED_ITEM('',(#142),#140);
#146=CIRCLE('',#310,13.);
#147=COLOUR_RGB('',0.2,0.674509803921569,0.792156862745098);
#148=PRESENTATION_STYLE_ASSIGNMENT((#149));
#149=CURVE_STYLE('',#150,POSITIVE_LENGTH_MEASURE(0.1),#147);
#150=PRE_DEFINED_CURVE_FONT('continuous');
#151=STYLED_ITEM('',(#148),#146);
#152=CIRCLE('',#314,13.);
#153=COLOUR_RGB('',0.2,0.674509803921569,0.792156862745098);
#154=PRESENTATION_STYLE_ASSIGNMENT((#155));
#155=CURVE_STYLE('',#156,POSITIVE_LENGTH_MEASURE(0.1),#153);
#156=PRE_DEFINED_CURVE_FONT('continuous');
#157=STYLED_ITEM('',(#154),#152);
#158=CIRCLE('',#318,13.);
#159=COLOUR_RGB('',0.2,0.674509803921569,0.792156862745098);
#160=PRESENTATION_STYLE_ASSIGNMENT((#161));
#161=CURVE_STYLE('',#162,POSITIVE_LENGTH_MEASURE(0.1),#159);
#162=PRE_DEFINED_CURVE_FONT('continuous');
#163=STYLED_ITEM('',(#160),#158);
#164=CIRCLE('',#322,13.);
#165=COLOUR_RGB('',0.2,0.674509803921569,0.792156862745098);
#166=PRESENTATION_STYLE_ASSIGNMENT((#167));
#167=CURVE_STYLE('',#168,POSITIVE_LENGTH_MEASURE(0.1),#165);
#168=PRE_DEFINED_CURVE_FONT('continuous');
#169=STYLED_ITEM('',(#166),#164);
#170=CIRCLE('',#326,13.);
#171=COLOUR_RGB('',0.2,0.674509803921569,0.792156862745098);
#172=PRESENTATION_STYLE_ASSIGNMENT((#173));
#173=CURVE_STYLE('',#174,POSITIVE_LENGTH_MEASURE(0.1),#171);
#174=PRE_DEFINED_CURVE_FONT('continuous');
#175=STYLED_ITEM('',(#172),#170);
#176=CIRCLE('',#330,13.);
#177=COLOUR_RGB('',0.2,0.674509803921569,0.792156862745098);
#178=PRESENTATION_STYLE_ASSIGNMENT((#179));
#179=CURVE_STYLE('',#180,POSITIVE_LENGTH_MEASURE(0.1),#177);
#180=PRE_DEFINED_CURVE_FONT('continuous');
#181=STYLED_ITEM('',(#178),#176);
#182=CIRCLE('',#334,13.);
#183=COLOUR_RGB('',0.2,0.674509803921569,0.792156862745098);
#184=PRESENTATION_STYLE_ASSIGNMENT((#185));
#185=CURVE_STYLE('',#186,POSITIVE_LENGTH_MEASURE(0.1),#183);
#186=PRE_DEFINED_CURVE_FONT('continuous');
#187=STYLED_ITEM('',(#184),#182);
#188=CIRCLE('',#338,13.);
#189=COLOUR_RGB('',0.2,0.674509803921569,0.792156862745098);
#190=PRESENTATION_STYLE_ASSIGNMENT((#191));
#191=CURVE_STYLE('',#192,POSITIVE_LENGTH_MEASURE(0.1),#189);
#192=PRE_DEFINED_CURVE_FONT('continuous');
#193=STYLED_ITEM('',(#190),#188);
#194=CIRCLE('',#342,13.);
#195=COLOUR_RGB('',0.2,0.674509803921569,0.792156862745098);
#196=PRESENTATION_STYLE_ASSIGNMENT((#197));
#197=CURVE_STYLE('',#198,POSITIVE_LENGTH_MEASURE(0.1),#195);
#198=PRE_DEFINED_CURVE_FONT('continuous');
#199=STYLED_ITEM('',(#196),#194);
#200=CIRCLE('',#346,13.);
#201=COLOUR_RGB('',0.2,0.674509803921569,0.792156862745098);
#202=PRESENTATION_STYLE_ASSIGNMENT((#203));
#203=CURVE_STYLE('',#204,POSITIVE_LENGTH_MEASURE(0.1),#201);
#204=PRE_DEFINED_CURVE_FONT('continuous');
#205=STYLED_ITEM('',(#202),#200);
#206=CIRCLE('',#350,13.);
#207=COLOUR_RGB('',0.2,0.674509803921569,0.792156862745098);
#208=PRESENTATION_STYLE_ASSIGNMENT((#209));
#209=CURVE_STYLE('',#210,POSITIVE_LENGTH_MEASURE(0.1),#207);
#210=PRE_DEFINED_CURVE_FONT('continuous');
#211=STYLED_ITEM('',(#208),#206);
#212=CIRCLE('',#354,13.);
#213=COLOUR_RGB('',0.2,0.674509803921569,0.792156862745098);
#214=PRESENTATION_STYLE_ASSIGNMENT((#215));
#215=CURVE_STYLE('',#216,POSITIVE_LENGTH_MEASURE(0.1),#213);
#216=PRE_DEFINED_CURVE_FONT('continuous');
#217=STYLED_ITEM('',(#214),#212);
#218=CIRCLE('',#358,13.);
#219=COLOUR_RGB('',0.2,0.674509803921569,0.792156862745098);
#220=PRESENTATION_STYLE_ASSIGNMENT((#221));
#221=CURVE_STYLE('',#222,POSITIVE_LENGTH_MEASURE(0.1),#219);
#222=PRE_DEFINED_CURVE_FONT('continuous');
#223=STYLED_ITEM('',(#220),#218);
#224=CIRCLE('',#362,13.);
#225=COLOUR_RGB('',0.2,0.674509803921569,0.792156862745098);
#226=PRESENTATION_STYLE_ASSIGNMENT((#227));
#227=CURVE_STYLE('',#228,POSITIVE_LENGTH_MEASURE(0.1),#225);
#228=PRE_DEFINED_CURVE_FONT('continuous');
#229=STYLED_ITEM('',(#226),#224);
#230=CIRCLE('',#366,13.);
#231=COLOUR_RGB('',0.2,0.674509803921569,0.792156862745098);
#232=PRESENTATION_STYLE_ASSIGNMENT((#233));
#233=CURVE_STYLE('',#234,POSITIVE_LENGTH_MEASURE(0.1),#231);
#234=PRE_DEFINED_CURVE_FONT('continuous');
#235=STYLED_ITEM('',(#232),#230);
#236=CIRCLE('',#370,13.);
#237=COLOUR_RGB('',0.2,0.674509803921569,0.792156862745098);
#238=PRESENTATION_STYLE_ASSIGNMENT((#239));
#239=CURVE_STYLE('',#240,POSITIVE_LENGTH_MEASURE(0.1),#237);
#240=PRE_DEFINED_CURVE_FONT('continuous');
#241=STYLED_ITEM('',(#238),#236);
#242=AXIS2_PLACEMENT_3D('',#243,#244,#245);
#243=CARTESIAN_POINT('',(-44.375,200.,2.36955644648003E-14));
#244=DIRECTION('',(0.,1.,6.12323399573677E-17));
#245=DIRECTION('',(6.12323399573677E-17,6.12323399573677E-17,-1.));
#246=AXIS2_PLACEMENT_3D('',#247,#248,#249);
#247=CARTESIAN_POINT('',(-44.375,200.,-37.5));
#248=DIRECTION('',(0.,1.,6.12323399573677E-17));
#249=DIRECTION('',(6.12323399573677E-17,6.12323399573677E-17,-1.));
#250=AXIS2_PLACEMENT_3D('',#251,#252,#253);
#251=CARTESIAN_POINT('',(-44.375,200.,-75.));
#252=DIRECTION('',(0.,1.,6.12323399573677E-17));
#253=DIRECTION('',(6.12323399573677E-17,6.12323399573677E-17,-1.));
#254=AXIS2_PLACEMENT_3D('',#255,#256,#257);
#255=CARTESIAN_POINT('',(-74.375,200.,2.00216240673582E-14));
#256=DIRECTION('',(0.,1.,6.12323399573677E-17));
#257=DIRECTION('',(6.12323399573677E-17,6.12323399573677E-17,-1.));
#258=AXIS2_PLACEMENT_3D('',#259,#260,#261);
#259=CARTESIAN_POINT('',(-74.375,200.,-37.5));
#260=DIRECTION('',(0.,1.,6.12323399573677E-17));
#261=DIRECTION('',(6.12323399573677E-17,6.12323399573677E-17,-1.));
#262=AXIS2_PLACEMENT_3D('',#263,#264,#265);
#263=CARTESIAN_POINT('',(-74.375,200.,-75.));
#264=DIRECTION('',(0.,1.,6.12323399573677E-17));
#265=DIRECTION('',(6.12323399573677E-17,6.12323399573677E-17,-1.));
#266=AXIS2_PLACEMENT_3D('',#267,#268,#269);
#267=CARTESIAN_POINT('',(-104.375,200.,1.63476836699162E-14));
#268=DIRECTION('',(0.,1.,6.12323399573677E-17));
#269=DIRECTION('',(6.12323399573677E-17,6.12323399573677E-17,-1.));
#270=AXIS2_PLACEMENT_3D('',#271,#272,#273);
#271=CARTESIAN_POINT('',(-104.375,200.,-37.5));
#272=DIRECTION('',(0.,1.,6.12323399573677E-17));
#273=DIRECTION('',(6.12323399573677E-17,6.12323399573677E-17,-1.));
#274=AXIS2_PLACEMENT_3D('',#275,#276,#277);
#275=CARTESIAN_POINT('',(-104.375,200.,-75.));
#276=DIRECTION('',(0.,1.,6.12323399573677E-17));
#277=DIRECTION('',(6.12323399573677E-17,6.12323399573677E-17,-1.));
#278=AXIS2_PLACEMENT_3D('',#279,#280,#281);
#279=CARTESIAN_POINT('',(-44.375,200.,2.36064181522662E-14));
#280=DIRECTION('',(0.,1.,6.12323399573677E-17));
#281=DIRECTION('',(6.12323399573677E-17,6.12323399573677E-17,-1.));
#282=AXIS2_PLACEMENT_3D('',#283,#284,#285);
#283=CARTESIAN_POINT('',(-44.375,200.,37.5));
#284=DIRECTION('',(0.,1.,6.12323399573677E-17));
#285=DIRECTION('',(6.12323399573677E-17,6.12323399573677E-17,-1.));
#286=AXIS2_PLACEMENT_3D('',#287,#288,#289);
#287=CARTESIAN_POINT('',(-44.375,200.,75.));
#288=DIRECTION('',(0.,1.,6.12323399573677E-17));
#289=DIRECTION('',(6.12323399573677E-17,6.12323399573677E-17,-1.));
#290=AXIS2_PLACEMENT_3D('',#291,#292,#293);
#291=CARTESIAN_POINT('',(-74.375,200.,1.258459695994E-14));
#292=DIRECTION('',(0.,1.,6.12323399573677E-17));
#293=DIRECTION('',(6.12323399573677E-17,6.12323399573677E-17,-1.));
#294=AXIS2_PLACEMENT_3D('',#295,#296,#297);
#295=CARTESIAN_POINT('',(-74.375,200.,37.5));
#296=DIRECTION('',(0.,1.,6.12323399573677E-17));
#297=DIRECTION('',(6.12323399573677E-17,6.12323399573677E-17,-1.));
#298=AXIS2_PLACEMENT_3D('',#299,#300,#301);
#299=CARTESIAN_POINT('',(-74.375,200.,75.));
#300=DIRECTION('',(0.,1.,6.12323399573677E-17));
#301=DIRECTION('',(6.12323399573677E-17,6.12323399573677E-17,-1.));
#302=AXIS2_PLACEMENT_3D('',#303,#304,#305);
#303=CARTESIAN_POINT('',(-104.375,200.,1.56277576761384E-15));
#304=DIRECTION('',(0.,1.,6.12323399573677E-17));
#305=DIRECTION('',(6.12323399573677E-17,6.12323399573677E-17,-1.));
#306=AXIS2_PLACEMENT_3D('',#307,#308,#309);
#307=CARTESIAN_POINT('',(-104.375,200.,37.5));
#308=DIRECTION('',(0.,1.,6.12323399573677E-17));
#309=DIRECTION('',(6.12323399573677E-17,6.12323399573677E-17,-1.));
#310=AXIS2_PLACEMENT_3D('',#311,#312,#313);
#311=CARTESIAN_POINT('',(-104.375,200.,75.));
#312=DIRECTION('',(0.,1.,6.12323399573677E-17));
#313=DIRECTION('',(6.12323399573677E-17,6.12323399573677E-17,-1.));
#314=AXIS2_PLACEMENT_3D('',#315,#316,#317);
#315=CARTESIAN_POINT('',(-44.375,200.,2.36955644648003E-14));
#316=DIRECTION('',(0.,1.,6.12323399573677E-17));
#317=DIRECTION('',(6.12323399573677E-17,6.12323399573677E-17,-1.));
#318=AXIS2_PLACEMENT_3D('',#319,#320,#321);
#319=CARTESIAN_POINT('',(-44.375,200.,-37.5));
#320=DIRECTION('',(0.,1.,6.12323399573677E-17));
#321=DIRECTION('',(6.12323399573677E-17,6.12323399573677E-17,-1.));
#322=AXIS2_PLACEMENT_3D('',#323,#324,#325);
#323=CARTESIAN_POINT('',(-44.375,200.,-75.));
#324=DIRECTION('',(0.,1.,6.12323399573677E-17));
#325=DIRECTION('',(6.12323399573677E-17,6.12323399573677E-17,-1.));
#326=AXIS2_PLACEMENT_3D('',#327,#328,#329);
#327=CARTESIAN_POINT('',(-14.375,200.,2.36955644648003E-14));
#328=DIRECTION('',(0.,1.,6.12323399573677E-17));
#329=DIRECTION('',(6.12323399573677E-17,6.12323399573677E-17,-1.));
#330=AXIS2_PLACEMENT_3D('',#331,#332,#333);
#331=CARTESIAN_POINT('',(-14.375,200.,-37.5));
#332=DIRECTION('',(0.,1.,6.12323399573677E-17));
#333=DIRECTION('',(6.12323399573677E-17,6.12323399573677E-17,-1.));
#334=AXIS2_PLACEMENT_3D('',#335,#336,#337);
#335=CARTESIAN_POINT('',(-14.375,200.,-75.));
#336=DIRECTION('',(0.,1.,6.12323399573677E-17));
#337=DIRECTION('',(6.12323399573677E-17,6.12323399573677E-17,-1.));
#338=AXIS2_PLACEMENT_3D('',#339,#340,#341);
#339=CARTESIAN_POINT('',(15.625,200.,2.36955644648003E-14));
#340=DIRECTION('',(0.,1.,6.12323399573677E-17));
#341=DIRECTION('',(6.12323399573677E-17,6.12323399573677E-17,-1.));
#342=AXIS2_PLACEMENT_3D('',#343,#344,#345);
#343=CARTESIAN_POINT('',(15.625,200.,-37.5));
#344=DIRECTION('',(0.,1.,6.12323399573677E-17));
#345=DIRECTION('',(6.12323399573677E-17,6.12323399573677E-17,-1.));
#346=AXIS2_PLACEMENT_3D('',#347,#348,#349);
#347=CARTESIAN_POINT('',(15.625,200.,-75.));
#348=DIRECTION('',(0.,1.,6.12323399573677E-17));
#349=DIRECTION('',(6.12323399573677E-17,6.12323399573677E-17,-1.));
#350=AXIS2_PLACEMENT_3D('',#351,#352,#353);
#351=CARTESIAN_POINT('',(-14.375,200.,3.83021797420344E-14));
#352=DIRECTION('',(0.,1.,6.12323399573677E-17));
#353=DIRECTION('',(6.12323399573677E-17,6.12323399573677E-17,-1.));
#354=AXIS2_PLACEMENT_3D('',#355,#356,#357);
#355=CARTESIAN_POINT('',(-14.375,200.,37.5));
#356=DIRECTION('',(0.,1.,6.12323399573677E-17));
#357=DIRECTION('',(6.12323399573677E-17,6.12323399573677E-17,-1.));
#358=AXIS2_PLACEMENT_3D('',#359,#360,#361);
#359=CARTESIAN_POINT('',(-14.375,200.,75.));
#360=DIRECTION('',(0.,1.,6.12323399573677E-17));
#361=DIRECTION('',(6.12323399573677E-17,6.12323399573677E-17,-1.));
#362=AXIS2_PLACEMENT_3D('',#363,#364,#365);
#363=CARTESIAN_POINT('',(15.625,200.,5.29979413318027E-14));
#364=DIRECTION('',(0.,1.,6.12323399573677E-17));
#365=DIRECTION('',(6.12323399573677E-17,6.12323399573677E-17,-1.));
#366=AXIS2_PLACEMENT_3D('',#367,#368,#369);
#367=CARTESIAN_POINT('',(15.625,200.,37.5000000000001));
#368=DIRECTION('',(0.,1.,6.12323399573677E-17));
#369=DIRECTION('',(6.12323399573677E-17,6.12323399573677E-17,-1.));
#370=AXIS2_PLACEMENT_3D('',#371,#372,#373);
#371=CARTESIAN_POINT('',(15.625,200.,75.));
#372=DIRECTION('',(0.,1.,6.12323399573677E-17));
#373=DIRECTION('',(6.12323399573677E-17,6.12323399573677E-17,-1.));
ENDSEC;
END-ISO-10303-21;
